<svg viewBox="0 0 504 486" fill="none" xmlns="http://www.w3.org/2000/svg">
<path opacity="0.05" d="M130.56 15.9267C139.464 4.04373 152.828 -0.267039 165.091 0.0127023C176.904 0.282183 188.426 4.65784 197.716 10.919C207.047 17.2074 215.531 26.3426 220.08 37.7056C228.79 59.3401 237.345 71.9392 246.602 80.712C255.031 88.7002 265.046 94.4929 279.145 100.749C279.79 99.9396 280.511 99.0141 281.351 97.93C287.338 90.1986 299.711 72.8492 322.114 68.9288C346.056 64.7389 362.651 79.5872 369.69 85.2541C370.108 85.5906 370.497 85.8994 370.857 86.1839C395.897 62.3618 422.196 50.9489 446.908 53.9585C472.92 56.1181 491.109 74.0158 499.093 95.4509L499.281 95.9618L499.304 96.0252C506.691 116.558 505.591 141.473 494.377 165.077L493.638 166.632L492.616 168.029C484.856 178.628 479.823 191.145 474.739 204.779C470.195 216.965 464.793 232.866 455.93 243.996L454.998 245.166L453.885 246.178C453.519 246.51 453.298 246.755 453.172 246.908C453.151 247.733 453.376 249.613 454.761 254.456C457.47 263.929 463.452 280.456 460.343 301.878C456.998 324.925 444.836 336.601 437.886 343.756C436.213 345.478 435.249 346.52 434.556 347.395C434.344 347.663 434.196 347.868 434.097 348.015C434.149 348.388 434.288 349.039 434.639 350.055C448.97 389.619 453.658 420.383 448.8 442.815C446.659 455.362 441.478 466.474 432.392 474.491C423.044 482.738 411.468 486.026 400.098 486C378.523 485.949 355.905 474.23 337.678 458.377C327.43 449.78 318.435 441.515 310.521 434.241C302.643 427 296.085 420.978 289.987 416.028C288.665 416.724 287.067 417.701 285.062 419.04C281.561 421.378 274.548 426.525 268.96 429.852C262.98 433.412 254.167 437.836 243.763 438.042L243.548 438.046L243.333 438.046C230.466 438.022 220.379 434.349 212.365 428.838C205.133 423.866 199.885 417.421 197.255 414.465C196.786 413.938 196.379 413.496 196.031 413.128C195.549 413.372 194.98 413.679 194.318 414.066L194.216 414.126L194.113 414.185C182.03 421.054 168.736 429.109 153.942 438.615L153.707 438.766L153.467 438.911C116.418 461.217 84.7026 467.604 59.6636 460.685C34.3163 457.789 17.048 442.507 8.03838 423.146C-0.876164 403.989 -1.96575 380.807 2.75117 359.353L2.76685 359.28L2.78364 359.208C8.49921 334.207 22.535 308.903 45.5602 292.46C52.5062 287.497 60.1344 282.976 67.0818 278.858C74.2817 274.591 80.9037 270.669 87.0603 266.392C98.983 258.108 107.182 249.795 111.184 239.212C110.956 238.671 110.552 237.837 109.85 236.652C106.96 231.77 102.907 227.036 96.7465 218.802C86.3663 204.928 70.444 181.632 80.5508 153.246C86.3664 136.236 98.9474 124.123 106.764 116.208C111.152 111.765 114.1 108.682 116.167 105.804C118.092 103.127 118.362 101.804 118.409 101.253C120.142 81.1044 121.579 65.6452 122.016 56.6506C120.25 41.0353 122.427 26.7824 130.56 15.9267ZM164.187 36.8464C161.748 36.7907 161.589 37.4349 161.54 37.5005C161 38.2216 158.658 42.3022 160.133 53.6948L160.326 55.1829L160.267 56.6815C159.876 66.5094 158.248 83.9113 156.495 104.298C155.704 113.487 151.764 120.965 147.581 126.786C143.541 132.408 138.483 137.523 134.442 141.614C125.417 150.752 119.482 157.022 116.832 164.823L116.779 164.976L116.725 165.129C113.446 174.235 117.177 183.129 127.741 197.248C132.064 203.026 138.812 211.244 143.041 218.388C147.227 225.459 152.712 237.389 147.569 250.525C139.952 271.835 124.369 285.885 109.404 296.282C101.907 301.491 94.0478 306.125 87.0961 310.245C79.8934 314.514 73.7011 318.212 68.3119 322.063L68.3078 322.066C54.2909 332.076 44.3276 348.731 40.1199 367.071C36.6864 382.757 38.0548 397.639 42.9063 408.065C47.3531 417.621 54.3207 423.114 64.656 424.151L65.1509 424.197L67.2781 424.379L69.311 425.009C79.464 428.158 99.7527 427.762 133.011 407.787C148.164 398.057 161.943 389.703 174.62 382.494C184.093 376.978 195.016 373.411 206.528 376.684C216.818 379.61 223.297 387.145 226.262 390.478C230.284 394.999 232.043 397.114 234.554 398.841C236.235 399.997 238.545 401.129 243.022 401.199C243.314 401.151 245.018 400.803 248.879 398.504C253.621 395.681 256.841 393.066 263.301 388.752C268.315 385.404 276.074 380.509 285.025 378.852C289.944 377.942 295.579 377.92 301.401 379.783C306.712 381.482 311.177 384.43 314.853 388.049C321.985 393.858 329.366 400.657 336.892 407.574C344.625 414.682 352.791 422.18 361.976 429.92L363.01 430.79L363.15 430.912C377.929 443.806 391.86 449.137 400.191 449.156C403.808 449.165 405.556 448.224 406.59 447.311C407.761 446.278 410.003 443.494 411.137 436.56L411.221 436.045L411.335 435.535C414.103 423.188 412.328 400.161 398.506 362.051L398.466 361.943L398.429 361.835C395.193 352.546 394.826 343.505 398.346 334.835C401.425 327.253 406.947 321.705 409.992 318.571C416.383 311.992 420.925 307.589 422.495 296.772C424.301 284.329 421.161 275.583 417.919 264.249C416.451 259.113 414.403 251.588 415.101 243.613C415.856 235.001 419.584 227.281 426.287 220.678C430.271 215.202 433.501 206.461 438.776 192.315C443.632 179.292 449.862 163.078 460.277 148.336C467.06 133.2 466.998 118.687 463.207 108.125C458.977 96.5378 451.241 91.2295 443.424 90.6504L442.873 90.6094L442.326 90.5382C433.277 89.3576 416.585 93.1409 394.242 115.807C390.712 119.431 386.121 122.793 380.253 124.53C374.082 126.357 368.245 125.871 363.371 124.404C355.264 121.963 348.404 116.117 345.197 113.535C335.677 105.872 332.722 104.518 328.939 105.18C323.616 106.112 319.613 110.107 311.973 119.973C309.235 123.507 304.222 130.301 297.885 134.574C294.184 137.07 289.048 139.458 282.646 139.721C276.813 139.961 271.622 138.367 267.287 136.014C249.763 128.498 233.813 120.256 219.812 106.987C205.473 93.3982 194.394 75.7281 184.454 51.0373L184.444 51.0118L184.433 50.9866C183.115 47.6836 180.148 44.033 175.82 41.1161C171.438 38.1627 167.076 36.9123 164.187 36.8464Z" fill="black"/>
</svg>
