<svg xmlns="http://www.w3.org/2000/svg" width="183" height="173" viewBox="0 0 183 173" fill="none">
  <path d="M180.706 29.5882L14.272 16.9967L2.43189 127.056L24.9276 159.556L169.928 172.055L180.706 29.5882Z" fill="#B899FF"/>
  <path d="M13.4316 0.555575L179.432 12.5557L180.866 30.2875L14.432 17.6961L13.4316 0.555575Z" fill="#A081E9"/>
  <path d="M120.81 56.9348C122.259 55.8264 124.249 55.6677 126.324 56.3524C128.398 57.0367 130.531 58.5584 132.22 60.7645C133.908 62.9705 134.819 65.4267 134.938 67.607C135.057 69.7888 134.384 71.6687 132.936 72.7772C131.488 73.8856 129.497 74.0444 127.422 73.3596C125.349 72.6753 123.216 71.1541 121.527 68.9483C119.839 66.7422 118.927 64.2854 118.808 62.105C118.689 59.9233 119.362 58.0433 120.81 56.9348Z" fill="black" stroke="black" stroke-width="0.465728"/>
  <path d="M66.2613 49.5888C67.4624 50.556 67.9153 52.2871 67.6095 54.3656C67.3045 56.4382 66.2474 58.8101 64.501 60.979C62.7546 63.1477 60.6633 64.6858 58.7036 65.4259C56.738 66.1681 54.9504 66.0948 53.7492 65.1277C52.548 64.1605 52.0952 62.4296 52.401 60.3509C52.706 58.2784 53.7618 55.9065 55.5081 53.7377C57.2545 51.5688 59.3471 50.0307 61.3069 49.2907C63.2724 48.5486 65.0602 48.6217 66.2613 49.5888Z" fill="black" stroke="black" stroke-width="0.465728"/>
  <path d="M105.294 71.2664C91.3147 64.0272 78.3672 67.3602 73.6408 69.9316C67.4709 76.0749 80.983 85.6342 88.5103 89.646C99.9297 86.5358 119.273 78.5057 105.294 71.2664Z" fill="black"/>
  <path d="M39.3691 79.9538C38.9445 78.6308 37.5278 77.9026 36.2048 78.3272C34.8818 78.7518 34.1535 80.1685 34.5781 81.4915L36.9736 80.7227L39.3691 79.9538ZM36.9736 80.7227L34.5781 81.4915C37.3723 90.1976 43.3687 100.814 53.1276 104.75C63.2945 108.85 76.0953 105.232 91.2158 88.6277L89.3557 86.9337L87.4956 85.2398C72.9178 101.248 62.2486 103.003 55.0096 100.083C47.3626 96.9994 42.0171 88.2043 39.3691 79.9538L36.9736 80.7227Z" fill="black"/>
  <path d="M143.308 87.7379C144.166 86.6448 145.747 86.454 146.84 87.3118C147.933 88.1695 148.124 89.751 147.266 90.8441L145.287 89.291L143.308 87.7379ZM145.287 89.291L147.266 90.8441C139.368 100.909 127.051 107.441 115.298 107.854C109.388 108.062 103.558 106.721 98.5451 103.42C93.518 100.11 89.4728 94.9351 86.9796 87.758L89.3561 86.9324L91.7326 86.1069C93.9065 92.3646 97.3155 96.5859 101.312 99.2173C105.323 101.858 110.086 103.003 115.121 102.825C125.259 102.469 136.24 96.7445 143.308 87.7379L145.287 89.291Z" fill="black"/>
  <path d="M67.9395 103.61C67.9395 103.61 69.8466 134.459 83.9399 136.298C98.7962 138.238 106.454 105.234 106.454 105.234" stroke="black" stroke-width="5.03169"/>
  <path d="M85.2267 115.649C85.6958 104.526 74.8206 104.76 68.9288 103.819L88.712 90.1845L104.132 107.05C90.061 103.546 86.8428 106.903 85.2267 115.649Z" fill="black"/>
  <path d="M24.9321 159.556L2.43213 127.056L28.9321 126.556L24.9321 159.556Z" fill="#D1BDFF"/>
</svg>
