<svg width="540" height="539" viewBox="0 0 540 539" fill="none" xmlns="http://www.w3.org/2000/svg">
<g clip-path="url(#clip0_542_1087)">
<path d="M377.507 351.37C418.734 391.808 469.315 495.616 489.452 542.466L163.973 548.383V462.329C160.849 463.726 153.863 466.964 150.904 468.74C147.945 470.515 149.671 451.89 150.904 442.356L158.548 405.616C151.89 408.411 137.737 414.246 134.384 415.233C131.03 416.219 132.986 403.808 134.384 397.479L158.548 355.562L142.767 351.37L163.973 311.918L158.548 297.863L142.767 294.904L150.904 271.233L121.562 274.685L138.575 228.822L117.863 222.904C128.137 209.918 149.129 182.91 150.904 178.767C152.68 174.625 143.425 169.151 138.575 166.931C144.082 161.589 155.786 150.312 158.548 147.945C161.31 145.578 149.178 136.438 142.767 132.164L158.548 124.274V104.301V71.9999L166.932 39.452L180.986 33.041L203.425 52.5205L241.644 99.6164C243.041 93.6986 244.11 81.9122 245.096 77.178C246.082 72.4438 261.617 87.7807 268.274 96.6575L303.041 93.6986C305.425 96.2465 312.115 104.301 314.877 104.301C318.329 104.301 327.945 90.2465 328.932 85.5616C329.721 81.8136 352.932 58.0273 360.493 48.5753C370.932 44.2191 384.855 36.9862 388.603 36.9862C392.351 36.9862 396.082 67.7259 397.48 81.8629V150.904L414 157.315L394.027 178.767L409.315 198L394.027 203.918L419.178 263.096H394.027V303.288L377.507 324.246L388.603 346.192L377.507 351.37Z" fill="#FBEEDA"/>
<path d="M225.616 229.808C225.405 230.478 225.316 231.424 225.363 232.53C222.425 254.609 199.657 253.817 185.425 247.808C181.479 245.589 193.973 257.342 199.973 261.616C200.301 269.425 202.882 287.753 210.575 298.603C220.192 312.164 234.335 314.016 240.904 312.904C256.931 310.192 269.014 299.631 276.904 292.192C290.654 279.228 298.047 261.765 305.169 240.437C305.229 240.334 305.26 240.243 305.26 240.164C305.23 240.255 305.2 240.346 305.169 240.437C303.913 242.581 289.847 249.737 276.904 253.972C263.342 258.411 239.178 250.027 232.027 245.589C227.534 242.8 225.536 236.583 225.363 232.53C225.479 231.659 225.564 230.752 225.616 229.808Z" fill="#2F2F2F" stroke="#2F2F2F" stroke-width="9.86301" stroke-linecap="round"/>
<path d="M200.219 497.342C205.726 511.561 217.972 540.986 222.904 544.931C227.836 548.877 226.931 535.726 225.863 528.657L239.425 550.849" stroke="#2F2F2F" stroke-width="9.86301" stroke-linecap="round" stroke-linejoin="round"/>
<path d="M376.274 323.507C378.493 331.644 386.285 340.126 389.836 344.466C393.386 348.806 382.027 349.233 374.795 347.425C404.795 378.822 469.529 465.534 486.493 538.521M340.027 307.48C347.671 311.096 363.255 317.589 364.438 314.63C365.918 310.932 364.932 290.959 362.712 287.754C370.192 294.329 386.433 307.48 391.562 307.48C394.438 300 398.91 279.912 393.781 259.397C400.767 261.863 415.923 266.252 420.658 264.082C417.781 252.74 407.934 224.877 391.562 204.165C397.808 204.082 410.499 202.734 411.288 198C406.767 193.562 396.937 183.502 393.781 178.767C401.918 173.014 417.847 160.471 416.466 156.329C412.027 154.849 401.819 151.644 396.493 150.658C401.096 123.041 406.159 61.8412 389.589 37.9727C383.671 32.3837 360.838 37.4303 316.849 102.329" stroke="#2F2F2F" stroke-width="9.86301" stroke-linecap="round" stroke-linejoin="round"/>
<path d="M306.74 92.7124C300.74 93.5343 287.507 95.8193 282.575 98.3836" stroke="#2F2F2F" stroke-width="9.86301" stroke-linecap="round" stroke-linejoin="round"/>
<path d="M269.26 99.1231C263.671 92.4656 251.458 78.7067 247.315 76.9313C243.173 75.156 240.658 90.9861 239.918 99.1231C224.137 77.0135 188.975 32.0053 174.575 28.8492C167.507 28.6848 154.553 47.9341 159.288 126.246L139.808 132.411L157.068 149.671L139.808 168.411" stroke="#2F2F2F" stroke-width="9.86301" stroke-linecap="round" stroke-linejoin="round"/>
<path d="M155.096 173.096L115.397 223.397C122.055 225.863 136.406 230.055 140.548 227.096C133.151 240.246 119.096 268.471 122.055 276.164C127.233 276.657 139.611 276.312 147.699 270.986C145.233 279.287 141.781 296.531 147.699 299.096C152.055 299.424 162.986 298.504 171.863 292.192" stroke="#2F2F2F" stroke-width="9.86301" stroke-linecap="round" stroke-linejoin="round"/>
<path d="M167.425 310.438C163.479 320.219 152.383 341.704 139.562 349.397C144.411 351.863 155.441 356.055 160.767 353.096C150.246 368.877 130.241 403.545 134.383 415.973C142.438 413.836 158.992 408.23 160.767 402.904C154.603 414.904 143.901 445.019 150.411 469.48C156.082 466.11 167.425 458.482 167.425 454.932C166.356 478.438 163.529 528.362 160.767 540" stroke="#2F2F2F" stroke-width="9.86301" stroke-linecap="round" stroke-linejoin="round"/>
<path d="M358.521 466.767C360.493 479.918 364.29 507.699 363.699 513.616C363.107 519.534 354.575 510.658 350.384 505.479L345.945 548.63" stroke="#2F2F2F" stroke-width="9.86301" stroke-linecap="round" stroke-linejoin="round"/>
<path d="M270.74 495.863C271.233 510.987 271.331 542.713 267.781 548.63" stroke="#2F2F2F" stroke-width="9.86301" stroke-linecap="round" stroke-linejoin="round"/>
<path d="M282.082 404.384C285.37 416.137 292.636 440.433 295.397 443.589C298.159 446.745 276.329 439.644 265.068 435.699C264.904 444.904 262.997 465.584 256.685 474.658" stroke="#E7D4B1" stroke-width="7.39726" stroke-linecap="round" stroke-linejoin="round"/>
<path d="M242.877 458.384C242.63 460.603 239.671 480.822 231.288 485.507C222.904 490.192 209.342 448.028 211.562 440.63C209.178 444.904 203.03 453.945 197.507 455.918" stroke="#E7D4B1" stroke-width="7.39726" stroke-linecap="round" stroke-linejoin="round"/>
<path d="M196.027 402.411C191.342 409.973 182.762 427.907 185.918 439.151" stroke="#E7D4B1" stroke-width="7.39726" stroke-linecap="round" stroke-linejoin="round"/>
<path d="M419.178 468.739C413.507 469.972 393.781 462.822 376.274 489.698" stroke="#E7D4B1" stroke-width="7.39726" stroke-linecap="round" stroke-linejoin="round"/>
<path d="M282.329 316.603C269.754 333.534 236.663 357.583 204.904 318.329" stroke="#E7D4B1" stroke-width="7.39726" stroke-linecap="round" stroke-linejoin="round"/>
<path d="M372.575 144H367.89L355.069 132.657C358.603 129.699 364.29 121.216 362.712 116.877C361.134 112.537 350.548 116.548 344.959 118.356L341.014 115.89C351.123 102.493 373.512 70.915 378.247 73.4794C382.981 76.0438 376.521 123.37 372.575 144Z" fill="#F0BA91"/>
<path d="M185.918 66.3287C191.342 68.3013 205.644 98.1369 205.644 99.3698C205.151 99.9452 202.931 100.356 198 97.3973C193.068 94.4384 189.863 96.1644 188.877 97.3973C188.219 98.959 187.327 103.966 191.836 108.74C196.027 113.178 193.666 115.285 193.068 115.644C191.836 116.384 187.397 120.658 184.438 122.548C183.123 123.616 180.099 124.816 178.521 121.069C176.942 117.321 179.178 85.4794 180.493 70.0273C180.493 68.1369 181.578 64.7506 185.918 66.3287Z" fill="#F0BA91"/>
<path d="M320.055 156.329C316.767 148.438 306.542 134.482 291.945 141.781" stroke="#E7D4B1" stroke-width="7.39726" stroke-linecap="round"/>
<path d="M223.89 138.25C217.233 133.565 201.501 128.387 191.836 145.154" stroke="#E7D4B1" stroke-width="7.39726" stroke-linecap="round"/>
<path d="M251.859 217.004C247.315 225.616 233.768 230.002 224.63 233.753C216.954 228.263 207.673 221.853 204.658 217.004C201.642 212.154 203.502 203.608 208.546 200.534C214.851 196.691 234.589 196.965 244.458 200.534C254.327 204.102 255.681 209.762 251.859 217.004Z" fill="#2F2F2F"/>
<path d="M271.479 270.493C267.781 270.493 250.027 271.726 248.301 271.726C246.658 274.027 242.729 279.222 240.164 281.589C236.959 284.548 234.247 283.808 231.288 282.575C228.921 281.589 227.096 271.726 224.63 271.726C222.164 271.726 211.808 269.507 211.808 273.452C211.808 277.397 215.507 288.247 218.959 292.685C222.411 297.123 227.49 304.619 246.822 302.055C266.153 299.49 273.123 283.233 274.192 275.425C274.521 273.781 274.438 270.493 271.479 270.493Z" fill="#F0BA91"/>
<path d="M178.767 207.124C173.178 212.959 163.282 227.737 168.411 240.165" stroke="#2F2F2F" stroke-width="9.86301" stroke-linecap="round"/>
<ellipse cx="9.36986" cy="14.5479" rx="9.36986" ry="14.5479" transform="matrix(-1 0 0 1 217.479 162.74)" fill="#2F2F2F"/>
<ellipse cx="9.36986" cy="14.5479" rx="9.36986" ry="14.5479" transform="matrix(-1 0 0 1 303.288 168.658)" fill="#2F2F2F"/>
<ellipse cx="8.79162" cy="13.6501" rx="8.79162" ry="13.6501" transform="matrix(-0.866025 0.5 0.5 0.866025 308.87 223.148)" fill="#2F2F2F"/>
</g>
<defs>
<clipPath id="clip0_542_1087">
<rect width="540" height="539" fill="white" transform="matrix(-1 0 0 1 540 0)"/>
</clipPath>
</defs>
</svg>
