<svg width="391" height="104" viewBox="0 0 391 104" fill="none" xmlns="http://www.w3.org/2000/svg">
<path d="M0 10.9257C0 4.89161 4.8916 0 10.9257 0L379.815 0C385.85 0 390.741 4.8916 390.741 10.9257V92.8683C390.741 98.9024 385.85 103.794 379.815 103.794L10.9257 103.794C4.89159 103.794 0 98.9025 0 92.8684L0 10.9257Z" fill="white"/>
<path d="M28.5858 29.0055C28.8481 29.0044 29.0995 28.9003 29.2858 28.7155L29.9958 28.0055C30.1005 27.9159 30.1855 27.8056 30.2455 27.6815C30.3055 27.5574 30.3393 27.4223 30.3446 27.2846C30.3499 27.1469 30.3267 27.0095 30.2764 26.8812C30.2261 26.7529 30.1499 26.6363 30.0524 26.5389C29.955 26.4414 29.8384 26.3652 29.7101 26.3149C29.5818 26.2646 29.4444 26.2414 29.3067 26.2467C29.169 26.252 29.0339 26.2858 28.9098 26.3458C28.7857 26.4058 28.6754 26.4908 28.5858 26.5955L27.9258 27.3055C27.7395 27.4929 27.635 27.7463 27.635 28.0105C27.635 28.2747 27.7395 28.5282 27.9258 28.7155C28.1021 28.8909 28.3374 28.9943 28.5858 29.0055ZM22.9258 26.6655C23.191 26.6655 23.4454 26.5602 23.6329 26.3726C23.8204 26.1851 23.9258 25.9307 23.9258 25.6655V24.6655C23.9258 24.4003 23.8204 24.146 23.6329 23.9584C23.4454 23.7709 23.191 23.6655 22.9258 23.6655C22.6606 23.6655 22.4062 23.7709 22.2187 23.9584C22.0311 24.146 21.9258 24.4003 21.9258 24.6655V25.6655C21.9258 25.9307 22.0311 26.1851 22.2187 26.3726C22.4062 26.5602 22.6606 26.6655 22.9258 26.6655ZM14.9258 32.6655H13.9258C13.6606 32.6655 13.4062 32.7709 13.2187 32.9584C13.0311 33.146 12.9258 33.4003 12.9258 33.6655C12.9258 33.9307 13.0311 34.1851 13.2187 34.3726C13.4062 34.5602 13.6606 34.6655 13.9258 34.6655H14.9258C15.191 34.6655 15.4454 34.5602 15.6329 34.3726C15.8204 34.1851 15.9258 33.9307 15.9258 33.6655C15.9258 33.4003 15.8204 33.146 15.6329 32.9584C15.4454 32.7709 15.191 32.6655 14.9258 32.6655ZM16.5658 28.7155C16.752 28.9003 17.0034 29.0044 17.2658 29.0055C17.3974 29.0063 17.5279 28.9811 17.6497 28.9313C17.7715 28.8815 17.8823 28.8082 17.9758 28.7155C18.162 28.5282 18.2666 28.2747 18.2666 28.0105C18.2666 27.7463 18.162 27.4929 17.9758 27.3055L17.2658 26.5955C17.0745 26.4317 16.8284 26.3461 16.5767 26.3558C16.3251 26.3655 16.0863 26.4699 15.9082 26.648C15.7301 26.8261 15.6258 27.0648 15.6161 27.3165C15.6063 27.5682 15.692 27.8142 15.8558 28.0055L16.5658 28.7155ZM31.9258 32.6655H30.9258C30.6606 32.6655 30.4062 32.7709 30.2187 32.9584C30.0311 33.146 29.9258 33.4003 29.9258 33.6655C29.9258 33.9307 30.0311 34.1851 30.2187 34.3726C30.4062 34.5602 30.6606 34.6655 30.9258 34.6655H31.9258C32.191 34.6655 32.4454 34.5602 32.6329 34.3726C32.8204 34.1851 32.9258 33.9307 32.9258 33.6655C32.9258 33.4003 32.8204 33.146 32.6329 32.9584C32.4454 32.7709 32.191 32.6655 31.9258 32.6655ZM21.9258 39.6655H18.9258C18.6606 39.6655 18.4062 39.7709 18.2187 39.9584C18.0311 40.146 17.9258 40.4003 17.9258 40.6655C17.9258 40.9307 18.0311 41.1851 18.2187 41.3726C18.4062 41.5602 18.6606 41.6655 18.9258 41.6655H21.9258C22.191 41.6655 22.4454 41.5602 22.6329 41.3726C22.8204 41.1851 22.9258 40.9307 22.9258 40.6655C22.9258 40.4003 22.8204 40.146 22.6329 39.9584C22.4454 39.7709 22.191 39.6655 21.9258 39.6655ZM28.9258 35.6655H28.0458C28.2983 35.0291 28.4273 34.3503 28.4258 33.6655C28.4258 32.2068 27.8463 30.8079 26.8149 29.7764C25.7834 28.745 24.3845 28.1655 22.9258 28.1655C21.4671 28.1655 20.0681 28.745 19.0367 29.7764C18.0052 30.8079 17.4258 32.2068 17.4258 33.6655C17.4243 34.3503 17.5532 35.0291 17.8058 35.6655H16.9258C16.6606 35.6655 16.4062 35.7709 16.2187 35.9584C16.0311 36.146 15.9258 36.4003 15.9258 36.6655C15.9258 36.9307 16.0311 37.1851 16.2187 37.3726C16.4062 37.5602 16.6606 37.6655 16.9258 37.6655H28.9258C29.191 37.6655 29.4454 37.5602 29.6329 37.3726C29.8204 37.1851 29.9258 36.9307 29.9258 36.6655C29.9258 36.4003 29.8204 36.146 29.6329 35.9584C29.4454 35.7709 29.191 35.6655 28.9258 35.6655ZM25.7758 35.6655H20.0758C19.6557 35.0831 19.4284 34.3837 19.4258 33.6655C19.4258 32.7373 19.7945 31.847 20.4509 31.1907C21.1073 30.5343 21.9975 30.1655 22.9258 30.1655C23.854 30.1655 24.7443 30.5343 25.4007 31.1907C26.057 31.847 26.4258 32.7373 26.4258 33.6655C26.4232 34.3837 26.1959 35.0831 25.7758 35.6655ZM26.9258 39.6655H25.9258C25.6606 39.6655 25.4062 39.7709 25.2187 39.9584C25.0311 40.146 24.9258 40.4003 24.9258 40.6655C24.9258 40.9307 25.0311 41.1851 25.2187 41.3726C25.4062 41.5602 25.6606 41.6655 25.9258 41.6655H26.9258C27.191 41.6655 27.4454 41.5602 27.6329 41.3726C27.8204 41.1851 27.9258 40.9307 27.9258 40.6655C27.9258 40.4003 27.8204 40.146 27.6329 39.9584C27.4454 39.7709 27.191 39.6655 26.9258 39.6655Z" fill="#FFBE70"/>
<path d="M43.2455 28.6227V32.7759H45.7582C46.4517 32.7759 46.9878 32.5945 47.3666 32.2317C47.7454 31.869 47.9348 31.3568 47.9348 30.6953C47.9348 30.0498 47.7374 29.543 47.3426 29.1749C46.9478 28.8068 46.4037 28.6227 45.7101 28.6227H43.2455ZM43.2455 34.2243V38.6655H41.453L41.453 27.1183H45.9262C47.1105 27.1183 48.0495 27.4384 48.743 28.0786C49.4365 28.7134 49.7833 29.5697 49.7833 30.6473C49.7833 31.4315 49.5832 32.1197 49.1831 32.7119C48.7883 33.2987 48.2415 33.7095 47.5427 33.9442L50.1274 38.6655H48.0628L45.7101 34.2243H43.2455ZM57.8015 37.6572C57.076 38.4361 56.1077 38.8256 54.8967 38.8256C53.6857 38.8256 52.7174 38.4361 51.9919 37.6572C51.2663 36.873 50.9036 35.8061 50.9036 34.4564C50.9036 33.112 51.2663 32.0504 51.9919 31.2715C52.7174 30.4873 53.6857 30.0952 54.8967 30.0952C56.1077 30.0952 57.076 30.4873 57.8015 31.2715C58.527 32.0504 58.8898 33.112 58.8898 34.4564C58.8898 35.8061 58.527 36.873 57.8015 37.6572ZM54.8967 37.4012C55.5849 37.4012 56.129 37.1424 56.5291 36.625C56.9292 36.1075 57.1293 35.3846 57.1293 34.4564C57.1293 33.5334 56.9266 32.8132 56.5211 32.2958C56.121 31.7783 55.5795 31.5196 54.8967 31.5196C54.2138 31.5196 53.6697 31.7783 53.2642 32.2958C52.8641 32.8132 52.6641 33.5334 52.6641 34.4564C52.6641 35.3846 52.8641 36.1075 53.2642 36.625C53.6697 37.1424 54.2138 37.4012 54.8967 37.4012ZM67.4442 30.2472V38.6655H65.7877V37.2411H65.7477C65.2622 38.2921 64.3926 38.8176 63.139 38.8176C62.2214 38.8176 61.4985 38.5402 60.9704 37.9853C60.4476 37.4252 60.1861 36.6623 60.1861 35.6967V30.2472H61.9146V35.3606C61.9146 36.0061 62.0667 36.4969 62.3708 36.833C62.6748 37.1638 63.123 37.3292 63.7151 37.3292C64.334 37.3292 64.8221 37.1318 65.1795 36.737C65.537 36.3422 65.7157 35.8141 65.7157 35.1526V30.2472H67.4442ZM69.6608 28.2546H71.3973V30.2472H72.9977V31.6156H71.3973V36.2569C71.3973 36.6196 71.4799 36.8864 71.6453 37.0571C71.8107 37.2278 72.0694 37.3132 72.4215 37.3132C72.6776 37.3132 72.867 37.2998 72.9897 37.2731V38.6415C72.7763 38.6949 72.4562 38.7215 72.0294 38.7215C71.1812 38.7215 70.573 38.5482 70.2049 38.2014C69.8422 37.8493 69.6608 37.2651 69.6608 36.4489V31.6156H68.4364V30.2472H69.6608V28.2546ZM74.4781 38.6655V30.2472H76.2066V38.6655H74.4781ZM76.0545 28.7268C75.8572 28.9188 75.6198 29.0149 75.3423 29.0149C75.0649 29.0149 74.8275 28.9188 74.6301 28.7268C74.4381 28.5347 74.3421 28.3027 74.3421 28.0306C74.3421 27.7532 74.4381 27.5184 74.6301 27.3264C74.8275 27.1343 75.0649 27.0383 75.3423 27.0383C75.6251 27.0383 75.8625 27.1343 76.0545 27.3264C76.2519 27.5184 76.3506 27.7532 76.3506 28.0306C76.3506 28.3027 76.2519 28.5347 76.0545 28.7268ZM77.9751 38.6655V30.2472H79.6235V31.6556H79.6635C79.8983 31.1648 80.2397 30.7833 80.6878 30.5113C81.1359 30.2392 81.6774 30.1032 82.3123 30.1032C83.2352 30.1032 83.9527 30.3806 84.4649 30.9354C84.977 31.4849 85.2331 32.2451 85.2331 33.216V38.6655H83.4966V33.5521C83.4966 32.9119 83.3446 32.4265 83.0405 32.0957C82.7417 31.7596 82.2963 31.5916 81.7041 31.5916C81.0959 31.5916 80.6105 31.789 80.2477 32.1837C79.8849 32.5785 79.7036 33.104 79.7036 33.7602V38.6655H77.9751ZM91.8909 32.0957C91.5121 31.6903 91.024 31.4875 90.4265 31.4875C89.829 31.4875 89.3329 31.6929 88.9381 32.1037C88.5433 32.5092 88.3246 33.0346 88.2819 33.6801H92.4911C92.4697 33.0293 92.2697 32.5012 91.8909 32.0957ZM92.4831 36.1928L94.1235 36.1928C94.0008 36.9664 93.6061 37.5986 92.9392 38.0894C92.2724 38.5802 91.4588 38.8256 90.4985 38.8256C89.2662 38.8256 88.2953 38.4388 87.5857 37.6653C86.8815 36.8864 86.5294 35.8301 86.5294 34.4964C86.5294 33.1733 86.8815 32.109 87.5857 31.3035C88.2953 30.4979 89.2422 30.0952 90.4265 30.0952C91.5895 30.0952 92.5124 30.4766 93.1953 31.2395C93.8781 31.997 94.2196 33.016 94.2196 34.2963V34.8885L88.2739 34.8885V34.9925C88.2739 35.7287 88.4793 36.3182 88.8901 36.761C89.3009 37.2038 89.8504 37.4252 90.5385 37.4252C91.024 37.4252 91.4401 37.3132 91.7869 37.0891C92.1337 36.865 92.3657 36.5663 92.4831 36.1928Z" fill="#FFBE70"/>
<path d="M12.5222 74.0542L12.5222 56.7334H23.3372V59.05H15.211L15.211 64.5356H22.653V66.8042H15.211L15.211 74.0542H12.5222ZM27.8389 74.2823C25.3182 74.2823 23.6258 72.7338 23.6258 70.4652V70.4412C23.6258 68.2446 25.3302 66.9002 28.3191 66.7202L31.752 66.5161V65.5679C31.752 64.1755 30.8518 63.3352 29.2433 63.3352C27.7429 63.3352 26.8187 64.0434 26.6026 65.0517L26.5786 65.1597H24.1299L24.1419 65.0277C24.322 62.8551 26.2065 61.1866 29.3153 61.1866C32.4002 61.1866 34.3567 62.8191 34.3567 65.3518L34.3567 74.0542H31.752L31.752 72.0616H31.704C30.9718 73.418 29.5074 74.2823 27.8389 74.2823ZM26.2425 70.4052C26.2425 71.5095 27.1548 72.2057 28.5471 72.2057C30.3716 72.2057 31.752 70.9693 31.752 69.3249V68.3406L28.6672 68.5327C27.1067 68.6287 26.2425 69.3129 26.2425 70.3812V70.4052ZM36.3858 74.0542L36.3858 61.4267H38.9785V63.3832H39.0385C39.5787 62.0629 40.863 61.1866 42.5195 61.1866C44.26 61.1866 45.5323 62.0869 46.0365 63.6713H46.0965C46.7447 62.1349 48.2331 61.1866 50.0336 61.1866C52.5303 61.1866 54.1627 62.8431 54.1627 65.3758V74.0542H51.558V66C51.558 64.3555 50.6817 63.4073 49.1453 63.4073C47.6089 63.4073 46.5406 64.5596 46.5406 66.156V74.0542H43.9959V65.8079C43.9959 64.3435 43.0716 63.4073 41.6072 63.4073C40.0708 63.4073 38.9785 64.6196 38.9785 66.252L38.9785 74.0542H36.3858ZM57.5841 59.4822C56.7439 59.4822 56.0717 58.81 56.0717 57.9938C56.0717 57.1655 56.7439 56.4933 57.5841 56.4933C58.4364 56.4933 59.0965 57.1655 59.0965 57.9938C59.0965 58.81 58.4364 59.4822 57.5841 59.4822ZM56.2878 74.0542L56.2878 61.4267H58.8805L58.8805 74.0542L56.2878 74.0542ZM61.1616 74.0542L61.1616 56.7334H63.7543L63.7543 74.0542H61.1616ZM67.4158 78.2674C66.9117 78.2674 66.3715 78.2073 66.0594 78.1473V76.1188C66.2635 76.1668 66.5636 76.2148 66.9117 76.2148C68.136 76.2148 68.8082 75.8907 69.2403 74.6664L69.4564 74.0662L64.8591 61.4267H67.6679L70.8488 71.7015H70.9328L74.1137 61.4267H76.8504L72.1451 74.6424C71.2089 77.2591 69.8885 78.2674 67.4158 78.2674ZM87.0902 74.3063C83.8733 74.3063 81.8088 71.7616 81.8088 67.7405V67.7284C81.8088 63.7073 83.8973 61.1866 87.0662 61.1866C88.8547 61.1866 90.2951 62.0869 91.0513 63.5753H91.0993V56.7334H93.704V74.0542H91.0993V71.9176H91.0513C90.2951 73.394 88.9027 74.3063 87.0902 74.3063ZM87.7744 72.0737C89.7309 72.0737 91.1113 70.3692 91.1113 67.7405V67.7284C91.1113 65.1117 89.7189 63.4073 87.7744 63.4073C85.7338 63.4073 84.4615 65.0637 84.4615 67.7284V67.7405C84.4615 70.4292 85.7218 72.0737 87.7744 72.0737ZM97.2815 59.4822C96.4413 59.4822 95.7691 58.81 95.7691 57.9938C95.7691 57.1655 96.4413 56.4933 97.2815 56.4933C98.1338 56.4933 98.7939 57.1655 98.7939 57.9938C98.7939 58.81 98.1338 59.4822 97.2815 59.4822ZM95.9852 74.0542V61.4267H98.5779V74.0542H95.9852ZM100.763 74.0542V61.4267H103.356V63.3352H103.416C104.076 62.0509 105.372 61.1866 107.281 61.1866C110.054 61.1866 111.65 62.9751 111.65 65.8799V74.0542H109.045V66.3721C109.045 64.4755 108.157 63.4073 106.357 63.4073C104.532 63.4073 103.356 64.7276 103.356 66.6962V74.0542H100.763ZM113.667 74.0542V61.4267H116.26V63.3352H116.32C116.98 62.0509 118.276 61.1866 120.185 61.1866C122.958 61.1866 124.554 62.9751 124.554 65.8799V74.0542H121.949V66.3721C121.949 64.4755 121.061 63.4073 119.261 63.4073C117.436 63.4073 116.26 64.7276 116.26 66.6962V74.0542L113.667 74.0542ZM131.961 74.3063C128.252 74.3063 126.007 71.7736 126.007 67.7885V67.7765C126.007 63.8274 128.288 61.1866 131.829 61.1866C135.369 61.1866 137.542 63.7313 137.542 67.5244V68.4006H128.6C128.648 70.7893 129.956 72.1817 132.021 72.1817C133.557 72.1817 134.577 71.3895 134.901 70.4412L134.937 70.3452H137.398L137.374 70.4772C136.966 72.4818 135.021 74.3063 131.961 74.3063ZM131.841 63.3112C130.16 63.3112 128.864 64.4515 128.636 66.5641H134.973C134.757 64.3795 133.533 63.3112 131.841 63.3112ZM139.067 74.0542V61.4267L141.66 61.4267V63.5873H141.72C142.128 62.1109 143.184 61.1866 144.625 61.1866C144.997 61.1866 145.321 61.2467 145.525 61.2827V63.6953C145.321 63.6113 144.865 63.5513 144.36 63.5513C142.692 63.5513 141.66 64.6436 141.66 66.5281V74.0542H139.067Z" fill="black"/>
<rect x="316.89" y="21.8516" width="62.9257" height="27.4628" rx="13.7314" fill="#F4F4F4"/>
<path d="M325.691 41.583H323.947V30.0358H325.571L331.557 38.5502H331.621V30.0358H333.365V41.583H331.749L325.763 33.0767H325.691V41.583ZM338.911 41.7431C336.502 41.7431 334.918 40.0866 334.918 37.3738C334.918 34.6691 336.51 33.0126 338.911 33.0126C341.311 33.0126 342.904 34.6691 342.904 37.3738C342.904 40.0866 341.319 41.7431 338.911 41.7431ZM338.911 40.3187C340.271 40.3187 341.143 39.2464 341.143 37.3738C341.143 35.5093 340.263 34.437 338.911 34.437C337.558 34.437 336.678 35.5093 336.678 37.3738C336.678 39.2464 337.558 40.3187 338.911 40.3187ZM344.24 41.583V33.1647L345.889 33.1647V34.5971H345.929C346.209 33.6128 346.961 33.0286 347.953 33.0286C348.201 33.0286 348.417 33.0687 348.545 33.0927V34.7011C348.409 34.6451 348.105 34.6051 347.769 34.6051C346.657 34.6051 345.969 35.3493 345.969 36.5416V41.583H344.24ZM349.618 41.583V33.1647H351.266V34.5811H351.306C351.682 33.6448 352.563 33.0206 353.699 33.0206C354.867 33.0206 355.715 33.6208 356.051 34.6691H356.091C356.524 33.6448 357.516 33.0206 358.716 33.0206C360.381 33.0206 361.469 34.1249 361.469 35.7974V41.583H359.732V36.2135C359.732 35.1252 359.148 34.501 358.124 34.501C357.1 34.501 356.388 35.2613 356.388 36.3256V41.583H354.691V36.0855C354.691 35.1172 354.075 34.501 353.099 34.501C352.074 34.501 351.346 35.3013 351.346 36.3816V41.583L349.618 41.583ZM366.086 40.3587C367.295 40.3587 368.239 39.5264 368.239 38.4301V37.766L366.166 37.894C365.134 37.966 364.55 38.4221 364.55 39.1423C364.55 39.8785 365.158 40.3587 366.086 40.3587ZM365.606 41.727C363.958 41.727 362.805 40.7028 362.805 39.1903C362.805 37.7179 363.934 36.8137 365.934 36.7017L368.239 36.5656V35.9174C368.239 34.9812 367.607 34.421 366.55 34.421C365.55 34.421 364.926 34.9012 364.774 35.6534H363.141C363.237 34.1329 364.534 33.0126 366.614 33.0126C368.655 33.0126 369.959 34.0929 369.959 35.7814V41.583L368.303 41.583V40.1986H368.263C367.775 41.1349 366.71 41.727 365.606 41.727ZM371.704 41.583V30.0358H373.432V41.583H371.704Z" fill="#A4A4A4"/>
<path opacity="0.4" d="M325.637 79.7773V64.7492H325.589L321.004 68.0501V65.7695L325.613 62.4566H327.726V79.7773H325.637ZM337.137 80.0654C335.664 80.0654 334.404 79.6573 333.356 78.8411C332.307 78.0249 331.651 76.9366 331.387 75.5762H333.584C333.816 76.3604 334.256 76.9926 334.904 77.4727C335.552 77.9448 336.304 78.1809 337.161 78.1809C338.601 78.1809 339.717 77.5567 340.51 76.3084C341.31 75.052 341.726 73.2715 341.758 70.9669H341.746H341.722C341.354 71.8231 340.73 72.5113 339.849 73.0315C338.977 73.5436 337.989 73.7997 336.885 73.7997C335.236 73.7997 333.864 73.2555 332.767 72.1672C331.679 71.0789 331.135 69.7146 331.135 68.0741C331.135 66.3616 331.711 64.9492 332.864 63.8369C334.024 62.7166 335.492 62.1565 337.269 62.1565C338.573 62.1565 339.721 62.4966 340.714 63.1768C341.706 63.8489 342.466 64.8052 342.994 66.0455C343.562 67.3579 343.847 68.9503 343.847 70.8229C343.847 73.7437 343.258 76.0163 342.082 77.6408C340.906 79.2572 339.257 80.0654 337.137 80.0654ZM337.257 71.9032C338.401 71.9032 339.353 71.5391 340.114 70.8109C340.874 70.0827 341.254 69.1664 341.254 68.0621C341.254 66.9498 340.87 66.0135 340.102 65.2533C339.341 64.4851 338.405 64.101 337.293 64.101C336.18 64.101 335.24 64.4811 334.472 65.2413C333.704 65.9935 333.32 66.9138 333.32 68.0021C333.32 69.1304 333.692 70.0627 334.436 70.7989C335.18 71.5351 336.12 71.9032 337.257 71.9032ZM348.54 76.5004C348.276 76.7645 347.952 76.8965 347.568 76.8965C347.184 76.8965 346.86 76.7645 346.596 76.5004C346.332 76.2364 346.2 75.9123 346.2 75.5282C346.2 75.1441 346.332 74.82 346.596 74.5559C346.86 74.2918 347.184 74.1598 347.568 74.1598C347.952 74.1598 348.276 74.2918 348.54 74.5559C348.804 74.82 348.936 75.1441 348.936 75.5282C348.936 75.9123 348.804 76.2364 348.54 76.5004ZM348.54 67.666C348.276 67.9301 347.952 68.0621 347.568 68.0621C347.184 68.0621 346.86 67.9301 346.596 67.666C346.332 67.4019 346.2 67.0778 346.2 66.6937C346.2 66.3096 346.332 65.9855 346.596 65.7215C346.86 65.4574 347.184 65.3253 347.568 65.3253C347.952 65.3253 348.276 65.4574 348.54 65.7215C348.804 65.9855 348.936 66.3096 348.936 66.6937C348.936 67.0778 348.804 67.4019 348.54 67.666ZM355.131 71.7831V69.9586H357.207C358.199 69.9586 359.012 69.6745 359.644 69.1064C360.276 68.5302 360.592 67.802 360.592 66.9218C360.592 66.0415 360.3 65.3413 359.716 64.8212C359.132 64.3011 358.304 64.041 357.231 64.041C356.239 64.041 355.431 64.3051 354.807 64.8332C354.182 65.3614 353.822 66.0816 353.726 66.9938H351.65C351.77 65.5214 352.338 64.3491 353.354 63.4768C354.378 62.6046 355.703 62.1685 357.327 62.1685C358.888 62.1685 360.184 62.5886 361.216 63.4288C362.249 64.2691 362.765 65.3373 362.765 66.6337C362.765 67.714 362.445 68.6223 361.804 69.3585C361.164 70.0947 360.3 70.5588 359.212 70.7508V70.7989C360.524 70.8789 361.568 71.299 362.345 72.0592C363.121 72.8114 363.509 73.7957 363.509 75.012C363.509 75.9803 363.237 76.8525 362.693 77.6287C362.149 78.405 361.412 79.0051 360.484 79.4292C359.556 79.8534 358.528 80.0654 357.399 80.0654C355.607 80.0654 354.162 79.6173 353.066 78.7211C351.97 77.8248 351.382 76.6485 351.302 75.1921H353.378C353.474 76.0963 353.878 76.8245 354.59 77.3767C355.303 77.9208 356.231 78.1929 357.375 78.1929C358.52 78.1929 359.46 77.9008 360.196 77.3167C360.94 76.7325 361.312 75.9883 361.312 75.084C361.312 74.0678 360.952 73.2635 360.232 72.6714C359.52 72.0792 358.544 71.7831 357.303 71.7831H355.131ZM371.72 80.0654C369.711 80.0654 368.143 79.2652 367.014 77.6648C365.894 76.0563 365.334 73.8717 365.334 71.1109C365.334 68.3742 365.898 66.2016 367.026 64.5931C368.163 62.9767 369.727 62.1685 371.72 62.1685C373.712 62.1685 375.269 62.9727 376.389 64.5811C377.517 66.1816 378.081 68.3542 378.081 71.0989C378.081 73.8597 377.521 76.0443 376.401 77.6528C375.281 79.2612 373.72 80.0654 371.72 80.0654ZM368.611 76.2844C369.347 77.5487 370.383 78.1809 371.72 78.1809C373.056 78.1809 374.088 77.5527 374.817 76.2964C375.545 75.032 375.909 73.3036 375.909 71.1109C375.909 68.9503 375.541 67.2379 374.805 65.9735C374.068 64.7012 373.04 64.065 371.72 64.065C370.399 64.065 369.367 64.7012 368.623 65.9735C367.879 67.2459 367.507 68.9543 367.507 71.0989C367.507 73.2915 367.875 75.02 368.611 76.2844Z" fill="black"/>
</svg>
