<svg width="528" height="136" viewBox="0 0 528 136" fill="none" xmlns="http://www.w3.org/2000/svg">
<path d="M0 14.291C0 6.39831 6.39831 0 14.291 0L513.709 0C521.602 0 528 6.39831 528 14.291V121.709C528 129.602 521.602 136 513.709 136H14.291C6.39829 136 0 129.602 0 121.709L0 14.291Z" fill="white"/>
<path d="M28.291 41.9272H27.291V40.9272C27.291 40.662 27.1857 40.4076 26.9982 40.2201C26.8106 40.0326 26.5563 39.9272 26.291 39.9272C26.0258 39.9272 25.7715 40.0326 25.5839 40.2201C25.3964 40.4076 25.291 40.662 25.291 40.9272V41.9272H24.291C24.0258 41.9272 23.7715 42.0326 23.5839 42.2201C23.3964 42.4076 23.291 42.662 23.291 42.9272C23.291 43.1924 23.3964 43.4468 23.5839 43.6343C23.7715 43.8219 24.0258 43.9272 24.291 43.9272H25.291V44.9272C25.291 45.1924 25.3964 45.4468 25.5839 45.6343C25.7715 45.8219 26.0258 45.9272 26.291 45.9272C26.5563 45.9272 26.8106 45.8219 26.9982 45.6343C27.1857 45.4468 27.291 45.1924 27.291 44.9272V43.9272H28.291C28.5563 43.9272 28.8106 43.8219 28.9982 43.6343C29.1857 43.4468 29.291 43.1924 29.291 42.9272C29.291 42.662 29.1857 42.4076 28.9982 42.2201C28.8106 42.0326 28.5563 41.9272 28.291 41.9272ZM34.451 35.9272C33.3847 34.8719 31.9764 34.2325 30.4801 34.1243C28.9838 34.0161 27.4981 34.4463 26.291 35.3372C25.0187 34.3909 23.435 33.9617 21.859 34.1363C20.2829 34.3108 18.8315 35.076 17.797 36.2778C16.7626 37.4796 16.2219 39.0287 16.2838 40.6132C16.3458 42.1977 17.0059 43.6999 18.131 44.8172L24.131 50.8672C24.6935 51.429 25.456 51.7446 26.251 51.7446C27.0461 51.7446 27.8085 51.429 28.371 50.8672L34.371 44.8172C34.962 44.2399 35.433 43.5514 35.757 42.7914C36.081 42.0315 36.2516 41.215 36.2591 40.3888C36.2665 39.5627 36.1106 38.7433 35.8003 37.9776C35.49 37.2119 35.0315 36.5151 34.451 35.9272ZM33.041 43.3872L27.041 49.3872C26.9481 49.4809 26.8375 49.5553 26.7156 49.6061C26.5938 49.6569 26.4631 49.683 26.331 49.683C26.199 49.683 26.0683 49.6569 25.9465 49.6061C25.8246 49.5553 25.714 49.4809 25.621 49.3872L19.621 43.3872C18.8368 42.5856 18.3977 41.5087 18.3977 40.3872C18.3977 39.2658 18.8368 38.1889 19.621 37.3872C20.4202 36.5982 21.498 36.1558 22.621 36.1558C23.7441 36.1558 24.8219 36.5982 25.621 37.3872C25.714 37.4809 25.8246 37.5553 25.9465 37.6061C26.0683 37.6569 26.199 37.683 26.331 37.683C26.4631 37.683 26.5938 37.6569 26.7156 37.6061C26.8375 37.5553 26.9481 37.4809 27.041 37.3872C27.8402 36.5982 28.918 36.1558 30.041 36.1558C31.1641 36.1558 32.2419 36.5982 33.041 37.3872C33.8313 38.1898 34.2743 39.2709 34.2743 40.3972C34.2743 41.5235 33.8313 42.6047 33.041 43.4072V43.3872Z" fill="#FD4646"/>
<path d="M59.274 50.4272H56.9294V43.7388H49.1733V50.4272H46.8286V35.3233H49.1733V41.7082H56.9294V35.3233H59.274V50.4272ZM68.2966 41.8338C67.8011 41.3035 67.1627 41.0383 66.3811 41.0383C65.5996 41.0383 64.9506 41.3069 64.4342 41.8443C63.9179 42.3746 63.6318 43.0619 63.5759 43.9063H69.0816C69.0537 43.0549 68.792 42.3641 68.2966 41.8338ZM69.0711 47.1929H71.2169C71.0564 48.2047 70.54 49.0316 69.6678 49.6736C68.7955 50.3156 67.7314 50.6366 66.4753 50.6366C64.8634 50.6366 63.5934 50.1307 62.6653 49.1189C61.7442 48.1001 61.2837 46.7184 61.2837 44.9739C61.2837 43.2434 61.7442 41.8512 62.6653 40.7976C63.5934 39.7439 64.832 39.217 66.3811 39.217C67.9023 39.217 69.1095 39.716 70.0027 40.7138C70.8959 41.7047 71.3425 43.0375 71.3425 44.7122V45.4868H63.5655V45.6229C63.5655 46.5858 63.8341 47.3569 64.3714 47.9361C64.9087 48.5153 65.6275 48.8049 66.5277 48.8049C67.1627 48.8049 67.7069 48.6583 68.1605 48.3652C68.6141 48.0722 68.9176 47.6814 69.0711 47.1929ZM76.9528 48.8258C77.7483 48.8258 78.4147 48.585 78.9521 48.1036C79.4963 47.6151 79.7685 47.015 79.7685 46.3032V45.4345L77.0575 45.6019C76.3806 45.6508 75.8573 45.8183 75.4875 46.1043C75.1246 46.3835 74.9432 46.7603 74.9432 47.2348C74.9432 47.7163 75.1246 48.1036 75.4875 48.3966C75.8573 48.6827 76.3458 48.8258 76.9528 48.8258ZM76.3248 50.6157C75.2432 50.6157 74.3605 50.3086 73.6767 49.6946C72.9998 49.0805 72.6614 48.2815 72.6614 47.2976C72.6614 46.3346 73.0172 45.5705 73.729 45.0053C74.4408 44.4331 75.4491 44.1121 76.754 44.0423L79.7685 43.8644V43.0166C79.7685 42.4025 79.5731 41.9245 79.1823 41.5826C78.7916 41.2337 78.2508 41.0592 77.5599 41.0592C76.918 41.0592 76.3946 41.2023 75.9899 41.4884C75.5921 41.7745 75.3409 42.1687 75.2362 42.6712H73.101C73.1638 41.6524 73.6034 40.822 74.4198 40.18C75.2362 39.538 76.3109 39.217 77.6437 39.217C78.9765 39.217 80.0371 39.545 80.8257 40.2009C81.6212 40.8569 82.0189 41.7361 82.0189 42.8386V50.4272H79.8522V48.6164H79.7999C79.4859 49.2235 79.0079 49.7085 78.3659 50.0714C77.7309 50.4342 77.0505 50.6157 76.3248 50.6157ZM84.3007 50.4272V35.3233H86.5616V50.4272H84.3007ZM89.5447 36.8096H91.8161V39.4159H93.9095V41.2058H91.8161V47.2767C91.8161 47.7512 91.9242 48.1001 92.1406 48.3234C92.3569 48.5467 92.6953 48.6583 93.1559 48.6583C93.4908 48.6583 93.7385 48.6409 93.899 48.606V50.3958C93.6199 50.4656 93.2012 50.5005 92.643 50.5005C91.5335 50.5005 90.738 50.2737 90.2565 49.8202C89.782 49.3596 89.5447 48.5955 89.5447 47.5279V41.2058H87.9433V39.4159H89.5447V36.8096ZM95.8564 50.4272V35.3233H98.0963V41.2581H98.1486C98.4557 40.6091 98.9058 40.1102 99.4989 39.7613C100.092 39.4054 100.804 39.2275 101.634 39.2275C102.834 39.2275 103.776 39.5973 104.46 40.337C105.151 41.0767 105.497 42.0745 105.497 43.3306V50.4272H103.225V43.7702C103.225 42.9468 103.019 42.3083 102.608 41.8547C102.203 41.4012 101.606 41.1744 100.818 41.1744C99.9874 41.1744 99.3279 41.4395 98.8395 41.9699C98.358 42.4932 98.1172 43.191 98.1172 44.0633V50.4272H95.8564Z" fill="#FD4646"/>
<path d="M39.3021 97.3638H36.0834V80.6897H35.9735L29.1438 97.1911H26.5375L19.692 80.6897H19.5821V97.3638H16.3792V74.7078H20.4456L27.7778 92.5908H27.9034L35.2199 74.7078H39.3021V97.3638ZM49.5238 97.6778C44.7979 97.6778 41.6892 94.4278 41.6892 89.1053C41.6892 83.7985 44.8136 80.5484 49.5238 80.5484C54.2339 80.5484 57.3584 83.7985 57.3584 89.1053C57.3584 94.4278 54.2496 97.6778 49.5238 97.6778ZM49.5238 94.8831C52.1929 94.8831 53.9042 92.7792 53.9042 89.1053C53.9042 85.447 52.1772 83.3431 49.5238 83.3431C46.8704 83.3431 45.1433 85.447 45.1433 89.1053C45.1433 92.7792 46.8704 94.8831 49.5238 94.8831ZM59.3373 97.3638V80.8467H62.5716V83.6572H62.6501C63.1996 81.726 64.6755 80.5798 66.6223 80.5798C67.1091 80.5798 67.533 80.6583 67.7842 80.7054V83.8613C67.5173 83.7514 66.9207 83.6729 66.2612 83.6729C64.0788 83.6729 62.7286 85.133 62.7286 87.4724V97.3638H59.3373ZM69.245 97.3638V80.8467H72.4793V83.6101H72.5578C73.4527 81.726 75.2112 80.5641 77.7547 80.5641C81.3972 80.5641 83.4854 82.8878 83.4854 86.6717V97.3638H80.0784V87.3311C80.0784 84.8504 78.9165 83.4844 76.5614 83.4844C74.175 83.4844 72.6363 85.1801 72.6363 87.7393V97.3638H69.245ZM86.2336 97.3638V80.8467H89.625V97.3638H86.2336ZM87.9293 78.4289C86.846 78.4289 85.9667 77.5653 85.9667 76.4977C85.9667 75.4143 86.846 74.5508 87.9293 74.5508C89.0283 74.5508 89.9076 75.4143 89.9076 76.4977C89.9076 77.5653 89.0283 78.4289 87.9293 78.4289ZM92.4517 97.3638V80.8467H95.686V83.6101H95.7645C96.6595 81.726 98.4179 80.5641 100.961 80.5641C104.604 80.5641 106.692 82.8878 106.692 86.6717V97.3638H103.285V87.3311C103.285 84.8504 102.123 83.4844 99.7682 83.4844C97.3817 83.4844 95.843 85.1801 95.843 87.7393V97.3638H92.4517ZM116.364 94.6162C119.018 94.6162 120.76 92.4652 120.76 89.0582C120.76 85.6668 119.018 83.4373 116.364 83.4373C113.758 83.4373 112.062 85.6197 112.062 89.0582C112.062 92.5123 113.758 94.6162 116.364 94.6162ZM116.396 103.581C112.502 103.581 109.613 101.509 109.189 98.6512H112.596C113.083 100.033 114.59 100.944 116.521 100.944C119.175 100.944 120.745 99.4362 120.745 97.1754V94.4592H120.682C119.756 96.249 117.809 97.4266 115.454 97.4266C111.309 97.4266 108.593 94.1923 108.593 89.0425C108.593 83.8456 111.293 80.5798 115.532 80.5798C117.872 80.5798 119.787 81.7574 120.792 83.6729H120.855V80.8467H124.152V97.0655C124.152 101.006 121.106 103.581 116.396 103.581ZM132.757 97.3638V80.8467H135.991V83.6572H136.07C136.619 81.726 138.095 80.5798 140.042 80.5798C140.529 80.5798 140.953 80.6583 141.204 80.7054V83.8613C140.937 83.7514 140.34 83.6729 139.681 83.6729C137.499 83.6729 136.148 85.133 136.148 87.4724V97.3638H132.757ZM156.827 80.8467V97.3638H153.577V94.5691H153.498C152.587 96.5473 150.908 97.6621 148.38 97.6621C144.784 97.6621 142.586 95.3227 142.586 91.5389V80.8467H145.978V90.8794C145.978 93.3915 147.171 94.7418 149.51 94.7418C151.959 94.7418 153.435 93.0461 153.435 90.4712V80.8467H156.827ZM159.543 97.3638V80.8467H162.778V83.6101H162.856C163.751 81.726 165.51 80.5641 168.053 80.5641C171.696 80.5641 173.784 82.8878 173.784 86.6717V97.3638H170.377V87.3311C170.377 84.8504 169.215 83.4844 166.86 83.4844C164.473 83.4844 162.935 85.1801 162.935 87.7393V97.3638H159.543Z" fill="black"/>
<rect x="431.418" y="28.6997" width="82.291" height="36.1455" rx="18.0728" fill="#F4F4F4"/>
<path d="M442.913 54.2725H440.631V39.1685H442.756L450.586 50.3054H450.669V39.1685H452.951V54.2725H450.837L443.007 43.146H442.913V54.2725ZM460.205 54.4818C457.054 54.4818 454.982 52.3151 454.982 48.7668C454.982 45.2289 457.065 43.0622 460.205 43.0622C463.345 43.0622 465.428 45.2289 465.428 48.7668C465.428 52.3151 463.355 54.4818 460.205 54.4818ZM460.205 52.6187C461.984 52.6187 463.125 51.2161 463.125 48.7668C463.125 46.328 461.974 44.9254 460.205 44.9254C458.436 44.9254 457.285 46.328 457.285 48.7668C457.285 51.2161 458.436 52.6187 460.205 52.6187ZM467.176 54.2725V43.2611H469.332V45.1347H469.384C469.751 43.8473 470.735 43.0832 472.033 43.0832C472.357 43.0832 472.64 43.1355 472.807 43.1669V45.2708C472.629 45.1975 472.232 45.1452 471.792 45.1452C470.337 45.1452 469.437 46.1186 469.437 47.6782V54.2725H467.176ZM474.21 54.2725V43.2611H476.366V45.1138H476.418C476.91 43.8891 478.062 43.0727 479.548 43.0727C481.076 43.0727 482.186 43.8577 482.625 45.2289H482.678C483.243 43.8891 484.541 43.0727 486.111 43.0727C488.288 43.0727 489.712 44.5172 489.712 46.7048V54.2725H487.44V47.2491C487.44 45.8255 486.676 45.0091 485.336 45.0091C483.996 45.0091 483.065 46.0035 483.065 47.3956V54.2725H480.846V47.0816C480.846 45.8151 480.04 45.0091 478.763 45.0091C477.423 45.0091 476.471 46.0558 476.471 47.4689V54.2725H474.21ZM495.751 52.671C497.332 52.671 498.567 51.5824 498.567 50.1484V49.2797L495.856 49.4471C494.505 49.5413 493.741 50.138 493.741 51.08C493.741 52.043 494.537 52.671 495.751 52.671ZM495.123 54.4609C492.967 54.4609 491.46 53.1211 491.46 51.1428C491.46 49.2169 492.935 48.0341 495.552 47.8876L498.567 47.7096V46.8618C498.567 45.6371 497.74 44.9044 496.358 44.9044C495.05 44.9044 494.233 45.5325 494.034 46.5164H491.899C492.025 44.5276 493.72 43.0622 496.442 43.0622C499.111 43.0622 500.817 44.4753 500.817 46.6838V54.2725H498.65V52.4617H498.598C497.96 53.6863 496.567 54.4609 495.123 54.4609ZM503.099 54.2725V39.1685H505.36V54.2725H503.099Z" fill="#A4A4A4"/>
<path opacity="0.4" d="M440.475 105.368C437.848 105.368 435.796 104.321 434.32 102.227C432.855 100.124 432.122 97.266 432.122 93.6549C432.122 90.0752 432.86 87.2334 434.336 85.1295C435.822 83.0151 437.868 81.958 440.475 81.958C443.081 81.958 445.117 83.0099 446.582 85.1138C448.058 87.2072 448.796 90.049 448.796 93.6392C448.796 97.2503 448.063 100.108 446.598 102.212C445.133 104.316 443.092 105.368 440.475 105.368ZM436.408 100.422C437.371 102.076 438.727 102.903 440.475 102.903C442.223 102.903 443.573 102.081 444.526 100.438C445.478 98.7838 445.954 96.5229 445.954 93.6549C445.954 90.8288 445.473 88.5888 444.51 86.935C443.547 85.2708 442.202 84.4386 440.475 84.4386C438.748 84.4386 437.397 85.2708 436.424 86.935C435.451 88.5993 434.964 90.834 434.964 93.6392C434.964 96.5072 435.445 98.7681 436.408 100.422ZM459.19 105.368C456.794 105.368 454.826 104.76 453.287 103.546C451.748 102.322 450.979 100.762 450.979 98.8675C450.979 97.4544 451.424 96.2141 452.314 95.1465C453.203 94.0788 454.381 93.3775 455.846 93.0426V92.9798C454.622 92.603 453.653 91.9645 452.942 91.0643C452.23 90.1537 451.874 89.1017 451.874 87.9085C451.874 86.2023 452.565 84.7841 453.946 83.6536C455.339 82.5232 457.087 81.958 459.19 81.958C461.305 81.958 463.048 82.5232 464.419 83.6536C465.8 84.7736 466.491 86.1971 466.491 87.9242C466.491 89.107 466.141 90.1484 465.439 91.0486C464.738 91.9488 463.77 92.5925 462.535 92.9798V93.0426C464 93.388 465.178 94.0945 466.067 95.1622C466.968 96.2298 467.418 97.4649 467.418 98.8675C467.418 100.762 466.648 102.322 465.11 103.546C463.571 104.76 461.598 105.368 459.19 105.368ZM459.19 102.903C460.75 102.903 462.027 102.505 463.021 101.709C464.026 100.914 464.529 99.8985 464.529 98.6634C464.529 97.4178 464.026 96.3973 463.021 95.6018C462.027 94.8063 460.75 94.4085 459.19 94.4085C457.631 94.4085 456.349 94.8115 455.344 95.6175C454.349 96.413 453.852 97.4283 453.852 98.6634C453.852 99.8985 454.355 100.914 455.36 101.709C456.364 102.505 457.641 102.903 459.19 102.903ZM459.19 91.9278C460.509 91.9278 461.587 91.5772 462.425 90.8759C463.273 90.1746 463.697 89.2744 463.697 88.1754C463.697 87.0659 463.278 86.1605 462.441 85.4592C461.603 84.7474 460.52 84.3915 459.19 84.3915C457.861 84.3915 456.778 84.7474 455.94 85.4592C455.103 86.1605 454.684 87.0659 454.684 88.1754C454.684 89.2744 455.103 90.1746 455.94 90.8759C456.778 91.5772 457.861 91.9278 459.19 91.9278ZM473.557 100.704C473.212 101.05 472.788 101.223 472.285 101.223C471.783 101.223 471.359 101.05 471.014 100.704C470.668 100.359 470.496 99.9351 470.496 99.4327C470.496 98.9303 470.668 98.5064 471.014 98.161C471.359 97.8156 471.783 97.6428 472.285 97.6428C472.788 97.6428 473.212 97.8156 473.557 98.161C473.903 98.5064 474.075 98.9303 474.075 99.4327C474.075 99.9351 473.903 100.359 473.557 100.704ZM473.557 89.1488C473.212 89.4942 472.788 89.6669 472.285 89.6669C471.783 89.6669 471.359 89.4942 471.014 89.1488C470.668 88.8034 470.496 88.3795 470.496 87.8771C470.496 87.3747 470.668 86.9507 471.014 86.6053C471.359 86.2599 471.783 86.0872 472.285 86.0872C472.788 86.0872 473.212 86.2599 473.557 86.6053C473.903 86.9507 474.075 87.3747 474.075 87.8771C474.075 88.3795 473.903 88.8034 473.557 89.1488ZM482.177 94.5341V92.1476H484.894C486.192 92.1476 487.254 91.7761 488.081 91.0329C488.908 90.2793 489.321 89.3268 489.321 88.1754C489.321 87.024 488.939 86.1081 488.175 85.4278C487.411 84.7474 486.328 84.4072 484.925 84.4072C483.627 84.4072 482.57 84.7527 481.753 85.4435C480.937 86.1343 480.466 87.0763 480.34 88.2696H477.624C477.781 86.3437 478.524 84.8102 479.854 83.6693C481.194 82.5284 482.926 81.958 485.051 81.958C487.092 81.958 488.787 82.5075 490.138 83.6065C491.488 84.7056 492.163 86.1029 492.163 87.7986C492.163 89.2116 491.744 90.3996 490.907 91.3626C490.07 92.3256 488.939 92.9327 487.516 93.1839V93.2467C489.232 93.3514 490.598 93.9009 491.613 94.8952C492.629 95.8791 493.136 97.1666 493.136 98.7576C493.136 100.024 492.781 101.165 492.069 102.18C491.357 103.196 490.394 103.981 489.18 104.535C487.966 105.09 486.621 105.368 485.145 105.368C482.8 105.368 480.911 104.781 479.477 103.609C478.043 102.437 477.274 100.898 477.169 98.9931H479.885C480.011 100.176 480.539 101.128 481.471 101.851C482.402 102.562 483.617 102.918 485.113 102.918C486.61 102.918 487.84 102.536 488.803 101.772C489.776 101.008 490.263 100.035 490.263 98.8518C490.263 97.5225 489.792 96.4705 488.85 95.696C487.919 94.9214 486.642 94.5341 485.019 94.5341H482.177ZM503.876 105.368C501.249 105.368 499.197 104.321 497.722 102.227C496.256 100.124 495.524 97.266 495.524 93.6549C495.524 90.0752 496.261 87.2334 497.737 85.1295C499.224 83.0151 501.27 81.958 503.876 81.958C506.483 81.958 508.518 83.0099 509.984 85.1138C511.46 87.2072 512.198 90.049 512.198 93.6392C512.198 97.2503 511.465 100.108 509.999 102.212C508.534 104.316 506.493 105.368 503.876 105.368ZM499.81 100.422C500.773 102.076 502.128 102.903 503.876 102.903C505.624 102.903 506.975 102.081 507.927 100.438C508.88 98.7838 509.356 96.5229 509.356 93.6549C509.356 90.8288 508.874 88.5888 507.911 86.935C506.948 85.2708 505.603 84.4386 503.876 84.4386C502.149 84.4386 500.799 85.2708 499.826 86.935C498.852 88.5993 498.365 90.834 498.365 93.6392C498.365 96.5072 498.847 98.7681 499.81 100.422Z" fill="black"/>
</svg>
