<svg width="286" height="83" viewBox="0 0 286 83" fill="none" xmlns="http://www.w3.org/2000/svg">
<path d="M0 8.72386C0 3.9058 3.90581 0 8.72386 0H277.211C282.029 0 285.935 3.90581 285.935 8.72386V74.1528C285.935 78.9709 282.029 82.8767 277.211 82.8767H8.72389C3.90583 82.8767 0 78.9709 0 74.1528V8.72386Z" fill="white"/>
<path d="M21.5801 22.5529L20.9174 22.5373L20.933 21.8746C20.9455 21.3474 20.748 20.8368 20.3839 20.4552C20.0199 20.0736 19.5192 19.8522 18.9919 19.8398L12.3654 19.6836C11.8382 19.6712 11.3276 19.8687 10.946 20.2327C10.5644 20.5967 10.343 21.0974 10.3306 21.6247L10.1431 29.5765C10.1307 30.1038 10.3282 30.6144 10.6923 30.996C11.0563 31.3776 11.557 31.5989 12.0842 31.6114L21.3614 31.83C21.8886 31.8425 22.3992 31.6449 22.7808 31.2809C23.1624 30.9169 23.3838 30.4162 23.3962 29.8889L23.5212 24.5877C23.5336 24.0605 23.3361 23.5499 22.9721 23.1683C22.608 22.7867 22.1073 22.5653 21.5801 22.5529ZM12.3342 21.0089L18.9607 21.1651C19.1365 21.1692 19.3034 21.243 19.4247 21.3702C19.546 21.4974 19.6119 21.6676 19.6077 21.8434L19.5921 22.506L12.3029 22.3342C12.1272 22.3301 11.9603 22.2563 11.8389 22.1291C11.7176 22.0019 11.6517 21.8317 11.6559 21.6559C11.66 21.4802 11.7338 21.3133 11.861 21.1919C11.9882 21.0706 12.1584 21.0047 12.3342 21.0089ZM22.1178 27.8697L21.4551 27.8541C21.2794 27.85 21.1125 27.7762 20.9911 27.649C20.8698 27.5218 20.8039 27.3516 20.8081 27.1758C20.8122 27.0001 20.886 26.8332 21.0132 26.7118C21.1404 26.5905 21.3106 26.5247 21.4864 26.5288L22.149 26.5444L22.1178 27.8697ZM22.1803 25.2191L21.5176 25.2035C20.9904 25.1911 20.4798 25.3886 20.0982 25.7526C19.7166 26.1166 19.4952 26.6174 19.4828 27.1446C19.4704 27.6718 19.6679 28.1824 20.0319 28.564C20.3959 28.9456 20.8966 29.167 21.4239 29.1794L22.0865 29.195L22.0709 29.8577C22.0668 30.0334 21.993 30.2003 21.8658 30.3217C21.7386 30.443 21.5684 30.5089 21.3926 30.5047L12.1155 30.286C11.9397 30.2819 11.7728 30.2081 11.6515 30.0809C11.5301 29.9537 11.4643 29.7835 11.4684 29.6078L11.6117 23.5312C11.8228 23.6111 12.046 23.6545 12.2717 23.6595L21.5488 23.8782C21.7246 23.8823 21.8915 23.9561 22.0128 24.0833C22.1342 24.2105 22.2 24.3807 22.1959 24.5565L22.1803 25.2191Z" fill="#7190FF"/>
<path d="M35.4729 22.8055L33.4858 29.7573H32.1312L29.6456 20.5372H31.1344L32.8404 27.7574H32.8915L34.8403 20.5372H36.1694L38.1246 27.7574H38.1757L39.8817 20.5372H41.3705L38.8785 29.7573H37.5303L35.5368 22.8055H35.4729ZM46.8207 28.9522C46.2414 29.5742 45.4683 29.8851 44.5013 29.8851C43.5344 29.8851 42.7613 29.5742 42.1819 28.9522C41.6026 28.3261 41.313 27.4741 41.313 26.3964C41.313 25.323 41.6026 24.4753 42.1819 23.8534C42.7613 23.2272 43.5344 22.9141 44.5013 22.9141C45.4683 22.9141 46.2414 23.2272 46.8207 23.8534C47.4001 24.4753 47.6897 25.323 47.6897 26.3964C47.6897 27.4741 47.4001 28.3261 46.8207 28.9522ZM44.5013 28.7478C45.0508 28.7478 45.4853 28.5412 45.8048 28.128C46.1243 27.7148 46.284 27.1376 46.284 26.3964C46.284 25.6595 46.1222 25.0844 45.7984 24.6712C45.4789 24.2581 45.0466 24.0515 44.5013 24.0515C43.9561 24.0515 43.5216 24.2581 43.1979 24.6712C42.8784 25.0844 42.7187 25.6595 42.7187 26.3964C42.7187 27.1376 42.8784 27.7148 43.1979 28.128C43.5216 28.5412 43.9561 28.7478 44.5013 28.7478ZM48.7568 29.7573V23.0355H50.073V24.1792H50.105C50.2157 23.7874 50.4138 23.4807 50.6992 23.2592C50.9846 23.0376 51.3254 22.9269 51.7215 22.9269C51.8536 22.9269 52.0112 22.9439 52.1944 22.978V24.2623C52.0708 24.2112 51.8642 24.1856 51.5746 24.1856C51.1316 24.1856 50.7801 24.3241 50.5203 24.601C50.2647 24.8778 50.1369 25.2548 50.1369 25.7319V29.7573H48.7568ZM54.4946 25.9172L57.2102 23.0355H58.8331L56.0473 25.93L58.9417 29.7573H57.3379L55.0569 26.7734L54.4818 27.3421V29.7573H53.1017V20.5372H54.4818V25.9172H54.4946Z" fill="#7190FF"/>
<path d="M12.8739 58.8433L9.14559 45.0131H11.3787L13.9569 55.853H13.9953L16.9185 45.0131H18.9504L21.8736 55.853H21.9215L24.4997 45.0131H26.7328L22.9949 58.8433H20.9343L17.9632 48.4155H17.9152L14.9345 58.8433H12.8739ZM31.0366 59.0445C28.1421 59.0445 26.254 57.0414 26.254 53.8019V53.7827C26.254 50.5624 28.1613 48.5689 31.027 48.5689C33.9023 48.5689 35.8191 50.5528 35.8191 53.7827V53.8019C35.8191 57.051 33.9214 59.0445 31.0366 59.0445ZM31.0461 57.3098C32.6659 57.3098 33.701 56.0255 33.701 53.8019V53.7827C33.701 51.5783 32.6467 50.3036 31.027 50.3036C29.436 50.3036 28.3721 51.5783 28.3721 53.7827V53.8019C28.3721 56.0351 29.4264 57.3098 31.0461 57.3098ZM37.0272 58.8433V48.7606H39.0974V50.4857H39.1453C39.4712 49.3069 40.3146 48.5689 41.4647 48.5689C41.7618 48.5689 42.0206 48.6168 42.1835 48.6455V50.572C42.0206 50.5049 41.6564 50.457 41.2538 50.457C39.9216 50.457 39.0974 51.3292 39.0974 52.8339V58.8433H37.0272ZM43.1903 58.8433V45.0131H45.2605V53.0639H45.3084L49.353 48.7606H51.7874L47.647 53.1118L51.9503 58.8433H49.5447L46.1231 54.3578L45.2605 55.2108V58.8433H43.1903ZM56.1874 62.1978V48.7606H58.2576V50.4953H58.3055C58.9093 49.2973 60.0211 48.5689 61.4587 48.5689C64.0273 48.5689 65.6758 50.5816 65.6758 53.8019V53.8115C65.6758 57.0222 64.0178 59.0445 61.4875 59.0445C60.0594 59.0445 58.8997 58.3161 58.3055 57.1468H58.2576V62.1978H56.1874ZM60.922 57.2618C62.5514 57.2618 63.5673 55.9392 63.5673 53.8115V53.8019C63.5673 51.655 62.5418 50.342 60.922 50.342C59.3502 50.342 58.248 51.7029 58.248 53.8019V53.8115C58.248 55.9009 59.3598 57.2618 60.922 57.2618ZM66.8934 58.8433V48.7606H68.9636V50.4857H69.0116C69.3374 49.3069 70.1809 48.5689 71.331 48.5689C71.6281 48.5689 71.8869 48.6168 72.0498 48.6455V50.572C71.8869 50.5049 71.5227 50.457 71.1201 50.457C69.7879 50.457 68.9636 51.3292 68.9636 52.8339V58.8433H66.8934ZM76.804 59.0445C73.8425 59.0445 72.0502 57.0222 72.0502 53.8402V53.8307C72.0502 50.6774 73.8712 48.5689 76.6986 48.5689C79.526 48.5689 81.2607 50.6007 81.2607 53.6294V54.329H74.1204C74.1587 56.2363 75.2034 57.3481 76.8519 57.3481C78.0787 57.3481 78.8934 56.7155 79.1522 55.9584L79.1809 55.8817H81.1457L81.1265 55.9871C80.8007 57.5877 79.248 59.0445 76.804 59.0445ZM76.7082 50.2653C75.3664 50.2653 74.3313 51.1758 74.1492 52.8626H79.2097C79.0372 51.1183 78.0596 50.2653 76.7082 50.2653ZM86.2545 59.0445C83.7339 59.0445 82.2579 57.7986 82.047 55.9584L82.0374 55.8721H84.0885L84.1076 55.968C84.2993 56.8976 84.9894 57.444 86.2641 57.444C87.5101 57.444 88.2577 56.9264 88.2577 56.1117V56.1021C88.2577 55.4504 87.8935 55.0766 86.8104 54.8178L85.1619 54.4441C83.2451 54.0032 82.2962 53.0831 82.2962 51.6167V51.6071C82.2962 49.8052 83.868 48.5689 86.1874 48.5689C88.5739 48.5689 90.0116 49.9011 90.117 51.6167L90.1266 51.7317H88.181L88.1714 51.6646C88.0468 50.7828 87.3567 50.1694 86.1874 50.1694C85.0757 50.1694 84.376 50.6966 84.376 51.5017V51.5113C84.376 52.1342 84.7881 52.5559 85.8712 52.8147L87.5101 53.1885C89.5707 53.6677 90.3566 54.4824 90.3566 55.9296V55.9392C90.3566 57.7794 88.6314 59.0445 86.2545 59.0445ZM95.8776 59.0445C92.916 59.0445 91.1238 57.0222 91.1238 53.8402V53.8307C91.1238 50.6774 92.9448 48.5689 95.7722 48.5689C98.5995 48.5689 100.334 50.6007 100.334 53.6294V54.329L93.194 54.329C93.2323 56.2363 94.277 57.3481 95.9255 57.3481C97.1523 57.3481 97.967 56.7155 98.2257 55.9584L98.2545 55.8817H100.219L100.2 55.9871C99.8742 57.5877 98.3216 59.0445 95.8776 59.0445ZM95.7817 50.2653C94.4399 50.2653 93.4048 51.1758 93.2227 52.8626L98.2832 52.8626C98.1107 51.1183 97.1331 50.2653 95.7817 50.2653ZM101.552 58.8433V48.7606H103.622V50.2845H103.67C104.197 49.2589 105.232 48.5689 106.756 48.5689C108.97 48.5689 110.245 49.9969 110.245 52.3163V58.8433H108.165V52.7093C108.165 51.195 107.456 50.342 106.018 50.342C104.561 50.342 103.622 51.3962 103.622 52.9681V58.8433H101.552ZM115.392 59.0445C113.398 59.0445 112.44 58.2011 112.44 56.1884V50.4091H110.993V48.7606H112.44V46.1344H114.558V48.7606H116.446V50.4091H114.558V56.0638C114.558 57.0893 115.018 57.396 115.89 57.396C116.111 57.396 116.293 57.3769 116.446 57.3577V58.9583C116.207 58.9966 115.814 59.0445 115.392 59.0445ZM120.578 59.0254C118.565 59.0254 117.213 57.789 117.213 55.9775V55.9584C117.213 54.2044 118.574 53.131 120.961 52.9872L123.702 52.8243V52.0671C123.702 50.9554 122.983 50.2845 121.699 50.2845C120.501 50.2845 119.763 50.8499 119.59 51.655L119.571 51.7413H117.616L117.626 51.6359C117.769 49.9011 119.274 48.5689 121.756 48.5689C124.22 48.5689 125.782 49.8723 125.782 51.8946V58.8433H123.702V57.2523H123.664C123.079 58.3353 121.91 59.0254 120.578 59.0254ZM119.303 55.9296C119.303 56.8114 120.031 57.3673 121.143 57.3673C122.6 57.3673 123.702 56.3801 123.702 55.067V54.2811L121.239 54.4345C119.993 54.5111 119.303 55.0575 119.303 55.9105V55.9296ZM130.939 59.0445C128.945 59.0445 127.987 58.2011 127.987 56.1884V50.4091H126.539V48.7606H127.987V46.1344H130.105V48.7606H131.993V50.4091H130.105V56.0638C130.105 57.0893 130.565 57.396 131.437 57.396C131.657 57.396 131.839 57.3769 131.993 57.3577V58.9583C131.753 58.9966 131.36 59.0445 130.939 59.0445ZM134.437 47.2079C133.766 47.2079 133.23 46.6712 133.23 46.0194C133.23 45.3581 133.766 44.8214 134.437 44.8214C135.118 44.8214 135.645 45.3581 135.645 46.0194C135.645 46.6712 135.118 47.2079 134.437 47.2079ZM133.402 58.8433V48.7606H135.472V58.8433H133.402ZM141.549 59.0445C138.655 59.0445 136.767 57.0414 136.767 53.8019V53.7827C136.767 50.5624 138.674 48.5689 141.54 48.5689C144.415 48.5689 146.332 50.5528 146.332 53.7827V53.8019C146.332 57.051 144.434 59.0445 141.549 59.0445ZM141.559 57.3098C143.179 57.3098 144.214 56.0255 144.214 53.8019V53.7827C144.214 51.5783 143.159 50.3036 141.54 50.3036C139.949 50.3036 138.885 51.5783 138.885 53.7827V53.8019C138.885 56.0351 139.939 57.3098 141.559 57.3098ZM147.54 58.8433V48.7606H149.61V50.2845H149.658C150.185 49.2589 151.22 48.5689 152.744 48.5689C154.958 48.5689 156.233 49.9969 156.233 52.3163V58.8433H154.153V52.7093C154.153 51.195 153.444 50.342 152.006 50.342C150.549 50.342 149.61 51.3962 149.61 52.9681V58.8433H147.54Z" fill="black"/>
<rect x="226.487" y="17.4478" width="50.7239" height="22.3619" rx="11.181" fill="#F4F4F4"/>
<path d="M233.994 32.6289H232.601V23.4088H233.898L238.678 30.2073H238.729V23.4088H240.122V32.6289H238.831L234.052 25.8368H233.994V32.6289ZM244.55 32.7567C242.626 32.7567 241.361 31.4341 241.361 29.268C241.361 27.1083 242.633 25.7857 244.55 25.7857C246.466 25.7857 247.738 27.1083 247.738 29.268C247.738 31.4341 246.473 32.7567 244.55 32.7567ZM244.55 31.6194C245.636 31.6194 246.332 30.7632 246.332 29.268C246.332 27.7792 245.629 26.923 244.55 26.923C243.47 26.923 242.767 27.7792 242.767 29.268C242.767 30.7632 243.47 31.6194 244.55 31.6194ZM248.805 32.6289V25.9071H250.121V27.0508H250.153C250.377 26.2649 250.977 25.7985 251.77 25.7985C251.968 25.7985 252.14 25.8304 252.243 25.8496V27.1339C252.134 27.0892 251.891 27.0572 251.623 27.0572C250.735 27.0572 250.185 27.6514 250.185 28.6035V32.6289H248.805ZM253.099 32.6289V25.9071H254.415V27.0381H254.447C254.747 26.2905 255.45 25.7921 256.357 25.7921C257.29 25.7921 257.968 26.2713 258.236 27.1083H258.268C258.613 26.2905 259.405 25.7921 260.364 25.7921C261.693 25.7921 262.562 26.6738 262.562 28.0093V32.6289H261.175V28.3415C261.175 27.4725 260.709 26.9742 259.891 26.9742C259.073 26.9742 258.504 27.5812 258.504 28.431V32.6289H257.15V28.2393C257.15 27.4662 256.658 26.9742 255.878 26.9742C255.06 26.9742 254.479 27.6131 254.479 28.4757V32.6289H253.099ZM266.248 31.6513C267.213 31.6513 267.967 30.9868 267.967 30.1114V29.5811L266.312 29.6833C265.488 29.7408 265.022 30.105 265.022 30.6801C265.022 31.2679 265.507 31.6513 266.248 31.6513ZM265.865 32.7439C264.549 32.7439 263.629 31.9261 263.629 30.7184C263.629 29.5428 264.53 28.8207 266.127 28.7313L267.967 28.6227V28.1051C267.967 27.3575 267.462 26.9103 266.619 26.9103C265.82 26.9103 265.322 27.2936 265.201 27.8943H263.897C263.974 26.6802 265.009 25.7857 266.67 25.7857C268.3 25.7857 269.341 26.6483 269.341 27.9965V32.6289H268.018V31.5235H267.986C267.597 32.2711 266.747 32.7439 265.865 32.7439ZM270.734 32.6289V23.4088H272.114V32.6289H270.734Z" fill="#A4A4A4"/>
<path opacity="0.4" d="M233.859 64.1714V52.1718H233.821L230.16 54.8075V52.9865L233.84 50.3412H235.527V64.1714H233.859ZM241.46 57.7882V56.3314H243.118C243.91 56.3314 244.559 56.1046 245.064 55.6509C245.569 55.1909 245.821 54.6094 245.821 53.9066C245.821 53.2037 245.588 52.6446 245.121 52.2293C244.655 51.814 243.994 51.6063 243.137 51.6063C242.345 51.6063 241.7 51.8172 241.201 52.2389C240.703 52.6606 240.415 53.2357 240.339 53.9641H238.681C238.776 52.7884 239.23 51.8523 240.042 51.1559C240.859 50.4594 241.917 50.1112 243.214 50.1112C244.46 50.1112 245.495 50.4466 246.319 51.1175C247.144 51.7884 247.556 52.6414 247.556 53.6766C247.556 54.5391 247.3 55.2644 246.789 55.8522C246.278 56.44 245.588 56.8106 244.719 56.964V57.0023C245.767 57.0662 246.6 57.4017 247.22 58.0087C247.84 58.6093 248.15 59.3952 248.15 60.3664C248.15 61.1395 247.933 61.836 247.498 62.4558C247.064 63.0756 246.476 63.5548 245.735 63.8934C244.994 64.2321 244.172 64.4014 243.272 64.4014C241.84 64.4014 240.687 64.0436 239.812 63.328C238.936 62.6123 238.467 61.6731 238.403 60.5102H240.061C240.137 61.2322 240.46 61.8136 241.029 62.2545C241.597 62.689 242.339 62.9063 243.252 62.9063C244.166 62.9063 244.917 62.673 245.505 62.2066C246.099 61.7402 246.396 61.1459 246.396 60.4239C246.396 59.6124 246.108 58.9703 245.533 58.4975C244.965 58.0246 244.185 57.7882 243.195 57.7882H241.46ZM252.013 61.5549C251.802 61.7657 251.543 61.8711 251.236 61.8711C250.93 61.8711 250.671 61.7657 250.46 61.5549C250.249 61.344 250.144 61.0852 250.144 60.7785C250.144 60.4718 250.249 60.2131 250.46 60.0022C250.671 59.7914 250.93 59.6859 251.236 59.6859C251.543 59.6859 251.802 59.7914 252.013 60.0022C252.224 60.2131 252.329 60.4718 252.329 60.7785C252.329 61.0852 252.224 61.344 252.013 61.5549ZM252.013 54.5008C251.802 54.7117 251.543 54.8171 251.236 54.8171C250.93 54.8171 250.671 54.7117 250.46 54.5008C250.249 54.2899 250.144 54.0312 250.144 53.7245C250.144 53.4178 250.249 53.159 250.46 52.9481C250.671 52.7373 250.93 52.6319 251.236 52.6319C251.543 52.6319 251.802 52.7373 252.013 52.9481C252.224 53.159 252.329 53.4178 252.329 53.7245C252.329 54.0312 252.224 54.2899 252.013 54.5008ZM259.297 64.4014C257.694 64.4014 256.441 63.7625 255.54 62.4845C254.646 61.2002 254.198 59.4559 254.198 57.2515C254.198 55.0663 254.649 53.3315 255.55 52.0472C256.457 50.7565 257.706 50.1112 259.297 50.1112C260.888 50.1112 262.131 50.7533 263.026 52.0376C263.927 53.3155 264.377 55.0503 264.377 57.2419C264.377 59.4463 263.93 61.1907 263.035 62.475C262.141 63.7593 260.895 64.4014 259.297 64.4014ZM256.815 61.3823C257.403 62.3919 258.23 62.8967 259.297 62.8967C260.364 62.8967 261.189 62.3951 261.77 61.3919C262.351 60.3824 262.642 59.0022 262.642 57.2515C262.642 55.5263 262.348 54.159 261.76 53.1494C261.173 52.1335 260.352 51.6255 259.297 51.6255C258.243 51.6255 257.419 52.1335 256.825 53.1494C256.23 54.1654 255.933 55.5295 255.933 57.2419C255.933 58.9927 256.227 60.3728 256.815 61.3823ZM270.808 64.4014C269.205 64.4014 267.952 63.7625 267.051 62.4845C266.157 61.2002 265.71 59.4559 265.71 57.2515C265.71 55.0663 266.16 53.3315 267.061 52.0472C267.968 50.7565 269.217 50.1112 270.808 50.1112C272.399 50.1112 273.642 50.7533 274.537 52.0376C275.438 53.3155 275.888 55.0503 275.888 57.2419C275.888 59.4463 275.441 61.1907 274.546 62.475C273.652 63.7593 272.406 64.4014 270.808 64.4014ZM268.326 61.3823C268.914 62.3919 269.741 62.8967 270.808 62.8967C271.875 62.8967 272.7 62.3951 273.281 61.3919C273.863 60.3824 274.153 59.0022 274.153 57.2515C274.153 55.5263 273.859 54.159 273.272 53.1494C272.684 52.1335 271.863 51.6255 270.808 51.6255C269.754 51.6255 268.93 52.1335 268.336 53.1494C267.741 54.1654 267.444 55.5295 267.444 57.2419C267.444 58.9927 267.738 60.3728 268.326 61.3823Z" fill="black"/>
</svg>
