<svg width="32" height="32" viewBox="0 0 32 32" fill="none" xmlns="http://www.w3.org/2000/svg">
<path d="M19.9671 4.02473L21.2469 1.71594C21.2633 1.68632 21.2737 1.65376 21.2776 1.62011C21.2814 1.58646 21.2786 1.55238 21.2692 1.51983C21.2599 1.48727 21.2443 1.45687 21.2232 1.43037C21.2021 1.40386 21.176 1.38177 21.1464 1.36535C21.0866 1.33219 21.016 1.32415 20.9503 1.343C20.8845 1.36185 20.8289 1.40604 20.7958 1.46586L19.5018 3.80024C18.3978 3.31625 17.2055 3.06637 16 3.06637C14.7946 3.06637 13.6022 3.31625 12.4982 3.80024L11.2042 1.46586C11.171 1.40604 11.1155 1.36185 11.0497 1.343C10.984 1.32415 10.9134 1.33219 10.8536 1.36535C10.7938 1.39851 10.7496 1.45408 10.7307 1.51983C10.7119 1.58558 10.7199 1.65612 10.7531 1.71594L12.0329 4.02474C10.8147 4.62524 9.78535 5.54963 9.05785 6.69654C8.33034 7.84345 7.93275 9.16857 7.90869 10.5265H24.0914C24.0673 9.16857 23.6697 7.84345 22.9422 6.69654C22.2147 5.54962 21.1854 4.62522 19.9671 4.02473ZM12.2655 7.56553C12.1318 7.56553 12.0012 7.5259 11.8901 7.45165C11.7789 7.3774 11.6923 7.27186 11.6412 7.14839C11.59 7.02491 11.5766 6.88905 11.6027 6.75797C11.6288 6.62689 11.6932 6.50648 11.7877 6.41198C11.8822 6.31748 12.0026 6.25312 12.1336 6.22705C12.2647 6.20097 12.4006 6.21435 12.5241 6.2655C12.6475 6.31664 12.7531 6.40325 12.8273 6.51438C12.9016 6.6255 12.9412 6.75615 12.9412 6.8898C12.941 7.06895 12.8697 7.24071 12.7431 7.36739C12.6164 7.49407 12.4446 7.56533 12.2655 7.56553ZM19.7345 7.56553C19.6009 7.56553 19.4702 7.5259 19.3591 7.45165C19.248 7.3774 19.1614 7.27186 19.1102 7.14839C19.0591 7.02491 19.0457 6.88905 19.0718 6.75797C19.0978 6.62689 19.1622 6.50648 19.2567 6.41198C19.3512 6.31748 19.4716 6.25312 19.6027 6.22705C19.7338 6.20097 19.8696 6.21435 19.9931 6.2655C20.1166 6.31664 20.2221 6.40325 20.2964 6.51438C20.3706 6.6255 20.4102 6.75615 20.4102 6.8898C20.41 7.06895 20.3388 7.24071 20.2121 7.36739C20.0854 7.49407 19.9137 7.56533 19.7345 7.56553ZM7.90857 22.8949C7.90857 23.4137 8.11466 23.9112 8.48152 24.2781C8.84837 24.6449 9.34593 24.851 9.86474 24.851H11.1629V28.8523C11.1622 29.0909 11.2087 29.3273 11.2995 29.548C11.3904 29.7686 11.5239 29.9692 11.6924 30.1381C11.8609 30.3071 12.0611 30.4411 12.2815 30.5326C12.5019 30.6241 12.7382 30.6712 12.9768 30.6712C13.2154 30.6712 13.4517 30.6241 13.6721 30.5326C13.8925 30.4411 14.0927 30.3071 14.2612 30.1381C14.4297 29.9692 14.5632 29.7686 14.6541 29.548C14.745 29.3273 14.7914 29.0909 14.7908 28.8523V24.851H17.2092V28.8523C17.2086 29.0909 17.255 29.3273 17.3459 29.548C17.4368 29.7686 17.5703 29.9692 17.7388 30.1381C17.9073 30.3071 18.1075 30.4411 18.3279 30.5326C18.5483 30.6241 18.7845 30.6712 19.0232 30.6712C19.2618 30.6712 19.4981 30.6241 19.7185 30.5326C19.9389 30.4411 20.1391 30.3071 20.3076 30.1381C20.4761 29.9692 20.6096 29.7686 20.7004 29.548C20.7913 29.3273 20.8378 29.0909 20.8371 28.8523V24.851H22.1353C22.6541 24.851 23.1517 24.6449 23.5185 24.2781C23.8854 23.9112 24.0915 23.4137 24.0915 22.8949V11.1667H7.90857V22.8949ZM5.41886 10.8555C4.93794 10.856 4.47687 11.0473 4.13681 11.3874C3.79675 11.7274 3.60547 12.1885 3.60493 12.6694V20.2274C3.60428 20.466 3.65072 20.7024 3.74159 20.923C3.83246 21.1437 3.96597 21.3442 4.13447 21.5132C4.30298 21.6821 4.50316 21.8162 4.72356 21.9077C4.94396 21.9991 5.18024 22.0462 5.41887 22.0462C5.65749 22.0462 5.89377 21.9991 6.11417 21.9077C6.33457 21.8162 6.53475 21.6821 6.70326 21.5132C6.87176 21.3442 7.00527 21.1437 7.09614 20.923C7.18701 20.7024 7.23345 20.466 7.23281 20.2274V12.6694C7.23226 12.1885 7.04098 11.7274 6.70091 11.3874C6.36085 11.0473 5.89978 10.856 5.41886 10.8555ZM26.5811 10.8555C26.1002 10.856 25.6391 11.0473 25.2991 11.3874C24.959 11.7274 24.7677 12.1885 24.7672 12.6694V20.2274C24.7665 20.466 24.813 20.7024 24.9038 20.923C24.9947 21.1437 25.1282 21.3442 25.2967 21.5132C25.4652 21.6821 25.6654 21.8162 25.8858 21.9077C26.1062 21.9991 26.3425 22.0462 26.5811 22.0462C26.8197 22.0462 27.056 21.9991 27.2764 21.9077C27.4968 21.8162 27.697 21.6821 27.8655 21.5132C28.034 21.3442 28.1675 21.1437 28.2584 20.923C28.3493 20.7024 28.3957 20.466 28.3951 20.2274V12.6694C28.3945 12.1885 28.2032 11.7274 27.8632 11.3874C27.5231 11.0473 27.062 10.856 26.5811 10.8555Z" fill="#A9C0FF"/>
</svg>
