<svg width="26" height="32" viewBox="0 0 26 32" fill="none" xmlns="http://www.w3.org/2000/svg">
<path d="M23.7072 27.9981C22.3817 29.982 20.9765 31.9179 18.8366 31.9499C16.6967 31.9979 16.01 30.686 13.5827 30.686C11.1394 30.686 10.3889 31.9179 8.36081 31.9979C6.26885 32.0779 4.6879 29.886 3.34649 27.9501C0.615756 23.9984 -1.47621 16.7189 1.33437 11.8232C2.72369 9.39138 5.21488 7.85548 7.91367 7.80748C9.95772 7.77548 11.906 9.19939 13.1675 9.19939C14.4131 9.19939 16.7766 7.4875 19.2518 7.74349C20.2898 7.79148 23.1962 8.15946 25.0646 10.9113C24.9208 11.0073 21.5993 12.9591 21.6312 17.0069C21.6791 21.8385 25.863 23.4544 25.9109 23.4704C25.863 23.5824 25.2402 25.7743 23.7072 27.9981ZM14.5888 2.39984C15.7545 1.07193 17.6868 0.0639957 19.2837 0C19.4913 1.87188 18.7408 3.75975 17.6229 5.10366C16.5211 6.46357 14.7006 7.5195 12.912 7.37551C12.6725 5.53563 13.5668 3.61576 14.5888 2.39984Z" fill="white" fill-opacity="0.4"/>
</svg>
