<svg viewBox="0 0 451 435" fill="none" xmlns="http://www.w3.org/2000/svg">
<path opacity="0.1" d="M116.803 14.2554C124.768 3.61939 136.724 -0.239017 147.695 0.0113693C158.264 0.252571 168.571 4.16905 176.882 9.7732C185.23 15.4017 192.82 23.5783 196.89 33.7488C204.682 53.1131 212.335 64.3901 220.617 72.2422C228.158 79.3921 237.118 84.577 249.731 90.1766C250.308 89.4521 250.953 88.6237 251.704 87.6534C257.061 80.7334 268.131 65.2046 288.172 61.6955C309.592 57.9453 324.438 71.2355 330.736 76.3077C331.11 76.6089 331.457 76.8853 331.78 77.1399C354.181 55.8176 377.709 45.6024 399.817 48.2962C423.088 50.2291 439.36 66.2487 446.503 85.4345L446.672 85.8918L446.692 85.9484C453.301 104.327 452.317 126.627 442.284 147.754L441.623 149.146L440.708 150.396C433.766 159.883 429.264 171.087 424.716 183.29C420.651 194.197 415.818 208.429 407.888 218.391L407.055 219.439L406.058 220.345C405.732 220.642 405.534 220.861 405.421 220.998C405.402 221.737 405.603 223.419 406.842 227.754C409.266 236.232 414.618 251.025 411.836 270.199C408.844 290.828 397.963 301.279 391.745 307.683C390.249 309.225 389.387 310.156 388.766 310.94C388.576 311.18 388.445 311.363 388.356 311.495C388.402 311.829 388.527 312.412 388.841 313.321C401.662 348.733 405.855 376.269 401.509 396.347C399.594 407.577 394.959 417.523 386.83 424.699C378.468 432.081 368.111 435.024 357.94 435C338.638 434.955 318.403 424.465 302.096 410.276C292.928 402.581 284.881 395.183 277.801 388.672C270.753 382.191 264.886 376.801 259.43 372.371C258.248 372.994 256.819 373.868 255.025 375.067C251.893 377.159 245.619 381.766 240.62 384.744C235.27 387.931 227.385 391.89 218.077 392.075L217.885 392.079L217.693 392.078C206.181 392.057 197.158 388.769 189.988 383.837C183.518 379.386 178.823 373.618 176.47 370.972C176.05 370.5 175.686 370.105 175.375 369.775C174.944 369.993 174.435 370.268 173.842 370.615L173.751 370.669L173.659 370.721C162.849 376.869 150.956 384.079 137.721 392.587L137.51 392.723L137.296 392.852C104.151 412.818 75.7774 418.535 53.3768 412.341C30.7004 409.749 15.2516 396.071 7.19137 378.742C-0.783842 361.595 -1.75862 340.846 2.46128 321.643L2.4753 321.578L2.49033 321.513C7.60364 299.136 20.1605 276.487 40.7594 261.77C46.9736 257.327 53.798 253.281 60.0134 249.595C66.4546 245.776 72.3788 242.266 77.8867 238.437C88.553 231.023 95.8883 223.582 99.4681 214.109C99.2641 213.625 98.903 212.878 98.2755 211.818C95.6898 207.448 92.0638 203.211 86.5522 195.841C77.2658 183.424 63.0213 162.571 72.0631 137.165C77.2659 121.939 88.5212 111.098 95.5146 104.014C99.4403 100.037 102.077 97.2768 103.927 94.7013C105.648 92.3048 105.89 91.1208 105.932 90.6278C107.483 72.5934 108.768 58.7565 109.159 50.7058C107.579 36.7291 109.527 23.9719 116.803 14.2554ZM146.887 32.9798C144.705 32.93 144.562 33.5065 144.518 33.5652C144.035 34.2107 141.94 37.863 143.26 48.0602L143.433 49.3921L143.379 50.7335C143.03 59.53 141.574 75.1058 140.005 93.3532C139.298 101.578 135.773 108.271 132.03 113.482C128.416 118.513 123.891 123.091 120.276 126.753C112.202 134.932 106.892 140.545 104.521 147.527L104.474 147.664L104.425 147.8C101.492 155.951 104.83 163.911 114.281 176.549C118.149 181.721 124.185 189.076 127.968 195.47C131.714 201.8 136.62 212.477 132.019 224.235C125.205 243.31 111.264 255.885 97.8761 265.191C91.1688 269.853 84.1379 274.001 77.9187 277.689C71.475 281.509 65.9352 284.819 61.1138 288.266L61.1102 288.269C48.5703 297.228 39.6567 312.136 35.8925 328.551C32.8207 342.591 34.0449 355.912 38.3852 365.243C42.3635 373.796 48.5968 378.713 57.8431 379.641L58.2859 379.682L60.189 379.845L62.0076 380.41C71.0909 383.228 89.2417 382.873 118.995 364.995C132.551 356.286 144.879 348.809 156.22 342.356C164.695 337.418 174.467 334.226 184.766 337.155C193.971 339.774 199.768 346.518 202.421 349.502C206.019 353.548 207.592 355.442 209.839 356.987C211.343 358.022 213.409 359.035 217.415 359.098C217.676 359.055 219.2 358.744 222.655 356.686C226.897 354.159 229.777 351.819 235.557 347.957C240.043 344.96 246.984 340.579 254.992 339.096C259.392 338.281 264.434 338.262 269.642 339.929C274.394 341.45 278.388 344.089 281.676 347.328C288.057 352.527 294.66 358.613 301.393 364.804C308.311 371.166 315.617 377.877 323.834 384.805L324.76 385.583L324.885 385.692C338.107 397.233 350.57 402.005 358.023 402.022C361.259 402.03 362.822 401.188 363.748 400.371C364.795 399.447 366.801 396.955 367.815 390.748L367.89 390.287L367.992 389.831C370.469 378.779 368.88 358.169 356.515 324.058L356.48 323.962L356.446 323.865C353.551 315.551 353.222 307.458 356.372 299.698C359.127 292.911 364.067 287.946 366.791 285.141C372.509 279.252 376.572 275.311 377.977 265.629C379.592 254.492 376.783 246.664 373.883 236.519C372.569 231.922 370.737 225.187 371.362 218.049C372.037 210.341 375.372 203.431 381.369 197.52C384.933 192.619 387.823 184.795 392.542 172.133C396.886 160.477 402.46 145.965 411.777 132.77C417.846 119.222 417.79 106.233 414.399 96.7785C410.614 86.4073 403.693 81.656 396.7 81.1377L396.208 81.101L395.718 81.0373C387.622 79.9805 372.689 83.3668 352.701 103.654C349.543 106.898 345.435 109.908 340.186 111.462C334.665 113.098 329.443 112.663 325.082 111.349C317.83 109.165 311.693 103.932 308.823 101.621C300.307 94.7622 297.663 93.55 294.279 94.1426C289.516 94.9764 285.935 98.5528 279.1 107.383C276.651 110.547 272.166 116.627 266.497 120.452C263.186 122.686 258.591 124.824 252.863 125.059C247.645 125.274 243.001 123.847 239.123 121.741C223.445 115.014 209.176 107.636 196.65 95.7599C183.822 83.5971 173.911 67.7813 165.018 45.6815L165.009 45.6587L164.999 45.6361C163.82 42.6798 161.166 39.4123 157.294 36.8015C153.373 34.158 149.472 33.0388 146.887 32.9798Z" fill="white"/>
</svg>
