<svg viewBox="0 0 748 531" fill="none" xmlns="http://www.w3.org/2000/svg">
<path d="M2.82778 140.684C1.26604 134.856 4.72492 128.865 10.5534 127.303L366.874 31.8274C372.702 30.2656 378.693 33.7245 380.255 39.553L401.463 118.704C403.025 124.532 399.566 130.523 393.737 132.085L37.4173 227.56C31.5888 229.122 25.5978 225.663 24.0361 219.835L2.82778 140.684Z" fill="white"/>
<path d="M35.1188 150.748C35.372 150.68 35.5878 150.514 35.7199 150.287L36.222 149.418C36.2999 149.304 36.3535 149.175 36.3793 149.04C36.4052 148.905 36.4028 148.765 36.3723 148.631C36.3418 148.497 36.2838 148.37 36.2021 148.259C36.1203 148.148 36.0165 148.055 35.8971 147.986C35.7777 147.917 35.6454 147.874 35.5085 147.859C35.3715 147.843 35.2328 147.856 35.1012 147.897C34.9695 147.938 34.8477 148.005 34.7434 148.096C34.6391 148.186 34.5546 148.296 34.4951 148.421L34.0413 149.277C33.9099 149.506 33.8745 149.778 33.9429 150.033C34.0113 150.289 34.1779 150.506 34.4063 150.639C34.6219 150.763 34.876 150.802 35.1188 150.748ZM29.0461 149.953C29.3022 149.884 29.5207 149.717 29.6533 149.487C29.7859 149.258 29.8218 148.985 29.7532 148.728L29.4944 147.762C29.4257 147.506 29.2581 147.288 29.0284 147.155C28.7987 147.023 28.5258 146.987 28.2696 147.055C28.0134 147.124 27.795 147.292 27.6624 147.521C27.5298 147.751 27.4939 148.024 27.5625 148.28L27.8213 149.246C27.89 149.502 28.0576 149.721 28.2872 149.853C28.5169 149.986 28.7899 150.022 29.0461 149.953ZM22.8716 157.819L21.9056 158.078C21.6495 158.147 21.4311 158.314 21.2984 158.544C21.1658 158.774 21.1299 159.047 21.1985 159.303C21.2672 159.559 21.4348 159.777 21.6645 159.91C21.8942 160.043 22.1671 160.079 22.4233 160.01L23.3892 159.751C23.6454 159.682 23.8638 159.515 23.9964 159.285C24.129 159.055 24.165 158.783 24.0963 158.526C24.0277 158.27 23.8601 158.052 23.6304 157.919C23.4007 157.787 23.1278 157.751 22.8716 157.819ZM23.4334 153.579C23.6611 153.71 23.9309 153.745 24.1846 153.678C24.3119 153.645 24.4314 153.587 24.5362 153.507C24.641 153.428 24.729 153.328 24.7953 153.214C24.9267 152.985 24.9621 152.713 24.8937 152.458C24.8254 152.203 24.6588 151.985 24.4304 151.852L23.5608 151.35C23.3336 151.242 23.0738 151.223 22.8332 151.297C22.5926 151.372 22.389 151.534 22.2631 151.752C22.1371 151.971 22.0982 152.228 22.1539 152.474C22.2097 152.719 22.356 152.935 22.5638 153.077L23.4334 153.579ZM39.2923 153.419L38.3264 153.678C38.0702 153.747 37.8518 153.914 37.7192 154.144C37.5866 154.374 37.5506 154.647 37.6193 154.903C37.6879 155.159 37.8555 155.377 38.0852 155.51C38.3149 155.643 38.5878 155.679 38.844 155.61L39.81 155.351C40.0661 155.283 40.2846 155.115 40.4172 154.885C40.5498 154.656 40.5857 154.383 40.5171 154.126C40.4484 153.87 40.2808 153.652 40.0511 153.519C39.8214 153.387 39.5485 153.351 39.2923 153.419ZM31.4448 162.769L28.547 163.545C28.2908 163.614 28.0724 163.782 27.9398 164.011C27.8072 164.241 27.7713 164.514 27.8399 164.77C27.9085 165.026 28.0761 165.245 28.3058 165.377C28.5355 165.51 28.8085 165.546 29.0646 165.477L31.9624 164.701C32.2186 164.632 32.437 164.465 32.5696 164.235C32.7022 164.005 32.7382 163.732 32.6695 163.476C32.6009 163.22 32.4333 163.002 32.2036 162.869C31.9739 162.736 31.701 162.7 31.4448 162.769ZM37.171 157.094L36.321 157.321C36.4002 156.641 36.3491 155.952 36.1704 155.291C35.7929 153.882 34.8711 152.681 33.6078 151.951C32.3445 151.222 30.8433 151.024 29.4343 151.402C28.0253 151.78 26.824 152.701 26.0947 153.965C25.3653 155.228 25.1677 156.729 25.5452 158.138C25.721 158.8 26.0212 159.422 26.4299 159.972L25.5799 160.199C25.3237 160.268 25.1053 160.436 24.9727 160.665C24.8401 160.895 24.8041 161.168 24.8728 161.424C24.9414 161.68 25.109 161.899 25.3387 162.031C25.5684 162.164 25.8413 162.2 26.0975 162.131L37.6886 159.025C37.9448 158.957 38.1632 158.789 38.2958 158.559C38.4284 158.33 38.4644 158.057 38.3957 157.801C38.3271 157.544 38.1595 157.326 37.9298 157.193C37.7001 157.061 37.4272 157.025 37.171 157.094ZM34.1283 157.909L28.6225 159.384C28.066 158.93 27.6654 158.314 27.4771 157.62C27.2368 156.724 27.3626 155.769 27.8267 154.965C28.2908 154.161 29.0553 153.574 29.9519 153.334C30.8486 153.094 31.8039 153.219 32.6078 153.684C33.4117 154.148 33.9983 154.912 34.2385 155.809C34.4219 156.503 34.3834 157.237 34.1283 157.909ZM36.2744 161.475L35.3085 161.734C35.0523 161.802 34.8339 161.97 34.7013 162.2C34.5687 162.429 34.5327 162.702 34.6014 162.958C34.67 163.215 34.8376 163.433 35.0673 163.566C35.297 163.698 35.57 163.734 35.8261 163.666L36.7921 163.407C37.0482 163.338 37.2667 163.171 37.3993 162.941C37.5319 162.711 37.5678 162.438 37.4992 162.182C37.4305 161.926 37.2629 161.707 37.0332 161.575C36.8036 161.442 36.5306 161.406 36.2744 161.475Z" fill="#FFBE70"/>
<path d="M49.18 146.585L50.2549 150.597L52.682 149.947C53.3519 149.767 53.8228 149.453 54.0948 149.005C54.3667 148.556 54.4171 148.013 54.2459 147.374C54.0788 146.75 53.757 146.312 53.2804 146.058C52.8038 145.805 52.2306 145.768 51.5607 145.947L49.18 146.585ZM50.6298 151.996L51.7792 156.286L50.0478 156.75L47.0592 145.596L51.38 144.438C52.524 144.132 53.5138 144.198 54.3493 144.637C55.1835 145.071 55.7401 145.808 56.019 146.849C56.222 147.606 56.2069 148.323 55.9736 148.998C55.7442 149.667 55.3223 150.206 54.708 150.613L58.4267 154.505L56.4324 155.039L53.0105 151.358L50.6298 151.996ZM65.5783 151.545C65.0791 152.485 64.2446 153.111 63.0749 153.425C61.9051 153.738 60.8691 153.613 59.9667 153.048C59.0629 152.478 58.4363 151.542 58.087 150.238C57.7391 148.939 57.8147 147.82 58.3139 146.88C58.8118 145.935 59.6455 145.305 60.8153 144.992C61.985 144.679 63.0218 144.807 63.9256 145.376C64.828 145.941 65.4531 146.872 65.8011 148.171C66.1504 149.475 66.0762 150.599 65.5783 151.545ZM62.7062 152.049C63.371 151.871 63.8296 151.48 64.0822 150.877C64.3347 150.273 64.3408 149.523 64.1006 148.627C63.8617 147.735 63.4795 147.092 62.9539 146.697C62.4335 146.301 61.8435 146.191 61.1839 146.368C60.5244 146.545 60.0657 146.935 59.808 147.54C59.5555 148.143 59.5486 148.891 59.7875 149.782C60.0278 150.679 60.4081 151.325 60.9285 151.722C61.4541 152.117 62.0466 152.226 62.7062 152.049ZM72.9746 141.891L75.1534 150.023L73.5534 150.451L73.1847 149.076L73.1461 149.086C72.9491 150.227 72.2452 150.959 71.0342 151.284C70.1479 151.521 69.3779 151.441 68.7241 151.041C68.0742 150.636 67.6242 149.966 67.3743 149.034L65.9639 143.77L67.6334 143.322L68.9569 148.262C69.124 148.885 69.3979 149.32 69.7786 149.566C70.1579 149.807 70.6336 149.85 71.2055 149.697C71.8033 149.537 72.2237 149.22 72.4668 148.746C72.7099 148.272 72.7458 147.716 72.5746 147.077L71.305 142.339L72.9746 141.891ZM74.5999 139.393L76.2773 138.943L76.793 140.868L78.3389 140.454L78.693 141.776L77.1471 142.19L78.3484 146.673C78.4423 147.023 78.5912 147.26 78.7951 147.382C78.999 147.504 79.271 147.519 79.6111 147.428C79.8585 147.362 80.038 147.3 80.1496 147.243L80.5038 148.564C80.3114 148.671 80.0092 148.78 79.5969 148.89C78.7776 149.11 78.1453 149.1 77.7 148.86C77.2584 148.614 76.932 148.096 76.7208 147.308L75.4698 142.639L74.2872 142.956L73.933 141.634L75.1157 141.318L74.5999 139.393ZM81.9477 148.202L79.7688 140.071L81.4384 139.623L83.6172 147.755L81.9477 148.202ZM80.898 138.194C80.7571 138.431 80.5526 138.585 80.2847 138.657C80.0167 138.729 79.7626 138.697 79.5222 138.563C79.287 138.427 79.1342 138.228 79.0637 137.965C78.9919 137.697 79.0239 137.445 79.1597 137.21C79.3007 136.974 79.5051 136.819 79.7731 136.748C80.0462 136.674 80.3004 136.706 80.5356 136.841C80.776 136.976 80.932 137.177 81.0038 137.445C81.0743 137.708 81.039 137.958 80.898 138.194ZM85.3255 147.297L83.1466 139.166L84.7389 138.739L85.1035 140.099L85.1421 140.089C85.2418 139.554 85.4729 139.097 85.8353 138.719C86.1977 138.34 86.6856 138.068 87.2988 137.904C88.1903 137.665 88.9551 137.747 89.5934 138.151C90.2303 138.549 90.6744 139.217 90.9257 140.155L92.3362 145.419L90.6589 145.868L89.3354 140.929C89.1697 140.311 88.8972 139.881 88.5179 139.64C88.1423 139.393 87.6686 139.346 87.0966 139.499C86.5091 139.656 86.0913 139.973 85.8431 140.448C85.5948 140.923 85.5556 141.478 85.7255 142.112L86.9951 146.85L85.3255 147.297ZM97.0668 137.35C96.596 137.056 96.072 136.986 95.4948 137.141C94.9177 137.296 94.4916 137.623 94.2166 138.121C93.9402 138.615 93.865 139.179 93.9908 139.814L98.0566 138.725C97.8675 138.101 97.5376 137.643 97.0668 137.35ZM98.6992 141.154L100.284 140.729C100.365 141.508 100.148 142.221 99.6306 142.868C99.1135 143.514 98.3912 143.962 97.4636 144.21C96.2733 144.529 95.2353 144.407 94.3498 143.844C93.468 143.273 92.8545 142.344 92.5093 141.056C92.1669 139.778 92.2315 138.659 92.7032 137.699C93.1801 136.737 93.9905 136.103 95.1345 135.796C96.2578 135.495 97.248 135.625 98.1051 136.185C98.9607 136.74 99.5542 137.636 99.8856 138.872L100.039 139.444L94.2958 140.983L94.3227 141.084C94.5133 141.795 94.8643 142.311 95.3756 142.633C95.887 142.954 96.4751 143.026 97.1398 142.847C97.6088 142.722 97.9817 142.506 98.2587 142.2C98.5356 141.893 98.6824 141.545 98.6992 141.154Z" fill="#FFBE70"/>
<path d="M31.262 198.421L26.7791 181.69L37.2256 178.891L37.8252 181.128L29.9758 183.232L31.3956 188.53L38.584 186.604L39.1712 188.795L31.9827 190.722L33.8592 197.725L31.262 198.421ZM46.1159 194.677C43.6811 195.329 41.6455 194.271 41.0583 192.08L41.0521 192.057C40.4836 189.935 41.782 188.195 44.6224 187.248L47.8856 186.162L47.6402 185.246C47.2798 183.901 46.1927 183.323 44.6391 183.739C43.1898 184.127 42.4804 185.051 42.5326 186.08L42.5374 186.191L40.1721 186.825L40.1496 186.694C39.7612 184.549 41.1496 182.45 44.1526 181.645C47.1323 180.847 49.4447 181.917 50.1002 184.363L52.3526 192.769L49.8366 193.443L49.3209 191.519L49.2745 191.531C48.9183 193.031 47.7275 194.245 46.1159 194.677ZM43.5704 191.345C43.8562 192.411 44.9175 192.848 46.2625 192.487C48.0248 192.015 49.0382 190.464 48.6126 188.875L48.3578 187.925L45.4278 188.908C43.9454 189.405 43.2877 190.29 43.5642 191.322L43.5704 191.345ZM54.3125 192.244L51.0442 180.047L53.5486 179.376L54.055 181.266L54.113 181.25C54.293 179.835 55.3068 178.656 56.9068 178.228C58.588 177.777 60.05 178.317 60.947 179.717L61.005 179.702C61.2334 178.05 62.4257 176.749 64.1648 176.283C66.5765 175.637 68.582 176.814 69.2375 179.26L71.4836 187.643L68.9677 188.317L66.8831 180.538C66.4575 178.949 65.3657 178.26 63.8816 178.658C62.3975 179.055 61.6639 180.445 62.0771 181.987L64.1213 189.616L61.6633 190.275L59.529 182.309C59.15 180.895 58.0149 180.23 56.6004 180.609C55.1163 181.006 54.375 182.46 54.7975 184.037L56.8168 191.573L54.3125 192.244ZM71.017 172.682C70.2054 172.9 69.3821 172.424 69.1709 171.636C68.9565 170.836 69.4318 170.013 70.2434 169.795C71.0666 169.575 71.8783 170.053 72.0926 170.853C72.3039 171.641 71.8402 172.462 71.017 172.682ZM73.5363 187.093L70.2681 174.896L72.7724 174.225L76.0407 186.422L73.5363 187.093ZM78.2441 185.832L73.7611 169.101L76.2655 168.43L80.7484 185.161L78.2441 185.832ZM85.3756 188.283C84.8887 188.413 84.3514 188.495 84.0344 188.518L83.5094 186.558C83.7189 186.552 84.0212 186.521 84.3574 186.43C85.54 186.114 86.1054 185.627 86.2059 184.332L86.2593 183.696L78.5473 172.677L81.2604 171.951L86.9922 181.052L87.0734 181.03L87.4866 170.282L90.1301 169.574L89.0056 183.557C88.7785 186.327 87.764 187.643 85.3756 188.283ZM103.354 179.364C100.247 180.197 97.5943 178.273 96.5536 174.389L96.5505 174.378C95.5097 170.494 96.8747 167.518 99.9356 166.698C101.663 166.235 103.287 166.732 104.403 167.974L104.45 167.961L102.679 161.353L105.195 160.679L109.678 177.409L107.162 178.083L106.609 176.019L106.562 176.032C106.214 177.654 105.105 178.895 103.354 179.364ZM103.437 177.031C105.327 176.524 106.22 174.521 105.539 171.982L105.536 171.97C104.859 169.442 103.073 168.156 101.194 168.66C99.2234 169.188 98.4231 171.117 99.1128 173.691L99.1159 173.703C99.8118 176.3 101.455 177.562 103.437 177.031ZM109.362 162.408C108.55 162.625 107.727 162.15 107.516 161.361C107.301 160.561 107.777 159.738 108.588 159.521C109.411 159.3 110.223 159.779 110.437 160.579C110.649 161.367 110.185 162.187 109.362 162.408ZM111.881 176.819L108.613 164.621L111.117 163.95L114.385 176.148L111.881 176.819ZM116.496 175.582L113.228 163.385L115.732 162.714L116.226 164.557L116.284 164.542C116.589 163.13 117.618 161.96 119.461 161.466C122.14 160.748 124.145 162.063 124.896 164.869L127.012 172.764L124.496 173.439L122.508 166.018C122.017 164.186 120.883 163.384 119.143 163.85C117.381 164.322 116.587 165.902 117.096 167.804L119 174.911L116.496 175.582ZM128.96 172.242L125.692 160.045L128.197 159.374L128.69 161.218L128.748 161.202C129.054 159.791 130.082 158.62 131.926 158.126C134.604 157.409 136.609 158.723 137.361 161.529L139.476 169.425L136.96 170.099L134.972 162.678C134.481 160.846 133.347 160.044 131.608 160.51C129.845 160.983 129.051 162.562 129.56 164.464L131.465 171.571L128.96 172.242ZM146.696 167.751C143.113 168.711 140.29 166.846 139.258 162.996L139.255 162.985C138.233 159.17 139.752 156.029 143.173 155.113C146.593 154.196 149.35 156.092 150.332 159.756L150.559 160.602L141.921 162.917C142.586 165.211 144.21 166.218 146.204 165.683C147.688 165.286 148.468 164.256 148.536 163.257L148.546 163.154L150.923 162.518L150.934 162.651C151.058 164.693 149.652 166.959 146.696 167.751ZM143.734 157.162C142.111 157.597 141.154 159.034 141.48 161.133L147.602 159.493C146.828 157.439 145.369 156.724 143.734 157.162ZM153.495 165.668L150.227 153.471L152.731 152.8L153.29 154.887L153.348 154.871C153.36 153.34 154.141 152.174 155.533 151.801C155.892 151.704 156.221 151.679 156.427 151.661L157.052 153.991C156.833 153.963 156.377 154.023 155.89 154.153C154.278 154.585 153.564 155.907 154.051 157.728L155.999 164.997L153.495 165.668Z" fill="black"/>
<rect x="311.748" y="69.2207" width="62.9257" height="27.4628" rx="13.7314" transform="rotate(-15 311.748 69.2207)" fill="#F4F4F4"/>
<path d="M325.356 86.002L323.671 86.4535L320.682 75.2997L322.251 74.8793L330.237 81.5543L330.299 81.5378L328.095 73.3135L329.78 72.862L332.769 84.0158L331.207 84.4341L323.224 77.7668L323.154 77.7855L325.356 86.002ZM338.167 82.7351C335.84 83.3585 333.881 82.1685 333.179 79.5482C332.479 76.9356 333.588 74.9235 335.907 74.3021C338.226 73.6808 340.193 74.8687 340.893 77.4812C341.595 80.1016 340.493 82.1117 338.167 82.7351ZM337.798 81.3592C339.112 81.0071 339.677 79.7456 339.192 77.9369C338.71 76.1359 337.582 75.328 336.276 75.678C334.969 76.028 334.397 77.2916 334.879 79.0926C335.364 80.9013 336.492 81.7092 337.798 81.3592ZM343.273 81.2011L341.094 73.0696L342.686 72.643L343.057 74.0266L343.096 74.0162C343.112 72.993 343.687 72.234 344.645 71.9772C344.885 71.913 345.104 71.8957 345.234 71.8858L345.65 73.4394C345.504 73.4205 345.2 73.4606 344.876 73.5476C343.801 73.8355 343.329 74.7324 343.638 75.8841L344.943 80.7537L343.273 81.2011ZM348.467 79.8093L346.288 71.6778L347.881 71.2512L348.247 72.6193L348.286 72.609C348.407 71.6073 349.096 70.7765 350.193 70.4824C351.322 70.18 352.296 70.5402 352.892 71.4658L352.931 71.4554C353.083 70.3542 353.88 69.4945 355.04 69.1838C356.647 68.753 357.984 69.538 358.417 71.1535L359.915 76.742L358.237 77.1914L356.848 72.0049C356.566 70.9537 355.84 70.502 354.851 70.7671C353.861 71.0322 353.37 71.9508 353.646 72.9788L355.006 78.0571L353.368 78.4962L351.945 73.186C351.694 72.2507 350.94 71.815 349.997 72.0677C349.007 72.3328 348.511 73.2943 348.791 74.3377L350.137 79.3619L348.467 79.8093ZM364.058 74.3643C365.225 74.0516 365.922 73.0033 365.638 71.9444L365.466 71.3028L363.497 71.9629C362.519 72.2996 362.072 72.8914 362.259 73.5871C362.449 74.2982 363.161 74.6046 364.058 74.3643ZM363.948 75.8103C362.356 76.237 360.978 75.5458 360.586 74.085C360.205 72.6627 361.061 71.4973 362.964 70.8713L365.155 70.1434L364.988 69.5173C364.745 68.6129 363.99 68.2355 362.969 68.5089C362.003 68.7678 361.524 69.3931 361.572 70.159L359.995 70.5815C359.695 69.088 360.657 67.6704 362.667 67.1319C364.638 66.6038 366.177 67.3097 366.614 68.9406L368.116 74.5445L366.516 74.9732L366.157 73.636L366.119 73.6464C365.89 74.6771 365.015 75.5245 363.948 75.8103ZM369.801 74.093L366.812 62.9393L368.482 62.4919L371.47 73.6456L369.801 74.093Z" fill="#A4A4A4"/>
<path opacity="0.4" d="M335.189 122.909L331.3 108.393L331.253 108.405L327.679 112.781L327.088 110.578L330.683 106.185L332.724 105.638L337.207 122.368L335.189 122.909ZM346.372 120.211C344.949 120.592 343.626 120.524 342.402 120.007C341.179 119.49 340.263 118.608 339.656 117.363L341.778 116.794C342.205 117.492 342.794 117.988 343.544 118.284C344.292 118.573 345.08 118.606 345.907 118.384C347.298 118.012 348.215 117.12 348.657 115.709C349.105 114.288 349.046 112.461 348.481 110.226L348.469 110.229L348.446 110.236C348.312 111.158 347.887 111.984 347.171 112.715C346.461 113.435 345.573 113.938 344.506 114.224C342.914 114.651 341.448 114.48 340.107 113.713C338.774 112.943 337.895 111.766 337.471 110.182C337.028 108.527 337.219 107.014 338.044 105.641C338.875 104.259 340.148 103.338 341.864 102.878C343.124 102.54 344.321 102.572 345.456 102.972C346.588 103.364 347.57 104.091 348.401 105.153C349.289 106.273 349.976 107.738 350.461 109.547C351.217 112.368 351.237 114.715 350.521 116.589C349.803 118.455 348.42 119.662 346.372 120.211ZM344.375 112.296C345.48 112 346.306 111.401 346.852 110.501C347.398 109.601 347.528 108.618 347.242 107.551C346.954 106.477 346.34 105.672 345.402 105.136C344.469 104.591 343.465 104.462 342.39 104.75C341.316 105.038 340.506 105.648 339.961 106.582C339.414 107.507 339.281 108.495 339.562 109.547C339.854 110.636 340.455 111.441 341.364 111.959C342.274 112.478 343.277 112.59 344.375 112.296ZM356.464 113.816C356.277 114.139 355.998 114.351 355.627 114.45C355.256 114.55 354.909 114.506 354.586 114.319C354.262 114.132 354.051 113.854 353.951 113.483C353.852 113.112 353.896 112.764 354.082 112.441C354.269 112.118 354.548 111.906 354.919 111.807C355.29 111.707 355.637 111.751 355.961 111.938C356.284 112.124 356.495 112.403 356.595 112.774C356.694 113.145 356.651 113.492 356.464 113.816ZM354.177 105.283C353.991 105.606 353.712 105.817 353.341 105.917C352.97 106.016 352.623 105.973 352.299 105.786C351.976 105.599 351.764 105.32 351.665 104.949C351.565 104.578 351.609 104.231 351.796 103.908C351.983 103.584 352.261 103.373 352.632 103.273C353.003 103.174 353.351 103.217 353.674 103.404C353.998 103.591 354.209 103.87 354.308 104.241C354.408 104.612 354.364 104.959 354.177 105.283ZM361.609 107.554L361.137 105.791L363.142 105.254C364.101 104.997 364.812 104.512 365.275 103.8C365.737 103.08 365.854 102.295 365.626 101.444C365.398 100.594 364.935 99.9934 364.236 99.6422C363.537 99.291 362.67 99.2541 361.634 99.5317C360.675 99.7885 359.963 100.253 359.497 100.924C359.031 101.596 358.869 102.385 359.013 103.291L357.007 103.828C356.742 102.375 356.987 101.096 357.743 99.9902C358.507 98.8826 359.673 98.1185 361.242 97.6981C362.749 97.2942 364.11 97.3645 365.325 97.9089C366.539 98.4533 367.314 99.3517 367.65 100.604C367.93 101.647 367.855 102.607 367.428 103.484C367 104.361 366.285 105.033 365.284 105.5L365.296 105.547C366.584 105.284 367.702 105.42 368.648 105.953C369.593 106.479 370.222 107.329 370.537 108.504C370.788 109.439 370.751 110.352 370.426 111.243C370.101 112.133 369.546 112.904 368.759 113.554C367.972 114.204 367.034 114.675 365.944 114.967C364.212 115.431 362.701 115.371 361.41 114.79C360.119 114.208 359.247 113.224 358.792 111.837L360.798 111.3C361.125 112.149 361.704 112.747 362.535 113.096C363.363 113.438 364.331 113.46 365.436 113.164C366.541 112.868 367.374 112.342 367.934 111.588C368.501 110.831 368.668 110.016 368.434 109.142C368.171 108.16 367.615 107.477 366.766 107.091C365.925 106.704 364.905 106.67 363.707 106.991L361.609 107.554ZM379.776 111.26C377.836 111.78 376.114 111.413 374.61 110.159C373.111 108.895 372.005 106.93 371.29 104.264C370.582 101.62 370.565 99.3755 371.238 97.5298C371.918 95.6743 373.219 94.4888 375.144 93.973C377.069 93.4573 378.78 93.8313 380.279 95.095C381.783 96.3489 382.89 98.3014 383.6 100.953C384.315 103.619 384.339 105.875 383.674 107.718C383.008 109.562 381.709 110.742 379.776 111.26ZM375.795 108.413C376.833 109.443 377.998 109.786 379.288 109.44C380.579 109.094 381.414 108.22 381.792 106.818C382.168 105.408 382.072 103.644 381.505 101.527C380.946 99.4396 380.147 97.8807 379.109 96.85C378.068 95.8116 376.91 95.4632 375.635 95.8049C374.36 96.1467 373.527 97.0284 373.138 98.45C372.748 99.8716 372.831 101.618 373.386 103.69C373.953 105.808 374.756 107.382 375.795 108.413Z" fill="black"/>
<g clip-path="url(#clip0_1_3896)">
<path d="M462.507 351.37C503.734 391.808 554.315 495.616 574.452 542.466L248.973 548.383V462.329C245.849 463.726 238.863 466.964 235.904 468.74C232.945 470.515 234.671 451.89 235.904 442.356L243.548 405.616C236.89 408.411 222.737 414.246 219.384 415.233C216.03 416.219 217.986 403.808 219.384 397.479L243.548 355.562L227.767 351.37L248.973 311.918L243.548 297.863L227.767 294.904L235.904 271.233L206.562 274.685L223.575 228.822L202.863 222.904C213.137 209.918 234.129 182.91 235.904 178.767C237.68 174.625 228.425 169.151 223.575 166.931C229.082 161.589 240.786 150.312 243.548 147.945C246.31 145.578 234.178 136.438 227.767 132.164L243.548 124.274V104.301V71.9999L251.932 39.452L265.986 33.041L288.425 52.5205L326.644 99.6164C328.041 93.6986 329.11 81.9122 330.096 77.178C331.082 72.4438 346.617 87.7807 353.274 96.6575L388.041 93.6986C390.425 96.2465 397.115 104.301 399.877 104.301C403.329 104.301 412.945 90.2465 413.932 85.5616C414.721 81.8136 437.932 58.0273 445.493 48.5753C455.932 44.2191 469.855 36.9862 473.603 36.9862C477.351 36.9862 481.082 67.7259 482.48 81.8629V150.904L499 157.315L479.027 178.767L494.315 198L479.027 203.918L504.178 263.096H479.027V303.288L462.507 324.246L473.603 346.192L462.507 351.37Z" fill="#FBEEDA"/>
<path d="M310.616 229.809C310.405 230.479 310.316 231.424 310.363 232.531C307.425 254.609 284.657 253.818 270.425 247.809C266.479 245.589 278.973 257.343 284.973 261.617C285.301 269.425 287.882 287.754 295.575 298.603C305.192 312.165 319.335 314.016 325.904 312.904C341.931 310.192 354.014 299.632 361.904 292.192C375.654 279.228 383.047 261.765 390.169 240.437C390.229 240.335 390.26 240.244 390.26 240.165C390.23 240.256 390.2 240.346 390.169 240.437C388.913 242.582 374.847 249.737 361.904 253.973C348.342 258.411 324.178 250.028 317.027 245.589C312.534 242.8 310.536 236.583 310.363 232.531C310.479 231.659 310.564 230.752 310.616 229.809Z" fill="#2F2F2F" stroke="#2F2F2F" stroke-width="9.86301" stroke-linecap="round"/>
<path d="M461.274 323.507C463.493 331.644 471.285 340.126 474.836 344.466C478.386 348.806 467.027 349.233 459.795 347.425C489.795 378.822 554.529 465.534 571.493 538.521M425.027 307.48C432.671 311.096 448.255 317.589 449.438 314.63C450.918 310.932 449.932 290.959 447.712 287.754C455.192 294.329 471.433 307.48 476.562 307.48C479.438 300 483.91 279.912 478.781 259.397C485.767 261.863 500.923 266.252 505.658 264.082C502.781 252.74 492.934 224.877 476.562 204.165C482.808 204.082 495.499 202.734 496.288 198C491.767 193.562 481.937 183.502 478.781 178.767C486.918 173.014 502.847 160.471 501.466 156.329C497.027 154.849 486.819 151.644 481.493 150.658C486.096 123.041 491.159 61.8412 474.589 37.9727C468.671 32.3837 445.838 37.4303 401.849 102.329" stroke="#2F2F2F" stroke-width="9.86301" stroke-linecap="round" stroke-linejoin="round"/>
<path d="M391.74 92.7119C385.74 93.5338 372.507 95.8188 367.575 98.3831" stroke="#2F2F2F" stroke-width="9.86301" stroke-linecap="round" stroke-linejoin="round"/>
<path d="M354.26 99.1236C348.671 92.4661 336.458 78.7072 332.315 76.9318C328.173 75.1565 325.658 90.9866 324.918 99.1236C309.137 77.014 273.975 32.0058 259.575 28.8497C252.507 28.6853 239.553 47.9346 244.288 126.247L224.808 132.411L242.068 149.672L224.808 168.411" stroke="#2F2F2F" stroke-width="9.86301" stroke-linecap="round" stroke-linejoin="round"/>
<path d="M240.096 173.096L200.397 223.397C207.055 225.863 221.406 230.055 225.548 227.096C218.151 240.246 204.096 268.471 207.055 276.164C212.233 276.657 224.611 276.312 232.699 270.986C230.233 279.287 226.781 296.531 232.699 299.096C237.055 299.424 247.986 298.504 256.863 292.192" stroke="#2F2F2F" stroke-width="9.86301" stroke-linecap="round" stroke-linejoin="round"/>
<path d="M252.425 310.438C248.479 320.219 237.383 341.704 224.562 349.397C229.411 351.863 240.441 356.055 245.767 353.096C235.246 368.877 215.241 403.545 219.383 415.973C227.438 413.836 243.992 408.23 245.767 402.904C239.603 414.904 228.901 445.019 235.411 469.48C241.082 466.11 252.425 458.482 252.425 454.932C251.356 478.438 248.529 528.362 245.767 540" stroke="#2F2F2F" stroke-width="9.86301" stroke-linecap="round" stroke-linejoin="round"/>
<path d="M443.521 466.768C445.493 479.918 449.29 507.699 448.699 513.617C448.107 519.535 439.575 510.658 435.384 505.48L430.945 548.631" stroke="#2F2F2F" stroke-width="9.86301" stroke-linecap="round" stroke-linejoin="round"/>
<path d="M367.082 404.384C370.37 416.137 377.636 440.433 380.397 443.589C383.159 446.745 361.329 439.644 350.068 435.699C349.904 444.904 347.997 465.584 341.685 474.658" stroke="#E7D4B1" stroke-width="7.39726" stroke-linecap="round" stroke-linejoin="round"/>
<path d="M327.877 458.383C327.63 460.602 324.671 480.822 316.288 485.507C307.904 490.192 294.342 448.027 296.562 440.63C294.178 444.904 288.03 453.945 282.507 455.918" stroke="#E7D4B1" stroke-width="7.39726" stroke-linecap="round" stroke-linejoin="round"/>
<path d="M281.027 402.411C276.342 409.973 267.762 427.907 270.918 439.151" stroke="#E7D4B1" stroke-width="7.39726" stroke-linecap="round" stroke-linejoin="round"/>
<path d="M504.178 468.739C498.507 469.972 478.781 462.822 461.274 489.698" stroke="#E7D4B1" stroke-width="7.39726" stroke-linecap="round" stroke-linejoin="round"/>
<path d="M367.329 316.603C354.754 333.534 321.663 357.583 289.904 318.329" stroke="#E7D4B1" stroke-width="7.39726" stroke-linecap="round" stroke-linejoin="round"/>
<path d="M457.575 144H452.89L440.069 132.657C443.603 129.699 449.29 121.216 447.712 116.877C446.134 112.537 435.548 116.548 429.959 118.356L426.014 115.89C436.123 102.493 458.512 70.915 463.247 73.4794C467.981 76.0438 461.521 123.37 457.575 144Z" fill="#F0BA91"/>
<path d="M270.918 66.3282C276.342 68.3008 290.644 98.1364 290.644 99.3693C290.151 99.9447 287.931 100.356 283 97.3968C278.068 94.4379 274.863 96.1639 273.877 97.3968C273.219 98.9585 272.327 103.966 276.836 108.739C281.027 113.178 278.666 115.285 278.068 115.643C276.836 116.383 272.397 120.657 269.438 122.548C268.123 123.616 265.099 124.816 263.521 121.068C261.942 117.32 264.178 85.4789 265.493 70.0268C265.493 68.1364 266.578 64.7501 270.918 66.3282Z" fill="#F0BA91"/>
<path d="M405.055 156.329C401.767 148.439 391.542 134.483 376.945 141.781" stroke="#E7D4B1" stroke-width="7.39726" stroke-linecap="round"/>
<path d="M308.89 138.249C302.233 133.564 286.501 128.386 276.836 145.153" stroke="#E7D4B1" stroke-width="7.39726" stroke-linecap="round"/>
<path d="M336.859 217.004C332.315 225.617 318.768 230.002 309.63 233.754C301.954 228.264 292.673 221.854 289.658 217.004C286.642 212.155 288.502 203.609 293.546 200.534C299.851 196.691 319.589 196.966 329.458 200.534C339.327 204.103 340.681 209.762 336.859 217.004Z" fill="#2F2F2F"/>
<path d="M356.479 270.493C352.781 270.493 335.027 271.726 333.301 271.726C331.658 274.027 327.729 279.222 325.164 281.589C321.959 284.548 319.247 283.808 316.288 282.575C313.921 281.589 312.096 271.726 309.63 271.726C307.164 271.726 296.808 269.507 296.808 273.452C296.808 277.397 300.507 288.247 303.959 292.685C307.411 297.123 312.49 304.619 331.822 302.055C351.153 299.49 358.123 283.233 359.192 275.425C359.521 273.781 359.438 270.493 356.479 270.493Z" fill="#F0BA91"/>
<path d="M263.767 207.123C258.178 212.959 248.282 227.737 253.411 240.164" stroke="#2F2F2F" stroke-width="9.86301" stroke-linecap="round"/>
<ellipse cx="9.36986" cy="14.5479" rx="9.36986" ry="14.5479" transform="matrix(-1 0 0 1 302.479 162.74)" fill="#2F2F2F"/>
<ellipse cx="9.36986" cy="14.5479" rx="9.36986" ry="14.5479" transform="matrix(-1 0 0 1 388.288 168.657)" fill="#2F2F2F"/>
<ellipse cx="8.79162" cy="13.6501" rx="8.79162" ry="13.6501" transform="matrix(-0.866025 0.5 0.5 0.866025 393.87 223.147)" fill="#2F2F2F"/>
</g>
<path d="M463.879 156.629C464.586 151.864 469.023 148.573 473.789 149.28L739.37 188.671C744.136 189.378 747.427 193.814 746.72 198.58L737.121 263.301C736.414 268.067 731.977 271.357 727.211 270.651L461.629 231.26C456.864 230.553 453.573 226.116 454.28 221.35L463.879 156.629Z" fill="white"/>
<g clip-path="url(#clip1_1_3896)">
<path d="M483.197 173.474L482.544 173.362L482.656 172.709C482.746 172.189 482.625 171.655 482.321 171.224C482.017 170.793 481.554 170.501 481.035 170.411L474.503 169.284C473.983 169.195 473.449 169.315 473.018 169.619C472.587 169.923 472.295 170.386 472.205 170.906L470.853 178.744C470.763 179.264 470.884 179.798 471.188 180.229C471.492 180.66 471.955 180.952 472.475 181.042L481.619 182.619C482.139 182.709 482.673 182.588 483.104 182.284C483.535 181.98 483.827 181.517 483.917 180.998L484.818 175.772C484.908 175.252 484.788 174.718 484.483 174.287C484.179 173.857 483.717 173.564 483.197 173.474ZM474.277 170.591L480.809 171.717C480.983 171.747 481.137 171.845 481.238 171.988C481.34 172.132 481.38 172.31 481.35 172.483L481.237 173.136L474.052 171.897C473.879 171.867 473.725 171.77 473.623 171.626C473.522 171.482 473.482 171.304 473.512 171.131C473.541 170.958 473.639 170.804 473.783 170.702C473.926 170.601 474.104 170.561 474.277 170.591ZM482.949 178.813L482.295 178.7C482.122 178.67 481.968 178.573 481.867 178.429C481.765 178.285 481.725 178.107 481.755 177.934C481.785 177.761 481.882 177.607 482.026 177.505C482.17 177.404 482.348 177.364 482.521 177.394L483.174 177.506L482.949 178.813ZM483.399 176.2L482.746 176.087C482.226 175.998 481.692 176.118 481.261 176.422C480.831 176.726 480.538 177.189 480.449 177.709C480.359 178.229 480.479 178.763 480.783 179.193C481.088 179.624 481.55 179.917 482.07 180.006L482.723 180.119L482.611 180.772C482.581 180.945 482.483 181.1 482.34 181.201C482.196 181.303 482.018 181.343 481.845 181.313L472.7 179.735C472.527 179.705 472.373 179.608 472.271 179.464C472.17 179.321 472.13 179.143 472.16 178.97L473.193 172.98C473.39 173.09 473.604 173.165 473.827 173.203L482.971 174.781C483.145 174.811 483.299 174.908 483.4 175.052C483.502 175.195 483.542 175.373 483.512 175.547L483.399 176.2Z" fill="#7190FF"/>
</g>
<path d="M496.902 175.763L493.917 182.348L492.577 182.149L491.471 172.664L492.944 172.882L493.572 180.275L493.622 180.282L496.609 173.426L497.924 173.621L498.799 181.05L498.849 181.058L501.596 174.166L503.069 174.384L499.251 183.139L497.918 182.941L496.965 175.772L496.902 175.763ZM507.226 183.508C506.561 184.038 505.751 184.232 504.794 184.09C503.838 183.948 503.119 183.527 502.637 182.827C502.156 182.123 501.994 181.238 502.152 180.172C502.31 179.11 502.721 178.314 503.385 177.784C504.05 177.249 504.861 177.053 505.817 177.195C506.774 177.337 507.492 177.76 507.974 178.464C508.455 179.164 508.618 180.045 508.46 181.107C508.302 182.173 507.89 182.973 507.226 183.508ZM504.961 182.965C505.505 183.046 505.965 182.905 506.341 182.543C506.718 182.182 506.961 181.634 507.07 180.901C507.178 180.172 507.102 179.579 506.842 179.123C506.587 178.668 506.19 178.4 505.65 178.32C505.111 178.24 504.651 178.38 504.27 178.742C503.893 179.103 503.651 179.649 503.543 180.378C503.434 181.111 503.507 181.705 503.763 182.161C504.022 182.617 504.422 182.885 504.961 182.965ZM509.022 184.588L510.009 177.939L511.311 178.132L511.143 179.264L511.174 179.268C511.342 178.897 511.582 178.623 511.897 178.445C512.212 178.268 512.565 178.209 512.957 178.267C513.088 178.286 513.241 178.326 513.417 178.387L513.229 179.657C513.114 179.588 512.914 179.533 512.627 179.49C512.189 179.425 511.821 179.511 511.523 179.746C511.23 179.983 511.048 180.337 510.978 180.809L510.388 184.791L509.022 184.588ZM515.262 181.631L518.371 179.179L519.976 179.418L516.796 181.872L519.097 186.083L517.511 185.847L515.692 182.561L515.04 183.039L514.686 185.428L513.32 185.226L514.673 176.105L516.038 176.308L515.249 181.63L515.262 181.631Z" fill="#7190FF"/>
<path d="M469.261 208.095L467.602 193.867L469.811 194.195L470.771 205.296L470.809 205.301L475.291 195.007L477.3 195.306L478.602 206.457L478.649 206.464L482.79 196.12L484.999 196.447L479.272 209.579L477.234 209.277L475.825 198.526L475.777 198.519L471.299 208.397L469.261 208.095ZM487.197 210.958C484.334 210.534 482.76 208.275 483.236 205.071L483.238 205.052C483.711 201.866 485.89 200.174 488.725 200.595C491.569 201.017 493.174 203.26 492.7 206.455L492.697 206.474C492.221 209.688 490.051 211.382 487.197 210.958ZM487.461 209.244C489.063 209.481 490.276 208.363 490.602 206.163L490.605 206.144C490.928 203.964 490.072 202.548 488.47 202.311C486.896 202.077 485.657 203.182 485.334 205.363L485.331 205.382C485.003 207.591 485.859 209.006 487.461 209.244ZM493.153 211.638L494.632 201.665L496.68 201.968L496.427 203.675L496.474 203.682C496.969 202.564 497.912 201.957 499.049 202.126C499.343 202.17 499.592 202.255 499.749 202.307L499.467 204.213C499.315 204.123 498.962 204.022 498.564 203.963C497.246 203.767 496.303 204.509 496.082 205.998L495.2 211.942L493.153 211.638ZM499.249 212.542L501.278 198.862L503.326 199.166L502.145 207.129L502.192 207.136L506.824 203.473L509.232 203.83L504.498 207.527L507.914 213.828L505.535 213.475L502.808 208.536L501.83 209.253L501.297 212.846L499.249 212.542ZM511.613 217.767L513.585 204.476L515.633 204.779L515.378 206.495L515.425 206.502C516.198 205.406 517.405 204.849 518.827 205.059C521.368 205.436 522.703 207.669 522.231 210.855L522.229 210.864C521.758 214.04 519.822 215.797 517.319 215.426C515.906 215.216 514.866 214.326 514.45 213.082L514.402 213.075L513.661 218.071L511.613 217.767ZM517.021 213.58C518.633 213.819 519.832 212.659 520.144 210.555L520.145 210.545C520.46 208.422 519.638 206.972 518.036 206.735C516.481 206.504 515.191 207.689 514.883 209.765L514.882 209.774C514.575 211.841 515.476 213.35 517.021 213.58ZM522.696 216.02L524.175 206.046L526.223 206.35L525.97 208.057L526.017 208.064C526.512 206.945 527.455 206.339 528.593 206.508C528.886 206.551 529.135 206.637 529.292 206.689L529.01 208.595C528.858 208.504 528.505 208.404 528.107 208.345C526.789 208.149 525.846 208.891 525.625 210.379L524.743 216.324L522.696 216.02ZM532.469 217.673C529.54 217.239 528.064 214.975 528.531 211.828L528.532 211.818C528.995 208.699 531.105 206.881 533.902 207.295C536.699 207.71 538.117 209.975 537.672 212.97L537.57 213.663L530.507 212.615C530.265 214.507 531.135 215.76 532.766 216.002C533.979 216.182 534.878 215.676 535.245 214.965L535.285 214.893L537.228 215.182L537.194 215.283C536.637 216.818 534.887 218.032 532.469 217.673ZM533.663 208.975C532.335 208.778 531.178 209.527 530.75 211.169L535.756 211.911C535.841 210.16 534.999 209.173 533.663 208.975ZM541.818 219.06C539.324 218.69 538.047 217.241 538.109 215.39L538.112 215.303L540.141 215.604L540.145 215.701C540.199 216.649 540.801 217.291 542.062 217.478C543.295 217.661 544.11 217.258 544.229 216.452L544.231 216.443C544.326 215.798 544.021 215.375 542.988 214.96L541.412 214.349C539.58 213.631 538.777 212.582 538.992 211.131L538.993 211.122C539.258 209.34 540.994 208.347 543.288 208.687C545.649 209.038 546.876 210.566 546.728 212.279L546.721 212.394L544.796 212.109L544.797 212.041C544.803 211.15 544.21 210.442 543.053 210.271C541.954 210.108 541.184 210.526 541.066 211.323L541.065 211.332C540.973 211.949 541.319 212.426 542.353 212.841L543.919 213.451C545.887 214.228 546.545 215.149 546.332 216.58L546.331 216.59C546.061 218.41 544.169 219.408 541.818 219.06ZM551.337 220.471C548.407 220.037 546.931 217.774 547.398 214.626L547.399 214.617C547.862 211.497 549.973 209.679 552.769 210.094C555.566 210.509 556.984 212.773 556.54 215.769L556.437 216.461L549.374 215.413C549.132 217.306 550.002 218.559 551.633 218.8C552.846 218.98 553.745 218.474 554.112 217.763L554.152 217.692L556.095 217.98L556.061 218.081C555.504 219.617 553.754 220.83 551.337 220.471ZM552.53 211.773C551.203 211.576 550.045 212.325 549.617 213.967L554.623 214.709C554.709 212.959 553.867 211.971 552.53 211.773ZM556.979 221.105L558.458 211.131L560.506 211.435L560.283 212.942L560.33 212.949C561.002 212.012 562.127 211.482 563.634 211.705C565.824 212.03 566.876 213.63 566.536 215.924L565.578 222.38L563.521 222.075L564.421 216.008C564.643 214.51 564.066 213.562 562.644 213.351C561.203 213.137 560.119 214.042 559.889 215.597L559.027 221.409L556.979 221.105ZM570.64 223.335C568.668 223.042 567.844 222.067 568.139 220.076L568.987 214.359L567.555 214.147L567.797 212.516L569.229 212.729L569.614 210.131L571.709 210.442L571.324 213.039L573.192 213.317L572.95 214.947L571.082 214.67L570.252 220.264C570.102 221.278 570.512 221.649 571.375 221.777C571.593 221.809 571.776 221.817 571.93 221.821L571.695 223.404C571.453 223.407 571.057 223.396 570.64 223.335ZM575.772 224.076C573.781 223.781 572.626 222.36 572.892 220.568L572.894 220.549C573.152 218.814 574.655 217.952 577.037 218.16L579.773 218.401L579.884 217.652C580.047 216.552 579.434 215.783 578.164 215.595C576.979 215.419 576.166 215.87 575.877 216.641L575.845 216.723L573.911 216.437L573.936 216.334C574.333 214.639 576.017 213.542 578.472 213.906C580.909 214.267 582.263 215.786 581.966 217.786L580.947 224.66L578.89 224.355L579.123 222.781L579.085 222.775C578.348 223.761 577.09 224.272 575.772 224.076ZM574.965 220.827C574.836 221.699 575.475 222.356 576.575 222.519C578.016 222.733 579.251 221.918 579.444 220.619L579.559 219.842L577.1 219.632C575.856 219.525 575.093 219.964 574.968 220.808L574.965 220.827ZM586.018 225.615C584.046 225.323 583.222 224.348 583.517 222.357L584.365 216.64L582.934 216.428L583.175 214.797L584.607 215.01L584.992 212.412L587.088 212.723L586.702 215.32L588.57 215.597L588.328 217.228L586.46 216.951L585.631 222.545C585.48 223.559 585.89 223.93 586.753 224.058C586.971 224.09 587.154 224.098 587.309 224.102L587.074 225.685C586.831 225.688 586.435 225.677 586.018 225.615ZM591.216 214.42C590.552 214.322 590.1 213.712 590.195 213.067C590.292 212.413 590.902 211.961 591.566 212.059C592.239 212.159 592.682 212.768 592.585 213.422C592.489 214.066 591.889 214.52 591.216 214.42ZM588.485 225.778L589.964 215.804L592.012 216.108L590.532 226.081L588.485 225.778ZM596.514 227.172C593.651 226.747 592.077 224.489 592.552 221.285L592.555 221.266C593.028 218.08 595.207 216.388 598.041 216.808C600.886 217.23 602.491 219.474 602.017 222.669L602.014 222.688C601.537 225.902 599.368 227.595 596.514 227.172ZM596.778 225.458C598.38 225.695 599.593 224.577 599.919 222.377L599.922 222.358C600.245 220.178 599.389 218.762 597.787 218.524C596.213 218.291 594.974 219.396 594.65 221.576L594.648 221.595C594.32 223.804 595.176 225.22 596.778 225.458ZM602.469 227.852L603.949 217.878L605.996 218.182L605.773 219.69L605.82 219.697C606.492 218.759 607.617 218.229 609.125 218.452C611.315 218.777 612.366 220.377 612.026 222.671L611.068 229.127L609.011 228.822L609.911 222.755C610.133 221.257 609.557 220.309 608.135 220.098C606.693 219.884 605.61 220.789 605.379 222.344L604.517 228.156L602.469 227.852Z" fill="black"/>
<rect x="686.635" y="198.487" width="50.7239" height="22.3619" rx="11.181" transform="rotate(8.43654 686.635 198.487)" fill="#F4F4F4"/>
<path d="M691.834 214.605L690.456 214.401L691.809 205.28L693.092 205.471L696.822 212.897L696.873 212.904L697.87 206.179L699.248 206.384L697.895 215.504L696.619 215.315L692.888 207.895L692.831 207.886L691.834 214.605ZM702.257 216.28C700.354 215.998 699.297 214.504 699.615 212.361C699.932 210.225 701.383 209.103 703.28 209.384C705.176 209.666 706.239 211.161 705.922 213.297C705.605 215.439 704.159 216.562 702.257 216.28ZM702.424 215.155C703.498 215.314 704.313 214.57 704.532 213.091C704.75 211.618 704.181 210.668 703.113 210.509C702.045 210.351 701.224 211.095 701.005 212.568C700.786 214.046 701.355 214.997 702.424 215.155ZM706.485 216.778L707.471 210.129L708.773 210.322L708.605 211.453L708.637 211.458C708.973 210.713 709.636 210.34 710.42 210.456C710.616 210.485 710.782 210.542 710.88 210.576L710.691 211.847C710.591 211.787 710.355 211.719 710.09 211.68C709.211 211.55 708.58 212.057 708.441 212.999L707.85 216.98L706.485 216.778ZM710.732 217.408L711.718 210.759L713.02 210.952L712.854 212.071L712.886 212.075C713.293 211.38 714.061 210.99 714.959 211.123C715.881 211.26 716.481 211.833 716.624 212.701L716.655 212.705C717.117 211.947 717.974 211.57 718.922 211.711C720.236 211.906 720.966 212.906 720.771 214.227L720.093 218.796L718.721 218.593L719.35 214.352C719.478 213.492 719.089 212.931 718.28 212.811C717.471 212.691 716.82 213.208 716.695 214.048L716.079 218.201L714.739 218.002L715.383 213.66C715.497 212.895 715.082 212.336 714.311 212.222C713.502 212.102 712.833 212.649 712.707 213.502L712.097 217.61L710.732 217.408ZM723.883 218.37C724.837 218.512 725.681 217.965 725.809 217.099L725.887 216.574L724.235 216.433C723.411 216.369 722.896 216.661 722.812 217.229C722.726 217.811 723.15 218.261 723.883 218.37ZM723.344 219.395C722.042 219.202 721.251 218.258 721.429 217.063C721.601 215.9 722.598 215.318 724.191 215.464L726.028 215.626L726.104 215.114C726.213 214.375 725.78 213.858 724.945 213.735C724.155 213.618 723.606 213.924 723.398 214.5L722.108 214.309C722.362 213.119 723.517 212.386 725.161 212.63C726.772 212.869 727.676 213.875 727.478 215.209L726.799 219.791L725.49 219.597L725.653 218.503L725.621 218.499C725.126 219.181 724.216 219.524 723.344 219.395ZM728.177 219.995L729.529 210.875L730.894 211.077L729.542 220.198L728.177 219.995Z" fill="#A4A4A4"/>
<path opacity="0.4" d="M687.073 245.787L688.834 233.917L688.796 233.912L684.787 235.982L685.054 234.18L689.083 232.104L690.752 232.351L688.723 246.032L687.073 245.787ZM695.528 240.588L695.742 239.147L697.382 239.39C698.166 239.506 698.84 239.377 699.406 239.002C699.973 238.621 700.308 238.083 700.411 237.388C700.514 236.693 700.366 236.106 699.965 235.626C699.565 235.147 698.941 234.845 698.094 234.719C697.31 234.603 696.641 234.717 696.086 235.061C695.531 235.405 695.163 235.931 694.98 236.641L693.34 236.397C693.607 235.248 694.193 234.389 695.098 233.819C696.009 233.25 697.106 233.061 698.389 233.251C699.622 233.434 700.596 233.918 701.313 234.702C702.03 235.487 702.313 236.391 702.161 237.415C702.034 238.268 701.675 238.948 701.083 239.455C700.491 239.961 699.754 240.226 698.872 240.251L698.867 240.289C699.894 240.506 700.669 240.96 701.194 241.651C701.718 242.336 701.91 243.159 701.767 244.12C701.654 244.884 701.337 245.542 700.816 246.091C700.295 246.64 699.643 247.028 698.861 247.254C698.078 247.48 697.241 247.527 696.35 247.395C694.934 247.185 693.845 246.662 693.085 245.826C692.324 244.99 691.997 243.992 692.104 242.832L693.744 243.075C693.714 243.801 693.948 244.423 694.446 244.943C694.945 245.456 695.646 245.779 696.55 245.913C697.454 246.048 698.231 245.927 698.881 245.552C699.537 245.178 699.918 244.633 700.024 243.919C700.143 243.117 699.953 242.439 699.453 241.887C698.96 241.336 698.224 240.988 697.244 240.842L695.528 240.588ZM705.414 245.862C705.174 246.04 704.903 246.106 704.6 246.061C704.296 246.016 704.056 245.874 703.878 245.634C703.7 245.395 703.634 245.123 703.679 244.82C703.724 244.517 703.866 244.276 704.106 244.098C704.345 243.921 704.617 243.854 704.92 243.899C705.224 243.944 705.464 244.087 705.642 244.326C705.819 244.566 705.886 244.837 705.841 245.14C705.796 245.444 705.653 245.684 705.414 245.862ZM706.449 238.884C706.209 239.062 705.938 239.128 705.635 239.083C705.331 239.038 705.091 238.896 704.913 238.656C704.735 238.417 704.669 238.146 704.714 237.842C704.759 237.539 704.901 237.298 705.141 237.121C705.38 236.943 705.652 236.877 705.955 236.922C706.258 236.967 706.499 237.109 706.677 237.348C706.854 237.588 706.921 237.859 706.876 238.163C706.831 238.466 706.688 238.707 706.449 238.884ZM712.202 249.746C710.616 249.511 709.47 248.695 708.767 247.299C708.07 245.898 707.884 244.106 708.207 241.926C708.528 239.764 709.228 238.114 710.308 236.976C711.394 235.833 712.725 235.377 714.299 235.611C715.872 235.844 717.007 236.662 717.704 238.063C718.408 239.46 718.599 241.242 718.277 243.41C717.954 245.59 717.255 247.25 716.182 248.389C715.109 249.528 713.782 249.981 712.202 249.746ZM710.189 246.396C710.623 247.481 711.367 248.101 712.423 248.258C713.478 248.415 714.367 248.039 715.089 247.132C715.813 246.219 716.303 244.896 716.56 243.165C716.813 241.458 716.723 240.063 716.289 238.978C715.857 237.886 715.119 237.264 714.076 237.109C713.033 236.954 712.144 237.336 711.407 238.253C710.67 239.171 710.176 240.477 709.925 242.171C709.668 243.903 709.756 245.311 710.189 246.396ZM723.589 251.435C722.002 251.2 720.857 250.384 720.153 248.988C719.457 247.586 719.27 245.795 719.594 243.615C719.914 241.453 720.615 239.803 721.694 238.665C722.781 237.521 724.111 237.066 725.685 237.3C727.259 237.533 728.394 238.351 729.09 239.752C729.794 241.149 729.985 242.931 729.664 245.099C729.34 247.279 728.642 248.939 727.569 250.078C726.495 251.217 725.169 251.67 723.589 251.435ZM721.576 248.085C722.009 249.17 722.754 249.79 723.809 249.947C724.865 250.103 725.754 249.728 726.476 248.821C727.199 247.908 727.689 246.585 727.946 244.854C728.199 243.147 728.109 241.751 727.676 240.666C727.243 239.575 726.506 238.952 725.463 238.798C724.42 238.643 723.53 239.025 722.793 239.942C722.056 240.86 721.562 242.166 721.311 243.86C721.054 245.592 721.143 247 721.576 248.085Z" fill="black"/>
<path d="M97.4356 409.259C96.6427 401.406 102.366 394.397 110.219 393.604L607.11 343.436C614.963 342.643 621.972 348.366 622.765 356.219L633.555 463.093C634.348 470.946 628.625 477.955 620.772 478.748L123.881 528.917C116.028 529.709 109.019 523.986 108.226 516.133L97.4356 409.259Z" fill="white"/>
<path d="M128.36 433.913L127.365 434.013L127.264 433.018C127.238 432.755 127.107 432.512 126.902 432.344C126.697 432.177 126.433 432.097 126.169 432.124C125.905 432.151 125.663 432.281 125.495 432.486C125.327 432.692 125.248 432.955 125.274 433.219L125.375 434.214L124.38 434.315C124.116 434.341 123.874 434.472 123.706 434.677C123.538 434.883 123.459 435.146 123.486 435.41C123.512 435.674 123.643 435.916 123.848 436.084C124.053 436.252 124.317 436.331 124.581 436.305L125.576 436.204L125.676 437.199C125.703 437.463 125.833 437.705 126.039 437.873C126.244 438.041 126.508 438.12 126.772 438.094C127.036 438.067 127.278 437.937 127.446 437.731C127.614 437.526 127.693 437.262 127.666 436.998L127.566 436.003L128.561 435.903C128.825 435.876 129.067 435.746 129.235 435.54C129.403 435.335 129.482 435.071 129.455 434.807C129.429 434.544 129.298 434.301 129.093 434.133C128.887 433.966 128.624 433.886 128.36 433.913ZM133.886 427.324C132.719 426.382 131.253 425.887 129.754 425.93C128.254 425.972 126.819 426.549 125.708 427.557C124.347 426.743 122.728 426.476 121.178 426.807C119.627 427.139 118.26 428.047 117.351 429.346C116.443 430.646 116.06 432.241 116.281 433.812C116.502 435.382 117.31 436.81 118.541 437.809L125.119 443.226C125.735 443.728 126.525 443.965 127.316 443.886C128.107 443.806 128.834 443.415 129.337 442.8L134.699 436.178C135.229 435.544 135.629 434.811 135.875 434.023C136.121 433.234 136.209 432.405 136.133 431.582C136.057 430.759 135.82 429.96 135.434 429.229C135.049 428.498 134.522 427.851 133.886 427.324ZM133.232 434.888L127.865 441.461C127.782 441.563 127.68 441.648 127.564 441.711C127.448 441.774 127.32 441.813 127.189 441.826C127.057 441.84 126.925 441.827 126.798 441.788C126.672 441.75 126.555 441.687 126.453 441.603L119.88 436.236C119.019 435.518 118.474 434.49 118.362 433.375C118.249 432.259 118.578 431.143 119.278 430.267C119.993 429.401 121.021 428.853 122.139 428.74C123.256 428.627 124.373 428.959 125.247 429.664C125.349 429.748 125.467 429.811 125.593 429.849C125.719 429.887 125.852 429.9 125.983 429.887C126.115 429.874 126.242 429.835 126.358 429.772C126.474 429.709 126.577 429.624 126.66 429.521C127.376 428.656 128.404 428.108 129.521 427.995C130.638 427.882 131.755 428.214 132.63 428.919C133.497 429.638 134.046 430.669 134.159 431.79C134.272 432.91 133.94 434.03 133.234 434.908L133.232 434.888Z" fill="#FD4646"/>
<path d="M160.04 439.257L157.707 439.493L157.035 432.838L149.318 433.618L149.99 440.272L147.658 440.508L146.14 425.48L148.473 425.245L149.114 431.597L156.831 430.818L156.19 424.465L158.523 424.23L160.04 439.257ZM168.154 429.801C167.607 429.323 166.946 429.124 166.168 429.202C165.39 429.281 164.772 429.613 164.312 430.2C163.851 430.779 163.636 431.492 163.665 432.337L169.143 431.784C169.03 430.94 168.7 430.279 168.154 429.801ZM169.463 435.055L171.598 434.84C171.54 435.863 171.109 436.737 170.305 437.464C169.502 438.19 168.476 438.616 167.226 438.742C165.622 438.904 164.308 438.529 163.283 437.615C162.264 436.694 161.667 435.366 161.492 433.63C161.318 431.908 161.636 430.477 162.447 429.336C163.264 428.194 164.444 427.546 165.985 427.39C167.499 427.237 168.75 427.612 169.739 428.515C170.727 429.412 171.305 430.693 171.473 432.359L171.551 433.13L163.813 433.911L163.827 434.046C163.924 435.004 164.269 435.745 164.861 436.267C165.454 436.789 166.198 437.005 167.094 436.915C167.726 436.851 168.253 436.65 168.674 436.313C169.096 435.976 169.359 435.557 169.463 435.055ZM177.469 435.888C178.26 435.808 178.899 435.502 179.385 434.969C179.878 434.428 180.088 433.804 180.017 433.096L179.929 432.231L177.249 432.67C176.58 432.787 176.076 433.006 175.737 433.328C175.404 433.642 175.262 434.035 175.309 434.507C175.358 434.986 175.577 435.353 175.967 435.608C176.364 435.856 176.865 435.949 177.469 435.888ZM177.023 437.732C175.947 437.841 175.038 437.624 174.296 437.082C173.561 436.539 173.144 435.778 173.045 434.799C172.948 433.841 173.226 433.045 173.877 432.411C174.528 431.77 175.499 431.349 176.79 431.149L179.772 430.669L179.686 429.826C179.625 429.215 179.382 428.759 178.959 428.458C178.535 428.15 177.98 428.031 177.292 428.1C176.654 428.164 176.147 428.359 175.773 428.685C175.406 429.009 175.196 429.427 175.142 429.937L173.018 430.152C172.978 429.132 173.332 428.261 174.08 427.541C174.828 426.82 175.865 426.393 177.191 426.259C178.517 426.125 179.605 426.345 180.455 426.918C181.313 427.491 181.797 428.325 181.908 429.422L182.67 436.973L180.514 437.19L180.332 435.389L180.28 435.394C180.029 436.029 179.602 436.56 179 436.986C178.404 437.41 177.746 437.659 177.023 437.732ZM184.94 436.743L183.423 421.716L185.672 421.489L187.19 436.516L184.94 436.743ZM188.79 422.668L191.049 422.44L191.311 425.033L193.394 424.823L193.574 426.603L191.491 426.814L192.101 432.854C192.149 433.326 192.291 433.662 192.529 433.863C192.767 434.063 193.115 434.14 193.573 434.094C193.906 434.06 194.151 434.018 194.307 433.967L194.487 435.748C194.216 435.845 193.803 435.922 193.248 435.978C192.144 436.09 191.329 435.944 190.805 435.541C190.286 435.131 189.974 434.394 189.866 433.332L189.231 427.042L187.638 427.203L187.458 425.422L189.051 425.261L188.79 422.668ZM196.437 435.583L194.92 420.555L197.149 420.33L197.745 426.235L197.797 426.23C198.037 425.553 198.435 425.011 198.99 424.605C199.544 424.191 200.235 423.943 201.061 423.859C202.255 423.739 203.229 424.012 203.984 424.679C204.746 425.346 205.19 426.304 205.316 427.553L206.029 434.614L203.769 434.842L203.1 428.219C203.017 427.4 202.748 426.785 202.293 426.375C201.845 425.965 201.229 425.799 200.444 425.878C199.618 425.962 198.988 426.292 198.556 426.868C198.129 427.437 197.96 428.156 198.047 429.024L198.687 435.355L196.437 435.583Z" fill="#FD4646"/>
<path d="M122.077 490.266L119.801 467.725L123.847 467.316L132.959 484.575L133.053 484.566L138.547 465.832L142.577 465.425L144.853 487.966L141.666 488.288L139.986 471.652L139.877 471.663L134.762 488.985L132.168 489.247L123.694 473.297L123.584 473.308L125.264 489.944L122.077 490.266ZM155.056 487.268C150.338 487.744 146.931 484.79 146.398 479.51L146.395 479.479C145.865 474.23 148.646 470.667 153.316 470.195C158.003 469.722 161.454 472.64 161.985 477.905L161.988 477.936C162.523 483.231 159.758 486.793 155.056 487.268ZM154.786 484.439C157.426 484.172 158.902 481.908 158.536 478.284L158.533 478.253C158.17 474.66 156.242 472.756 153.602 473.023C151.009 473.284 149.485 475.537 149.847 479.13L149.851 479.161C150.218 482.801 152.146 484.705 154.786 484.439ZM164.787 485.954L163.128 469.52L166.502 469.18L166.786 471.991L166.864 471.983C167.201 470.008 168.454 468.667 170.329 468.478C170.813 468.429 171.242 468.464 171.513 468.484L171.83 471.624C171.553 471.542 170.952 471.523 170.296 471.59C168.124 471.809 166.924 473.366 167.172 475.819L168.161 485.613L164.787 485.954ZM174.644 484.958L172.985 468.525L176.359 468.184L176.61 470.668L176.688 470.66C177.379 468.902 178.952 467.607 181.436 467.356C185.044 466.992 187.357 469.11 187.739 472.89L188.813 483.528L185.423 483.87L184.414 473.873C184.164 471.404 182.868 470.131 180.525 470.367C178.15 470.607 176.793 472.48 177.052 475.042L178.018 484.618L174.644 484.958ZM191.351 464.114C190.257 464.225 189.294 463.438 189.187 462.376C189.078 461.298 189.864 460.335 190.958 460.225C192.067 460.113 193.015 460.901 193.123 461.979C193.231 463.041 192.46 464.002 191.351 464.114ZM191.578 483.249L189.919 466.815L193.293 466.475L194.952 482.908L191.578 483.249ZM197.796 482.621L196.137 466.187L199.511 465.847L199.762 468.331L199.84 468.323C200.53 466.564 202.104 465.269 204.588 465.019C208.196 464.654 210.509 466.772 210.89 470.552L211.965 481.19L208.575 481.533L207.565 471.535C207.316 469.067 206.02 467.793 203.677 468.03C201.302 468.27 199.945 470.143 200.203 472.704L201.17 482.28L197.796 482.621ZM222.376 485.994C218.158 486.42 215.29 484.737 214.536 482.272L214.506 482.133L217.849 481.796L217.924 481.914C218.483 482.915 219.977 483.49 222.086 483.277C224.773 483.006 226.112 481.419 225.88 479.123L225.653 476.873L225.575 476.881C224.817 478.757 223.058 480.086 220.699 480.324C216.575 480.741 213.53 477.782 213.013 472.658L213.012 472.642C212.491 467.487 214.914 463.976 219.085 463.555C221.397 463.321 223.335 464.388 224.491 466.149L224.569 466.141L224.287 463.345L227.677 463.003L229.29 478.983C229.669 482.733 227.015 485.525 222.376 485.994ZM221.374 477.479C223.952 477.219 225.451 474.874 225.109 471.484L225.107 471.468C224.766 468.094 222.813 466.098 220.251 466.357C217.58 466.626 216.126 468.951 216.469 472.34L216.47 472.356C216.817 475.793 218.703 477.748 221.374 477.479ZM237.898 478.572L236.238 462.139L239.613 461.798L239.896 464.61L239.975 464.602C240.312 462.627 241.565 461.285 243.439 461.096C243.924 461.047 244.353 461.083 244.624 461.103L244.941 464.242C244.664 464.16 244.063 464.142 243.406 464.208C241.235 464.427 240.035 465.984 240.283 468.437L241.272 478.231L237.898 478.572ZM253.381 477.34C249.772 477.705 247.475 475.585 247.093 471.805L246.018 461.151L249.392 460.811L250.401 470.808C250.652 473.292 251.947 474.55 254.29 474.313C256.665 474.073 258.023 472.216 257.765 469.654L256.796 460.063L260.186 459.721L261.845 476.154L258.456 476.496L258.206 474.028L258.128 474.036C257.436 475.779 255.88 477.088 253.381 477.34ZM264.549 475.881L262.889 459.448L266.263 459.107L266.514 461.591L266.592 461.583C267.283 459.825 268.856 458.53 271.34 458.279C274.949 457.915 277.261 460.032 277.643 463.813L278.717 474.451L275.327 474.793L274.318 464.795C274.069 462.327 272.772 461.054 270.429 461.29C268.055 461.53 266.697 463.403 266.956 465.965L267.923 475.541L264.549 475.881Z" fill="black"/>
<rect x="528.119" y="380.257" width="82.291" height="36.1455" rx="18.0728" transform="rotate(-5.76533 528.119 380.257)" fill="#F4F4F4"/>
<path d="M542.125 404.546L539.854 404.775L538.337 389.747L540.451 389.534L549.36 399.828L549.443 399.819L548.324 388.739L550.595 388.51L552.112 403.537L550.008 403.75L541.101 393.466L541.007 393.475L542.125 404.546ZM559.35 403.017C556.215 403.333 553.936 401.386 553.579 397.855C553.224 394.335 555.078 391.97 558.203 391.655C561.327 391.34 563.617 393.286 563.972 396.806C564.329 400.336 562.485 402.7 559.35 403.017ZM559.163 401.163C560.933 400.984 561.927 399.474 561.681 397.037C561.436 394.611 560.15 393.331 558.39 393.509C556.63 393.686 555.625 395.198 555.87 397.624C556.116 400.061 557.403 401.341 559.163 401.163ZM566.265 402.108L565.158 391.153L567.304 390.936L567.492 392.8L567.544 392.795C567.779 391.477 568.681 390.618 569.973 390.488C570.296 390.455 570.582 390.479 570.752 390.493L570.963 392.586C570.779 392.531 570.378 392.519 569.94 392.563C568.493 392.71 567.695 393.769 567.852 395.32L568.514 401.881L566.265 402.108ZM573.263 401.402L572.157 390.446L574.302 390.229L574.488 392.073L574.54 392.067C574.907 390.8 575.97 389.872 577.449 389.722C578.97 389.569 580.152 390.238 580.727 391.558L580.779 391.553C581.207 390.163 582.417 389.221 583.979 389.063C586.145 388.844 587.706 390.138 587.926 392.315L588.686 399.844L586.426 400.073L585.721 393.085C585.578 391.668 584.736 390.933 583.403 391.067C582.07 391.202 581.243 392.285 581.382 393.67L582.073 400.512L579.865 400.735L579.143 393.581C579.016 392.32 578.133 391.599 576.863 391.728C575.53 391.862 574.687 392.999 574.829 394.405L575.512 401.175L573.263 401.402ZM594.534 397.644C596.107 397.486 597.226 396.278 597.082 394.852L596.995 393.987L594.315 394.426C592.981 394.656 592.28 395.326 592.375 396.263C592.472 397.221 593.326 397.766 594.534 397.644ZM594.089 399.488C591.944 399.705 590.31 398.523 590.111 396.555C589.918 394.639 591.267 393.314 593.856 392.905L596.837 392.425L596.752 391.582C596.629 390.363 595.733 389.717 594.358 389.856C593.056 389.988 592.307 390.694 592.208 391.693L590.084 391.908C590.009 389.917 591.549 388.288 594.256 388.015C596.912 387.747 598.751 388.981 598.973 391.179L599.736 398.729L597.58 398.946L597.398 397.145L597.346 397.15C596.834 398.433 595.526 399.343 594.089 399.488ZM602.006 398.5L600.489 383.472L602.738 383.245L604.255 398.272L602.006 398.5Z" fill="#A4A4A4"/>
<path opacity="0.4" d="M544.831 455.627C542.217 455.891 540.071 455.056 538.392 453.121C536.723 451.175 535.707 448.406 535.344 444.813C534.985 441.251 535.433 438.35 536.691 436.108C537.957 433.855 539.887 432.598 542.48 432.336C545.073 432.074 547.204 432.916 548.873 434.863C550.552 436.797 551.572 439.55 551.932 443.122C552.295 446.715 551.853 449.632 550.607 451.872C549.36 454.113 547.435 455.364 544.831 455.627ZM540.289 451.115C541.413 452.664 542.845 453.35 544.584 453.175C546.323 452.999 547.584 452.046 548.366 450.315C549.148 448.574 549.395 446.277 549.107 443.424C548.823 440.612 548.119 438.431 546.994 436.883C545.869 435.324 544.447 434.631 542.729 434.804C541.011 434.978 539.751 435.941 538.95 437.695C538.148 439.449 537.888 441.721 538.17 444.512C538.458 447.365 539.164 449.566 540.289 451.115ZM563.452 453.747C561.068 453.988 559.049 453.582 557.396 452.528C555.742 451.464 554.82 449.99 554.63 448.105C554.488 446.699 554.806 445.42 555.584 444.269C556.362 443.117 557.463 442.301 558.887 441.821L558.881 441.758C557.624 441.506 556.597 440.968 555.798 440.144C554.999 439.31 554.539 438.299 554.419 437.112C554.248 435.414 554.793 433.934 556.054 432.67C557.325 431.405 559.008 430.667 561.101 430.456C563.205 430.244 564.995 430.631 566.473 431.618C567.96 432.594 568.791 433.94 568.964 435.659C569.083 436.836 568.839 437.907 568.231 438.873C567.624 439.839 566.725 440.577 565.535 441.086L565.542 441.149C567.034 441.345 568.277 441.93 569.269 442.903C570.272 443.875 570.844 445.058 570.985 446.454C571.175 448.339 570.567 449.968 569.159 451.341C567.75 452.703 565.848 453.505 563.452 453.747ZM563.205 451.295C564.757 451.138 565.987 450.614 566.897 449.723C567.816 448.83 568.214 447.77 568.09 446.541C567.965 445.302 567.363 444.337 566.283 443.646C565.214 442.954 563.903 442.687 562.352 442.844C560.8 443 559.565 443.53 558.646 444.433C557.736 445.324 557.344 446.384 557.468 447.613C557.592 448.842 558.194 449.802 559.273 450.492C560.353 451.183 561.664 451.45 563.205 451.295ZM562.102 440.376C563.415 440.243 564.452 439.786 565.215 439.004C565.988 438.221 566.319 437.283 566.209 436.189C566.097 435.086 565.59 434.227 564.686 433.613C563.782 432.989 562.668 432.744 561.345 432.877C560.023 433.011 558.981 433.474 558.219 434.266C557.456 435.048 557.131 435.991 557.242 437.095C557.353 438.188 557.86 439.042 558.763 439.655C559.667 440.269 560.78 440.509 562.102 440.376ZM577.278 447.665C576.969 448.043 576.565 448.257 576.065 448.308C575.565 448.358 575.126 448.229 574.747 447.92C574.369 447.611 574.155 447.207 574.104 446.707C574.054 446.207 574.183 445.768 574.492 445.389C574.801 445.011 575.205 444.797 575.705 444.746C576.205 444.696 576.644 444.825 577.023 445.134C577.401 445.443 577.615 445.847 577.666 446.347C577.716 446.847 577.587 447.286 577.278 447.665ZM576.117 436.167C575.808 436.546 575.404 436.76 574.904 436.811C574.404 436.861 573.965 436.732 573.587 436.423C573.208 436.114 572.994 435.71 572.943 435.21C572.893 434.71 573.022 434.271 573.331 433.892C573.64 433.514 574.044 433.3 574.544 433.249C575.044 433.199 575.483 433.328 575.862 433.637C576.24 433.946 576.455 434.35 576.505 434.85C576.555 435.35 576.426 435.789 576.117 436.167ZM585.235 440.66L584.995 438.285L587.698 438.012C588.989 437.882 590.009 437.405 590.757 436.583C591.504 435.75 591.819 434.761 591.704 433.615C591.588 432.47 591.116 431.597 590.287 430.997C589.459 430.397 588.347 430.167 586.951 430.308C585.66 430.438 584.643 430.888 583.9 431.657C583.157 432.427 582.783 433.411 582.778 434.611L580.075 434.884C580.038 432.952 580.624 431.352 581.832 430.083C583.05 428.813 584.716 428.072 586.83 427.858C588.861 427.653 590.603 428.03 592.057 428.988C593.511 429.945 594.323 431.268 594.493 432.955C594.635 434.361 594.338 435.585 593.602 436.627C592.865 437.669 591.802 438.387 590.41 438.78L590.417 438.842C592.135 438.774 593.549 439.184 594.659 440.071C595.768 440.948 596.403 442.178 596.563 443.761C596.69 445.021 596.45 446.192 595.844 447.273C595.238 448.355 594.359 449.233 593.207 449.907C592.054 450.581 590.744 450.992 589.276 451.14C586.943 451.376 585.004 450.982 583.46 449.96C581.915 448.938 580.995 447.484 580.7 445.599L583.402 445.326C583.646 446.49 584.267 447.385 585.267 448.01C586.265 448.625 587.509 448.857 588.998 448.706C590.487 448.556 591.673 448.052 592.554 447.195C593.446 446.337 593.832 445.32 593.714 444.143C593.58 442.821 593.006 441.821 591.991 441.145C590.986 440.468 589.676 440.211 588.062 440.374L585.235 440.66ZM607.912 449.258C605.298 449.522 603.152 448.687 601.473 446.752C599.804 444.806 598.788 442.037 598.425 438.444C598.066 434.882 598.514 431.981 599.771 429.739C601.038 427.486 602.968 426.229 605.561 425.967C608.154 425.705 610.285 426.548 611.954 428.494C613.633 430.428 614.653 433.181 615.013 436.753C615.376 440.346 614.934 443.263 613.687 445.503C612.441 447.744 610.516 448.996 607.912 449.258ZM603.37 444.746C604.494 446.295 605.925 446.981 607.665 446.806C609.404 446.63 610.665 445.677 611.447 443.946C612.229 442.205 612.476 439.908 612.187 437.055C611.904 434.243 611.199 432.063 610.075 430.514C608.95 428.955 607.528 428.262 605.81 428.435C604.091 428.609 602.832 429.572 602.03 431.326C601.229 433.08 600.969 435.352 601.251 438.143C601.539 440.996 602.245 443.198 603.37 444.746Z" fill="black"/>
<defs>
<clipPath id="clip0_1_3896">
<rect width="540" height="480" fill="white" transform="matrix(-1 0 0 1 625 0)"/>
</clipPath>
<clipPath id="clip1_1_3896">
<rect width="15.9081" height="15.9081" fill="white" transform="translate(471.575 166.762) rotate(9.78687)"/>
</clipPath>
</defs>
</svg>
