<svg width="306" height="282" viewBox="0 0 306 282" fill="none" xmlns="http://www.w3.org/2000/svg">
<g clip-path="url(#clip0_1_4298)">
<mask id="mask0_1_4298" style="mask-type:luminance" maskUnits="userSpaceOnUse" x="13" y="13" width="280" height="269">
<path d="M13 45.1601C13 27.3986 27.3986 13 45.1601 13H260.84C278.601 13 293 27.3986 293 45.1601V282H13V45.1601Z" fill="white"/>
</mask>
<g mask="url(#mask0_1_4298)">
<path d="M13 45.1601C13 27.3986 27.3986 13 45.1601 13H260.84C278.601 13 293 27.3986 293 45.1601V282H13V45.1601Z" fill="black"/>
<path d="M13 13H293V405.771C293 417.182 283.749 426.433 272.338 426.433H33.6616C22.2505 426.433 13 417.182 13 405.771V13Z" fill="#E9E9E9"/>
<path d="M272.339 85.6719H33.6615C25.3983 85.6719 18.6997 92.3705 18.6997 100.634V405.771C18.6997 414.034 25.3983 420.733 33.6615 420.733H272.339C280.602 420.733 287.301 414.034 287.301 405.771V100.634C287.301 92.3705 280.602 85.6719 272.339 85.6719Z" fill="white"/>
<mask id="mask1_1_4298" style="mask-type:luminance" maskUnits="userSpaceOnUse" x="24" y="91" width="258" height="116">
<path d="M272.338 91.3716H33.6615C28.5462 91.3716 24.3994 95.5184 24.3994 100.634V197.529C24.3994 202.645 28.5462 206.792 33.6615 206.792H272.338C277.454 206.792 281.6 202.645 281.6 197.529V100.634C281.6 95.5184 277.454 91.3716 272.338 91.3716Z" fill="white"/>
</mask>
<g mask="url(#mask1_1_4298)">
<path d="M272.338 91.3716H33.6615C28.5462 91.3716 24.3994 95.5184 24.3994 100.634V197.529C24.3994 202.645 28.5462 206.792 33.6615 206.792H272.338C277.454 206.792 281.6 202.645 281.6 197.529V100.634C281.6 95.5184 277.454 91.3716 272.338 91.3716Z" fill="#FFD970"/>
<path d="M41.1938 114.502C39.1211 114.502 37.756 113.526 37.6496 111.904L37.6433 111.81H39.19L39.2025 111.885C39.3215 112.661 40.1168 113.144 41.2502 113.144C42.3899 113.144 43.1037 112.636 43.1037 111.86V111.854C43.1037 111.177 42.6341 110.814 41.4694 110.57L40.4988 110.37C38.7204 110 37.8437 109.174 37.8437 107.827V107.821C37.85 106.23 39.2464 105.153 41.1938 105.153C43.1663 105.153 44.4563 106.193 44.5502 107.74L44.5565 107.846H43.0098L42.9973 107.771C42.8908 106.982 42.1957 106.512 41.1813 106.512C40.123 106.519 39.4655 107.013 39.4655 107.733V107.74C39.4655 108.378 39.9602 108.754 41.0498 108.979L42.0267 109.18C43.9053 109.568 44.7256 110.332 44.7256 111.741V111.747C44.7256 113.432 43.398 114.502 41.1938 114.502ZM47.4811 114.459C46.1535 114.459 45.2581 113.638 45.2581 112.455V112.442C45.2581 111.265 46.1723 110.557 47.7816 110.457L49.5162 110.351V109.894C49.5162 109.224 49.0779 108.817 48.2889 108.817C47.5499 108.817 47.0991 109.161 46.9989 109.65L46.9864 109.706H45.5399L45.5461 109.631C45.6401 108.453 46.6608 107.571 48.3452 107.571C50.0046 107.571 51.0754 108.447 51.0754 109.781V114.346H49.5162V113.325H49.4786C49.0966 114.02 48.3577 114.459 47.4811 114.459ZM46.811 112.392C46.811 112.937 47.2619 113.269 47.9444 113.269C48.8399 113.269 49.5162 112.674 49.5162 111.885V111.384L48.0008 111.478C47.2306 111.528 46.811 111.86 46.811 112.386V112.392ZM54.5448 114.477C53.1546 114.477 52.4971 113.914 52.4971 112.549V108.911H51.5578V107.708H52.4971V106.024H54.0814V107.708H55.315V108.911H54.0814V112.417C54.0814 113.069 54.3694 113.275 54.9393 113.275C55.0896 113.275 55.2085 113.256 55.315 113.25V114.421C55.1334 114.446 54.8579 114.477 54.5448 114.477ZM56.9559 106.756C56.4674 106.756 56.0855 106.368 56.0855 105.905C56.0855 105.429 56.4674 105.047 56.9559 105.047C57.4443 105.047 57.82 105.429 57.82 105.905C57.82 106.368 57.4443 106.756 56.9559 106.756ZM56.1731 114.346V107.708H57.7323V114.346H56.1731ZM61.3958 114.477C59.655 114.477 58.6594 113.651 58.5216 112.417L58.5153 112.361H60.0495L60.062 112.417C60.181 112.987 60.6131 113.325 61.4021 113.325C62.1598 113.325 62.6169 113.018 62.6169 112.53V112.524C62.6169 112.123 62.3852 111.898 61.6964 111.741L60.5943 111.497C59.3231 111.215 58.6844 110.595 58.6844 109.612V109.606C58.6844 108.391 59.7427 107.571 61.3457 107.571C62.9989 107.571 63.9632 108.479 64.0196 109.624L64.0258 109.693H62.5731L62.5668 109.643C62.4979 109.111 62.0721 108.723 61.3457 108.723C60.6569 108.723 60.2248 109.042 60.2248 109.531V109.537C60.2248 109.919 60.4816 110.169 61.1704 110.326L62.2788 110.57C63.6501 110.877 64.1824 111.415 64.1824 112.38V112.386C64.1824 113.638 63.0239 114.477 61.3958 114.477ZM65.3536 114.346V108.911H64.4456V107.708H65.3536V107.076C65.3536 105.78 65.9673 105.178 67.4075 105.178C67.7144 105.178 68.0462 105.204 68.2404 105.241V106.331C68.1151 106.312 67.9398 106.299 67.7707 106.299C67.1633 106.299 66.8815 106.581 66.8815 107.12V107.708H68.2153V108.911H66.9128V114.346H65.3536ZM70.5826 114.459C69.255 114.459 68.3596 113.638 68.3596 112.455V112.442C68.3596 111.265 69.2738 110.557 70.8831 110.457L72.6177 110.351V109.894C72.6177 109.224 72.1794 108.817 71.3904 108.817C70.6515 108.817 70.2006 109.161 70.1004 109.65L70.0879 109.706H68.6414L68.6476 109.631C68.7416 108.453 69.7623 107.571 71.4467 107.571C73.1061 107.571 74.1769 108.447 74.1769 109.781V114.346H72.6177V113.325H72.5801C72.1981 114.02 71.4592 114.459 70.5826 114.459ZM69.9125 112.392C69.9125 112.937 70.3634 113.269 71.046 113.269C71.9414 113.269 72.6177 112.674 72.6177 111.885V111.384L71.1023 111.478C70.3321 111.528 69.9125 111.86 69.9125 112.386V112.392ZM78.1097 114.477C76.1372 114.477 74.9036 113.15 74.9036 111.021V111.015C74.9036 108.898 76.1559 107.571 78.0909 107.571C79.8379 107.571 80.9275 108.679 81.0215 110.006L81.0277 110.057H79.5562L79.5436 110C79.4121 109.355 78.9362 108.835 78.1097 108.835C77.1265 108.835 76.4941 109.668 76.4941 111.027V111.033C76.4941 112.417 77.1328 113.219 78.1159 113.219C78.9049 113.219 79.4059 112.749 79.5499 112.054L79.5624 111.998H81.034L81.0277 112.042C80.9087 113.425 79.7879 114.477 78.1097 114.477ZM84.1777 114.477C82.7876 114.477 82.1301 113.914 82.1301 112.549V108.911H81.1908V107.708H82.1301V106.024H83.7143V107.708H84.9479V108.911H83.7143V112.417C83.7143 113.069 84.0024 113.275 84.5722 113.275C84.7225 113.275 84.8415 113.256 84.9479 113.25V114.421C84.7663 114.446 84.4908 114.477 84.1777 114.477ZM86.5888 106.756C86.1004 106.756 85.7184 106.368 85.7184 105.905C85.7184 105.429 86.1004 105.047 86.5888 105.047C87.0772 105.047 87.453 105.429 87.453 105.905C87.453 106.368 87.0772 106.756 86.5888 106.756ZM85.8061 114.346V107.708H87.3653V114.346H85.8061ZM91.3732 114.477C89.4195 114.477 88.1608 113.175 88.1608 111.027V111.015C88.1608 108.886 89.4382 107.571 91.3669 107.571C93.3018 107.571 94.5855 108.873 94.5855 111.015V111.027C94.5855 113.181 93.3206 114.477 91.3732 114.477ZM91.3794 113.219C92.3626 113.219 92.995 112.417 92.995 111.027V111.015C92.995 109.631 92.3563 108.835 91.3669 108.835C90.3963 108.835 89.7513 109.637 89.7513 111.015V111.027C89.7513 112.424 90.3838 113.219 91.3794 113.219ZM95.331 114.346V107.708H96.8902V108.748H96.9215C97.2659 108.034 97.9422 107.571 98.9504 107.571C100.409 107.571 101.242 108.51 101.242 110.05V114.346H99.683V110.363C99.683 109.418 99.2447 108.886 98.3555 108.886C97.46 108.886 96.8902 109.537 96.8902 110.495V114.346H95.331ZM104.593 114.346V105.31H106.152V114.346H104.593ZM110.141 114.477C108.15 114.477 106.948 113.156 106.948 111.046V111.04C106.948 108.948 108.169 107.571 110.066 107.571C111.963 107.571 113.141 108.904 113.141 110.908V111.409H108.494C108.519 112.574 109.158 113.263 110.173 113.263C110.949 113.263 111.456 112.849 111.607 112.405L111.619 112.361H113.078L113.059 112.43C112.853 113.45 111.876 114.477 110.141 114.477ZM110.085 108.792C109.258 108.792 108.638 109.349 108.513 110.37H111.625C111.513 109.318 110.911 108.792 110.085 108.792ZM115.433 114.346L113.085 107.708H114.744L116.284 112.899H116.322L117.856 107.708H119.484L117.149 114.346H115.433ZM122.628 114.477C120.637 114.477 119.434 113.156 119.434 111.046V111.04C119.434 108.948 120.656 107.571 122.553 107.571C124.45 107.571 125.628 108.904 125.628 110.908V111.409H120.981C121.006 112.574 121.645 113.263 122.659 113.263C123.436 113.263 123.943 112.849 124.093 112.405L124.106 112.361H125.565L125.546 112.43C125.339 113.45 124.363 114.477 122.628 114.477ZM122.572 108.792C121.745 108.792 121.125 109.349 121 110.37H124.112C123.999 109.318 123.398 108.792 122.572 108.792ZM126.423 114.346V105.31H127.982V114.346H126.423Z" fill="black"/>
<path opacity="0.4" d="M40.3548 128.446C38.6474 128.446 37.562 127.244 37.562 125.332V125.328C37.562 123.416 38.6474 122.222 40.3548 122.222C41.6824 122.222 42.6801 123.04 42.868 124.23L42.8763 124.267H41.9495L41.9245 124.184C41.7241 123.478 41.1647 123.048 40.3548 123.048C39.236 123.048 38.518 123.933 38.518 125.328V125.332C38.518 126.726 39.2402 127.62 40.3548 127.62C41.1564 127.62 41.7116 127.202 41.937 126.438L41.9495 126.401H42.8763L42.8721 126.442C42.6843 127.64 41.6865 128.446 40.3548 128.446ZM45.5021 128.434C44.2414 128.434 43.419 127.561 43.419 126.15V126.142C43.419 124.739 44.2498 123.871 45.498 123.871C46.7504 123.871 47.5853 124.735 47.5853 126.142V126.15C47.5853 127.565 46.7587 128.434 45.5021 128.434ZM45.5063 127.678C46.2118 127.678 46.6627 127.119 46.6627 126.15V126.142C46.6627 125.182 46.2035 124.626 45.498 124.626C44.805 124.626 44.3416 125.182 44.3416 126.142V126.15C44.3416 127.123 44.8008 127.678 45.5063 127.678ZM48.2824 128.346V123.954H49.1842V124.635H49.205C49.3929 124.176 49.8396 123.871 50.4157 123.871C51.021 123.871 51.4635 124.184 51.6388 124.735H51.6597C51.8851 124.201 52.4028 123.871 53.029 123.871C53.8973 123.871 54.4651 124.447 54.4651 125.328V128.346H53.5592V125.545C53.5592 124.973 53.2544 124.643 52.7201 124.643C52.1857 124.643 51.8142 125.044 51.8142 125.599V128.346H50.9291V125.478C50.9291 124.969 50.6077 124.643 50.0984 124.643C49.564 124.643 49.1842 125.065 49.1842 125.632V128.346H48.2824ZM55.3375 129.807V123.954H56.2393V124.71H56.2601C56.5231 124.188 57.0074 123.871 57.6336 123.871C58.7524 123.871 59.4704 124.747 59.4704 126.15V126.154C59.4704 127.553 58.7482 128.434 57.6461 128.434C57.0241 128.434 56.519 128.116 56.2601 127.607H56.2393V129.807H55.3375ZM57.3998 127.657C58.1095 127.657 58.552 127.081 58.552 126.154V126.15C58.552 125.215 58.1053 124.643 57.3998 124.643C56.7152 124.643 56.2351 125.236 56.2351 126.15V126.154C56.2351 127.064 56.7193 127.657 57.3998 127.657ZM60.2052 128.346V122.322H61.1069V128.346H60.2052ZM63.908 128.434C62.6181 128.434 61.8374 127.553 61.8374 126.167V126.163C61.8374 124.789 62.6306 123.871 63.8621 123.871C65.0936 123.871 65.8492 124.756 65.8492 126.075V126.38H62.7391C62.7558 127.21 63.2109 127.695 63.9289 127.695C64.4633 127.695 64.8181 127.419 64.9308 127.089L64.9433 127.056H65.7991L65.7908 127.102C65.6489 127.799 64.9726 128.434 63.908 128.434ZM63.8663 124.61C63.2818 124.61 62.831 125.006 62.7517 125.741H64.9559C64.8807 124.981 64.4549 124.61 63.8663 124.61ZM68.091 128.434C67.2227 128.434 66.8052 128.066 66.8052 127.19V124.672H66.1749V123.954H66.8052V122.81H67.7278V123.954H68.5502V124.672H67.7278V127.135C67.7278 127.582 67.9282 127.716 68.3081 127.716C68.4041 127.716 68.4834 127.707 68.5502 127.699V128.396C68.4458 128.413 68.2747 128.434 68.091 128.434ZM71.0633 128.434C69.7734 128.434 68.9927 127.553 68.9927 126.167V126.163C68.9927 124.789 69.7859 123.871 71.0174 123.871C72.2489 123.871 73.0045 124.756 73.0045 126.075V126.38H69.8944C69.9111 127.21 70.3662 127.695 71.0842 127.695C71.6186 127.695 71.9734 127.419 72.0861 127.089L72.0986 127.056H72.9544L72.9461 127.102C72.8042 127.799 72.1279 128.434 71.0633 128.434ZM71.0216 124.61C70.4371 124.61 69.9863 125.006 69.907 125.741H72.1112C72.036 124.981 71.6102 124.61 71.0216 124.61ZM75.9602 129.811C75.7848 129.811 75.597 129.79 75.4884 129.769V129.064C75.5594 129.081 75.6638 129.097 75.7848 129.097C76.2106 129.097 76.4444 128.985 76.5947 128.559L76.6698 128.35L75.071 123.954H76.0478L77.1541 127.528H77.1833L78.2896 123.954H79.2414L77.605 128.551C77.2793 129.461 76.8201 129.811 75.9602 129.811ZM81.4874 128.434C80.2266 128.434 79.4042 127.561 79.4042 126.15V126.142C79.4042 124.739 80.235 123.871 81.4832 123.871C82.7356 123.871 83.5705 124.735 83.5705 126.142V126.15C83.5705 127.565 82.7439 128.434 81.4874 128.434ZM81.4915 127.678C82.197 127.678 82.6479 127.119 82.6479 126.15V126.142C82.6479 125.182 82.1887 124.626 81.4832 124.626C80.7902 124.626 80.3268 125.182 80.3268 126.142V126.15C80.3268 127.123 80.786 127.678 81.4915 127.678ZM85.7622 128.434C84.7978 128.434 84.2468 127.812 84.2468 126.801V123.954H85.1485V126.626C85.1485 127.29 85.4574 127.657 86.0836 127.657C86.7182 127.657 87.1273 127.202 87.1273 126.517V123.954H88.0332V128.346H87.1273V127.686H87.1064C86.8768 128.129 86.4301 128.434 85.7622 128.434ZM88.9265 128.346V123.954H89.8282V124.706H89.8491C89.9911 124.192 90.3584 123.871 90.8594 123.871C90.9888 123.871 91.1015 123.892 91.1725 123.904V124.743C91.1015 124.714 90.9429 124.693 90.7675 124.693C90.1873 124.693 89.8282 125.073 89.8282 125.728V128.346H88.9265ZM95.0089 128.434C94.1406 128.434 93.7232 128.066 93.7232 127.19V124.672H93.0928V123.954H93.7232V122.81H94.6458V123.954H95.4682V124.672H94.6458V127.135C94.6458 127.582 94.8461 127.716 95.226 127.716C95.322 127.716 95.4014 127.707 95.4682 127.699V128.396C95.3638 128.413 95.1926 128.434 95.0089 128.434ZM97.4386 128.425C96.5619 128.425 95.9733 127.887 95.9733 127.098V127.089C95.9733 126.325 96.5661 125.858 97.6056 125.795L98.7995 125.724V125.394C98.7995 124.91 98.4864 124.618 97.927 124.618C97.4052 124.618 97.0837 124.864 97.0086 125.215L97.0002 125.253H96.1486L96.1528 125.207C96.2154 124.451 96.8708 123.871 97.9521 123.871C99.0249 123.871 99.7054 124.439 99.7054 125.319V128.346H98.7995V127.653H98.7828C98.5281 128.125 98.0188 128.425 97.4386 128.425ZM96.8833 127.077C96.8833 127.461 97.2006 127.703 97.6849 127.703C98.3194 127.703 98.7995 127.273 98.7995 126.701V126.359L97.7266 126.426C97.1839 126.459 96.8833 126.697 96.8833 127.069V127.077ZM102.227 128.434C101.129 128.434 100.486 127.891 100.394 127.089L100.39 127.052H101.283L101.292 127.094C101.375 127.498 101.676 127.736 102.231 127.736C102.774 127.736 103.099 127.511 103.099 127.156V127.152C103.099 126.868 102.941 126.705 102.469 126.593L101.751 126.43C100.916 126.238 100.503 125.837 100.503 125.198V125.194C100.503 124.409 101.187 123.871 102.198 123.871C103.237 123.871 103.863 124.451 103.909 125.198L103.913 125.248H103.066L103.062 125.219C103.008 124.835 102.707 124.568 102.198 124.568C101.713 124.568 101.409 124.798 101.409 125.148V125.152C101.409 125.424 101.588 125.607 102.06 125.72L102.774 125.883C103.671 126.092 104.014 126.446 104.014 127.077V127.081C104.014 127.883 103.262 128.434 102.227 128.434ZM104.765 128.346V122.322H105.667V125.829H105.688L107.449 123.954H108.51L106.706 125.85L108.581 128.346H107.533L106.042 126.392L105.667 126.764V128.346H104.765ZM110.534 128.434C109.436 128.434 108.794 127.891 108.702 127.089L108.698 127.052H109.591L109.599 127.094C109.683 127.498 109.983 127.736 110.539 127.736C111.081 127.736 111.407 127.511 111.407 127.156V127.152C111.407 126.868 111.248 126.705 110.776 126.593L110.058 126.43C109.224 126.238 108.81 125.837 108.81 125.198V125.194C108.81 124.409 109.495 123.871 110.505 123.871C111.545 123.871 112.171 124.451 112.217 125.198L112.221 125.248H111.373L111.369 125.219C111.315 124.835 111.014 124.568 110.505 124.568C110.021 124.568 109.716 124.798 109.716 125.148V125.152C109.716 125.424 109.896 125.607 110.367 125.72L111.081 125.883C111.979 126.092 112.321 126.446 112.321 127.077V127.081C112.321 127.883 111.57 128.434 110.534 128.434ZM116.299 128.434C115.431 128.434 115.014 128.066 115.014 127.19V124.672H114.383V123.954H115.014V122.81H115.936V123.954H116.759V124.672H115.936V127.135C115.936 127.582 116.137 127.716 116.517 127.716C116.613 127.716 116.692 127.707 116.759 127.699V128.396C116.654 128.413 116.483 128.434 116.299 128.434ZM119.284 128.434C118.024 128.434 117.201 127.561 117.201 126.15V126.142C117.201 124.739 118.032 123.871 119.28 123.871C120.533 123.871 121.367 124.735 121.367 126.142V126.15C121.367 127.565 120.541 128.434 119.284 128.434ZM119.289 127.678C119.994 127.678 120.445 127.119 120.445 126.15V126.142C120.445 125.182 119.986 124.626 119.28 124.626C118.587 124.626 118.124 125.182 118.124 126.142V126.15C118.124 127.123 118.583 127.678 119.289 127.678ZM37.704 139.346V133.322H38.6057V135.676H38.6265C38.8603 135.167 39.3321 134.871 39.9875 134.871C40.9268 134.871 41.5446 135.572 41.5446 136.632V139.346H40.6429V136.804C40.6429 136.077 40.2755 135.643 39.641 135.643C39.019 135.643 38.6057 136.119 38.6057 136.804V139.346H37.704ZM44.2957 139.434C43.0057 139.434 42.2251 138.553 42.2251 137.167V137.163C42.2251 135.789 43.0182 134.871 44.2498 134.871C45.4813 134.871 46.2369 135.756 46.2369 137.075V137.38H43.1268C43.1435 138.21 43.5985 138.695 44.3166 138.695C44.8509 138.695 45.2057 138.419 45.3185 138.089L45.331 138.056H46.1868L46.1784 138.102C46.0365 138.799 45.3602 139.434 44.2957 139.434ZM44.2539 135.61C43.6695 135.61 43.2186 136.006 43.1393 136.741H45.3435C45.2684 135.981 44.8426 135.61 44.2539 135.61ZM46.9716 139.346V133.322H47.8733V139.346H46.9716ZM48.8001 140.807V134.954H49.7018V135.71H49.7227C49.9857 135.188 50.4699 134.871 51.0961 134.871C52.2149 134.871 52.933 135.747 52.933 137.15V137.154C52.933 138.553 52.2108 139.434 51.1087 139.434C50.4866 139.434 49.9815 139.116 49.7227 138.607H49.7018V140.807H48.8001ZM50.8624 138.657C51.572 138.657 52.0146 138.081 52.0146 137.154V137.15C52.0146 136.215 51.5679 135.643 50.8624 135.643C50.1777 135.643 49.6976 136.236 49.6976 137.15V137.154C49.6976 138.064 50.1819 138.657 50.8624 138.657ZM55.8886 140.811C55.7133 140.811 55.5254 140.79 55.4169 140.769V140.064C55.4878 140.081 55.5922 140.097 55.7133 140.097C56.1391 140.097 56.3729 139.985 56.5231 139.559L56.5983 139.35L54.9994 134.954H55.9763L57.0825 138.528H57.1118L58.218 134.954H59.1698L57.5334 139.551C57.2078 140.461 56.7486 140.811 55.8886 140.811ZM61.4158 139.434C60.1551 139.434 59.3327 138.561 59.3327 137.15V137.142C59.3327 135.739 60.1634 134.871 61.4116 134.871C62.664 134.871 63.4989 135.735 63.4989 137.142V137.15C63.4989 138.565 62.6724 139.434 61.4158 139.434ZM61.42 138.678C62.1255 138.678 62.5763 138.119 62.5763 137.15V137.142C62.5763 136.182 62.1171 135.626 61.4116 135.626C60.7186 135.626 60.2552 136.182 60.2552 137.142V137.15C60.2552 138.123 60.7145 138.678 61.42 138.678ZM65.6906 139.434C64.7263 139.434 64.1752 138.812 64.1752 137.801V134.954H65.0769V137.626C65.0769 138.29 65.3859 138.657 66.012 138.657C66.6466 138.657 67.0557 138.202 67.0557 137.517V134.954H67.9616V139.346H67.0557V138.686H67.0348C66.8052 139.129 66.3585 139.434 65.6906 139.434ZM68.855 139.346V134.954H69.7567V135.706H69.7776C69.9195 135.192 70.2869 134.871 70.7878 134.871C70.9172 134.871 71.0299 134.892 71.1009 134.904V135.743C71.0299 135.714 70.8713 135.693 70.696 135.693C70.1157 135.693 69.7567 136.073 69.7567 136.728V139.346H68.855ZM75.7306 139.434C75.1002 139.434 74.6118 139.116 74.3529 138.603H74.3321V139.346H73.4303V133.322H74.3321V135.702H74.3529C74.6159 135.184 75.1169 134.871 75.7389 134.871C76.841 134.871 77.5674 135.747 77.5674 137.146V137.15C77.5674 138.549 76.8452 139.434 75.7306 139.434ZM75.4926 138.657C76.2023 138.657 76.6448 138.085 76.6448 137.15V137.146C76.6448 136.219 76.2023 135.643 75.4926 135.643C74.8121 135.643 74.3279 136.236 74.3279 137.146V137.15C74.3279 138.064 74.808 138.657 75.4926 138.657ZM79.7591 139.434C78.7947 139.434 78.2437 138.812 78.2437 137.801V134.954H79.1454V137.626C79.1454 138.29 79.4543 138.657 80.0805 138.657C80.7151 138.657 81.1242 138.202 81.1242 137.517V134.954H82.0301V139.346H81.1242V138.686H81.1033C80.8737 139.129 80.427 139.434 79.7591 139.434ZM84.5641 139.434C83.4453 139.434 82.7272 138.549 82.7272 137.15V137.146C82.7272 135.747 83.4536 134.871 84.5557 134.871C85.1777 134.871 85.6787 135.184 85.9417 135.702H85.9584V133.322H86.8643V139.346H85.9584V138.603H85.9417C85.6787 139.116 85.1944 139.434 84.5641 139.434ZM84.802 138.657C85.4825 138.657 85.9625 138.064 85.9625 137.15V137.146C85.9625 136.236 85.4783 135.643 84.802 135.643C84.0923 135.643 83.6498 136.219 83.6498 137.146V137.15C83.6498 138.085 84.0881 138.657 84.802 138.657ZM89.4317 139.434C88.3129 139.434 87.5948 138.549 87.5948 137.15V137.146C87.5948 135.747 88.3212 134.871 89.4233 134.871C90.0453 134.871 90.5463 135.184 90.8093 135.702H90.826V133.322H91.7319V139.346H90.826V138.603H90.8093C90.5463 139.116 90.062 139.434 89.4317 139.434ZM89.6696 138.657C90.3501 138.657 90.8302 138.064 90.8302 137.15V137.146C90.8302 136.236 90.3459 135.643 89.6696 135.643C88.9599 135.643 88.5174 136.219 88.5174 137.146V137.15C88.5174 138.085 88.9557 138.657 89.6696 138.657ZM93.1763 140.811C93.001 140.811 92.8131 140.79 92.7046 140.769V140.064C92.7755 140.081 92.8799 140.097 93.001 140.097C93.4268 140.097 93.6605 139.985 93.8108 139.559L93.886 139.35L92.2871 134.954H93.264L94.3702 138.528H94.3995L95.5057 134.954H96.4575L94.8211 139.551C94.4955 140.461 94.0363 140.811 93.1763 140.811ZM101.054 139.434C100.423 139.434 99.935 139.116 99.6762 138.603H99.6553V139.346H98.7536V133.322H99.6553V135.702H99.6762C99.9392 135.184 100.44 134.871 101.062 134.871C102.164 134.871 102.891 135.747 102.891 137.146V137.15C102.891 138.549 102.168 139.434 101.054 139.434ZM100.816 138.657C101.526 138.657 101.968 138.085 101.968 137.15V137.146C101.968 136.219 101.526 135.643 100.816 135.643C100.135 135.643 99.6511 136.236 99.6511 137.146V137.15C99.6511 138.064 100.131 138.657 100.816 138.657ZM105.462 139.434C104.172 139.434 103.392 138.553 103.392 137.167V137.163C103.392 135.789 104.185 134.871 105.416 134.871C106.648 134.871 107.403 135.756 107.403 137.075V137.38H104.293C104.31 138.21 104.765 138.695 105.483 138.695C106.017 138.695 106.372 138.419 106.485 138.089L106.497 138.056H107.353L107.345 138.102C107.203 138.799 106.527 139.434 105.462 139.434ZM105.42 135.61C104.836 135.61 104.385 136.006 104.306 136.741H106.51C106.435 135.981 106.009 135.61 105.42 135.61ZM109.875 139.346V133.322H110.776V135.676H110.797C111.031 135.167 111.503 134.871 112.158 134.871C113.098 134.871 113.715 135.572 113.715 136.632V139.346H112.814V136.804C112.814 136.077 112.446 135.643 111.812 135.643C111.19 135.643 110.776 136.119 110.776 136.804V139.346H109.875ZM115.882 139.425C115.005 139.425 114.417 138.887 114.417 138.098V138.089C114.417 137.325 115.01 136.858 116.049 136.795L117.243 136.724V136.394C117.243 135.91 116.93 135.618 116.37 135.618C115.849 135.618 115.527 135.864 115.452 136.215L115.444 136.253H114.592L114.596 136.207C114.659 135.451 115.314 134.871 116.396 134.871C117.468 134.871 118.149 135.439 118.149 136.319V139.346H117.243V138.653H117.226C116.972 139.125 116.462 139.425 115.882 139.425ZM115.327 138.077C115.327 138.461 115.644 138.703 116.128 138.703C116.763 138.703 117.243 138.273 117.243 137.701V137.359L116.17 137.426C115.627 137.459 115.327 137.697 115.327 138.069V138.077ZM119.026 140.807V134.954H119.927V135.71H119.948C120.211 135.188 120.695 134.871 121.322 134.871C122.44 134.871 123.158 135.747 123.158 137.15V137.154C123.158 138.553 122.436 139.434 121.334 139.434C120.712 139.434 120.207 139.116 119.948 138.607H119.927V140.807H119.026ZM121.088 138.657C121.797 138.657 122.24 138.081 122.24 137.154V137.15C122.24 136.215 121.793 135.643 121.088 135.643C120.403 135.643 119.923 136.236 119.923 137.15V137.154C119.923 138.064 120.407 138.657 121.088 138.657ZM123.86 140.807V134.954H124.761V135.71H124.782C125.045 135.188 125.53 134.871 126.156 134.871C127.275 134.871 127.993 135.747 127.993 137.15V137.154C127.993 138.553 127.27 139.434 126.168 139.434C125.546 139.434 125.041 139.116 124.782 138.607H124.761V140.807H123.86ZM125.922 138.657C126.632 138.657 127.074 138.081 127.074 137.154V137.15C127.074 136.215 126.628 135.643 125.922 135.643C125.237 135.643 124.757 136.236 124.757 137.15V137.154C124.757 138.064 125.242 138.657 125.922 138.657ZM129.045 140.811C128.869 140.811 128.681 140.79 128.573 140.769V140.064C128.644 140.081 128.748 140.097 128.869 140.097C129.295 140.097 129.529 139.985 129.679 139.559L129.754 139.35L128.155 134.954H129.132L130.239 138.528H130.268L131.374 134.954H132.326L130.689 139.551C130.364 140.461 129.905 140.811 129.045 140.811Z" fill="black"/>
<path d="M141.6 179.005H46.1297C41.2112 179.005 37.2239 182.992 37.2239 187.911C37.2239 192.829 41.2112 196.817 46.1297 196.817H141.6C146.519 196.817 150.506 192.829 150.506 187.911C150.506 182.992 146.519 179.005 141.6 179.005Z" fill="#979797" fill-opacity="0.23"/>
<path d="M37.2239 187.911C37.2239 182.992 41.2112 179.005 46.1297 179.005H97.0712V196.817H46.1297C41.2112 196.817 37.2239 192.829 37.2239 187.911Z" fill="white"/>
<path d="M127.258 191.917C125.594 191.917 124.216 190.753 124.216 188.113V188.102C124.216 185.613 125.369 184.126 127.289 184.126C128.683 184.126 129.721 184.93 129.961 186.067L129.972 186.124H128.636L128.615 186.078C128.417 185.561 127.952 185.227 127.279 185.227C126.068 185.227 125.562 186.385 125.51 187.81C125.505 187.888 125.505 187.967 125.505 188.05H125.531C125.828 187.361 126.58 186.839 127.603 186.839C129.053 186.839 130.071 187.883 130.071 189.297V189.308C130.071 190.826 128.881 191.917 127.258 191.917ZM125.734 189.329C125.734 190.163 126.397 190.816 127.237 190.816C128.077 190.816 128.745 190.169 128.745 189.355V189.344C128.745 188.488 128.114 187.878 127.253 187.878C126.392 187.878 125.734 188.483 125.734 189.323V189.329ZM133.734 191.917C132.169 191.917 131.104 190.983 131.005 189.736L131 189.668H132.263L132.268 189.704C132.378 190.336 132.952 190.821 133.745 190.821C134.642 190.821 135.263 190.205 135.263 189.323V189.313C135.263 188.452 134.632 187.836 133.75 187.836C133.322 187.836 132.952 187.967 132.665 188.207C132.524 188.321 132.398 188.467 132.31 188.634H131.136L131.496 184.256H136.119V185.357H132.571L132.362 187.627H132.388C132.717 187.121 133.338 186.824 134.094 186.824C135.529 186.824 136.563 187.862 136.563 189.292V189.302C136.563 190.852 135.399 191.917 133.734 191.917ZM138.822 188.076C137.784 188.076 137.152 187.33 137.152 186.135V186.13C137.152 184.935 137.784 184.189 138.822 184.189C139.855 184.189 140.482 184.935 140.482 186.13V186.135C140.482 187.33 139.855 188.076 138.822 188.076ZM139.438 191.786H138.384L143.174 184.256H144.218L139.438 191.786ZM138.822 187.293C139.271 187.293 139.522 186.876 139.522 186.135V186.13C139.522 185.389 139.271 184.971 138.822 184.971C138.368 184.971 138.113 185.389 138.113 186.13V186.135C138.113 186.876 138.368 187.293 138.822 187.293ZM143.785 191.854C142.752 191.854 142.12 191.108 142.12 189.908V189.903C142.12 188.713 142.752 187.967 143.785 187.967C144.818 187.967 145.449 188.713 145.449 189.903V189.908C145.449 191.108 144.818 191.854 143.785 191.854ZM143.785 191.071C144.234 191.071 144.489 190.654 144.489 189.913V189.908C144.489 189.167 144.234 188.749 143.785 188.749C143.331 188.749 143.075 189.167 143.075 189.908V189.913C143.075 190.654 143.331 191.071 143.785 191.071Z" fill="black"/>
<mask id="mask2_1_4298" style="mask-type:luminance" maskUnits="userSpaceOnUse" x="141" y="91" width="166" height="165">
<path d="M141.244 91.3716H306.537V255.608H141.244V91.3716Z" fill="white"/>
</mask>
<g mask="url(#mask2_1_4298)">
<path d="M236.193 120.43L232.57 119.449H225.476L223.513 120.053L217.626 113.939L214.23 120.43L208.493 113.939L199.512 102.693L193.851 99.3721L191.209 105.259L190.681 132.129C189.398 132.632 184.764 133.744 183.435 133.865C182.107 133.986 187.36 137.513 189.247 139.224L185.096 144.13L188.417 147.375C185.7 152.382 176.854 165.172 176.19 165.716C175.525 166.259 181.096 167.074 184.039 167.301C182.789 172.081 180.693 181.879 180.363 182.376C180.334 182.389 180.326 182.396 180.341 182.396C180.347 182.396 180.354 182.389 180.363 182.376C180.922 182.127 189.247 179.581 189.247 179.15C189.247 178.788 189.7 185.49 189.7 188.283L193.851 187.453C191.209 196.359 186.53 202.095 185.322 203.001C184.115 203.907 188.09 203.982 190.681 204.661C188.467 210.398 184.492 222.927 184.794 223.832C185.096 224.738 195.018 219.53 192.266 221.266C189.514 223.002 190.681 239.305 190.681 239.305L196.417 235.908L195.285 257.268H291.668L289.479 248.664L279.894 230.172L268.95 213.568L258.685 196.359H263.817L250.76 183L259.666 185.717L261.855 181.113L260.874 174.169L268.195 175.301L270.988 171.603L259.666 154.394L266.308 151.149L258.006 144.658L268.195 140.129L261.855 135.299L262.761 128.204V110.845L258.685 100.806L251.892 104.505L236.193 120.43Z" fill="#FBEEDA"/>
<path d="M235.895 120.884C241.305 114.242 253.391 101.004 258.463 101.185C261.406 104.229 266.207 115.314 261.859 135.3L268.954 140.131L258.463 144.357L267.293 151.452L259.746 153.943C263.922 158.974 271.943 169.838 270.614 173.038C269.286 176.238 262.815 174.372 259.746 173.038C261.155 175.202 263.55 180.284 261.859 183.303C260.169 186.322 253.305 183.454 250.085 181.642" stroke="#2F2F2F" stroke-width="3.01904" stroke-linecap="round" stroke-linejoin="round"/>
<path d="M254.534 185.566C256.698 188.434 261.523 194.593 263.516 196.283C265.508 197.974 260.723 197.843 258.081 197.566C268.245 209.819 289.419 239.32 292.8 259.306" stroke="#2F2F2F" stroke-width="3.01904" stroke-linecap="round" stroke-linejoin="round"/>
<path d="M233.023 118.694C230.558 118.87 225.264 119.539 223.815 120.807" stroke="#2F2F2F" stroke-width="3.01904" stroke-linecap="round" stroke-linejoin="round"/>
<path d="M223.966 120.539L216.947 113.596C216.444 116.715 215.347 122.713 214.984 121.747C214.531 120.539 199.814 100.689 194.379 99.406C190.032 98.3795 189.65 120.867 190.002 132.238L183.133 134.352L189.322 139.257L184.492 144.465" stroke="#2F2F2F" stroke-width="3.01904" stroke-linecap="round" stroke-linejoin="round"/>
<path d="M187.888 147.526L176.19 165.866C177.85 166.847 181.926 168.372 184.945 166.621C183.033 170.319 179.541 178.682 180.869 182.546C183.561 181.993 189.066 180.569 189.549 179.301C190.153 177.716 187.888 186.169 189.549 188.585C190.555 188.434 193.172 187.83 195.587 186.622C194.103 190.899 189.639 200.178 183.662 203.076C186.857 203.277 193.157 203.801 192.794 204.284C192.341 204.887 184.945 211.68 184.945 224.209C187.108 223.731 191.707 222.383 192.794 220.813C191.058 224.36 188.311 232.995 191.209 239.154C192.92 238.55 196.432 236.874 196.795 235.002C195.989 239.43 194.621 250.098 195.587 257.343" stroke="#2F2F2F" stroke-width="3.01904" stroke-linecap="round" stroke-linejoin="round"/>
<path d="M237.25 154.201C234.959 155.324 229.788 156.256 227.438 150.997" stroke="#2F2F2F" stroke-width="3.01904" stroke-linecap="round" stroke-linejoin="round"/>
<path d="M208.281 150.67C206.5 152.143 202.117 154.282 198.834 151.057" stroke="#2F2F2F" stroke-width="3.01904" stroke-linecap="round" stroke-linejoin="round"/>
<path d="M195.913 132.689C197.349 132.094 200.733 129.747 200.369 128.946C200.005 128.144 198.691 125.031 199.637 124.076C200.582 123.121 202.917 127.263 205.142 125.088C205.921 124.327 200.867 117.987 197.97 114.768C195.073 111.548 195.006 133.064 195.913 132.689Z" fill="#F0BA91"/>
<path d="M248.434 129.866C248.133 130.168 252.888 134.017 253.793 133.564C254.699 133.111 256.888 114.393 254.774 114.016C253.954 113.869 245.189 123.451 244.736 124.281C244.374 124.945 244.736 125.69 244.887 125.941C246.346 125.363 249.536 124.477 250.623 125.564C251.982 126.922 248.736 129.564 248.434 129.866Z" fill="#F0BA91"/>
<path d="M219.904 160.232C220.855 163.362 214.716 168.084 211.528 170.053C209.537 169.643 205.169 164.416 203.753 161.087C202.621 158.424 207.605 156.914 210.238 156.492C213.064 156.435 218.953 157.102 219.904 160.232Z" fill="#2F2F2F"/>
<path d="M231.287 170.546C226.985 176.358 214.282 182.122 210.984 169.565" stroke="#2F2F2F" stroke-width="3.7738" stroke-linecap="round" stroke-linejoin="round"/>
<path d="M196.87 165.338C195.662 173.188 209.324 182.32 211.437 167.225" stroke="#2F2F2F" stroke-width="3.7738" stroke-linecap="round" stroke-linejoin="round"/>
<path d="M220.419 187.83C216.796 189.163 208.69 189.913 205.248 182.245" stroke="#E7D4B1" stroke-width="2.26428" stroke-linecap="round" stroke-linejoin="round"/>
<path d="M238.986 143.45C237.904 140.909 234.593 136.733 230.004 140.355" stroke="#E7D4B1" stroke-width="2.26428" stroke-linecap="round" stroke-linejoin="round"/>
<path d="M209.701 138.544C208.644 138.544 203.512 134.77 199.059 141.261" stroke="#E7D4B1" stroke-width="2.26428" stroke-linecap="round" stroke-linejoin="round"/>
</g>
</g>
<path d="M34.1068 235.191V224.955H30.5V223.143H39.8511V224.955H36.2526V235.191H34.1068ZM42.6234 235.366C40.0184 235.366 38.3402 233.629 38.3402 230.766V230.749C38.3402 227.91 40.0435 226.157 42.615 226.157C45.195 226.157 46.9066 227.894 46.9066 230.749V230.766C46.9066 233.638 45.22 235.366 42.6234 235.366ZM42.6317 233.688C43.9426 233.688 44.7858 232.619 44.7858 230.766V230.749C44.7858 228.904 43.9342 227.843 42.615 227.843C41.3209 227.843 40.4609 228.912 40.4609 230.749V230.766C40.4609 232.628 41.3042 233.688 42.6317 233.688ZM51.19 235.366C48.9524 235.366 47.5331 233.613 47.5331 230.766V230.757C47.5331 227.902 48.9608 226.157 51.1817 226.157C52.4341 226.157 53.4443 226.8 53.9453 227.86H53.9954V223.143H56.0743V235.191H53.9954V233.688H53.9453C53.4443 234.732 52.4675 235.366 51.19 235.366ZM51.8162 233.613C53.102 233.613 53.9954 232.502 53.9954 230.766V230.757C53.9954 229.029 53.0937 227.91 51.8162 227.91C50.4887 227.91 49.6538 228.996 49.6538 230.757V230.766C49.6538 232.527 50.4804 233.613 51.8162 233.613ZM60.0907 235.341C58.3206 235.341 57.1267 234.247 57.1267 232.669V232.653C57.1267 231.083 58.3457 230.139 60.4914 230.006L62.8042 229.864V229.254C62.8042 228.361 62.2197 227.818 61.1677 227.818C60.1825 227.818 59.5814 228.278 59.4478 228.929L59.4311 229.004H57.5024L57.5108 228.904C57.636 227.334 58.9969 226.157 61.2429 226.157C63.4554 226.157 64.8831 227.326 64.8831 229.104V235.191H62.8042V233.83H62.7541C62.2448 234.757 61.2596 235.341 60.0907 235.341ZM59.1973 232.586C59.1973 233.312 59.7984 233.755 60.7085 233.755C61.9024 233.755 62.8042 232.961 62.8042 231.909V231.242L60.7837 231.367C59.7567 231.434 59.1973 231.876 59.1973 232.577V232.586ZM67.3715 238.13C66.9708 238.13 66.5533 238.08 66.3028 238.038V236.451C66.4615 236.485 66.7036 236.527 66.9958 236.527C67.789 236.527 68.2315 236.301 68.4987 235.558L68.6239 235.199L65.4429 226.341H67.7139L69.7845 233.421H69.8429L71.9219 226.341H74.1094L70.9283 235.491C70.252 237.437 69.2167 238.13 67.3715 238.13Z" fill="black"/>
<path opacity="0.1" d="M246.973 231.191V230.211L249.811 227.445C250.863 226.415 251.092 226.009 251.092 225.413V225.402C251.086 224.684 250.546 224.172 249.772 224.172C248.882 224.172 248.258 224.767 248.242 225.541V225.58H246.895V225.541C246.895 224.072 248.13 223.02 249.761 223.02C251.37 223.02 252.494 223.994 252.494 225.318V225.33C252.494 226.276 252.055 226.916 250.641 228.274L248.871 229.955V230.016H252.617V231.191H246.973ZM256.485 231.33C254.515 231.33 253.329 229.732 253.329 227.178V227.166C253.329 224.612 254.515 223.02 256.485 223.02C258.45 223.02 259.641 224.612 259.641 227.166V227.178C259.641 229.732 258.45 231.33 256.485 231.33ZM256.485 230.155C257.565 230.155 258.194 229.031 258.194 227.178V227.166C258.194 225.313 257.565 224.2 256.485 224.2C255.4 224.2 254.777 225.313 254.777 227.166V227.178C254.777 229.031 255.4 230.155 256.485 230.155ZM260.955 231.28C260.504 231.28 260.148 230.924 260.148 230.473C260.148 230.027 260.504 229.671 260.955 229.671C261.406 229.671 261.757 230.027 261.757 230.473C261.757 230.924 261.406 231.28 260.955 231.28ZM265.57 231.33C263.599 231.33 262.414 229.732 262.414 227.178V227.166C262.414 224.612 263.599 223.02 265.57 223.02C267.535 223.02 268.726 224.612 268.726 227.166V227.178C268.726 229.732 267.535 231.33 265.57 231.33ZM265.57 230.155C266.65 230.155 267.279 229.031 267.279 227.178V227.166C267.279 225.313 266.65 224.2 265.57 224.2C264.484 224.2 263.861 225.313 263.861 227.166V227.178C263.861 229.031 264.484 230.155 265.57 230.155ZM272.505 231.33C270.836 231.33 269.7 230.334 269.594 229.003L269.589 228.931H270.936L270.941 228.97C271.058 229.643 271.671 230.161 272.517 230.161C273.474 230.161 274.136 229.504 274.136 228.564V228.552C274.136 227.634 273.463 226.977 272.522 226.977C272.066 226.977 271.671 227.116 271.364 227.372C271.214 227.495 271.081 227.651 270.986 227.829H269.734L270.118 223.159H275.049V224.333H271.264L271.042 226.755H271.069C271.42 226.215 272.082 225.897 272.89 225.897C274.42 225.897 275.522 227.005 275.522 228.53V228.541C275.522 230.194 274.281 231.33 272.505 231.33Z" fill="black"/>
<path d="M24.3994 252.234H281.6" stroke="#F9F7F4" stroke-width="0.712468"/>
<path d="M24.3994 252.234H281.6" stroke="#F9F7F4" stroke-width="0.712468"/>
<path d="M35.7989 267.238C35.5943 267.242 35.4273 267.063 35.4273 266.837V265.869C35.4273 265.639 35.5943 265.468 35.7989 265.468C35.9992 265.468 36.1662 265.639 36.1662 265.869V266.837C36.1662 267.063 35.9992 267.234 35.7989 267.238ZM37.953 268.131C37.8068 267.989 37.811 267.743 37.9738 267.584L38.6585 266.9C38.8213 266.733 39.0592 266.737 39.2012 266.879C39.3431 267.025 39.3473 267.259 39.1845 267.426L38.4998 268.11C38.337 268.269 38.0991 268.273 37.953 268.131ZM33.0937 268.11L32.4091 267.426C32.2463 267.259 32.2463 267.021 32.3924 266.879C32.5343 266.741 32.7723 266.733 32.9351 266.9L33.6197 267.584C33.7825 267.743 33.7825 267.985 33.6406 268.131C33.4986 268.273 33.2565 268.269 33.0937 268.11ZM38.0615 270.277C38.0615 270.548 38.0072 270.807 37.907 271.041H33.6865C33.5863 270.807 33.532 270.548 33.532 270.277C33.532 269.037 34.5548 268.006 35.7989 268.006C37.0387 268.006 38.0615 269.037 38.0615 270.277ZM31.3779 270.498C31.1525 270.498 30.9813 270.331 30.9813 270.127C30.9813 269.922 31.1525 269.755 31.3779 269.755H32.3464C32.5761 269.755 32.7472 269.922 32.7514 270.127C32.7514 270.331 32.5761 270.498 32.3464 270.498H31.3779ZM39.2471 270.498C39.0217 270.498 38.8463 270.331 38.8422 270.127C38.8422 269.922 39.0175 269.755 39.2471 269.755H40.2156C40.4452 269.755 40.6122 269.922 40.6122 270.127C40.6122 270.331 40.4452 270.498 40.2156 270.498H39.2471ZM30.8603 272.364C30.6349 272.364 30.447 272.181 30.447 271.968C30.447 271.755 30.6349 271.571 30.8603 271.571H40.7333C40.9587 271.571 41.1465 271.751 41.1465 271.968C41.1465 272.181 40.9587 272.364 40.7333 272.364H30.8603Z" fill="#FFBE70"/>
<path d="M44.9038 272.239V266.215H47.2416C48.4731 266.215 49.2496 266.929 49.2496 268.06V268.069C49.2496 268.887 48.8029 269.538 48.0807 269.784L49.4291 272.239H48.352L47.1247 269.926H45.8389V272.239H44.9038ZM45.8389 269.158H47.1497C47.8719 269.158 48.2852 268.762 48.2852 268.077V268.069C48.2852 267.401 47.8427 267 47.1247 267H45.8389V269.158ZM51.9172 272.327C50.6564 272.327 49.834 271.454 49.834 270.043V270.035C49.834 268.632 50.6648 267.764 51.913 267.764C53.1654 267.764 54.0003 268.628 54.0003 270.035V270.043C54.0003 271.458 53.1737 272.327 51.9172 272.327ZM51.9213 271.571C52.6268 271.571 53.0777 271.012 53.0777 270.043V270.035C53.0777 269.075 52.6185 268.519 51.913 268.519C51.22 268.519 50.7566 269.075 50.7566 270.035V270.043C50.7566 271.016 51.2158 271.571 51.9213 271.571ZM56.192 272.327C55.2276 272.327 54.6766 271.705 54.6766 270.694V267.847H55.5783V270.519C55.5783 271.183 55.8872 271.55 56.5134 271.55C57.148 271.55 57.5571 271.095 57.5571 270.411V267.847H58.463V272.239H57.5571V271.579H57.5362C57.3066 272.022 56.8599 272.327 56.192 272.327ZM60.8968 272.327C60.0284 272.327 59.611 271.959 59.611 271.083V268.565H58.9806V267.847H59.611V266.704H60.5336V267.847H61.356V268.565H60.5336V271.028C60.5336 271.475 60.7339 271.609 61.1138 271.609C61.2099 271.609 61.2892 271.6 61.356 271.592V272.289C61.2516 272.306 61.0804 272.327 60.8968 272.327ZM62.5917 267.171C62.2994 267.171 62.0657 266.937 62.0657 266.653C62.0657 266.365 62.2994 266.132 62.5917 266.132C62.8881 266.132 63.1177 266.365 63.1177 266.653C63.1177 266.937 62.8881 267.171 62.5917 267.171ZM62.1408 272.239V267.847H63.0425V272.239H62.1408ZM63.9735 272.239V267.847H64.8752V268.511H64.896C65.1256 268.064 65.5765 267.764 66.2403 267.764C67.2046 267.764 67.7598 268.386 67.7598 269.396V272.239H66.8539V269.567C66.8539 268.908 66.545 268.536 65.9188 268.536C65.2843 268.536 64.8752 268.995 64.8752 269.68V272.239H63.9735ZM70.5067 272.327C69.2168 272.327 68.4361 271.446 68.4361 270.06V270.056C68.4361 268.682 69.2293 267.764 70.4608 267.764C71.6923 267.764 72.4479 268.649 72.4479 269.968V270.273H69.3378C69.3545 271.104 69.8096 271.588 70.5276 271.588C71.062 271.588 71.4168 271.312 71.5295 270.983L71.542 270.949H72.3978L72.3895 270.995C72.2475 271.692 71.5713 272.327 70.5067 272.327ZM70.465 268.503C69.8805 268.503 69.4297 268.899 69.3504 269.634H71.5546C71.4794 268.874 71.0536 268.503 70.465 268.503Z" fill="#FFBE70"/>
<path d="M33.1048 290.789V283.112H30.3997V281.753H37.413V283.112H34.7142V290.789H33.1048ZM38.4778 290.901C37.1503 290.901 36.2548 290.081 36.2548 288.898V288.885C36.2548 287.708 37.1691 287 38.7784 286.9L40.5129 286.794V286.336C40.5129 285.666 40.0746 285.259 39.2856 285.259C38.5467 285.259 38.0958 285.604 37.9957 286.092L37.9831 286.149H36.5366L36.5429 286.073C36.6368 284.896 37.6575 284.013 39.342 284.013C41.0014 284.013 42.0722 284.89 42.0722 286.224V290.789H40.5129V289.768H40.4754C40.0934 290.463 39.3545 290.901 38.4778 290.901ZM37.8078 288.835C37.8078 289.38 38.2587 289.712 38.9412 289.712C39.8367 289.712 40.5129 289.117 40.5129 288.328V287.827L38.9976 287.921C38.2273 287.971 37.8078 288.303 37.8078 288.829V288.835ZM43.1432 290.789V281.753H44.7024V286.906H44.7337L47.2135 284.151H49.0169L46.3869 287.006L49.1233 290.789H47.3262L45.2284 287.933L44.7024 288.484V290.789H43.1432ZM52.073 290.92C50.0817 290.92 48.8794 289.599 48.8794 287.489V287.482C48.8794 285.391 50.1005 284.013 51.9978 284.013C53.8952 284.013 55.0724 285.347 55.0724 287.351V287.852H50.4261C50.4511 289.017 51.0898 289.705 52.1043 289.705C52.8808 289.705 53.388 289.292 53.5383 288.847L53.5508 288.804H55.0098L54.991 288.873C54.7844 289.893 53.8075 290.92 52.073 290.92ZM52.0166 285.234C51.19 285.234 50.5701 285.792 50.4449 286.812H53.557C53.4443 285.76 52.8432 285.234 52.0166 285.234ZM60.095 290.901C58.7675 290.901 57.872 290.081 57.872 288.898V288.885C57.872 287.708 58.7863 287 60.3956 286.9L62.1301 286.794V286.336C62.1301 285.666 61.6918 285.259 60.9028 285.259C60.1639 285.259 59.713 285.604 59.6128 286.092L59.6003 286.149H58.1538L58.1601 286.073C58.254 284.896 59.2747 284.013 60.9591 284.013C62.6186 284.013 63.6893 284.89 63.6893 286.224V290.789H62.1301V289.768H62.0926C61.7106 290.463 60.9717 290.901 60.095 290.901ZM59.425 288.835C59.425 289.38 59.8758 289.712 60.5584 289.712C61.4538 289.712 62.1301 289.117 62.1301 288.328V287.827L60.6147 287.921C59.8445 287.971 59.425 288.303 59.425 288.829V288.835ZM69.5948 290.92C67.854 290.92 66.8584 290.094 66.7206 288.86L66.7144 288.804H68.2485L68.2611 288.86C68.38 289.43 68.8121 289.768 69.6011 289.768C70.3588 289.768 70.8159 289.461 70.8159 288.973V288.966C70.8159 288.566 70.5842 288.34 69.8954 288.184L68.7933 287.94C67.5221 287.658 66.8834 287.038 66.8834 286.055V286.048C66.8834 284.834 67.9417 284.013 69.5447 284.013C71.1979 284.013 72.1622 284.921 72.2186 286.067L72.2249 286.136H70.7721L70.7658 286.086C70.6969 285.554 70.2711 285.165 69.5447 285.165C68.8559 285.165 68.4239 285.485 68.4239 285.973V285.98C68.4239 286.362 68.6806 286.612 69.3694 286.769L70.4778 287.013C71.8491 287.32 72.3814 287.858 72.3814 288.822V288.829C72.3814 290.081 71.2229 290.92 69.5948 290.92ZM73.1644 290.789V281.753H74.7236V285.266H74.7612C75.1056 284.47 75.8132 284.013 76.8088 284.013C78.2366 284.013 79.1508 285.053 79.1508 286.656V290.789H77.5916V286.963C77.5916 285.942 77.0781 285.328 76.1826 285.328C75.2997 285.328 74.7236 285.998 74.7236 286.963V290.789H73.1644ZM83.0898 290.92C81.1361 290.92 79.8774 289.618 79.8774 287.47V287.457C79.8774 285.328 81.1549 284.013 83.0835 284.013C85.0185 284.013 86.3022 285.316 86.3022 287.457V287.47C86.3022 289.624 85.0373 290.92 83.0898 290.92ZM83.0961 289.662C84.0792 289.662 84.7116 288.86 84.7116 287.47V287.457C84.7116 286.073 84.0729 285.278 83.0835 285.278C82.1129 285.278 81.468 286.08 81.468 287.457V287.47C81.468 288.866 82.1004 289.662 83.0961 289.662ZM88.3062 290.789L86.5091 284.151H88.0745L89.1954 289.248H89.2267L90.523 284.151H92.0196L93.3158 289.248H93.3533L94.4742 284.151H96.0147L94.2175 290.789H92.5769L91.2681 285.936H91.2368L89.9343 290.789H88.3062ZM99.3901 290.92C97.3988 290.92 96.1965 289.599 96.1965 287.489V287.482C96.1965 285.391 97.4176 284.013 99.315 284.013C101.212 284.013 102.39 285.347 102.39 287.351V287.852H97.7432C97.7683 289.017 98.407 289.705 99.4214 289.705C100.198 289.705 100.705 289.292 100.855 288.847L100.868 288.804H102.327L102.308 288.873C102.102 289.893 101.125 290.92 99.3901 290.92ZM99.3337 285.234C98.5072 285.234 97.8872 285.792 97.762 286.812H100.874C100.762 285.76 100.16 285.234 99.3337 285.234ZM103.141 290.789V284.151H104.701V285.297H104.732C104.939 284.495 105.49 284.013 106.254 284.013C106.448 284.013 106.629 284.045 106.748 284.076V285.485C106.617 285.435 106.379 285.397 106.116 285.397C105.233 285.397 104.701 285.954 104.701 286.938V290.789H103.141Z" fill="black"/>
<path d="M268.476 263.99H259.626C255.525 263.99 252.201 267.315 252.201 271.415C252.201 275.516 255.525 278.84 259.626 278.84H268.476C272.576 278.84 275.901 275.516 275.901 271.415C275.901 267.315 272.576 263.99 268.476 263.99Z" fill="#E82326"/>
<path d="M256.081 274.415V268.391H257.016V270.937H260.11V268.391H261.045V274.415H260.11V271.747H257.016V274.415H256.081ZM262.531 269.347C262.239 269.347 262.005 269.113 262.005 268.829C262.005 268.541 262.239 268.307 262.531 268.307C262.827 268.307 263.057 268.541 263.057 268.829C263.057 269.113 262.827 269.347 262.531 269.347ZM262.08 274.415V270.023H262.982V274.415H262.08ZM265.837 275.963C264.71 275.963 263.996 275.442 263.863 274.769L263.858 274.732H264.752L264.768 274.765C264.889 275.045 265.269 275.237 265.833 275.237C266.551 275.237 266.948 274.853 266.948 274.239V273.638H266.927C266.676 274.114 266.175 274.419 265.545 274.419C264.443 274.419 263.716 273.555 263.716 272.185V272.181C263.716 270.804 264.451 269.939 265.566 269.939C266.184 269.939 266.668 270.273 266.927 270.77H266.948V270.023H267.853V274.294C267.853 275.295 267.077 275.963 265.837 275.963ZM265.8 273.684C266.488 273.684 266.948 273.104 266.948 272.198V272.194C266.948 271.292 266.484 270.712 265.8 270.712C265.086 270.712 264.639 271.288 264.639 272.194V272.198C264.639 273.116 265.086 273.684 265.8 273.684ZM268.78 274.415V268.391H269.682V270.745H269.703C269.937 270.236 270.408 269.939 271.064 269.939C272.003 269.939 272.621 270.641 272.621 271.701V274.415H271.719V271.872C271.719 271.146 271.352 270.712 270.717 270.712C270.095 270.712 269.682 271.188 269.682 271.872V274.415H268.78Z" fill="white"/>
<g filter="url(#filter0_f_1_4298)">
<path d="M319.005 -138.043H-13.0051V72.848H319.005V-138.043Z" fill="white" fill-opacity="0.8"/>
</g>
<path d="M53.9094 29.3193C54.3667 29.3193 54.8004 29.404 55.2105 29.5736C55.6205 29.7392 55.9832 29.9994 56.2986 30.3542C56.618 30.7051 56.8684 31.1566 57.0497 31.7085C57.2311 32.2566 57.3218 32.917 57.3218 33.6898V33.7016C57.3218 34.6597 57.1838 35.4797 56.9078 36.1618C56.6318 36.8439 56.2356 37.3683 55.7191 37.735C55.2065 38.0977 54.5934 38.2791 53.8798 38.2791C53.3554 38.2791 52.8823 38.1844 52.4604 37.9952C52.0425 37.802 51.6955 37.5378 51.4196 37.2027C51.1475 36.8636 50.9642 36.4772 50.8695 36.0435L50.8577 35.9785H52.354L52.3776 36.0376C52.4525 36.2348 52.559 36.4082 52.697 36.5581C52.8389 36.7079 53.0085 36.8242 53.2056 36.907C53.4067 36.9858 53.6314 37.0253 53.8798 37.0253C54.3293 37.0253 54.6959 36.8932 54.9798 36.629C55.2676 36.3609 55.4825 36.0041 55.6244 35.5586C55.7703 35.1091 55.8531 34.6123 55.8728 34.0683C55.8768 34.0091 55.8787 33.9519 55.8787 33.8967C55.8787 33.8376 55.8787 33.7804 55.8787 33.7252L55.6126 32.3C55.6126 31.9767 55.5377 31.6829 55.3879 31.4188C55.2381 31.1546 55.035 30.9456 54.7787 30.7919C54.5264 30.6381 54.2406 30.5612 53.9212 30.5612C53.6137 30.5612 53.3318 30.6361 53.0755 30.786C52.8192 30.9358 52.6142 31.1408 52.4604 31.401C52.3067 31.6573 52.2298 31.9451 52.2298 32.2645V32.2763C52.2298 32.6075 52.3027 32.9012 52.4486 33.1575C52.5945 33.4098 52.7936 33.6089 53.0459 33.7548C53.2982 33.9007 53.5861 33.9736 53.9094 33.9736C54.2327 33.9736 54.5225 33.9027 54.7787 33.7607C55.035 33.6188 55.2381 33.4217 55.3879 33.1693C55.5377 32.917 55.6126 32.6311 55.6126 32.3118V32.3H55.9675V33.8731H55.7605C55.658 34.0978 55.5062 34.3068 55.3051 34.5C55.104 34.6932 54.8556 34.8489 54.5599 34.9672C54.2682 35.0855 53.9251 35.1446 53.5309 35.1446C52.9868 35.1446 52.5058 35.0224 52.0878 34.7779C51.6699 34.5335 51.3407 34.1984 51.1002 33.7726C50.8636 33.3467 50.7454 32.8657 50.7454 32.3295V32.3177C50.7454 31.7381 50.8794 31.2236 51.1475 30.7741C51.4196 30.3207 51.7941 29.9659 52.2712 29.7096C52.7522 29.4494 53.2982 29.3193 53.9094 29.3193ZM60.0067 36.9188C59.7386 36.9188 59.5139 36.8301 59.3325 36.6527C59.1551 36.4713 59.0664 36.2505 59.0664 35.9903C59.0664 35.7262 59.1551 35.5054 59.3325 35.3279C59.5139 35.1466 59.7386 35.0559 60.0067 35.0559C60.2788 35.0559 60.5035 35.1466 60.6809 35.3279C60.8584 35.5054 60.9471 35.7262 60.9471 35.9903C60.9471 36.2505 60.8584 36.4713 60.6809 36.6527C60.5035 36.8301 60.2788 36.9188 60.0067 36.9188ZM60.0067 32.5306C59.7386 32.5306 59.5139 32.4419 59.3325 32.2645C59.1551 32.0831 59.0664 31.8623 59.0664 31.6021C59.0664 31.3379 59.1551 31.1171 59.3325 30.9397C59.5139 30.7584 59.7386 30.6677 60.0067 30.6677C60.2788 30.6677 60.5035 30.7584 60.6809 30.9397C60.8584 31.1171 60.9471 31.3379 60.9471 31.6021C60.9471 31.8623 60.8584 32.0831 60.6809 32.2645C60.5035 32.4419 60.2788 32.5306 60.0067 32.5306ZM66.8316 38.0661V36.428H62.6562V35.1801C62.881 34.7977 63.1057 34.4132 63.3304 34.0269C63.5591 33.6405 63.7898 33.2561 64.0224 32.8736C64.2589 32.4872 64.4935 32.1068 64.7262 31.7322C64.9627 31.3537 65.1973 30.9811 65.4299 30.6145C65.6665 30.2438 65.903 29.8831 66.1396 29.5322H68.2864V35.1683H69.4396V36.428H68.2864V38.0661H66.8316ZM64.0756 35.2037H66.8552V30.7505H66.7665C66.593 31.0186 66.4136 31.2946 66.2283 31.5784C66.047 31.8623 65.8636 32.1521 65.6783 32.4478C65.493 32.7435 65.3097 33.0412 65.1283 33.3408C64.9469 33.6365 64.7675 33.9342 64.5901 34.2338C64.4127 34.5295 64.2412 34.8233 64.0756 35.115V35.2037ZM72.9703 38.0661V31.0343H72.8639L70.7407 32.5306V31.0994L72.9703 29.5322H74.4902V38.0661H72.9703Z" fill="black"/>
<path opacity="0.35" d="M265.356 29.7432H253.671C252.176 29.7432 250.964 30.9553 250.964 32.4505V35.5854C250.964 37.0806 252.176 38.2928 253.671 38.2928H265.356C266.851 38.2928 268.063 37.0806 268.063 35.5854V32.4505C268.063 30.9553 266.851 29.7432 265.356 29.7432Z" stroke="black" stroke-width="0.712468"/>
<path opacity="0.4" d="M269.132 32.7935V35.6971C269.706 35.4512 270.078 34.8791 270.078 34.2453C270.078 33.6115 269.706 33.0394 269.132 32.7935Z" fill="black"/>
<path d="M265.214 30.8115H253.814C252.83 30.8115 252.033 31.609 252.033 32.5927V35.4426C252.033 36.4263 252.83 37.2237 253.814 37.2237H265.214C266.197 37.2237 266.995 36.4263 266.995 35.4426V32.5927C266.995 31.609 266.197 30.8115 265.214 30.8115Z" fill="black"/>
<path fill-rule="evenodd" clip-rule="evenodd" d="M239.401 31.5985C241.173 31.5985 242.878 32.2555 244.162 33.4336C244.259 33.5245 244.413 33.5234 244.508 33.431L245.433 32.5308C245.481 32.4839 245.508 32.4205 245.508 32.3545C245.507 32.2884 245.479 32.2253 245.431 32.179C242.06 29.0621 236.742 29.0621 233.372 32.179C233.323 32.2252 233.295 32.2884 233.295 32.3544C233.294 32.4204 233.321 32.4839 233.369 32.5308L234.294 33.431C234.389 33.5235 234.544 33.5246 234.64 33.4336C235.925 32.2554 237.629 31.5985 239.401 31.5985ZM239.399 34.6053C240.366 34.6052 241.299 34.9698 242.015 35.6282C242.112 35.7217 242.265 35.7197 242.36 35.6237L243.277 34.6837C243.325 34.6344 243.352 34.5675 243.351 34.498C243.35 34.4285 243.322 34.3622 243.273 34.3139C241.09 32.2543 237.71 32.2543 235.527 34.3139C235.478 34.3622 235.449 34.4285 235.449 34.4981C235.448 34.5676 235.475 34.6345 235.523 34.6837L236.44 35.6237C236.535 35.7197 236.687 35.7217 236.784 35.6282C237.501 34.9703 238.433 34.6057 239.399 34.6053ZM241.198 36.5956C241.199 36.6707 241.173 36.743 241.125 36.7956L239.574 38.5445C239.528 38.5959 239.466 38.6249 239.402 38.6249C239.337 38.6249 239.275 38.5959 239.23 38.5445L237.679 36.7956C237.631 36.743 237.604 36.6706 237.606 36.5955C237.607 36.5205 237.636 36.4494 237.686 36.3991C238.676 35.463 240.127 35.463 241.117 36.3991C241.167 36.4494 241.196 36.5205 241.198 36.5956Z" fill="black"/>
<path fill-rule="evenodd" clip-rule="evenodd" d="M227.952 30.5853C227.952 30.1343 227.611 29.7686 227.192 29.7686H226.432C226.012 29.7686 225.672 30.1343 225.672 30.5853V37.6629C225.672 38.1139 226.012 38.4796 226.432 38.4796H227.192C227.611 38.4796 227.952 38.1139 227.952 37.6629V30.5853ZM222.655 31.5108H223.415C223.835 31.5108 224.175 31.8852 224.175 32.3471V37.6433C224.175 38.1052 223.835 38.4796 223.415 38.4796H222.655C222.235 38.4796 221.895 38.1052 221.895 37.6433V32.3471C221.895 31.8852 222.235 31.5108 222.655 31.5108ZM219.569 33.3982H218.809C218.389 33.3982 218.049 33.7773 218.049 34.2451V37.6327C218.049 38.1004 218.389 38.4796 218.809 38.4796H219.569C219.989 38.4796 220.329 38.1004 220.329 37.6327V34.2451C220.329 33.7773 219.989 33.3982 219.569 33.3982ZM215.792 35.1404H215.032C214.613 35.1404 214.272 35.5141 214.272 35.9752V37.6448C214.272 38.1058 214.613 38.4796 215.032 38.4796H215.792C216.212 38.4796 216.552 38.1058 216.552 37.6448V35.9752C216.552 35.5141 216.212 35.1404 215.792 35.1404Z" fill="black"/>
<path d="M31.1597 71.2228V59.1748H33.3138V64.1844H39.175V59.1748H41.3207V71.2228H39.175V65.9962H33.3138V71.2228H31.1597ZM46.7898 71.3981C44.1347 71.3981 42.5317 69.6364 42.5317 66.8227V66.8144C42.5317 64.0258 44.1598 62.1889 46.6896 62.1889C49.2194 62.1889 50.7891 63.9673 50.7891 66.6391V67.307H44.5939C44.6273 68.86 45.479 69.7784 46.8315 69.7784C47.8668 69.7784 48.5431 69.2273 48.7435 68.6345L48.7602 68.5761H50.7056L50.6805 68.6679C50.405 70.0289 49.1025 71.3981 46.7898 71.3981ZM46.7147 63.817C45.6126 63.817 44.786 64.5601 44.619 65.921H48.7686C48.6183 64.5184 47.8167 63.817 46.7147 63.817ZM51.8498 71.2228V59.1748H53.9287V71.2228H51.8498ZM55.4152 71.2228V59.1748H57.4942V71.2228H55.4152ZM62.838 71.3981C60.2331 71.3981 58.5549 69.6615 58.5549 66.7977V66.781C58.5549 63.9423 60.2581 62.1889 62.8297 62.1889C65.4096 62.1889 67.1212 63.9256 67.1212 66.781V66.7977C67.1212 69.6698 65.4346 71.3981 62.838 71.3981ZM62.8464 69.7199C64.1572 69.7199 65.0005 68.6512 65.0005 66.7977V66.781C65.0005 64.9358 64.1489 63.8755 62.8297 63.8755C61.5355 63.8755 60.6756 64.9442 60.6756 66.781V66.7977C60.6756 68.6596 61.5188 69.7199 62.8464 69.7199ZM67.2468 73.6858L67.9064 69.2607H69.9185L68.6995 73.6858H67.2468ZM73.7181 71.2228V59.1748H78.3603C80.7982 59.1748 82.4597 60.7862 82.4597 63.1992V63.2159C82.4597 65.6205 80.7982 67.2402 78.3603 67.2402H75.8722V71.2228H73.7181ZM77.8259 60.9365H75.8722V65.5036H77.8259C79.3705 65.5036 80.2722 64.6686 80.2722 63.2242V63.2075C80.2722 61.7631 79.3705 60.9365 77.8259 60.9365ZM87.0438 71.3981C84.3887 71.3981 82.7857 69.6364 82.7857 66.8227V66.8144C82.7857 64.0258 84.4138 62.1889 86.9436 62.1889C89.4734 62.1889 91.0431 63.9673 91.0431 66.6391V67.307H84.848C84.8814 68.86 85.733 69.7784 87.0856 69.7784C88.1209 69.7784 88.7971 69.2273 88.9975 68.6345L89.0142 68.5761H90.9596L90.9345 68.6679C90.659 70.0289 89.3565 71.3981 87.0438 71.3981ZM86.9687 63.817C85.8666 63.817 85.04 64.5601 84.873 65.921H89.0226C88.8723 64.5184 88.0708 63.817 86.9687 63.817ZM95.3349 71.3981C93.4814 71.3981 92.6047 70.6467 92.6047 68.8266V63.9757H91.3523V62.3726H92.6047V60.1267H94.7171V62.3726H96.3619V63.9757H94.7171V68.6512C94.7171 69.5196 95.1011 69.7951 95.8609 69.7951C96.0613 69.7951 96.2199 69.77 96.3619 69.7617V71.323C96.1198 71.3564 95.7524 71.3981 95.3349 71.3981ZM97.4476 71.2228V62.3726H99.5266V63.9005H99.5683C99.8439 62.8318 100.579 62.1889 101.597 62.1889C101.856 62.1889 102.098 62.2307 102.257 62.2724V64.151C102.081 64.0842 101.764 64.0341 101.414 64.0341C100.236 64.0341 99.5266 64.7772 99.5266 66.088V71.2228H97.4476ZM104.086 61.1035C103.434 61.1035 102.925 60.5859 102.925 59.968C102.925 59.3335 103.434 58.8242 104.086 58.8242C104.737 58.8242 105.238 59.3335 105.238 59.968C105.238 60.5859 104.737 61.1035 104.086 61.1035ZM103.042 71.2228V62.3726H105.121V71.2228H103.042ZM106.641 71.2228V59.1748H108.72V66.0463H108.762L112.068 62.3726H114.472L110.966 66.1799L114.614 71.2228H112.218L109.421 67.4155L108.72 68.1503V71.2228H106.641Z" fill="black"/>
<path d="M217.351 65.7225C217.351 57.8528 223.731 51.4731 231.601 51.4731H273.051C280.921 51.4731 287.3 57.8528 287.3 65.7225C287.3 73.5922 280.921 79.9718 273.051 79.9718H231.601C223.731 79.9718 217.351 73.5922 217.351 65.7225Z" fill="#B899FF"/>
<path d="M228.229 71.0719C227.951 71.0719 227.722 70.843 227.722 70.5605V62.4854C227.722 62.0422 227.932 61.7889 228.282 61.6282C228.691 61.4431 229.052 61.3457 229.777 61.3457C231.531 61.3457 232.792 62.237 234.472 62.237C235.218 62.237 235.651 62.0617 235.948 62.0617C236.313 62.0617 236.572 62.2906 236.572 62.6461V67.4435C236.572 67.9013 236.377 68.1984 236.021 68.364C235.636 68.5393 235.257 68.6416 234.516 68.6416C232.797 68.6416 231.575 67.7552 229.821 67.7552C229.261 67.7552 228.876 67.8818 228.735 67.9305V70.5605C228.735 70.8479 228.506 71.0719 228.229 71.0719ZM228.769 65.5391C228.871 65.4125 229.208 65.242 229.807 65.242C230.07 65.242 230.24 65.2664 230.425 65.2859V66.7519C231.053 66.8103 231.614 66.971 232.154 67.1317V65.7047C232.734 65.8898 233.26 66.0116 233.883 66.0944V67.5603C234.083 67.5896 234.282 67.6042 234.487 67.6042C235.086 67.6042 235.427 67.4435 235.524 67.312V66.0018C235.261 66.0749 234.93 66.1236 234.497 66.1236C234.321 66.1236 234.112 66.1187 233.883 66.0944V64.5943C234.102 64.6186 234.292 64.6235 234.443 64.6235C234.911 64.6235 235.3 64.5602 235.524 64.5017V63.1429C235.247 63.2208 234.877 63.2647 234.443 63.2647C234.253 63.2647 234.063 63.25 233.883 63.2306V64.5943C233.308 64.531 232.714 64.3848 232.154 64.2046V62.8458C231.584 62.6753 231.029 62.5 230.425 62.4221V63.7858C230.216 63.7566 229.953 63.742 229.807 63.742C229.208 63.742 228.871 63.9076 228.769 64.0391V65.5391ZM230.425 65.2859V63.7858C231.058 63.8686 231.579 64.0342 232.154 64.2046V65.7047C231.54 65.5245 231.058 65.3687 230.425 65.2859Z" fill="white"/>
<path d="M241.48 68.7227V62.6987H243.98C245.078 62.6987 245.784 63.2915 245.784 64.2058V64.2141C245.784 64.8612 245.295 65.4414 244.648 65.5291V65.55C245.496 65.6251 246.072 66.2179 246.072 67.0111V67.0195C246.072 68.0715 245.291 68.7227 244.005 68.7227H241.48ZM243.709 63.5378H242.557V65.2452H243.525C244.302 65.2452 244.719 64.928 244.719 64.3602V64.3519C244.719 63.83 244.348 63.5378 243.709 63.5378ZM243.696 66.0259H242.557V67.8836H243.759C244.548 67.8836 244.974 67.5622 244.974 66.9568V66.9485C244.974 66.3432 244.54 66.0259 243.696 66.0259ZM247.116 63.6631C246.79 63.6631 246.535 63.4042 246.535 63.0953C246.535 62.778 246.79 62.5234 247.116 62.5234C247.441 62.5234 247.692 62.778 247.692 63.0953C247.692 63.4042 247.441 63.6631 247.116 63.6631ZM246.594 68.7227V64.2976H247.633V68.7227H246.594ZM250.343 70.2715C249.17 70.2715 248.431 69.7371 248.306 69.0441L248.297 69.0066H249.32L249.333 69.04C249.445 69.2946 249.8 69.4867 250.343 69.4867C251.019 69.4867 251.391 69.1276 251.391 68.5641V67.9253H251.37C251.123 68.3971 250.623 68.6976 249.988 68.6976C248.878 68.6976 248.164 67.846 248.164 66.4684V66.4642C248.164 65.0657 248.886 64.2058 250.005 64.2058C250.631 64.2058 251.115 64.5397 251.366 65.049H251.391V64.2976H252.43V68.5975C252.43 69.5994 251.624 70.2715 250.343 70.2715ZM250.314 67.8961C250.961 67.8961 251.395 67.3492 251.395 66.4893V66.4851C251.395 65.6293 250.956 65.0824 250.314 65.0824C249.646 65.0824 249.224 65.621 249.224 66.4809V66.4851C249.224 67.3576 249.646 67.8961 250.314 67.8961ZM256.597 68.8104C255.269 68.8104 254.468 67.9295 254.468 66.5227V66.5185C254.468 65.1242 255.282 64.2058 256.547 64.2058C257.812 64.2058 258.596 65.095 258.596 66.4308V66.7648H255.499C255.515 67.5413 255.941 68.0005 256.618 68.0005C257.135 68.0005 257.473 67.725 257.574 67.4286L257.582 67.3993H258.555L258.542 67.4453C258.404 68.1257 257.753 68.8104 256.597 68.8104ZM256.559 65.0198C256.008 65.0198 255.595 65.3913 255.511 66.0718H257.586C257.511 65.3705 257.11 65.0198 256.559 65.0198ZM260.124 68.7227L258.559 64.2976H259.665L260.692 67.7584H260.717L261.74 64.2976H262.825L261.268 68.7227H260.124ZM264.921 68.8104C263.594 68.8104 262.792 67.9295 262.792 66.5227V66.5185C262.792 65.1242 263.606 64.2058 264.871 64.2058C266.136 64.2058 266.921 65.095 266.921 66.4308V66.7648H263.823C263.84 67.5413 264.266 68.0005 264.942 68.0005C265.46 68.0005 265.798 67.725 265.898 67.4286L265.906 67.3993H266.879L266.867 67.4453C266.729 68.1257 266.078 68.8104 264.921 68.8104ZM264.884 65.0198C264.333 65.0198 263.919 65.3913 263.836 66.0718H265.911C265.835 65.3705 265.435 65.0198 264.884 65.0198ZM267.422 68.7227V64.2976H268.461V64.9906H268.482C268.712 64.5147 269.163 64.2058 269.835 64.2058C270.808 64.2058 271.363 64.832 271.363 65.8589V68.7227H270.323V66.0676C270.323 65.4373 270.031 65.0824 269.438 65.0824C268.841 65.0824 268.461 65.5166 268.461 66.1553V68.7227H267.422ZM273.672 68.8104C272.745 68.8104 272.306 68.4346 272.306 67.5246V65.0991H271.68V64.2976H272.306V63.1746H273.363V64.2976H274.185V65.0991H273.363V67.4369C273.363 67.8711 273.555 68.0088 273.935 68.0088C274.035 68.0088 274.114 67.9963 274.185 67.9921V68.7728C274.064 68.7895 273.88 68.8104 273.672 68.8104ZM276.456 68.8104C275.296 68.8104 274.632 68.2593 274.54 67.4369L274.536 67.3993H275.559L275.567 67.4369C275.646 67.8168 275.934 68.0422 276.46 68.0422C276.966 68.0422 277.27 67.8377 277.27 67.5121V67.5079C277.27 67.2407 277.116 67.0904 276.657 66.9861L275.922 66.8232C275.074 66.6354 274.649 66.2221 274.649 65.5667V65.5625C274.649 64.7526 275.354 64.2058 276.423 64.2058C277.525 64.2058 278.168 64.8111 278.205 65.575L278.21 65.621H277.241L277.237 65.5876C277.191 65.2327 276.907 64.9739 276.423 64.9739C275.964 64.9739 275.676 65.1868 275.676 65.5124V65.5166C275.676 65.7712 275.847 65.9382 276.306 66.0426L277.045 66.2054C277.959 66.41 278.314 66.769 278.314 67.4119V67.416C278.314 68.251 277.542 68.8104 276.456 68.8104Z" fill="white"/>
</g>
<path d="M260.84 6.96973C281.932 6.96973 299.03 24.0684 299.03 45.1602V288.03H6.96973V45.1602C6.96973 24.0684 24.0683 6.96973 45.1602 6.96973H260.84Z" stroke="black" stroke-width="12.06"/>
</g>
<defs>
<filter id="filter0_f_1_4298" x="-41.5039" y="-166.542" width="389.008" height="267.889" filterUnits="userSpaceOnUse" color-interpolation-filters="sRGB">
<feFlood flood-opacity="0" result="BackgroundImageFix"/>
<feBlend mode="normal" in="SourceGraphic" in2="BackgroundImageFix" result="shape"/>
<feGaussianBlur stdDeviation="14.2494" result="effect1_foregroundBlur_1_4298"/>
</filter>
<clipPath id="clip0_1_4298">
<rect width="306" height="282" fill="white"/>
</clipPath>
</defs>
</svg>
