<svg xmlns="http://www.w3.org/2000/svg"><defs><font id="golden_youth_scriptregular" horiz-adv-x="960"><font-face units-per-em="2048" ascent="1638" descent="-410"/><glyph horiz-adv-x="0"/><glyph horiz-adv-x="512"/><glyph horiz-adv-x="0"/><glyph horiz-adv-x="0"/><glyph horiz-adv-x="512"/><glyph horiz-adv-x="512"/><glyph horiz-adv-x="512"/><glyph unicode="!" horiz-adv-x="307" d="M98 225q12 54 45 94 17 20 43 7 15-12 19-31 4-33-10-68-10-32-41-28-15-19-33-13-31 6-23 39zm6 398q-2 143 0 286 7 391 60 805 4 45 45 45 17 0 31-13.5t12-31.5q-22-201-29-284-30-361-35-807 0-16-12.5-29.5T147 580q-18 0-30.5 13T104 623z"/><glyph unicode="&quot;" horiz-adv-x="446" d="M81 1183q-7 55 3 93 0 5 2.5 23.5T95 1359t11 83q6 29 41 29 35-2 39-29 6-30-2-74-1-11-10-84-6-74-6-78 0-8 2-14v-2q12-20 0-45-16-22-37-21-44 1-52 59zm140 60q-6 43 9 120 14 79 14 105l2 9q0 1 1 8t1 10q6 29 38 29 30 0 38-29 6-36-4-100-11-69-11-90-1-7-1.5-31t-2.5-31q0-18-12-30.5t-29-12.5q-18 0-30.5 12.5T221 1243z"/><glyph unicode="#" horiz-adv-x="847" d="M-76 569q-6 17 17 37 5 5 24 10 1 0 2 1t2 1q26 9 100 44 75 36 103 47 17 181 39 317 2 14 18 22.5t31 4.5q29-8 29-37 0-2-2-8-1-7-3.5-29t-3.5-35q-7-52-8-70-7-53-14-129 3 2 33 13 107 45 147 59 4 31 6 47 14 119 27 197 1 12 7.5 51.5t6.5 42.5l19 92q4 14 16 21.5t27 3.5q31-7 26-35v-10q0-6-2-8 0-9-2-19l-6-43q0-3-16-114-11-77-12-97-10-91-11-98 154 47 264 43 41-5 41-43 0-16-12-28.5T788 807q-108 4-274-47-1-10-4-55.5t-4-55.5q0-4-2-10 58 12 112 12 16 2 28.5-10t12.5-29q0-36-41-41-25 0-106-12l-4-2h-6q-7-147-6-295 0-54 8-190 5-78 8-95l6-49q0-12 2-22v-8l2-7q4-27-12-43-12-12-30.5-12T446-152q-8 12-12 31-37 266-22 600 2 6 2.5 29t1.5 29q-60-19-82-27-5-2-19.5-7.5T290 493q-31-13-36-16-2-1-9-3.5t-9-4.5q-10-215-3-387 0-18-13-31.5T188 37q-16 0-29.5 13.5T145 82q-2 66-2 145 0 107 7 199-14-9-21-10-92-47-129 4-10 11 4 31 17 14 33 4h8q26 6 109 55 0 3 2 22t3 34q1 12 2.5 32t2.5 27q-8-2-17-9-159-67-182-71-31-7-41 24zm318-16q2 0 4 2l4 2q100 46 172 64 6 88 8 108-33-11-123-47-47-18-57-23-2-20-8-106z"/><glyph unicode="$" horiz-adv-x="608" d="M51 774q-63 89 25 201 50 60 137 100 10 3 21 7.5t17 6.5l9 3q-1 51 6 145 7 74 17 115 1 13 10 51 7 34 20 51 10 12 27.5 7t21.5-21q1-16 0-35l-2-2v-17q0-1-2-8t-2-10v-8q0-2-2-12t-2-13q-9-87-10-104-2-52-2-119 22 2 49 2 98 0 143-63 23-32 23-78 0-12-8-47-7-40-27-60-12-15-33.5-12.5T457 874q-10 22-4 44 5 14 10 18v2l2 4q8 46-17.5 65t-85.5 19q-8 0-10-2h-6v-2q2-16-11-28.5T305 981q-26 0-37 23-3-2-7-3-1-1-2-1l-1-1-4-2q-2 0-2-2-3 0-10-4-3 0-10.5-4t-8.5-4q-106-66-106-133 0-28 31-53 29-26 63-43 42-21 84-37 49-20 61-27 77-39 121-82 59-56 68-114 18-121-103-236-32-32-73-55v-17q-1-10-3.5-41T362 96q0-106 21-170 8-41-29-51-32-8-45 19-25 44-28 116-1 56 0 111l6 49q-8-2-19-2-12-4-24 0-33 0-43 22 0 1-2 6.5t-4 10.5q-10 14-5 32.5t21 28.5q31 14 55-10h4q12 3 23 6 40 11 84 55 64 68 71 121t-34 96-135 93q-87 43-113 55-82 46-115 90z"/><glyph unicode="%" horiz-adv-x="808" d="M-43-215q0 93 57 229 0 1 15 36t25 61q23 56 32 77 48 113 82 187 85 181 176 350 62 117 201 342 26 45 52 85t52 85q3 7 22.5 34.5T694 1305q-14-7-155-111-6-5-27-17.5t-25-15.5q-3-1-12.5-7t-27.5-17-37-23q-12-5-37-20 9-11 14-37 4-43-45-107-40-46-90-80-52-40-88-41-32 0-51 15-25 18-31 53-2 42 29 92 25 43 65 82 4 1 6 6-4 37 33 47 6 6 21 6 178 84 282 160 37 29 86 64 66 44 94 55 64 30 105 12 31-18 20-51-25-65-51-106l-31-50-30-49q-87-137-209-340-92-158-185-346Q89-13 57-133q-4-15-4-25-2-6-2-10l-2-6q0-4-1-20.5T47-215q0-18-13.5-31.5T2-260t-31.5 13.5T-43-215zM164 915q58 26 131 121l2 4 2 4v3q-2 0-4 2h-6q-43-12-83-55t-40-76zM328 90q-2 30 10 78 27 94 86 156 77 86 141 38l15-14q2-2 8-5t8-5q31-22 43-53 23-51-12-123-27-55-70-94-51-50-106-64-49-15-84 8-33 27-39 78zm84-4l2-2h6q82 10 133 125 6 18 6 22 0 39-41 39h-2q-13-37-53-26h-2q-59-85-49-152v-6z"/><glyph unicode="&amp;" horiz-adv-x="905" d="M23 223q-6 50 20 117 45 102 133 205 41 49 107 106-84-12-121 27-37 33-31 80t27 83q20 37 51 68 46 47 78 74-2 89 2 211 0 22 8 102 5 44 8 56 6 40 12 51 18 25 43 16 20-2 29-26 4-9-2-52-4-29-4-49-3-19-8-102-2-62-2-143 4 0 8 4 31 17 61 28 40 12 64 11 52-6 74-43 16-26 16-52v-41q5-29-33-43-29-7-51 21 0 2-2 4t-2 4q-12 19-2 41v16l-2 2h-10q-70 0-191-120-60-60-74-109-6-33 31-33h4q31 4 109 33 77 24 98 25 29 2 41-28t-10-48q-2-2-29.5-26T438 664Q284 542 213 449l-4-5q-8-8-8-12-1-1-8-10.5t-9-11.5q-48-74-57-133.5t20-80.5q25-26 83.5-15T356 238q4 3 15.5 11t13.5 9l6 6q3 1 12 10 206 167 345 406 33 60 40 78 14 33 50 18 36-17 26-49-11-37-37-88-21-41-45-76-91-144-221-268-109-106-194-158 0-42-5-174 0-66 3-98 0-21 2-37v-4l2-4v-4q6-15-4.5-32T338-238q-37-12-53 31-4 7-4 27-3 20-5 80 5 50 5 106 0 37 4 92-115-43-193 11-35 20-49 49-15 26-20 65z"/><glyph unicode="'" horiz-adv-x="256" d="M70 1221q-8 18 6 71 7 27 16 56 12 44 27 102 0 16 12 29 18 18 45 8t27-37q-1-42-27-125-9-37-14-57-3-5-8-29-6-20-21-35-16-15-36.5-8.5T70 1221z"/><glyph unicode="(" horiz-adv-x="591" d="M74 610q5 200 41 363 25 103 49 170 39 108 63 151 43 81 103 158 90 119 172 170 79 45 151 31 21 6 37-4 26-17 37-39 18-28-6-54-27-27-55-8-5 5-17 13-2 0-4 2-1 0-4 1t-4 1q-56 0-100-29l-13-6-6-6q-123-103-207-266-85-163-116-342-33-179-28-365.5T217 201Q249 83 342-86q71-114 186-236 26-28 0-57-25-25-49-6-37 21-82 72Q295-202 217-43q-74 155-108 305-39 164-35 348z"/><glyph unicode=")" horiz-adv-x="579" d="M-114.5-368q-5.5 18 3.5 34Q40-140 162 102q148 293 227 619 45 185 45 299v76q-5 187-116 334-112 147-295 147h-5q-2 0-6-2t-6-2q-8-1-33-10-14-6-30.5 3.5T-78 1591q-8 33 21 47 112 51 260-10 118-51 196-151 87-117 113-285 23-149-4-324-18-128-68-299-52-171-112-315Q182-103-33-379q-27-37-61-16-15 9-20.5 27z"/><glyph unicode="*" horiz-adv-x="462" d="M66 1260.5q2 15.5 14 23.5 6 4 20 8t30.5 7.5 21.5 5.5q6 0 8 2 0 16 4 41 4 45 18 84 11 29 39 22 23-6 23-31 0-11-3-40.5t-3-39.5q7 4 33 15.5t32 15.5q50 19 82 27 43 4 51-29 4-16-4.5-32.5T408 1321q-46-7-148-53 5-6 15-37 11-31 20-41 14-12 11-30t-19-30q-33-20-54 13-15 25-22 59-17-26-33-63 10-16 4-31-4-13-14.5-22t-22.5-7q-31 4-41 25-8 20-4 41 6 26 25 55 5 10 16 25-50-7-67 10-10 10-8 25.5z"/><glyph unicode="+" horiz-adv-x="880" d="M102 596q0 34 33 41l25 6h14-4q4 0 6 2 16 2 86 19 35 7 43 10 33 8 51 12 12 117 27 180v2q-8 19 2 31 25 33 53 14 23-12 23-41 2-17-2-34 0-2-1-5t-1-4q0-10-2-12l-13-117 50 7q104 14 174 14 77 4 147-10 15-2 24-19t5-35q-10-39-54-30h-4q-60 18-352-19-6-62-6-125 0-35 4-82l2-8v-6q0-13 4-20 5-30 8-37 4-16-5-32.5T414 277t-32.5 4-21.5 24q-31 126-14 287-16-6-29-6-24-6-86-21-62-16-96-10-33 7-33 41z"/><glyph unicode="," horiz-adv-x="276" d="M27 92q82 82 88 133-6 20 4 35 37 48 74 14 27-23 8-75-13-34-29-62-44-66-78-96-31-31-59 0-25 25-8 51z"/><glyph unicode="-" horiz-adv-x="688" d="M106 598q0 16 15.5 29.5T154 639h32l9 2q1 0 10 1t10 1q11 3 123 14 55 5 125 7 78 3 129-13 39-11 29-51-7-31-39-31-4 0-52 3-49 3-73 3-100-5-123-8l-62-6q-2 0-13-1t-15-1h4q-2-1-6-2-7 0-13-2-119-18-123 43z"/><glyph unicode="." horiz-adv-x="303" d="M47 207q0 31 12 57 5 7 13 15v2q13 13 26 8 16 0 28.5-12.5T139 248q0-36-28-68-16-16-40-7t-24 34z"/><glyph unicode="/" horiz-adv-x="544" d="M-55-276q28 149 78 313 41 139 258 741 53 151 131 381 35 100 67 193 47 133 70 190 13 31 41 31 24 0 37-21 20-34 4-57l-2-4q-1-4-4-4l-2-2-7-6-98-277q-11-37-64-191-16-47-38.5-112T387 817q-60-170-133-368Q88-13 31-299q-4-18-20.5-26.5T-25-330q-39 10-30 54z"/><glyph unicode="0" horiz-adv-x="641" d="M18 319q-31 184 11 379l24 99q5 18 8 22v6l2 4q6 17 7 19l-2-6q25 49 38 55 0 16 9 31 28 89 63 151 44 79 96 119 53 38 118 30 64-8 108-54 64-67 86-199 16-81 16-195-5-174-37-311-44-184-121-301-62-93-120-121-1 0-6.5-2T307 41q0-14-10-21-23-23-53 0l2-2q-2 1-6 2-3 3-9 7l-4 4q-28 6-53 16-59 32-102 107-38 70-54 165zm138 232q0-102 3-156t27-140q22-85 72-136h8q7 4 15 4 4 4 6 4 1 1 8 4.5t8 5.5q4 0 4 4l2 2h2q134 134 184 416 48 279-14 471-8 13-8 25l-2 2q-33 57-73 71.5t-79-14-71-94.5q-3-6-10.5-21.5T227 977l-2-8q0-2-2-2l-2-4q-22-65-28-89-11-39-19-90-4-15-4-24-2-6-2-8v-7q0-27-6-45-6-74-6-149zm315 504q0 6 2 0h-2z"/><glyph unicode="1" horiz-adv-x="415" d="M29 1090q11 23 20 34 4 10 19 17 18 29 20 35 62 124 121 161 39 27 72 0 35-23 34-71 0-34-6-66 0-2-1-5t-1-5v-4q-4-29-4-49-31-292-41-408-12-135-24-405l-7-203q0-52-4-84V4q1-4 4-14l2-4q10-16 5-34t-21-28q-15-9-32.5-4.5T158-59q-23 34-19 86 0 7 1 42t1 44q5 136 9 206 6 204 24 406 10 141 39 408 5 60 10 84v4q-1-1-3.5-5t-4.5-6q-18-30-20-32l-9-9q1 1 4 2l-6-8q-2-2-3.5-5t-3-5-2.5-3.5-1-2.5q-10-17-20-37-32-48-58-74-29-29-61 0-25 26-6 54z"/><glyph unicode="2" horiz-adv-x="595" d="M-80 131q5 53 51 119 47 66 191 274 73 111 137 215 63 103 96 176 42 85 62 179v2q3 50-11 73t-45 19q-66-10-147-111-24-30-37-55-2-2-5.5-9.5t-4.5-8.5l-2-3q0-10-4-14v-4q5-7 0-18-7-25-19-33-16-16-39-10-23 8-28 28v2q-2 8-2 15v8q0 20 4 29 12 36 20 51 21 43 64 98 96 116 196 123 53 4 96-30 43-35 50-87 12-89-35-207-49-127-193-356-64-96-113-169-19-28-43-63.5t-39-57T96 272q-49-67-65-94-9-12-15-26-2-2-2-5l-2-2q52 6 60 7 2 0 12 2t12 2h2q7 0 11 2t20.5 2.5T150 162q30 5 77 12 53 8 78 12 175 25 348 17 45-5 45-45 0-18-13.5-31.5T653 115q-174 10-436-31-58-9-156-23-29-4-47-4-48-4-61 2-37 19-33 72z"/><glyph unicode="3" horiz-adv-x="638" d="M-47-68q-6 16 4 33t27 21Q26 0 39-45l2-2v-4q37-61 150 1 112 61 213 179 99 116 110 195 12 88-21 119-35 30-145 63-82 22-117 39-123 66-47 215 32 61 134 186 98 120 137 193 41 70 9 99.5t-118-1.5q-2-2-12.5-6t-14.5-6q-134-70-190-183v-2q-4-24-12-32-17-27-45-21-36 12-31 41 12 111 121 199 77 65 162 94 89 33 145 14 34-8 59-32t33-56q12-46-10-110-23-53-62-109-55-71-101-128-80-99-109-150-7-19-15-27-18-22-16-55 2-34 33-47 3-3 10-5 3-2 18-8 20-5 73-18 57-15 92-30 38-16 65-40 53-44 63-106 8-43-2-88-12-69-74-166Q475 82 389-4q-84-81-160-123-91-49-153-45-47 6-80 33-30 28-43 71z"/><glyph unicode="4" horiz-adv-x="657" d="M14 469q-2 49 19 133 29 94 41 127 42 139 43 143 35 120 45 146 3 6 9.5 30t8.5 31v2q-7 39 19 49 31 14 51-12 12-14 8-45-5-34-10-49-4-20-21-66-3-8-30-106-31-105-43-141-4-17-18-60-16-47-21-67-18-73-14-116 7-65 87-42 54 18 97 39 1 1 5 2t5 2q0 23 4 63 13 213 35 381 18 141 28 197 13 69 21 94 1 6 10 47 1 4 2.5 18.5t3.5 18.5q13 31 41 31 23 0 36-20.5t5-43.5q-4-11-4-18-11-45-16-74-24-123-29-155-12-73-18-148-6-51-15-153-8-86-14-189 50 29 138 68 91 40 132 63 37 22 62-16 8-14 3-32.5T700 573q-55-29-122-58-81-36-129-62-7-3-36-19.5T377 414l-6-99q-6-104-4-200 0-51 2-97V-4q0-1 1-4.5t1-5.5v-4q14-14 14-31 0-3-1-10.5t-1-8.5q-1-1-1.5-.5T381-66q-5-45-43-45-32 0-43 33-11 31-16 141-5 78 0 156 6 123 8 150-63-26-115-33-64-8-102 20-52 38-56 113zm166 618v7-7z"/><glyph unicode="5" horiz-adv-x="706" d="M43 760q5 18 10 34.5t8.5 28T66 836q14 53 16 57 21 45 31 90 32 96 34 156-2 0-12 10 0 1-1 2t-3 4-4 8q-8 14 0 30.5t25 18.5q14 12 38 5h9q33 6 71 18 2 1 52 12t86 19q161 36 288 41 15 2 29-11.5t14-29.5q0-18-13-30.5t-30-12.5q-34 0-78-4-130-21-206-35-46-8-72-14-46-10-72-15-7-3-39-8 2-25-2-55-6-46-30-131-53-162-70-224-38-176 23-176h4l24 6q11 1 53 17 69 24 111 34 98 25 160 11 78-16 112-92 50-111-18-275-56-137-143-231-66-71-136-99-91-35-151 2-51 33-60 111-2 17 5 107 4 43 43 43 18 0 31.5-12.5T199 152q-4-47-4-84 0-51 22-58 2-2 6.5-2t5.5-2q109 4 213 156 100 147 99 270-4 121-125 111-4 0-12-1.5t-13-2.5q-8 0-69-19-10-4-47-15-35-11-54-18-75-25-121-8-122 39-57 281z"/><glyph unicode="6" horiz-adv-x="679" d="M39 268Q23 407 57 584q33 157 115 360 41 100 82 180 11 22 25.5 50t17.5 34q4 5 14 24t15 25q-4 11 0 21 6 29 36 29h19q20 0 35-21 10-16 0-41v2q-4-9-4-12-4-4-4-6-6-5-9-15-8-11-16-28-11-17-33-62-82-154-153-360-49-144-76-365v-51q40 69 90 119 124 121 264 121 84 4 135-51 42-48 47-121 6-101-77-213Q497 90 391 39q-132-63-229-8-68 39-99 123-19 20-12 45-7 33-12 69zm108-90l3-2v-2q39-92 116-81 75 10 149 68 73 58 111 118 51 88 40 139-10 51-51 72-41 20-104 1t-120-73q-65-57-92-113-14-24-37-67-1-2-3.5-9.5T154 219l-2-6-2-4q-11-14-3-31z"/><glyph unicode="7" horiz-adv-x="647" d="M-4 1112q0 24 18 35 2 2 6 2 2 2 5 2 6 6 12 6 6 2 8 2 13 7 23 12 8 5 19 11.5t18 10.5 12 7q79 45 106 60 55 30 137 65 84 41 136 41 88 4 110-72 14-54-8-123-30-95-99-256-75-176-91-221 120 14 204-4 15-4 24-19t5-30q-6-31-39-31-166 0-235-12 0-4-5-12-91-225-135-373-29-94-47-186-12-66-12-99v-2l2-4q18-43-16-61-14-10-34-5t-28 21Q78-94 79-54q1 34 9 70 6 27 6 33 26 142 111 371 6 15 26 69.5t33 88.5l-24-7-62-18q-6-2-21-6.5t-20-5.5q-18-14-35-9-15 7-22 15-15 12-12.5 35.5T88 614q34 14 131 43 24 6 86 21 3 7 11.5 27t13.5 33q23 57 24 59 5 18 34 82 32 71 40 94l31 74q12 32 26 68t20.5 53 8.5 24q12 31 13.5 50.5T521 1269t-21 8.5-30-3.5q-34-11-68-26-23-10-29-11-21-7-78-37-53-32-86-45-67-36-82-45t-39-23q-38-16-53-16-39 5-39 41z"/><glyph unicode="8" horiz-adv-x="724" d="M43 897q22 83 100 150 33 28 70 51 11 7 18 14 2 2 5 2l4 4q5 4 24 23 17 20 43 8l31 18q52 31 113 54 63 18 106 14 69-11 100-53 45-58 39-123-6-103-110-248-8-13-33-46l-33-44q-18-25-51-69-34-45-41-56 40-33 64-59 60-68 79-142 22-82 0-164Q525 76 369-6q-82-42-148-43-96-4-135 74-51 102 41 272 70 131 166 264 1 1 4 6t4 6q-91 55-113 70-24 13-61 43-39 28-53 49-55 77-31 162zM156 92q12-39 56-44t88 12 79 44q70 56 99.5 128.5T487 382q-23 80-106 138l-2 2q-2 2-4 2-209-285-219-411V92zm32 881Q52 838 207 735q27-17 57-37 5-3 42.5-25t47.5-28q40 57 123 168 42 53 74 107 17 24 33 57 12 26 18 51.5t3.5 49T589 1117t-40 22.5-68-2.5q-49-13-94-43l-49-31q-2-1-11.5-8t-11.5-8q-2-2-5.5-5t-4.5-4l-2-2q-36-26-63-55-17-25-52-8z"/><glyph unicode="9" horiz-adv-x="641" d="M49 788q-20 63 2 158 13 67 47 137 32 73 78 119 63 68 133 62 47-5 84-37 31-22 33-49 0-23-23-37-13-8-32-4-7 0-11 6-5 2-24.5 15.5T307 1176q-67 12-111-78-36-71-59-152-22-88-2-140 8-16 26-16.5t49.5 20.5 68.5 62q70 73 141 215 114 214 119 236 0 1 2 5t2 5q14 54 20 72 14 42 53 31 38-8 33-56-5-30-20-73-7-56-17-103-24-125-67-569-6-70-29-336l-12-184q-8-96-8-140 12-14 8-38 0-4-4-16.5T496-94q-4-18-20.5-26.5T440-125q-33 6-32 43-2 46 6 195 3 17 8 90 4 61 6 90 6 109 27 321 30 310 41 402 0 4 2 16t2 15q-47-85-74-123-73-115-168-193-55-43-119-28-64 13-90 85z"/><glyph unicode=":" horiz-adv-x="368" d="M125 750q5 37 37 38 4 3 14 5 24 8 37-11 17-12 10-43-6-25-29.5-37t-46.5-2q-27 13-22 50zm4-344q0 14 8.5 30.5T158 453v2h2q22 37 57 14 31-17 21-45 0-31-35-49-20-12-47-5-27 8-27 36z"/><glyph unicode=";" horiz-adv-x="417" d="M88 272q4 6 21 39 34 58 47 119v2q-22 28 6 57 30 27 61 0 27-22 19-79-6-39-21-66-32-82-65-123-12-14-32-13.5T94 221q-26 25-6 51zm64 478.5q-1 28.5 14 48.5 16 16 39 10 37 0 47-33 6-24-29-59-25-19-51-6-19 11-20 39.5z"/><glyph unicode="&lt;" horiz-adv-x="845" d="M51 506q14 58 84 119 34 34 101 84 24 17 53 36 48 33 166 107 237 154 280 197 1 1 29 11 14 5 20-1 28-16 15-53-12-23-62-64-51-39-176-121-62-43-182-119-32-22-66-43-8-8-18-14h-2q-5-5-23-18-38-31-114-107v-2q-63-63 92-143 3-1 6-4 69-36 147-76 94-45 140-70 72-39 147-96 37-28 17-61-8-16-27-21.5T643 51q-103 78-237 144-84 40-142 69-21 9-76 41-62 37-84 57-72 63-53 144z"/><glyph unicode="=" horiz-adv-x="751" d="M145 702q-14 20 5 39 8 12 50.5 20.5T288 772q6 0 25.5 1.5L346 776q9 0 18.5.5t15 1 7.5.5q103 8 227 4 43-4 43-43 0-16-12.5-29.5T614 696q-98 2-229-2-95-6-117-8-23 0-59-4-13-2-33 0-16 1-31 20zm23-142q0 25 20 36 21 8 31 8h35q24 4 76 4 43 0 69 2 132 7 193 6 16 0 28.5-12t12.5-29q0-37-41-40-78-9-197-13-55-4-96-4h-72q-21 0-39 8-20 8-20 34z"/><glyph unicode="&gt;" horiz-adv-x="864" d="M-54 21.5Q-58 39-49 55q3 5 22.5 31T4 127q61 74 135 132 33 26 68 55 26 21 82 57 17 11 32.5 21t27.5 17 14 9q9 6 85 52 18 11 76 46 33 23 66 43 31 15 49 27 40 25 56.5 38.5T718 654q7 16-7 31t-52 34q-55 30-208 91-151 60-228 108-34 18-67 49-21 20-33 34-7 7-21 29-8 14-4 29.5t19 23.5q23 12 45-6 9-9 12-10l2-2v-2q9-5 27-23 47-37 97-65 45-27 92-47 47-21 101-40 75-29 91-36 3-1 8-4h2q3-2 10.5-5.5t9.5-4.5q84-34 117-58 72-47 80-98 6-45-14-80-18-28-45-51-15-13-57.5-36.5T641 483q-4-2-34-20-18-11-29-19-47-30-68-41-243-146-387-278-29-29-53-59-19-19-19-23l-2-2Q34 17 27 10 5-27-35-6-50 4-54 21.5z"/><glyph unicode="?" horiz-adv-x="608" d="M76 1350q-16 54 37 139 29 50 61 86 38 49 80 92 52 53 108 84 62 37 130 29 57-10 88-58 30-47 23-123-3-30-17-77-16-49-27-77-13-35-37-81-9-18-21.5-41t-15.5-29q-15-29-37-67-26-45-30-51-31-53-64-121-14-25-38-72-13-23-29.5-55T270 895q-10-17-38-79-42-93-54-173v-2l-2-2v-29q0-2 2-4v-4q0-2 1-5t1-5q18-39-14-60-35-20-57 17-39 56-7 166 19 55 60 155 36 74 157 312 14 29 44 82 9 15 17 29.5t12 22 5 9.5q53 104 88 186 45 104 18 158-29 53-134-20-4-4-7-4l-2-3q-1-2-5.5-5.5t-6.5-4.5q-1-1-10-9t-12-11q-86-77-158-207v-2q-2 0-2-4-6-6-6-17v-2q10-10 6-34-6-18-23-29-31-17-59 14-6 8-8 19zM88 221v12q-4 22 10 35 13 13 21 17 7 7 24 12 29 11 45-18 14-20 0-41-13-25-34-43-26-20-48-7-22 12-18 33z"/><glyph unicode="@" horiz-adv-x="1345" d="M166 301q6 137 55 281 51 156 139 286 94 139 223 232 127 92 273 96 162 6 266-98 112-110 125-303 6-86-8-170-14-80-39-146-51-123-106-196-106-141-211-117-104 23-140 184-14 75-14 154-21-36-53-78l-55-66q-18-24-46-45-37-29-69-36-55-7-86 26-39 43-27 135 12 110 96 207 45 53 95 62 44 4 69-11 24-14 49-47 2 0 3-2 1-3 2-4 24 36 28 55 12 87 51 125 20 20 49 9t27-41q0-51-37-115l-2-6v-6q-4-35-4-117 0-295 86-295l2-2h13q77 27 136 120 57 90 83 203 24 109 18 221t-49 173q-64 91-159 121.5t-187-4.5q-95-33-184-107.5T424 803q-92-141-132-277-40-134-32-309 0-122 70-208 69-87 194-87 10 2 25 2 4 0 10 2h2q34 5 41 8Q706-47 909 82q35 20 60-14 9-15 4.5-33T952 8q-34-21-70-43.5T833-66t-14-8q-65-37-149-67-176-56-305 6Q252-85 206 38t-40 263zm315 80q18-41 129 106 59 78 66 103-25-4-37 12l-12 12-2 2q-7 7-11 7h-2q-50 0-99-97-50-98-32-145z"/><glyph unicode="A" horiz-adv-x="1038" d="M-12 385q0 31 30 39 54 17 76 20 11 121 35 285 5 42 21 134 7 50 10 63 0 4 2.5 20t4.5 28q1 9 2.5 20.5t3 19 1.5 12.5q0 16 8 51v4q0 1 1 6t1 7 1 12 1 12q8 39 41 39 15 0 28-12.5t11-26.5q-13-122-41-297-37-265-37-280 0-6-2-36 0-8-4-36 6 2 33 8 0 3 1.5 8.5t4 15T225 518q44 191 107 369 24 64 65 164 44 104 72 157 43 82 90 144 19 27 49 55 34 34 64 47 31 13 52 13 11 0 19-3 37-16 52-45 22-46 30-155 5-62 5-141 0-105-9-240-9-167-16-312 116 9 256 9 16 0 29.5-12.5T1104 539q0-18-13.5-30.5T1061 496q-134 0-258-13h-2l-6-166q-5-126-7-286 1-19 3-64 0-37 2-63 1-6 1.5-28t2.5-28q0-2 1-12t1-14q2-2 2-10v-2 2-2q1-7 1-14 0-32-32-40-19-4-36 5t-19 26q-11 77-15 176-1 40-1 87 0 173 12 427-138-12-291-43-113-22-131-26-52-245-80-476 0-27-6-53-6-43-6-47 1-7 1-13 0-43-24-79-14-26-43-21-30 5-37 33Q72-168 72 8v15q1 149 12 301 0 4 1 16t1 14q-46-9-57-10-14-2-27.5 11.5T-12 385zm178-141q16 93 27 139l-19-6q-3-25-8-133zm145 256q212 46 404 65 0 15 4 91 5 103 8 128 14 269 14 362v21q0 40-5 110-1 17-3 32t-4.5 27-5 21-6 13.5-6.5 3.5q-61-14-156-192-35-66-70-150-2-2-2-4-1-3-4-8 0-1-4-8t-4-11q-4-12-14-34-8-37-33-90-57-156-111-367 0-2-1-5t-1-5z"/><glyph unicode="B" horiz-adv-x="1040" d="M29-98Q34-24 43 4q17 56 47 72 3 3 8 4l6 2q-39 8-47 53-8 23-8 54 0 14 2 30 5 88 8 107 16 132 39 241 12 72 39 195 0 19 2 33 1 39 11 192 8 149 8 215 0 14 11 25.5t26 11.5q35 0 34-37 2-50 2-112v-37q35 83 66 143 44 86 74 133 29 56 78 121 57 70 102 90 34 14 47 14 17 0 33-10 21-11 31-31 15-28 15-66 0-8-1-17-6-43-23-101-34-98-84-203-58-121-90-176-43-75-69-119 74 42 129 58 49 13 94 13 33 0 63-7 71-17 121-61 99-80 127-236 12-60 12-124 0-94-26-193-43-166-129-301-89-146-207-244-110-97-252-149-43-17-85-17-31 0-61 9-72 21-114 91-53 89-53 214v18zm90 180q21-5 31-21 8-14 8-26 0-19-21-33l-2-2q0-4-2-4l-2-4v-4q-3-5-8-33 0-2-2-8v-19q-1-21-1-41 0-111 38-169 37-55 97-54 14 0 30 3 77 16 160.5 68.5T604-133Q762 31 834 266q18 71 18 76l3 17q3 17 3 24l2 4v4q0 3 1 10.5t1 8.5q4 35 4 68 0 104-42 191-55 112-161 138-20 5-41 5-92 0-210-85-8-8-19-14l-6-4-4-4q-17-14-33-25-37-34-63-55-13-13-31-13.5T225 625q-4 0-4 4 0-130-8-244-7-74-14-123-6-56-19-102-16-61-53-76-2-2-8-2zm100 602q7 12 37 66 14 25 86 144 69 111 98 173 124 243 146 363v10q2 12 0 18-1-1-11-6-4-4-6-4l-6-6q-64-64-129-178-49-88-61-113-80-162-131-342-20-75-23-84v-41z"/><glyph unicode="C" horiz-adv-x="1073" d="M78 446q1 185 53 371 52 177 125 297 67 122 150 193 92 82 173 83 24 0 48-8 62-18 112-86 18-29 29-55 16-10 18-31.5t-12-38.5q-14-14-41-10-17 1-37 35-3 4-10.5 18.5T676 1233q-46 62-102 62-101 0-230-205-77-123-117-265-61-199-61-396 0-53 4-105 6-138 55-261l2-2 2-8q51-91 115-132 53-34 110-34 12-1 24 1 69 8 141 62 106 79 221 245 34 51 82 135 28 53 143 305 8 15 26.5 20t32.5-4q32-23 21-49-103-245-166-354Q889 95 786-18q-55-58-122-109-78-57-146-72-39-11-76-11-46 0-88 17-73 28-131 91Q136 0 102 160 78 283 78 410v36z"/><glyph unicode="D" horiz-adv-x="1024" d="M37-92q1 134 39 321 1 19 3.5 73t3.5 83q1 26 2.5 61t3 58 1.5 39q8 135 21 405 5 131 10 182 10 75 12 82 5 39 14 62 17 35 50 26 15-4 23.5-19t2.5-30q-2-4-8-32-15-77-22-340 0-41-4-101-5-77-5-104 83 291 236 581 73 132 135 191 51 46 96 57 21 6 42 5 38 0 73-19 90-52 123-209 30-150 29-318 0-122-15-253-26-213-80-375-55-159-135-295-90-156-192-240-142-105-250-105-51 0-94 23-2 2-5 2-8-18-31.5-20.5T78-289q-35 39-39 103-2 42-2 94zm121 61q0-48 2-90 0-5 1-25t1-26q10-10 10-14 31-29 74-29 15 0 31 3 65 14 121 50 58 38 89 78 170 190 281 549 34 158 47 333 7 96 7 186 0 84-6 163-14 171-64 235l-4 7q-24 24-53 24-33 0-71-33-70-63-135-189-122-239-165-374-61-182-107-366-38-172-53-244-4-80-4-137t-2-101z"/><glyph unicode="E" d="M102 653q7 134 119 303 90 141 199 254 137 139 282 220 120 64 220 77 34 6 64 6 99 0 147-65 28-35 28-83 0-12-2-26-1-30-22-87-20-50-25-72 0-9-2-15-11-32-38-32-7 0-15 2-13 4-23 15.5t-8 25.5v8q0 15 31 102 14 30 14 47 2 9 2 18 0 30-22 49-28 25-78 25-94 0-201-56-104-54-190-130-45-37-66-57-182-182-278-377-45-83-45-144 0-44 23-77 33-46 97-46 45 0 107 23 4 2 32.5 15t99 45.5T692 686q15 6 27 6 23 0 35-22 18-28-6-54-33-34-96-93-64-59-81-72Q404 284 301 76 264-3 247-78q-5-22-6-41-1-24 9-42 16-32 57-32h10q60 0 121 40 31 22 50 33 11 7 57 47 36 31 45 40 40 34 94 92 4 6 20.5 23t20.5 22q11 11 18 25 1 0 2 1t3 1q6 6 6 10 18 23 38 23 10 0 21-6 16-10 21.5-27T829 96Q756-5 651-98 534-200 432-248q-77-34-135-34-46 0-80 22-68 42-68 136 0 34 9 75 18 72 47 131 27 62 71 133 46 75 86 127 56 78 97 121 12 14 26 26l-55-18q-54-17-113-25-13-1-25-1-45 0-73 12-55 18-86 67-31 54-31 115v14zm1008 539h2q-2 8-2 0z"/><glyph unicode="F" horiz-adv-x="616" d="M-111 543q0 27 27 35 58 15 106 25 9 2 25.5 5.5T70 614q1 32 10 185 6 84 8 102 6 71 10 120 9 125 11 165-26 5-37 10-17 10-19 33 2 25 20 44t42 21q0 90-4 131 0 9-2 15 0 36 36 40 36 5 43-28 12-44 12-124 0-17-1-36v-8q51 17 91 32 15 5 35 12t33.5 12 22.5 8q109 32 127 38 12 3 32 9t25 8q132 34 191 41 51 10 104 12h49q13 0 23-2h12q2-2 12-2 37-4 37-39 0-15-11.5-27t-25.5-10q-8 0-33.5-1t-31.5-1q-30 0-66-4-4 0-14-1t-12-1q-1 0-6-1t-7-1h-8q-36-6-43-8-36-5-94-21-52-11-188-51l-126-42q-29-10-59-19-35-12-71-21 0-8-1-39t-1-41q-13-310-15-403v-80q17 5 74 16 144 28 257 29 50 0 93-6 41-5 41-41 0-16-12-28.5T604 600q-25 1-50 1-145 0-286-30-6 0-88-18 0-70 8-236 7-188 31-401 7-80 12-121 6-33 17-69 0-2 1.5-7t4-13.5T258-311q9-34 10-45 9-44 9-70 0-9-1-16-4-45-43-45-32 0-43 32-32 81-49 269Q99 7 82 197 68 359 68 528q-74-16-142-22-14-2-25.5 10t-11.5 27z"/><glyph unicode="G" horiz-adv-x="1013" d="M4 266q20 340 189 678 78 150 174 279 96 127 163 180 58 49 119 72 34 13 66 13 30 0 59-11 46-19 72-54 20-27 24-61 4-19 9-70v-10q0-2 1-5 1-4 1-5 7-6 12-12 14-26-4-48l-2-2q-6-6-6-8-1-2-21-12-10-4-25.5 2t-21.5 18q-15 29-22 107v12q-1 0-3 2-9 49-41 65-14 8-30 8-19 0-40-11-74-36-122-88-89-89-147-177-57-83-93-143-61-109-139-311-86-261-86-512 0-42 2-84 10-178 137-241 46-22 97-22 93 0 206 72 51 36 115 97 60 68 127 174l14 28q34 77 34 135 0 77-60 122-61 44-164 44h-8q-126-26-149-28-19-1-32 11-14 14-14 32 0 32 33 45 4 1 19.5 6t19.5 6q62 15 111 19 24 4 198 32 156 25 275 33 18 0 30.5-13.5T1094 598q0-39-43-43-65 0-236-29 52-33 78-86 23-47 23-105 0-11-1-22-11-124-94-252-91-141-223-237-144-105-288-105h-5q-76 4-127 33-51 26-90 78Q29-87 10 41q-9 72-9 143 0 41 3 82z"/><glyph unicode="H" horiz-adv-x="1101" d="M-250 412q5 20 25 24 3 1 11.5 1.5t10.5 2.5h8q22 5 31 9 2 0 64 18 1 0 139 37l49 12v16q1 119 14 406 2 35 6 101 1 25 3 59t2 43l12 202q4 37 35 37 16 0 26.5-10t10.5-27q0-27-11-352-10-180-12-354 0-8-1-50t-1-52q104 24 168 34 163 32 285 49 1 24 10 119 11 114 47 402l25 202q10 91 16 201 0 16 11.5 28.5T764 1583q16 0 28.5-12t12.5-29q0-74-17-233-10-96-34-301-31-265-41-375 224 29 415 41 14 2 26.5-10.5T1167 635q0-37-39-41-152-11-421-49v-2q-1-4-2-19.5t-3-19.5q-15-219-20-813 0-18-13.5-31.5T637-354q-19 0-32 13t-13 32q2 104 2 235 7 382 22 604-8-1-40.5-6.5T516 514q-171-28-344-65 0-151 4-216 0-9 2-79 1-22 4-76 4-11 4-35v-6q0-17 9-33l4-12 2-2v-4l2-2q16-16 15.5-32T203-80q-10-10-29.5-10.5T141-80Q105-35 98 49q-6 52-6 119-6 130-6 260-6-2-56.5-14.5T-59 391q-9-2-37.5-11t-38.5-11q-35-6-59.5-6.5T-233 369q-25 13-17 43z"/><glyph unicode="I" horiz-adv-x="661" d="M-61 1313q0 35 36 43 28 8 41-10h4q7 0 13 2h2q1 0 8 1t10 1q47 10 90 12 75 9 101 10 96 9 114 10 13 84 23 113 11 35 40 35 7 0 15-2 31-10 31-43v-4q0-14-4-21-3-7-8-41l-6-30q79 4 153 3 126 0 240-10 43-4 43-43 0-16-14-30.5t-29-12.5q-76 5-174 7h-51q-90 0-179-5-33-239-51-649-3-107-4-210 0-266 23-502h4q190 32 321 32h8q41-5 41-43 0-18-12-29.5T737-115q-72 0-323-32 2-18-12.5-32T369-193q-31 0-41 31-3-1-30.5-5.5T262-174q-138-34-158-35-14 0-26 12.5T66-168q0 33 28 37 24 5 84 20 16 4 30.5 8t25.5 7 14 4q26 7 67 14 0 6-2 28.5T310-11t-3 38-2 28q-12 156-12 339 0 212 16 460 23 315 39 438-32-6-76-6-30-1-116-14-82-12-131-12-36 0-52 8-2 2-4 2l-8 6q-22 14-22 37z"/><glyph unicode="J" horiz-adv-x="1024" d="M35 823q6 60 37 129 28 61 57 109 39 64 115 156 84 108 176 169 90 66 171 66 24 0 48-6 75-18 121-87 48-71 61-153 11-67 13-174 0-106-9-190-12-150-37-289 134 93 271 152 15 7 28 7 21 0 33-22 10-14 5-34.5t-21-26.5q-118-52-236-131-6-6-26-18-12-8-33-23-1-1-13.5-10.5T780 434h-2v-2q-2 0-6-4-2-2-4-2-41-234-61-328-46-215-99-368-49-136-57-160-43-99-78-131-45-39-89-39-26 0-52 14-43 22-70 86-20 54-20 117v22q0 55 8 121 26 152 94 297 67 141 184 269 66 72 158 149 6 10 6 27 34 194 45 354 6 78 6 155v38q0 200-61 270-36 38-87 38-49 0-110-34-51-28-104-79-90-89-150-183-32-44-57-92-55-100-55-166l2-2q0-2 2-8v-2q6-13 6-25 0-20-20-33-14-8-32-3t-26 20q-16 26-16 73zM330-332q0-80 8-110 10-41 27-57.5t41 1 49 72.5l6 12 2 4q0 5 4 9 16 41 57 161 52 157 99 371 12 59 39 203-2-2-5-5.5t-4-4.5Q541 229 459 90 375-51 348-201q-4-21-12-71v-7l-2-4q0-10-2-18 0-17-2-31z"/><glyph unicode="K" horiz-adv-x="704" d="M-31 283q0 11 4 28Q0 433 90 588q0 8 2 10 11 254 23 403 9 168 10 201 0 8 1 50t1 51q0 29-2 51 0 2-1 11t-1 11v6q-2 2-2 4v5q-1 7-1 14 0 29 30 37 34 12 47-19l6-12v-4q8-37 8-80 2-22 2.5-42.5T211 1243q-2-91-21-401-6-60-6-109 76 107 162 205 123 140 254 256l16 12q-2 0-6-4l2 2 13 13q21 16 39 32 16 14 45 29 18 9 32 9 17 0 29-13 22-27 0-49-12-13-29-11l-8-6h-2l-2-2q-29-25-45-41-4-2-14-12.5t-15-13.5l-2-2-8-9q-1-1-8-6.5t-8-7.5q-17-17-31-29-100-100-127-129-52-57-119-139-27-35-28-37-2 0-2-2l-9-8-12-18q-10-12-53-74-28-40-70-111-6-78-6-131-4-95-4-157 10 0 16 6 10 0 23 8 1 1 4 2t4 2h4l37 18q73 36 158 91 30 19 73 53 3 3 21 14l2 2q1 1 4 3 2 2 4 3 4 4 17.5 14.5T553 510q67 56 133 115 16 13 31 13l31-13q12-12 12-31t-12-31Q609 433 475 342 314 232 166 186q-1-49-1-98 0-243 17-465 2-18-12-31.5T137-422q-41 0-45 45-3 30-8 162-7 136-7 273 0 55 1 110-18 0-37 6-42 14-55 45-10 17-13 37-4 15-4 27zm86-2q1-1 2-8t2-9l2-2v-2l2-2h3l4-2h10q0 37 1 65 1 27 1 62 0-5-4-12-7-20-23-86v-4zm4-17q0-2 1-2t1-2q0 2-2 4z"/><glyph unicode="L" horiz-adv-x="704" d="M45 307q-1 36-1 73 0 149 19 320 11 110 52 402 3 9 8 51 0 1 1 10t1 11l2 6v12q7 40 14 98 1 9 5.5 48t5.5 48q0 4 2 14.5t2 14.5q0 9 2 19v4q6 50 16 57 16 16 40 8 25-8 26-30 0-11-2-23v-8q0-13-2-23 0-4-1.5-20.5T233 1376q-2-15-8-86-7-68-22-172-72-542-72-780v-6q1-95 12-193 0-4 2-19.5t2-19.5v-4l3-4v-2q0-3 1-10t1-8q6-42 18-76 2-2 2-6.5t2-5.5l2-4 6-13q8-8 8-14 0-2 7-8 0-3 16-19 0-1 1-1.5l3-1.5 4-3h12l3 2q3 0 10 4l4 4q2 0 2 2l12 13q6 5 27 30l8 9v2q1 2 7 8t7 8q17 23 95 154 28 52 90 159l202 351q12 25 33 25 13 0 29-9 23-14 23-34 0-12-9-27L666 431l-82.5-143-36.5-63q-61-114-88-159-47-83-105-154-62-83-124-83-6 0-11 1-86 12-131 131-17 49-31 160-12 127-12 186z"/><glyph unicode="M" horiz-adv-x="1263" d="M35-270q-3 6-3 19 0 20 7 56 0 30-2 56 0 102 2 180 12 392 88 721 27 124 76 285 28 101 67 198 50 120 82 162 49 71 104 71 11 0 23-3 49-12 76-78 16-38 25-115 4-37 7-127 3-83 3-100 5-97 13-179 7-74 26-222 10-80 22-181 11-69 23-100 7-34 14-54 2-3 5-14t5-14q0-6 4-10 0-3 3-7l2-4q2-2 2-4l6 19q9 38 10 53 0 13 6 27v10q0 2 2 4 0 18 8 90 5 61 23 193 26 173 67 372 22 106 62 205 26 60 57 92 33 36 67 36 19 0 38-11 32-19 49-78 12-53 12-104 3-33 3-74 0-55-5-123V666q4-352 33-621 2-10 8-61 0-3 1-10.5t1-8.5q0-4 2-6 0-10 4-29 6-62 19-114 4-20 22-90 6-6 6-15 0-1 1-2t1-2l2-2q14-8 18.5-25.5T1227-352q-12-23-34-23-11 0-26 6h-2l-2 2-2 2q-8 6-22 25 0 1-2.5 5t-7 12.5-9.5 17.5q-12 39-22 88-18 83-39 248-7 71-13 143-4 34-6 66-11 157-16 401v330q4 72 4 142v46q0 57-10 88 0 9-4 21l-6-6q0-2-2-2l-25-43q-1-6-6-15l-2-4q-1-2-4.5-12t-5.5-12q-30-82-58-226-25-126-35-186-8-41-14-92 0-2-2-12t-2-13q0-6-2-12v-4q-4-27-6-41 0-1-11-112-11-93-18-144-7-58-22-103-32-73-75-73h-5q-53 2-84 69-28 60-41 115-11 40-19 94-18 100-30 207-30 204-37 389-6 63-6 127 0 92-9 137v9q-2 6-2 12-6 31-14 51v2l-2 2q0 4-4 8l-2 2q0 4-2 4 0 2-2 2v3h-2l-2-3-4-2-19-18-4-4v-2q-3-3-10-14-27-40-39-74-4-7-10-21-4-7-4-12h-3v-2q-10-16-18-45-53-145-113-373l-30-135q-16-82-31-176-4-31-6-47-2-6-2-12v-5q-2-1-2-9.5t-2-10.5q0-1-4.5-41t-6.5-49q-15-164-22-352v-148q0-31-2-53-7-54-31-68-12-7-23-7-20 0-34 24z"/><glyph unicode="N" horiz-adv-x="1024" d="M37-319q0 8 2 35.5t2 35.5Q50-28 51 14q5 330 8 404 6 210 25 405 26 248 47 406 1 7 6.5 40t9.5 60q7 63 17 94 3 9 8.5 40t7.5 40q11 44 29 70 18 28 49 12 29-14 12-47 0-4-6-10-4-7-4-10-32-146-39-230 0-18-8-53 0-1-1-6t-1-6v-4q-1-3-2-13t-2-12q-7-62-12-100-12-134-21-199-23-239-27-403-4-116-4-195 64 224 160 438 94 211 186 355 66 104 117 147 61 55 116 55 15 0 30-4 84-22 102-164 10-60 10-227V557q0-278 10-407 4-50 9-78 0-2 1-13t1-14v-2q2 0 2-2 0-6 2-12 5-44 8-56 6-32 14-53 1-3 5-13.5t6-12.5v-3q0-4 6-10 1-3 10-18l2-2 6-6 2-2q1-1 4-3l2-2h7q17-2 25.5-19t4.5-36q-8-32-42-32-6 0-13 1-61 10-100 107-21 54-37 147-25 181-25 654v278q0 91-6 155-6 68-35 87-7 4-15 4-49 0-151-147-25-37-53-91-36-62-133-264-83-208-105-270-65-183-104-371-11-52-16-94-5-17-9-49 0-2-2-11t-2-12v-10l-2-4-12-129q0-6-1-30t-1-31q-2-19-15-32.5T82-365q-16 0-30.5 14T37-319z"/><glyph unicode="O" horiz-adv-x="1265" d="M37 809q17 232 123 440 58 117 166 219 129 114 243 136 30 5 59 5 41 0 81-10 72-18 131-71 109-94 157-264 42-135 42-307 0-142-29-310-13-83-31-153 91 59 139 96 3 3 21 16l8 6q4 4 6 4 16 10 33 27 64 52 76 64 16 14 30.5 14t28.5-14q13-13 13.5-31t-13.5-31q-138-125-277-215-58-40-102-63-10-39-35-103-45-123-94-211-61-111-127-172-90-78-180-84-11-1-22-1-106 0-181 87-71 88-94 244-6 61-6 121l6 98q-23 15-41 35Q35 506 35 744q0 31 2 65zm93-135q14-117 69-195l2-2v-2h2q1-3 8-10 6-8 14-16 2 9 12 41 9 34 18 60 8 24 24 55 24 52 59 52 10 0 20-4 27-12 43-49 11-29-24-43-16-4-29 6l-2-4-2-6-2-4q-8-13-8-23-19-70-25-98-1-4-4-18.5t-4-18.5q108-53 232-53 146 0 315 74 2 2 10 6t10 6q31 93 52 217 32 166 32 307 0 151-37 273-19 72-49 127-82 154-224 160h-12q-136 0-263-130-13-14-48-51-1-1-5.5-6.5t-6.5-7.5q0-2-2-4l-2-2q-6-11-18-27-35-51-60-102-1-3-5-11.5t-5-11.5l-6-12v-2l-19-49q-65-164-65-330 0-46 5-92zm159-471q0-25 4-62l2-6v-2q0-1 1-7t1-7q6-16 6-29 7-37 16-59 0-2 5-17 2-2 2-4l12-24q12-23 16-27 3 0 4-4l2-4 2-2q1-1 3-4 1-1 5-6t8-9.5 7-5.5q0-3 4-4l4-2 4-4q12-9 27-14 2-2 4-2 6-3 10-4t8-3q9-4 17-4 2-2 8-2h2q18-4 37 0h8q2 2 8 2l21 7q4 4 8 4 2 0 2 2 2 1 9 3.5t9 4.5q12 8 21 12l6 6 2 2q29 25 68 70 0 2 2 2v2q2 1 8 10 0 1 3 5t6.5 9 4.5 7 4.5 7T711 56l14 22q14 25 51 98 1 3 5.5 13.5T788 203l7 16q8 15 20 51 6 10 14 39-3-3-18-8-121-50-253-50-61 0-124 11-81 13-145 41-2-24-2-49t2-51z"/><glyph unicode="P" horiz-adv-x="968" d="M51-231q0 11 2 49.5t3 66.5q3 78 3 117 7 365 56 813 25 222 51 406 5 37 16 92 5 27 17 92 17 110 47 149 18 25 45 19 29-11 28-39v-59q-5-33-32-33-6-21-15-82-15-89-32-217-2-6-2-17-2 0-2-2v-2q0-2-1.5-12t-1.5-12q-2-16-6-47 0-1-5.5-45.5T215 950q-10-85-20-200-12-131-19-207 51 155 107 274 73 165 129 250 90 153 204 233 57 43 113 60 31 8 56 8 18 0 34-4 76-19 94-119 6-38 6-82t-6-94q-12-92-34-172-22-76-74-195-2-7-13.5-27.5T778 649q90 35 180 47 30 3 41.5-26.5T989 618q-7-7-31-12h-2q-6-2-10-2-13 0-20-4-4-2-21.5-5t-21.5-5q-83-29-88-31-3-1-13-5t-12-5h-2q-2 0-2-2-2 0-4-2h-4q-16-7-45-21l-4-4q-57-91-91-133-50-72-141-174-34-38-78-82-59-51-84-63-36-19-66-19-19 0-34 8-10 6-20 17-13 18-15 32v17q6 46 23 82 28 60 88 129 51 55 108 100 111 90 246 156 101 180 150 338l18 78q15 60 23 138 1 16 1 30 0 24-4 42-17 59-59 59-8 0-18-2-39-9-90-46-6-6-11-6l-12-13q-18-13-27-22-20-20-49-53-1-1-6.5-8t-7.5-9q0-2-2-2l-2-4-2-2q-20-27-21-29-47-64-77-127-43-78-64-127-10-17-27-59-94-183-151-442-36-180-47-383-2-66-3-198t-3-198q0-18-12.5-31.5T111-500q-15 0-28 9.5T68-467q-15 97-17 236zm225 381q55 27 131 113 80 89 128 159-78-44-156-126-77-81-103-146z"/><glyph unicode="Q" horiz-adv-x="1136" d="M-7-371.5Q-3-354 12-346q142 73 330 131-119 51-182 197-52 123-68 294-7 78-7 159 0 67 5 136 13 200 64 338 57 159 120 203 19 12 38 12 26 0 50-24 14-14 14-28t-14-28q-18-23-47-6l-6-6-2-2q0-2-4-6-133-225-133-551 0-112 16-237 0-7 2-11 0-7 4.5-28t4.5-23Q230-7 309-80q57-54 120-54 24 0 48 8Q567-98 654-6q86 91 141 223l20 41v4l2 4 2 4q8 13 8 21 67 164 101 344 29 161 35 254 5 67 5 125t-5 108q0 7-2 17v4q-2 3-3 14t-2 14q-17 91-56 140-38 48-84 48h-2q-46-1-95-38t-92-104q-97-156-125-302-5-19-15-67-4-23-4-35l-2-4v-4q0-3-1-9t-1-8q-15-120-15-211 0-112 23-180v-2l2-2q1-1 3-4l2-2q18-31-7-53-10-13-28-13.5T428 334l-2 2q-1 2-4.5 6t-5.5 6q0 4-4 8 0 1-2.5 7.5t-6 14.5-4.5 13q-9 34-16 84-5 56-5 116 0 44 3 91 6 150 39 285 72 268 217 409 84 75 168 75 29 0 57-9 193-63 197-412 0-88-15-213-19-179-59-332-50-189-127-344-89-177-190-272-2-2-8-7.5t-9-6.5q33 7 121 20 48 5 90 5t78-5q40-6 78-22 59-23 59-60 0-9-4-20-6-25-33-25-23 0-32 21-39 31-133 31-150 0-441-81-27-7-33-8-78-21-178-59-21-8-45-19-5 0-12-4h-2l-21-10q-66-30-86-39-14-6-25-6-22 0-34 23-9 14-5 31.5z"/><glyph unicode="R" d="M33-233q-1 26-1 52 0 231 48 466 1 108 12 215 4 54 13 137 5 41 6 63 6 98 18 201 23 241 57 402 2 15 17 23.5t30 4.5q34-10 27-49l-6-39v-8q-2-6-2-12-2-1-2-7t-2-8q-2-18-6-51-4-15-4-24 0-1-1-5t-1-6v-6q-1-7-3-25t-4.5-37-5.5-38q-9-68-20-199-1-16-10-121 96 251 223 424 97 128 188 201 96 71 179 71 37 0 71-14 43-18 64-43 28-33 38-65 17-48 19-127-6-155-80-324-63-149-190-311-67-86-150-162-101-93-186-133 21-14 56-35 9-6 22-14t21.5-13.5T483 141Q635 43 754-14q102-50 139-54 2 0 4-2h21q18 0 31.5-13t13.5-32q0-18-13.5-31.5T918-160q-37 0-103 21-39 13-141 63Q563-17 408 84q-117 67-136 78-16 10-32 16-48 5-78 23-4-113-4-189-2-54-2-126 0-85-3-151-3-72-10-124 0-25-20-39-15-8-35-4-35 6-43 53-5 17-10 66-3 31-3 56 0 13 1 24zm139 532h2q5-2 32.5-11.5T258 270h8q2 0 8 2t9 2l18 7q1 1 4.5 2t5.5 2q15 6 35 18 104 57 215 177 109 118 189 249l43 80q1 3 9.5 20t10.5 23l12 25q63 127 63 249 0 28-3 56-8 64-34 96-25 31-66 31h-3q-74-2-182-111-50-50-151-186-49-75-91-158-65-140-131-334-29-102-55-221z"/><glyph unicode="S" horiz-adv-x="1054" d="M59 868q8 125 105 242 74 94 207 180 119 75 233 113 137 47 221 47 125 0 138-102 2-15-11-27t-28-12q-33 0-39 28 0 7-2 13l-2 2v2l-2 2-5 2h-2q-15 7-41 7-44 0-122-19-173-43-289-129-213-130-261-332-6-27-6-53 0-81 58-156 0-2 2-2 7-10 12-15 53-59 217-163 10-7 49.5-33t68.5-45q84-56 114-74 94 105 194 199 117 102 181 149 16 10 33.5 5t27.5-21q7-13 7-25 0-21-23-37-2-1-8-4.5t-7-5.5l-8-6-4-4q-52-41-190-168-61-61-134-139l35-35q74-83 92-160 6-30 7-59 0-69-35-137-27-52-72-105-41-45-65-65-43-38-87-60-57-26-86-31-15-2-29-2-39 0-63 17-45 33-51 84-6 35-4 63 4 55 12 82 27 89 70 172 45 89 94 152 1 2 6 8t6 8l2 2q1 2 4 6.5t5 5.5q2 4 12.5 17.5T610 268l6 6-4 5q-11 7-18 14-15 8-43 29-49 33-90 57L289 489q-90 61-139 121-92 110-92 232 0 13 1 26zM479-162q-7-34-7-58 0-57 42-57 5 0 10 1 71 11 168 112 34 35 47 62 43 56 43 130 0 15-2 30-11 95-82 147l-14 14q-6-7-34-48-38-51-40-54-44-59-71-121-9-14-19-41v-2q-2-2-2-4l-2-2q0-4-2-4-6-10-6-21-23-58-29-84z"/><glyph unicode="T" horiz-adv-x="495" d="M-369 1202q0 30 33 43 54 16 139 31 39 5 47-27v-2q36 4 196 28 99 15 198 28 0 20 4 49 0 57 4 84 5 39 10 49 14 20 33 26 39 7 49-28 2-9-2-33.5t-4-32.5q-2-8-2.5-38t-1.5-38q-2-14-2-30 439 37 680 39h53q6-1 27.5-4t27.5-5q14-2 22.5-17t4.5-32q-6-25-37-28h-12q-6-2-13-2H932q-9 0-87-2-21-1-51-3t-38-2q-294-17-432-34-42-502-52-678-10-206-10-383 0-232 17-416 2-18-12.5-31.5T233-301q-41 0-45 45-7 103-12 209-3 86-3 180 0 275 26 621 1 21 20 273 7 100 10 126 0 36 7 59-406-54-528-54-19 0-32 1-45 5-45 43z"/><glyph unicode="U" horiz-adv-x="1087" d="M109 580q6 207 38 403 12 90 37 170 18 64 33 86 27 30 41 31 5 1 11 1 28 0 48-28 8-15 3.5-30.5T303 1188q-7-6-18-6l-2-2q0-12-7-17-10-29-22-92-2-6-12-57-45-201-45-539 0-60 4-151 6-64 8-78 0-16 4-39v-2q0-6 2-8 0-3 1-10.5t1-8.5q12-80 33-143 1-8 10-33 6-10 6-16 0-2 2-2v-2q32-76 79-76 53 0 124 96 31 42 49 80 106 183 205 450 7 21 50 132 40 103 56 149 21 60 23 66 27 194 59 331l5 20 9.5 34.5 6.5 23.5q7 41 14 68 26 93 70 131 20 16 42.5 10.5t31.5-29.5q11-27 11-63 0-53-24-123-7-31-22-75-5-14-23-64-19-69-59-189-2-8-16.5-48.5T942 856v-4l-12-98-12-197q-4-153-4-277 0-62 1-118 8-132 15-197 0-29 6-51 0-2 1-11.5t1-13.5l2-6v-8q7-60 16-98 18-90 29-123 1-4 6-17.5t6-17.5l2-4v-4l2-4q2-6 5-8l12-25h2v-2q5-5 8-6 14-13 13.5-32t-13.5-32q-14-14-30-14t-33 14q-32 28-58 99-21 63-28 112-30 137-43 312-13 138-13 324v71q4 80 4 133-56-154-102-260Q628 71 545-47 441-197 345-197q-28 0-56 13-30 13-60 55-29 36-53 104-46 114-59 299-9 92-9 218 0 42 1 88z"/><glyph unicode="V" horiz-adv-x="880" d="M20 1090q0 36 33 43 21 8 43-11l4-4q2-2 4-2l7-6q9-6 18-20 38-62 70-228 11-51 45-280 50-382 84-537 27-140 71-227 0-2 7-8v-3 3q3 1 10 8 0 2 1 2t1 2q2 0 2 2 10 14 20 35 44 86 91 289 19 88 36 145 3 12 26 95 4 16 10 37t9.5 35 5.5 23q133 503 230 754 28 75 70 168 2 4 9 19.5t13 27.5q20 42 25 51 18 32 22 37 1 2 6.5 11t7.5 12q4 0 5 4 2 0 2 1t2 1q13 13 30.5 13.5t30.5-13.5q12-12 12-30.5t-12-31.5l-4-4-10-20q-28-54-29-56-32-59-61-133-2-7-6-14v-2q-2-2-5-9t-4-9l-12-31q-22-59-51-144-38-109-117-374-11-39-52-190-10-38-19.5-74.5T682 376t-12-46q-1-3-3.5-12.5T661 296t-7-25q-11-35-17-68-9-39-14-64-27-117-52-192-40-129-86-185-27-37-63-43-34-6-60 11-28 16-45 51-20 36-41 113-5 14-26 86-7 32-21 94-16 79-43 250-11 87-18 149-11 64-25 182-19 143-37 215 0 2-1 6.5t-2 8.5-2.5 11.5T98 910q-8 39-10 47-11 47-35 81l-4 9q-12 1-18 16v-2 2q-6 6-6 10l4-8q-8 17-9 25zm74 34q0-2 1-2t1-2q0 2-1 2t-1 2z"/><glyph unicode="W" horiz-adv-x="1247" d="M49 764q12 209 37 395 11 110 25 195 6 51 16 92 0 2 10 47 6 6 6 20 14 53 51 53 5 0 11-1 35-12 31-43 0-27-3-39 0-17-14-33-7-28-20-98-24-137-56-498-16-215-16.5-413.5T143 61q0-6 1.5-16t3.5-29 3-33q4-49 11-99 6-39 20-79 1-10 8-22 0-3 3-4 0-4 4-8 3-5 6-11v-2l2-2q9 15 10 17 8 14 14 28 8 6 56 152 3 10 12.5 42.5T314 52q18 63 24 87 18 63 51 195 35 130 96 393 3 12 20 75 10 36 19 75 12 127 49 243 13 34 40 34 8 0 16-3 13-4 24-17t9-26v-4q-17-114-39-203-1-4-5.5-20.5T612 860q0-3-1-9t-1-7q-1-30-6-88-4-81-4-155 0-113 10-207 15-155 84-298 44-87 94-86 53 0 113 96 54 88 82 195 23 94 37 174l18 98q4 37 9 52 0 3 1 12t1 10l2 8v9q15 115 22 198 6 83 8 101 0 9 4.5 48.5t4.5 49.5q4 43 43 43 16 0 29.5-14t11.5-29q-2-26-2-61-2-43-3-62l-12-123q-15-153-31-254-4-28-34-188-25-113-45-170-27-81-76-156-52-85-109-110-38-19-73-19-43 0-80 29-52 40-93 116-68 136-92 330l-6 80q-10-45-19-80-3-11-22-80-2-10-5.5-24t-9.5-35.5-10-37.5q-21-76-26-97-5-23-24-88-7-24-16.5-56.5T373-68q-19-64-49-139-32-81-62-108-26-23-55-23-8 0-17 2-28 6-47 27-36 39-49 98-10 35-31 195-27 210-27 445 0 162 13 335z"/><glyph unicode="X" horiz-adv-x="880" d="M72-256q-2 6-2 16 0 21 8 58 38 147 125 342 61 143 170 336 6 13 16 30-22 53-35 92-45 124-118 365-23 80-60 182-16 49-33 90l-5 15-5 14q-12 6-18 23-6 19-6 47-2 29 29 38 30 9 44-18 30-61 101-258 3-8 50-164 43-141 64-202 11-37 47-129 140 234 320 489 66 96 192 266 84 110 95 123 60 75 118 107 13 6 24 6 22 0 36-23 10-14 5-33.5t-22-27.5q-8-8-14-8-4-1-10-9-2 0-2-2-37-28-63-56-30-33-73-94-45-65-51-71-98-129-196-276-177-250-318-494 14-31 63-143 39-95 73-164 20-50 41-90 28-61 45-90 8-17 36-73 23-48 33-69 19-40 41-71 12-21 23-33v-2l2-3q2 0 2-1.5t2-1.5q6-10 10-15 16-18 16-33t-16-28q-13-13-32-13.5T795-299q-49 55-127 209-9 21-41 85-30 60-35 71-45 92-84 180-21 43-40 88-29 68-38 90-5-12-16-31-43-77-86-168-30-61-41-86-10-17-21-45-6-15-8-18v-2l-2-4q0-3-4-11-25-55-66-176-17-51-22-71-2-8-4.5-17.5t-4-15-1.5-8.5v-11q-2-6-2-16 2-15-10.5-28T113-297q-36 0-41 41z"/><glyph unicode="Y" d="M49 653q18 310 96 584 7 27 36 30 28 3 42-20 3-3 6-13t4-11q10-25-14-45-84-344-84-617 0-218 70-295 19-23 46-23 21 0 48 15 60 33 133 139 84 123 100 152 87 145 181 336 23 52 24 53 0 2 1 6t1 6q29 146 78 348 27 102 35 119 39 86 82 107 14 8 26 8 20 0 35-25 17-27 17-67 0-28-8-62-7-36-33-106-52-149-123-305l-25-56q-6-55-31-221-24-147-30-233l-25-209q-33-315-45-488-9-169-10-198v-72q0-2 1-11.5t1-13.5v-6l2-2q2-8 2-16 0-29-33-39-19-4-36 4.5T600-567q-8 34-8 67v24q0 46 4 146 7 95 18 230 13 156 48 479 8 69 18.5 159T694 653q-3-8-18-35-60-108-96-163-10-17-44-66-12-17-27-38t-17-25q-51-75-89-111-63-63-120-72-16-3-31-3-45 0-82 24-40 28-66 72-41 78-53 206-5 58-5 119 0 45 3 92z"/><glyph unicode="Z" horiz-adv-x="1214" d="M154-162q5 40 26 84 0 3 4 10l2 5h-2q0-1-2-7l6.5 13 6.5 14 18 37q19 43 41 78 124 216 434 571 96 109 256 285 7 8 68 73 17 18 39 42t28 30q86 100 113 129 20 20 45 49 76 94 76 136v6q0 18-40 22-20 2-39.5 2t-39.5-2q-41-5-57-10-35-6-97-23-176-50-354-143-82-42-154-90-138-97-200-160-21-21-27-28 0-25-20-39-16-9-31-13-27-11-44 14-17 23-5 48 28 46 102 116l123 99q127 90 254 151 133 67 279 113 96 33 172 45 61 12 108 12 61 0 100-20 48-26 56-74 3-14 2-29 0-54-35-110-19-31-94-119-54-58-107-119-19-21-80.5-88T983 837q-60-67-84-92-71-78-242-274Q445 214 344 49q-83-153-100-211v-12h2q0-2 2-4h4q36 0 215 42 180 42 211 48 219 44 387 45 168 0 221-8 153-28 182-135 2-9 2-16 0-30-32-40-8-2-15-2-29 0-41 33-2 1-2 5t-2 5q-2 5-5 10l-3 5q-58 58-240 58-80 0-184-11-18 0-51-4-14 0-23-4h-14q0-1-2-2l-2-1q-149-19-391-77-18-5-60-18-36-11-67-17-36-10-66-10-51 0-84 28-33 29-33 67 0 7 1 15z"/><glyph unicode="[" horiz-adv-x="333" d="M47-109q-6 257 37 809 1 31 8 127l10 150q3 39 7 127 6 155 4 192 0 7-2 69t-2 71q0 95 20 149 33 82 94 109 58 25 181 30 47 1 83 7 15 2 28-11.5t13-29.5q0-33-30-39-32-7-90-11-121-13-152-28-59-35-59-164l6-141q2-39-4-187 0-7-2-40.5t-3-59.5q-4-65-6-100-24-329-28-406-14-189-23-403-12-363 13-410 2-2 2-4h12l4 2q5 0 16 4 31 8 82 33 111 40 168 57 104 26 187 27 18 0 31.5-13.5T666-226q0-18-13.5-31T621-270q-68 0-197-33-97-33-166-62-100-39-149-18-45 19-54 104-8 78-8 170z"/><glyph unicode="\" horiz-adv-x="688" d="M-37 1538q0 2 2 5t2 5l2 2q5 8 17 17 19 10 37 4 27-5 26-35 0-9-4-16 1-12 10-35 1-2 8.5-19.5t14-33.5 8.5-23q27-81 49-146 36-105 47-147 7-22 21-66.5T241 930t45-143q101-318 124-388Q518 62 645-270q6-16-4-32.5T614-324q-36-12-53 29Q458-45 336 340q-23 70-124 388-58 183-103 329Q8 1371 2 1389q0 2-16 38-12 28-17 50-14 52-4 67-1-2-2-6z"/><glyph unicode="]" horiz-adv-x="419" d="M-176-391q-4 17 5.5 34t27.5 21q47 11 94 21 24 5 53.5 12t34.5 8q86 17 90 19 66 10 66 28v4q0 43-7 126-8 88-6 141 2 77 9 216 7 169 8 197 3 88 5 283 1 56 1 129 0 248 12 409 8 91 16 205 8 120 5 174v4q-5 23-31 23-27 0-41-6-38-15-60-19-83-29-124-36-79-16-123 14-32 27-15 53 8 14 23.5 18.5t30.5-4.5l8-4h2q2-2 4-2h35q10 6 26 6 18 4 125 41 78 27 119 25 49-5 76-29 24-24 29-57 6-48 2-168-1-12-3.5-46.5T317 1395q-7-78-8-105-10-102-12-203-2-46-2-103t-2-103q0-289-4-412-1-57-8-219-7-141-9-195-2-31 0-114 2-110 2-153 0-72-6-91-1-7-16-23-5-5-35-16-42-16-43-16-32-8-96-21-174-38-199-43-42-12-55 31z"/><glyph unicode="_" horiz-adv-x="911" d="M61 66q-6 18 9.5 32.5T104 109q5-1 17-3 2-2 4-2l6-2h4q1 0 6-1t6-1q28 0 64 4 30 7 53 7 13 2 82 8 336 27 381 28 18 0 30.5-13t12.5-30q0-39-43-43L334 31q-26-1-78-6-28-5-59-7-43-4-64 0-19 0-33 7h-2l-4 2q-2 3-10 4-1 1-4 3-1 1-2 1.5T76 37q-5 5-15 29z"/><glyph unicode="a" horiz-adv-x="655" d="M-47 389q-1 12-1 26 0 28 3 62 12 87 51 185 52 126 121 178 32 23 67 23 8 0 17-1 47-2 94-53 27-23 0-47-15-17-39-6-7 3-22.5 14T227 782h-2l-4 2q-7 2-15 2-36 0-72-57-45-74-64-145-14-40-23-88 0-14-4-21 0-1-1-17.5T41 432q-1-11-1-21 0-60 22-72 5-3 10-3 25 0 71 51 92 118 191 326 20 39 47 99 29 63 59 122 26 51 45 78 20 28 54 8 17-10 22-39v-8q0-36-16-115-53-290-72-614-6-131-7-209 0-19 1-35 0-138 14-174 6-16-3-32.5T453-227q-24-8-41 11.5T389-155q-10 66-10 114 0 30-.5 61t.5 62q0 63 8 225 7 125 29 293 4 43 16 113l-22-45q-76-159-168-295-46-73-97-107-33-24-67-26h-3q-37 0-73 24-42 32-49 125z"/><glyph unicode="b" horiz-adv-x="610" d="M-29 178q-1 22-1 43 0 96 22 187 0 48 1 87t1 87q7 186 29 428 6 87 16 198 5 54 10 76 8 53 47 55 16 0 29.5-13t13.5-30q0-11-4-18 0-2-2-4 0-2-1-14.5t-1-16.5q-9-89-10-113-15-156-25-323 0-7-2-34t-3-47-3-47-2-34q45 72 94 109 46 32 87 31 20 0 40-7 53-23 82-94 16-43 19-92 30 21 57 35 22 14 70 37 21 13 47 18 4 2 18 5t18 5q15 4 29.5-4t16.5-22q10-33-25-45h2q-3-1-6.5-2t-5.5-2l-2-1-2-2h-2q-3-1-51.5-24T504 555q-24-13-64-41l-4-4-4-4q-10-6-18-14-2-18-2-37-6-93-31-176-10-38-64-173-39-89-92-159-44-52-86-56h-7q-48 0-77 72h-2q-1 0-3-1t-3-1Q18-39 4-6q-27 84-33 184zM80 395q0-82 4-198 2 3 7.5 13t17.5 32 24 43q97 153 191 237v4q-2 164-58 164h-4q-61-6-129-149-2-3-6.5-14t-5.5-13l-6-12q-1-5-4-8-16-44-31-99zM137-2q1-3 8-8 45 45 123 233 34 86 47 164v8q-1-1-4-4.5t-4-5.5q-55-55-139-211-41-78-41-131 0-26 10-45z"/><glyph unicode="c" horiz-adv-x="737" d="M-74 307q5 108 31 205 13 63 43 131 46 118 92 184 77 113 150 113 50 0 84-45 36-42 43-164 2-15-12.5-29T326 688q-41 0-45 43 0 84-23 107-13 15-31.5 7T190 813q-52-71-90-158-1-3-4.5-12.5T90 631q-4-7-4-10-70-162-70-317 0-21 1-42 6-105 59-160 32-36 79-36 51 0 121 43 37 21 76 60 9 9 24.5 24t26.5 26.5 20 20.5q32 32 69 79 13 16 32.5 40.5T550 392q22 27 48 64t31 42q6 8 23 34t28 43q28 42 53 78 23 29 51 13 31-16 13-50-14-30-37-69-84-148-209-295Q451 131 342 53q-92-66-178-66-10 0-21 1Q79-7 37 20-7 52-33 98q-41 79-41 189v20z"/><glyph unicode="d" horiz-adv-x="591" d="M-92 285q-1 11-1 23 0 59 17 138 27 111 68 197 26 53 45 80 32 44 65 61 28 16 54 15 17 0 32-6 42-17 76-64 6-5 10-16 31 97 50 174 18 70 22 90 11 141 35 289 0 4 1.5 12.5t4 23.5 4.5 29q5 34 13 74 7 35 13 62 18 79 48 132 18 29 51 21 28-7 33-43 2-21 2-45 0-93-31-223-19-77-32-128-25-97-33-128-20-86-21-92-2-25-6-78-12-192-12-383v-29q5-197 18-389 1-22 35-293 11-59 20-98 17-57 27-84 11-39 53-84l2-2h9q16 6 32.5-3.5T633-510q4-17-4.5-33T602-563q-16-5-31-5-57 0-102 66-36 55-61 158-24 93-37 199-21 165-35 362 0 35-3 108-1 26-3 62t-2 47q-2 68-2 156Q180 226 96 166q-39-26-74-26-28 0-53 16-49 34-61 129zm94 96q-5-35-5-64 0-50 15-81l4-5q4-4 9-2h2q31 5 67 62 41 68 64 122 18 43 29 67 1 1 29 69 5 12 10 26t8 21 4 10q9 21 16 45-13-8-25-8-17 0-31 14t-12 31h-2q-13 14-27 14-37 0-85-92-2-8-4-10l-19-37Q15 476 2 381z"/><glyph unicode="e" horiz-adv-x="591" d="M-59 332q-3 30-3 61 0 102 35 219 0 7-4 11-8 35 23 45 45 145 112 245 53 74 107 113 64 47 121 47 12 0 24-2 37-8 61.5-36.5T446 969q2-14 2-30 0-58-32-130-32-76-84-139-56-73-113-95-52-25-104-25-27 0-54 7-6 2-10 2-27-46-30-148v-16q0-91 32-174 34-88 105-88 61 0 127 66 159 159 295 456 6 16 25.5 21.5T639 672q15-13 15-32 0-14-9-32-77-169-131-256-77-120-131-180-78-87-154-115-37-14-69-14-51 0-94 35-112 83-125 254zM76 639h4q6-2 10-2 102 0 143 41 114 117 127 242 1 10 1 19 0 38-22 46-27 10-52-10-44-25-88-84-54-68-109-209-7-15-14-43z"/><glyph unicode="f" horiz-adv-x="352" d="M-229 840q14 36 51 37 44 15 58 20 10 4 73 27 25 10 55 20 34 258 98 449 56 177 140 309 56 90 90 123 54 55 104 59 30 2 54-17.5t30-49.5q7-23 7-53 0-34-9-78-12-67-35-136-45-152-143-407-26-68-53-133 118 25 248 37 39 3 71 3 15 0 29-1 48-2 76-19 14-8 18-24.5t-4-30.5q-8-15-24.5-20t-30.5 3h-2q-29 7-70 7-27 0-59-3-8-1-35.5-4.5T461 951q-12-2-29.5-4.5l-28-4L386 940q-1 0-28.5-5t-48.5-9q-35-7-59-13-32-78-80-174-43-84-68-121-18-26-34-36-5-121-7-273-2-51-2-104 0-150 13-316 0-3 3-37t3-53q0-50 4-71v-21q25-6 29-37 1-18 1-33 0-42-8-67-6-26-35-31-30-5-44 21-18 34-27 96-6 45-21 313-5 99-5 247 0 73 1 159 0 172 13 332 2 72 12 141-6-2-13-4.5t-10.5-4-5.5-1.5q-9-4-48-18t-48-17q-13-5-35-12-8-5-20-5 2 0 10 2l-2-2h-12q-20 0-33.5 16.5T-229 840zm307-90q1 6 10 20 28 58 55 119-2-2-6-2-25-6-47-13 0-4-12-124zm22 219l25 6q6 1 30 7t31 7q16 42 23 53l17 42.5 26 66.5q35 85 82 217 44 126 65 195 45 159 45 210 0 15-4 21-60-32-115-123-56-90-84-166-24-64-67-192-45-151-72-336 0-6-2-8z"/><glyph unicode="g" horiz-adv-x="894" d="M-70 395q6 87 33 193 21 72 64 176 31 66 63 117 49 66 98 82 17 5 33 5 46 0 86-40 23-20 47-66 21-42 23-47 10-17 16-43 0-2 2-5t2-5q42 69 89 69h1q51-1 72-55 8-21 8-96 0-9 1-49t1-47q4-153 4-258 49 66 80 102 53 70 129 152 5 5 31.5 33t39.5 40q9 8 36 31 10 10 27.5 10t27.5-10q12-12 12-29.5T944 627l2 2q-86-86-192-217-59-70-138-179-37-51-47-67-1-17-3.5-66.5T562 25q-1-27-3.5-76t-3.5-66q-7-159-16-340-12-159-35-329-27-207-72-324-32-81-74-127-73-80-140-80h-9q-63 4-109 50.5T31-1147Q8-1070 8-965q0 33 2 70 6 66 19 123 6 27 22 71 10 31 21 64 73 262 278 621 38 68 131 213 0 1 1 9t1 11q1 38 1 93 0 109-3 284-1 8-2 48.5t-2 49.5l2 17q0 14-2 14-41-53-53-82 0-15-12-29-1-11-9-22-3-8-12.5-34T374 512q-17-44-30-76-55-127-70-155-38-77-73-121-53-69-113-69-16 0-33 5-69 19-104 119-22 64-22 144 0 17 1 36zm99-135q12-53 35-66t47.5 5 50.5 57q37 60 69 134 3 10 14 36t17 43q3 8 27 70 13 32 28 75l19 43q0 6-7 30-10 34-12 40 0 12-8 25-29 85-63 108-14 9-27 9-22 0-44-23-36-36-71-125-1-1-2-4l-2-2q0-4-2-6-8-20-8-21-2-4-7-19.5T76 649q-6-20-13-40.5T52.5 576 47 559Q19 442 19 354q0-52 10-94zM96-967q-2-16-2-33 0-58 22-118 28-77 71-99 11-6 24-6 21 0 46 17 40 28 81 100 40 91 55 170 11 52 18 93 5 27 14 106 4 36 10 99 2 23 9 103 2 38 7 89 9 181 16 340l6 122q-81-129-156-286-83-167-100-228-9-19-33-82-77-205-88-387z"/><glyph unicode="h" horiz-adv-x="870" d="M-25 72q-1 28-1 68 0 80 3 208 10 216 27 397 12 157 49 381 44 269 94 459 18 59 52 74 31 18 51-12 17-29-12-52-2 0-2-4h-3q0-1-1-5t-1-5q-9-31-10-39-7-24-20-84-9-45-14-65-11-47-15-64-12-72-21-127l-16-98q-1-7-5-41t-5-39q-3-10-8-49-4-7-4-23v-12q-2-2-2-4-16-129-21-199-12-130-24-397-1-56-2-113.5T62 139t-1-41q9 26 17 57 14 50 16 56 28 99 58 174 74 186 147 279 46 61 102 79 34 12 58 5 20-6 39-31 15-25 22-74 6-31 15-96 7-54 20-101 5-18 8-22 0-2 1-4t1-4q2-2 2-4 1-4 11-19 2-2 2-4 2 0 2-1t2-1l6-6q2 0 2-2v2h2q2 0 6 4 5 5 13.5 8t11.5 6v2q9 8 16 13 55 47 145 149 35 40 58 68 7 7 18 22 5 5 8 6 0 2-2 0 26 29 56 13 15-8 19-25.5t-5-32.5q-2-2-6.5-8.5T926 598q-1-2-7-8.5T907 575t-8-14q-85-102-131-149-30-30-74-70-47-36-78-47-15-5-28-5-32 0-58 26-39 37-55 90-10 29-37 198-6 33-8 41 0 1-2 6t-2 6h-4q-2-1-8-5t-8-5l-3-2q-2 0-2-2-3-1-10-8-14-14-20-23l-9-8-2-6-4-4q-42-60-73-129l-19-37-6-18-4-9q-4-9-16-37-13-31-13-32-29-78-57-187-5-20-13.5-51.5T143 51q-17-49-18-78-2 0-2-4v-8q0-2-2-12.5T119-66q0-16-6-32-11-48-37-74-14-16-38-13T6-164q-6 10-6 17-11 32-16 94-4 39-9 125z"/><glyph unicode="i" horiz-adv-x="239" d="M-29 137q0 54 4 207 0 11 1.5 27t3 39.5T-18 452q7 82 8 107Q0 666 0 698q5 35 33 41 35 12 49-20 4-4 8-17 4-17-2-28 0-4-4-68.5T75 494q-9-118-12-179-3-94-3-151 0-28 1-47 0-25 5-35v-8q0-5 3-12.5T72 51q18-18 12-41-6-18-18-24-7-4-9-4-14-2-28 0-1 2-6 2t-7 2v2q-3 1-8 6-2 0-2 2-19 17-26 57-4 31-9 84zm82.5 902q6.5 24 30.5 34 18 4 29-4 23-14 21-41-3-27-21-36-19-9-47 7-19 16-12.5 40zM72 49q2 0 0 2v-2z"/><glyph unicode="j" horiz-adv-x="512" d="M-467-807q11 104 27 182 40 168 127 328 78 144 284 412l2 2q2 2 2 4 0 12 2 104 3 67 3 103 0 114 2 200v101q0 33 12 45 18 18 43 12 35-11 31-45 0-13-5-18 3-65 3-162t-3-228q162 204 429 445 16 16 32 16t31-16q13-13 13.5-32T555 614Q405 479 303 373 192 254 121 164q-3-2-12-13t-11-14q-1-3-10-12 1 0-4-6t-13-16-12-17q-5-195-16-324Q26-418 4-565q-33-223-78-367-27-87-63-149-38-66-86-97-31-17-63-17t-66 17q-97 50-113 207-5 46-5 93 0 35 3 71zm86-108q0-23 2-41 0-7 2-13v-8l2-6q6-98 66-113 7-2 14-2 54 0 100 94 7 12 7 17 2 2 2 4 2 2 2 4 2 4 7.5 18.5t6.5 18.5q17 46 25 82 22 75 43 182 29 147 41 266 3 16 8 82 14 117 20 254 0 4 1 20.5t1 20.5q-77-95-121-166-230-352-230-675 0-19 1-39zm357 1938q-8 31 13 47 9 8 23 7 22 1 33-19t2-40.5T12 997q-28-4-36 26z"/><glyph unicode="k" horiz-adv-x="638" d="M-117 162q-11 33 21 51 4 2 19.5 13t19.5 14l6 6 4 2q-6-2-14-2-18 0-30.5 13t-12.5 30q-1 8-1 17 0 87 54 216 0 1 2 5t5.5 12 6.5 16q13 31 21 43L2 850q18 234 37 420 29 249 41 329 0 7 7 43 2 10 4.5 23t4 21 2.5 14q16 80 69 80 8 0 17-2 25-6 21-43 0-18-17-29v-2l-2-4q-10-45-10-47-2-5-18-115 0-1-1-7t-1-9q0-5-2-9 0-15-4-36-10-79-11-82-25-256-37-394L84 774q62 94 162 201 57 58 106 96 73 48 127 55 9 1 18 1 43 0 76-29 33-31 33-81 0-61-49-163-68-132-205-311-62-79-141-174-63-72-123-125 87 9 166 10 133 0 246-27 16-4 25.5-20.5T530 174q-7-31-51-22-134 12-223 12-34 0-61-2-18-1-140-10 0-2-6-2v-29q-5-165-5-264 0-50 1-84 4-122 21-181 4-16-6.5-33.5T33-463q-8-2-15-2-27 0-38 33-7 15-11 43-3 15-8 74-5 74-5 184 0 55 1 119 0 60 4 147-15 0-22-4-8-1-15-1-33 0-41 32zM57 336q31 30 93 98 87 106 102 125 7 8 15.5 18t8.5 11q7 7 7 10l2 2q69 91 94 131 137 208 137 287v10l-2 2q0 2-2 2v2q-5 5-14 5-37 0-142-81-60-60-84-88-66-73-98-122-46-65-92-156-2-2-6.5-11.5T70 569v-16q-2-33-13-217z"/><glyph unicode="l" horiz-adv-x="305" d="M-27 592v4q0 3 1 8t1 6q5 11 15 43 13 313 71 645 27 154 50 238 12 48 28 88 19 49 60 49 30-5 37-22 12-29 12-76v-18q0-88-17-205-13-101-38-236-28-146-62-270-25-94-39-141-7-22-12-35-10-199-10-371V113q0-62 1-109 2-84 5-117 12-146 25-197 11-41 22-65 22-18 22-37 0-12-8-24-8-14-26.5-19.5T78-453q-36 28-49 70-16 42-25 139-8 72-8 90-9 118-14 398 0 128 4 311-12 17-11 27 0 2-1 5t-1 5z"/><glyph unicode="m" horiz-adv-x="1101" d="M-43 170q0 72 8 246 5 98 8 121 0 8 1 18.5t3 26.5 3 27q7 55 8 69 2 29 28 39 25 10 45-8 3-1 13-11 14-13 14-30.5T74 637l-2-2q-1-25-11-86-6-56-6-113-6-51-6-106 19 87 64 241 58 198 127 324 49 87 94 137 47 49 88 49 8 0 16-2 45-14 62-73 12-50 12-103 1-20 1-46 0-78-9-216-8-120-8-204 0-42 2-75v-2q2 0 4 5l2 4q15 29 54 119 31 71 67 137 40 69 73 96 44 37 82 37 16 0 31-6 48-20 70-90 10-35 26-107 13-59 31-63 1 0 3-1 18 0 63 46 25 25 40 47 21 20 39 45 43 43 70 43 13 0 23-10 13-14 13-29t-13-29h-2l-3-4-2-2q-8-11-40-48-42-47-61-66-24-26-60-51-38-27-66-30-30-2-57 14.5T846 461q-16 33-33 102-18 83-31 103 0 2-2 2h-2q-18 0-53.5-58T655 478q-1-3-16.5-36T615 392q-21-44-29-58-39-73-86-90-13-4-23-4-33 0-48 39-21 51-21 110v78q0 58 2 100 0 40 4 99 4 63 6 100 3 50 3 91 0 82-11 128-62-62-114-172-55-113-77-188-27-88-59-213-7-30-10-39-29-126-35-158Q88 91 66 33 56 0 23 0q-47 0-60 66-6 53-6 104z"/><glyph unicode="n" horiz-adv-x="768" d="M-41 268q0 39 1 70 2 48 3 70 7 132 17 208 7 56 14 80 14 47 43 58 15 6 31-3.5T88 725q8-23-10-41-17-76-19-147-3-24-8-131 36 84 78 176 62 128 100 184 63 94 117 123 33 14 61 14 11 0 21-2 55-10 82-80 18-47 27-129 0-2 1-11.5t1-12.5q4-23 4-35l18-154q26-249 55-413 18-106 43-168 0-3 7-17t12-22q39-5 39-43 0-20-13-32.5T672-229q-27 0-50 20t-34 46q-10 24-21 54-24 75-41 179-19 109-32 227-10 77-20 172-13 111-21 172v4q-15 165-55 165-6 0-13-4-26-15-50.5-45T272 668q-49-91-172-373-46-113-57-129-14-33-49-21-28 7-33 43-2 36-2 80z"/><glyph unicode="o" horiz-adv-x="528" d="M-63 500q11 87 32 164 6 13 13 20-2-2-2.5-2t.5 2q2 3 6 8 14 14 39 10 2 0 2-2h2q39 78 100 88 15 3 30 3 34 0 62-17 37-22 64-63 36-51 47-144 4 0 6 2 17 10 45 21 63 31 135 74 13 6 24 6 22 0 36-23 10-14 5-32.5T561 588q-128-75-229-117-6-83-35-164-32-79-70-123-52-61-110-69-10-1-20-1-33 0-62 15-27 17-51 51-32 56-43 127-9 50-9 106 0 42 5 87zm83-4q-5-56-5-102 0-163 67-189 12-5 24-5 43 0 79 64 46 82 55 166v10q-31-15-76-15-10 0-20 1-60 5-97 37-11 7-27 33zm70 116q-3-13-3-26 0-23 9-45 19-26 63-26 35 0 87 17 0 15-10 74-27 79-76 79-6 0-13-1-47-10-57-72z"/><glyph unicode="p" horiz-adv-x="702" d="M-92-401q1 128 22 290 5 275 23 469 4 43 42 337 38 296 38 448 0 33 33 43 37 7 49-21 5-14 10-43 0-7-4-18-5-112-15-207L57 504q-1-7-5-43.5T47 416q44 132 86 235 86 206 154 301 54 81 108 121 61 49 110 49 16 0 32-6 74-29 96-137 10-47 10-101 0-34-4-71-18-138-70-275-38-94-86-182-62-112-133-192-89-96-172-117-29-7-54.5-7T76 41q-2 0-5.5 1.5t-10.5 4T47 51q0-7-4-18-16-80-16-96-5-60-7-158-1-77-1-119v-33q3-131 5-178 3-117 3-154 2-17-12-31t-31-14q-36 0-43 33-33 137-33 316zM66 143l16-10 2-2h4q16-3 31-3 51 0 103 34 67 46 124 136 99 158 162 329 45 170 45 254v16q-5 54-21 100l-2 4q-2 2-3.5 5.5t-2.5 5.5-2 2q0 2-1 2t-1 2q-15 15-32 15-25 0-56-32-52-53-102-144-51-94-84-166-37-81-43-103-38-94-66-182-37-114-71-263z"/><glyph unicode="q" horiz-adv-x="751" d="M-102 373q6 57 20 110 20 54 37 92 26 54 57 101 96 135 197 141 29 2 55-8 45-19 66-43 4-4 4-6 29 53 41 82 11 22 21 43 13 28 27 52 14 22 30 38 25 25 53 6 28-14 20-49-2-7-49-222-40-182-57-274l-19-104q214 230 338 375 12 14 32 13.5t30-13.5q15-15 15-30t-15-30Q606 416 399 203q-6-7-20-23-4-39-6-59-23-201-23-362v-25q0-35 4-90 32-49 60-103 33-62 33-101 0-26-15-42-17-19-59-23-38 0-64 35-13 18-20 58-3 19-6.5 38.5t-5 28T276-455q-2 12-8 68-7 11-12 16-56 95-123 156-28 34-74 63-1 0-4 1t-4 1h-2 4q-38 5-45 35-4 17 6 39 5 13 23 31 25 29 90 94 68 70 156 158 6 8 12 14l12 86q26 158 66 338-13-24-54-92-3-5-14.5-21.5T271 482l-44-66q-36-54-67-92-56-63-92-82-32-17-62-19-38 0-69 27-39 35-39 109v14zm92-51q7-7 17-7 18 0 47 25 43 38 102 124 68 102 80 122 46 77 53 88 0 4 2 6-37 46-78 46-52 0-111-73Q17 549-8 410q-7-32-7-55 0-19 5-33zM121-84q33-25 53-45 46-45 88-98 0 84 6 168 1 41 11 137-2-2-22.5-23.5T229 27Q156-46 121-84z"/><glyph unicode="r" horiz-adv-x="688" d="M-8 711q5 52 16 73 9 15 24.5 19.5T63 799q21-11 21-34 0-10-4-22-1-21-1-45 0-62 4-152 5-140 5-151 4 7 4 21 28 183 78 305 38 89 76 139 60 80 110 80 12 0 23-4 45-16 88-100 77-150 129-189 25-18 50-18l18 2h4l2 2q14 7 26 7 20 0 33-22 9-16 4-33.5T713 559q-35-20-75-20-11 0-22 2-37 6-69 32-52 40-111 134-36 63-54.5 94T362 831q-20 26-43-14-2-2-8-12-85-151-123-346-1-6-6-38t-6-38q-4-25-6-39v-8q-2-6-2-17-4-24-4-74v-61q-4-101-33-145-13-17-33.5-20.5T61 31Q41 59 29 90q-15 51-19 150-1 32-6 94-4 55-4 92-1 69-6 205-3 31-3 56 0 13 1 24z"/><glyph unicode="s" horiz-adv-x="608" d="M-20 582q6 69 69 139 41 45 101 86 83 51 143 51 50 0 82-29 26-22 26-52 0-15-6-32-12-34-43-24-31 7-26 35v8q0 12-21 12-76 0-159-77-82-78-78-126v-4q5-7 53-30 146-77 192-119l6-6q38 44 76 80 69 65 109 100 83 71 127 84 17 4 34-5.5t17-25.5q0-21-16-37-76-46-158-122-86-80-143-158 9-29 14-82 0-68-17-121-22-65-53-102-26-27-47-33-7-1-14-1-31 0-58 23-28 25-28 76 0 13 2 27 6 41 26 96 27 67 74 131-1 1-6 7t-8 9q-45 38-132 81-83 41-106 61-33 28-33 69 0 5 1 11zM252 94q37 49 37 119v2q-2 0-2-2-35-62-35-115v-4z"/><glyph unicode="t" horiz-adv-x="268" d="M-636.5 1106.5q-.5 18.5 13.5 30.5 49 31 236 73 222 55 448 88 0 5 4.5 25.5T70 1350q28 191 71 325 11 40 37 101 19 39 37 57 22 23 43 23 18 0 35-17 15-17 20-59 1-14 1-34 0-40-5-104-1-9-4.5-36t-6.5-44q-8-51-9-75-5-27-12-81-3-20-7.5-47t-5.5-34q177 31 488 31 306 0 415-53 65-36 78-50 20-23 29-47 6-22 6-45 0-18-13.5-30.5T1237 1118t-28.5 12.5-12.5 30.5q1-3 2-8l-2 4v4q-1 15-27 41-2 0-4 2-83 69-368 69-125 0-289-13-110-6-203-19-31 0-57-6-4-27-29-139-24-108-82-308-21-69-39-122-11-33-22-52-18-226-25-331Q41 86 41-77q0-70 2-134 4-67 4-76 1-18 2.5-48t1.5-41q1-14 2.5-39.5T55-453q7-82 13-108 13-69 26-119 4-16-5-32.5T63-733q-9-3-17-3-28 0-38 34-24 85-37 198-3 23-14 240-4 73-4 246 1 216 22 493 0 2 43 453 26 237 31 278-173-26-328-61-15-3-88-20-59-15-90-21-63-14-78-21-5 0-12-4-2-2-8-4.5t-8-3.5l-2-2q-4 0-4-2-32-14-54 8-13 13-13.5 31.5zM121 1055l11 49.5 11 48.5q7 42 13 70-1 0-7.5-1t-9.5-1q-6-38-18-166zm31 256q2 0 11 2t11 2q26 165 35 229 2 8 2 21h2v8q4 23 4 37 0 19 4 26-20-61-26-94-19-72-33-168-2-6-5-31t-5-32z"/><glyph unicode="u" horiz-adv-x="673" d="M-41 258q6 130 6 133 10 100 10 101 12 156 39 249 6 31 39 31 24 0 35-20 6-10 6-17 2-3 2.5-17t1.5-18q0-16-14-24-30-123-37-369 0-112 10-133 13-38 45-6 59 77 213 397 20 42 47 98.5t33 69.5q44 99 86 148 17 18 42 11 26-8 32-30 8-28 8-55v-10q0-14-4-37 0-3-3-25t-5-42q-7-62-8-85-1-25-10-129-10-93-11-129-9-147-9-271 0-71 3-134 1-35 10-162 0-5 2-26.5t2-28.5v-7q13-5 17-14 11-14 6-35 0-18-6-34-2-14-15-23.5t-28-9.5q-27 0-37 22-16 30-25 97-6 40-6 86-11 122-12 241 0 204 18 406 7 98 17 200v7q-11-23-31.5-65T401 543q-5-11-23.5-48.5T346 430q-45-91-59-123-62-136-117-194-45-49-96-52-36 0-56 17-31 19-43 57-16 38-16 123z"/><glyph unicode="v" horiz-adv-x="481" d="M-45 717q0 19 6 33 13 17 25 24 12 6 22 6 20 0 37-22 11-18 16-43 8-26 9-41 5-24 10-86 7-68 14-187l12-153q0-1 1.5-7t1.5-10v-2q2 4 8 27l43 147q27 84 55 152 39 99 68 150 34 72 79 135 68 88 117 114 13 6 24 6 19 0 32-20 14-26-7-49-2-2-8-9.5T506 865l-16-18q-10-11-24.5-27.5T446 798q-44-50-67-102-9-15-21-37-15-29-16-32-36-71-82-205-22-60-39-128-3-10-8.5-30.5T205 236q-2-8-14.5-43.5T176 150q-6-21-22-44-12-15-37-22-23-8-45 10-43 43-52 139-7 55-14 152-4 62-4 73-1 47-3 79-2 74-19 147-5 0-9 4-20 11-16 29z"/><glyph unicode="w" horiz-adv-x="802" d="M-53 270q-2 37-2 72 0 53 4 102 1 9 5 51t5 50q5 76 8 94 10 76 13 94 0 5 1 24t1 25q-7 7-9 23 1 3 2 12.5t2 11.5q5 16 17 29 13 16 41 10 27-6 31-28 3-21 3-47 0-38-6-86 0-3-12-123-2-22-6-65-5-47-6-66-4-40-4-131 0-145 20-211 0-7 4-19h2v2l2 4q6 13 15 47 22 76 55 254 6 42 17 92 14 70 18 91 7 37 16 61 17 48 47 64 13 6 24 6 27 0 42-33 19-61 20-66 15-68 35-223 20-157 47-256 32-84 68-123 2-2 4-2 0-2 2-2 3-1 4-2h4q2 0 4 2l4 2q6 6 9 6 46 34 84 181 20 78 36 168 31 147 54 383 13 130 14 186 0 50-2 92 0 4-1 18.5t-1 18.5q-29 26-10 55 8 16 26.5 21.5t34.5-4.5q29-25 33-45 4-11 4-37 6-47 6-90-4-93-12-187-12-123-21-192-18-172-69-381-21-92-49-158-13-34-43-70-32-35-52-45-25-12-50-12-9 0-19 2-24 1-53 27-34 28-66 92-48 113-70 278l-26 199-13-61q-44-235-51-260-10-45-20-80-17-61-37-92-18-29-35-35-18-7-33-7-17 0-30 9-43 31-64 119-11 50-16 161z"/><glyph unicode="x" horiz-adv-x="399" d="M-57 199q-16 22 2 47 0 4 4 4 1 2 5.5 10.5T-39 272q3 5 20.5 39.5T2 352q39 69 45 78 1 2 6 11t6 10q-79 195-90 231-8 19-2 33l4 12q-1-1-2-4 6 12 8 14 13 18 28 18 13 0 28-12 14-11 14-28 0-4 2-6v-2q2-2 2-5 6-22 24-63 16-39 23-55 8-21 19-45l30 43q107 147 240 276 16 14 31.5 14t30.5-14q13-13 13.5-30.5T449 797l-25-25Q279 618 156 444l6-14 2-4q1-5 10-25 58-133 84-180 18-35 33-53v-2l2-2q24-7 29-29 8-27-15-45 2 2 4 2-15-9-18-10-19-6-41 4-15 5-41 43-7 9-37 64-31 63-74 163-2 0-2-2-1-3-2-4-4-8-18.5-34T53 272q-2-3-11-20t-11-21q-12-23-29-38-14-12-32.5-10.5T-57 199zm51 47h2l2-2-2-2z"/><glyph unicode="y" horiz-adv-x="1036" d="M-19 523q2 135 19 192 4 10 4 11l-4-7q0 1 1 3.5t1 4.5q0 5 4 12 4 23 27.5 29T74 758q13-17 14-29 2-6 2-14v-2q6-26-10-39-2-8-2-17-9-87-10-104-2-27-2-56t2-59q0-137 47-137h4q51 6 102 127 4 7 6 14l66 156q35 82 86 211 45 119 113 238 44 69 61 86 35 35 67 35 18 0 35-11 48-32 50-125v-16q0-34-5-105-13-191-47-419-4-40-28-203 0-3-1-11.5t-1-9.5q104 122 217 224 68 62 116 98 21 15 113 84 14 8 31.5 3t25.5-20q7-13 7-24 0-19-21-33l-2-2q-4 0-92-72-71-59-113-96Q736 275 598 92v-8q-8-24-8-53l-6-49q-1-6-7.5-49.5T569-123q-17-118-30-205-62-420-113-569-22-70-53-102-19-24-45-31-7-4-27-4-25 0-47 22-42 40-49 129-2 22-2 51 0 90 24 242 18 96 49 191 52 164 152 374 34 66 86 152 41 251 68 483 7 68 12 103 9 108 16 207 0 14 3 58.5t3 57.5v17l-2 2v12q-5-5-6-8-4 0-4-4l-4-4q-23-37-57-97-33-66-58-120-99-248-204-482-22-45-64-92-40-46-80-51-12-2-23-2-44 0-75 35-31 34-45 88-13 59-13 176v17zM293-885v-6l2-2q0-2 1-7.5t1-6.5q1-7 6-21 0-4 6-10 2 2 2 4 17 28 36 88 18 59 27 107 20 106 25 128 4 21 8.5 45.5t7 37.5 3.5 20q21 112 35 205 5 30 26 178-50-97-117-295-71-245-71-414 0-26 2-51z"/><glyph unicode="z" horiz-adv-x="868" d="M-31-651q6 47 21 90 26 76 86 194 19 36 94 166 50 79 63 99 83 119 209 270-1 15 1 49t-4 37q-6 15-10 30-3 11-38 40-5 3-60 28-7 3-37.5 15T250 385q-53 26-68 72-7 20-7 43 0 31 13 67 6 17 58 117 2 5 17.5 32.5T284 755q5 10 14 37 6 17 6 33 0 23-13 43-2 2-2 4-2 0-2 2-1 0-6 5-2 0-2 2h-9q-53-18-90-54-40-40-51-55-33-45-42-60-5-9-10.5-18.5T70 683q-30-50-31-52 0-4 4-8 10-16-5-32t-32-5q-28 17-31 20-10 10-10 27 0 15 8 37 37 70 66 117 28 45 83 99 54 52 114 72 23 7 42 7 14 0 27-4 34-12 60-50 23-40 24-84 0-26-9-54-14-46-56-128-3-7-18.5-32T284 577q-8-14-17-37-6-18-6-33 0-20 11-34l2-2q15-7 65.5-27t65.5-27q22-10 50-29 51-36 67-124 181 209 357 379 12 12 30.5 12t30.5-12q16-16 16-32t-16-31Q802 445 698 328 591 209 528 135q-6-97-45-215-19-67-53-147-11-27-21.5-52.5t-20-48.5-13.5-32q-44-97-115-215-25-45-67-107-39-55-66-82-27-22-33-24-10-4-33-9-11-1-30 9-39 18-54 63-9 26-9 54 0 10 1 20zm90-35v-8q2-2 2-6l2-2q3 2 13 12.5T88-676q8 8 8 12 2 0 2 2 2 2 8 11t7 10q57 83 133 221Q359-194 414-8q-85-108-117-160-67-106-102-165-35-60-84-169-51-112-52-184z"/><glyph unicode="{" horiz-adv-x="454" d="M23 688q-8 23 8 39 21 14 41 23 3 0 4 4l2 4 6 8 4 4q2 2 8 12 29 40 45 70 93 144 95 305v95q0 60 2 94 11 103 47 165 37 63 94 115 157 129 287 76 34-12 24-43-7-33-43-25-2 2-8 2h-4q-1 0-7 1t-7 1q-108 0-202-92-93-92-93-205 0-4-1-22t-1-23q0-164-2-186-7-79-41-170-44-114-101-195h2-2 2q2-2 4-2 47-23 68-69 35-77 20-201-8-78-14-123-3-27-14-121-12-103-15-161-5-41 0-82 0-25 2-41 0-3 1.5-11.5T236-76v-6l2-2v-2q5-93 49-152 45-58 135-57 8 0 14 2h6q37 7 62 14l31 13q7 0 14 4 2 2 4 2h2q41 18 61-14 9-14 4-35t-20-27q-129-53-213-47-60 5-106 33-109 67-129 235-12 78-9 168 6 124 29 312 3 11 8 53 41 214-37 254-4 4-6 4h-6q0 2-4 2-9-13-29-29-32-33-63 0-17 17-12 39z"/><glyph unicode="|" horiz-adv-x="481" d="M178 96q7 365 49 846 6 105 19 201l12 93q9 75 10 93 16 122 19 193 0 50-2 92 0 6-1 25t-1 24q-2 2-2 10v2q0 2-2 4v4q0 2-3 5-10 25 0 43 4 10 19 16l8 4h2q2 0 6.5 1t5.5 1h2q35 0 43-33 29-162-16-481-23-181-39-397-21-305-26-422-11-202-13-424 0-124 8-426 2-16-11-29.5T236-473q-39 0-43 43-18 193-15 526z"/><glyph unicode="}" horiz-adv-x="440" d="M-160 1655q37 54 162 74 115 8 150 4 77-12 112-39 51-37 70-97 18-57 0-139-12-66-47-170-129-369 55-481l2-2h2q11-4 14-4 17-2 26-19t5-36q-4-18-20-26.5t-33-4.5q-2 0-5 1t-5 1q-3 0-9 2h-8l-2-2q-53-27-65-97-14-71 6-124 7-40 22-99 12-45 31-103 15-47 37-120 16-53 25-104 37-198-23-299-27-49-76-99-51-48-104-73-72-29-121-25-75 11-115 64-32 34 0 63 12 12 31.5 12t32.5-12q16-25 55-37h4q54-12 122 41 67 53 99 117 23 42 24 81 2 54-4 86-2 12-4 25.5T284 30q-2 12-9 47-3 11-5.5 21t-3.5 16l-2 7q-12 50-32 114-4 11-9.5 28t-7.5 24q-27 91-39 145-21 100-22 143 0 91 36 140 23 33 56 53-22 25-35 45-41 57-57 139-29 152 47 353 62 173 47 261-8 50-44 74-76 49-288-8-4 0-8-4l-12-6q-4-4-7-4v-2q-25-18-45 0-16 19-4 39z"/><glyph unicode="" horiz-adv-x="432" d="M98 166q22 202 29 285 30 361 35 806 0 16 12.5 29.5T203 1300q18 0 30.5-13t12.5-30q2-143 0-286-7-391-60-805-4-45-45-45-17 0-31 13.5T98 166zm47 1419q-4 34 11 68 10 32 41 28 13 19 32 13 31-6 23-39-12-54-45-94-17-20-43-7-15 12-19 31z"/><glyph unicode="" horiz-adv-x="591" d="M68 451q0 69 26 145 29 74 68 133 14 23 35 51 2 3 4.5 6.5t4 5.5 1.5 3l2 2q-3-3-4-6 0 4 6 10 5 5 6 8 1 1 7 8t9 10q2 3 8 9t7 8q-2 16-2 33-1 37 0 71 0 30 4 70 4 25 6 49v4-4q6 39 43 39 16 0 29.5-12.5T342 1063q0-17-8-113v-47h6q46 10 80-20 32-27 37-78 0-18-13.5-31.5T412 760t-30.5 12-14.5 31q0 7-6.5 10t-12.5-2q-3-1-8-6-11-17-29-25-11-11-28-32-4-4-7-9l-2-2v-2l-2-2 2 2v2-2q-7-7-18-22-28-45-35-56-76-88-55-238 19-151 192-65l31 19q1 0 6 4t6 4l5 4q4 4 6 4 46 37 84 84 10 14 30.5 13t30.5-13q28-25 6-53-34-50-76-84-57-48-100-68-21-11-43-18 0-42 2-76 0-28 4-68 0-2 1-14t1-14q0-6 2-12v-7 7q4-43-30-52-16-4-34 5t-20 24q-8 61-8 131-2 24-2 59l-12 3q-85 6-131 69-49 61-49 146zm206 286l2 2-2-2 2 2z"/><glyph unicode="" horiz-adv-x="751" d="M-55 471q-17 29 8 53 6 7 41 23 4 3 18.5 9t16.5 7q37 20 76 31l16 6q51 160 127 299 47 85 92 143 77 106 141 148 48 29 82 22 37-5 49-14 24-18 37-41 33-53 41-145 2-40-6-123 14-18 8-37-1-11-20-53-14-33-49-21-15 4-25 16.5t-8 26.5q0 21 4 61 2 23 5 73 1 17-1 65-5 75-37 102l-2 2h-4q-51 6-211-237-30-54-37-70-51-102-74-164l-6-18q6 0 27 8 169 47 309 53 16 2 28.5-10t12.5-29q0-35-31-39-187-33-297-61-63-19-81-27l-11-32q-17-68-28-123-16-71-11-130 5-61 52-61 22 0 133 15 8 2 84 16 95 18 106 20 44 8 98 12 54 5 87 3h4l2-2h2q39-16 28-51-4-16-20-26.5t-31-4.5l-2 2h-8q-52 0-161-23-100-23-142-28-51-11-115-19-56-4-82-2-18 0-37 6-36 13-59 48-33 44-29 126 0 40 17 130 7 35 20 88-1 0-8.5-3.5t-25-11.5T23 463q-15-9-19-10H0q-11-6-29-2-16 4-26 20zm765.5-222q.5 0 2.5-1 3-3 6-4-4 4-8 4-1 1-.5 1z"/><glyph unicode="" horiz-adv-x="1120" d="M184 1290q27 110 74 203 39 74 101 125 59 50 128 33 17-7 25-23 94 19 172 12 89-11 150-47 68-39 104-96 86-128 23-291-52-130-166-227-122-107-254-141-155-37-256 26-168 110-101 426zm72-211q10-99 72-137 91-51 235-1 141 49 211 140 8 10 25 27 9 9 10 12l6 6q67 84 75 176 7 91-39 154-48 63-134 91-87 28-211-13l-80-25q-31-10-49 17l-6-6-2-2v-2q-5-6-37-58-2-2-5.5-10.5T322 1436l-7-13q0-4-2-6-73-174-57-338zm127 162q12 76 61 139 33 45 56 62 28 23 51 22 38-4 49-39 4-19-9.5-34t-33.5-9q-2 0-10-8-82-82-82-182 13-84 98-25 22 10 35 31 13 14 32 13.5t32-13.5q29-29 0-61-37-43-101-68-79-31-137 16-59 53-41 156z"/><glyph unicode="" horiz-adv-x="688" d="M106 598q0 16 15.5 29.5T154 639h32l9 2q1 0 10 1t10 1q11 3 123 14 55 5 125 7 78 3 129-13 39-11 29-51-7-31-39-31-4 0-52 3-49 3-73 3-100-5-123-8l-62-6q-2 0-13-1t-15-1h4q-2-1-6-2-7 0-13-2-119-18-123 43z"/><glyph unicode="" horiz-adv-x="335" d="M78 586q0 28 12 57 5 7 12 14v2q14 13 27 9 16 0 28.5-12.5T170 627q0-34-29-68-16-16-39-7-24 9-24 34z"/><glyph unicode="" horiz-adv-x="768" d="M75 253q6 62 44 154 11 28 38 81 25 48 37 71 3 6 37 66 29 50 29 51 31 53 64 121 2 4 7 13.5t14 26.5 18 33q34 66 46 87 19 35 38 78 40 90 53 173v2l2 2v29q0 2-2 4v4q0 1-1 5t-1 6q-18 39 14 59 35 20 57-16 39-57 6-166-14-42-59-156-45-92-158-311-10-22-43-82-24-42-34-62-53-104-88-186-45-105-17-157 27-53 133 20 4 4 6 4l2 2q1 1 6 5t7 5q1 1 10 9.5t12 11.5q88 78 158 206v3q2 0 2 4 0 6 6 16v2q-10 10-6 35 6 18 23 29 31 18 59-15 7-8 8-18 16-54-37-140-27-43-61-86-37-50-80-92-51-51-109-84-62-37-129-28-56 10-88 57-30 47-23 124zm414 1320q-14 20 0 41 13 24 35 43 25 19 47 6 23-12 19-33v-12q4-22-10-35-11-11-21-16-7-8-24-13-29-11-46 19z"/><glyph unicode="" horiz-adv-x="1038" d="M-12 385q0 31 30 39 54 17 76 20 11 121 35 285 5 42 21 134 7 50 10 63 0 4 2.5 20t4.5 28q1 9 2.5 20.5t3 19 1.5 12.5q0 16 8 51v4q0 1 1 6t1 7 1 12 1 12q8 39 41 39 15 0 28-12.5t11-26.5q-13-122-41-297-37-265-37-280 0-6-2-36 0-8-4-36 6 2 33 8 0 3 1.5 8.5t4 15T225 518q44 191 107 369 24 64 65 164 44 104 72 157 43 82 90 144 19 27 49 55 34 34 64 47 46 20 71 10 37-16 52-45 22-46 30-155 12-144-4-381-9-167-16-312 116 9 256 9 16 0 29.5-12.5T1104 539q0-18-13.5-30.5T1061 496q-134 0-258-13h-2l-6-166q-5-126-7-286 1-19 3-64 0-37 2-63 1-6 1.5-28t2.5-28q0-2 1-12t1-14q2-2 2-10v-2 2-2q8-44-31-54-19-4-36 5t-19 26q-11 77-15 176-4 192 11 514-138-12-291-43-113-22-131-26-52-245-80-476 0-27-6-53-6-43-6-47 4-51-23-92-14-26-43-21-30 5-37 33-23 83-22 271 1 149 12 301 0 4 1 16t1 14q-46-9-57-10-14-2-27.5 11.5T-12 385zm178-141q16 93 27 139l-19-6q-3-25-8-133zm145 256q212 46 404 65 0 15 4 91 5 103 8 128 16 303 14 383 0 40-5 110-1 17-3 32t-4.5 27-5 21-6 13.5-6.5 3.5q-61-14-156-192-35-66-70-150-2-2-2-4-1-3-4-8 0-1-4-8t-4-11q-4-12-14-34-8-37-33-90-57-156-111-367 0-2-1-5t-1-5zm303 1192q4 19 18.5 28t31.5 0q8-2 22-16l4-4 4-4q17-17 35-27 6-6 33-24.5t31-22.5q35-28 10-59-25-33-62-11-6 6-69 54-22 20-35 36-27 28-23 50z"/><glyph unicode="" horiz-adv-x="1038" d="M-12 385q0 31 30 39 54 17 76 20 11 121 35 285 5 42 21 134 7 50 10 63 0 4 2.5 20t4.5 28q1 9 2.5 20.5t3 19 1.5 12.5q0 16 8 51v4q0 1 1 6t1 7 1 12 1 12q8 39 41 39 15 0 28-12.5t11-26.5q-13-122-41-297-37-265-37-280 0-6-2-36 0-8-4-36 6 2 33 8 0 3 1.5 8.5t4 15T225 518q44 191 107 369 24 64 65 164 44 104 72 157 43 82 90 144 19 27 49 55 34 34 64 47 46 20 71 10 37-16 52-45 22-46 30-155 12-144-4-381-9-167-16-312 116 9 256 9 16 0 29.5-12.5T1104 539q0-18-13.5-30.5T1061 496q-134 0-258-13h-2l-6-166q-5-126-7-286 1-19 3-64 0-37 2-63 1-6 1.5-28t2.5-28q0-2 1-12t1-14q2-2 2-10v-2 2-2q8-44-31-54-19-4-36 5t-19 26q-11 77-15 176-4 192 11 514-138-12-291-43-113-22-131-26-52-245-80-476 0-27-6-53-6-43-6-47 4-51-23-92-14-26-43-21-30 5-37 33-23 83-22 271 1 149 12 301 0 4 1 16t1 14q-46-9-57-10-14-2-27.5 11.5T-12 385zm178-141q16 93 27 139l-19-6q-3-25-8-133zm145 256q212 46 404 65 0 15 4 91 5 103 8 128 16 303 14 383 0 40-5 110-1 17-3 32t-4.5 27-5 21-6 13.5-6.5 3.5q-61-14-156-192-35-66-70-150-2-2-2-4-1-3-4-8 0-1-4-8t-4-11q-4-12-14-34-8-37-33-90-57-156-111-367 0-2-1-5t-1-5zm271 1049q-15 24 4 42 15 10 77 62 60 51 82 69 12 9 31 4.5t27-18.5q19-32-15-57-28-18-81-60-48-41-86-59-26-8-39 17z"/><glyph unicode="" horiz-adv-x="1038" d="M-12 385q0 31 30 39 54 17 76 20 11 121 35 285 5 42 21 134 7 50 10 63 0 4 2.5 20t4.5 28q1 9 2.5 20.5t3 19 1.5 12.5q0 16 8 51v4q0 1 1 6t1 7 1 12 1 12q8 39 41 39 15 0 28-12.5t11-26.5q-13-122-41-297-37-265-37-280 0-6-2-36 0-8-4-36 6 2 33 8 0 3 1.5 8.5t4 15T225 518q44 191 107 369 24 64 65 164 44 104 72 157 43 82 90 144 19 27 49 55 34 34 64 47 46 20 71 10 37-16 52-45 22-46 30-155 12-144-4-381-9-167-16-312 116 9 256 9 16 0 29.5-12.5T1104 539q0-18-13.5-30.5T1061 496q-134 0-258-13h-2l-6-166q-5-126-7-286 1-19 3-64 0-37 2-63 1-6 1.5-28t2.5-28q0-2 1-12t1-14q2-2 2-10v-2 2-2q8-44-31-54-19-4-36 5t-19 26q-11 77-15 176-4 192 11 514-138-12-291-43-113-22-131-26-52-245-80-476 0-27-6-53-6-43-6-47 4-51-23-92-14-26-43-21-30 5-37 33-23 83-22 271 1 149 12 301 0 4 1 16t1 14q-46-9-57-10-14-2-27.5 11.5T-12 385zm178-141q16 93 27 139l-19-6q-3-25-8-133zm145 256q212 46 404 65 0 15 4 91 5 103 8 128 16 303 14 383 0 40-5 110-1 17-3 32t-4.5 27-5 21-6 13.5-6.5 3.5q-61-14-156-192-35-66-70-150-2-2-2-4-1-3-4-8 0-1-4-8t-4-11q-4-12-14-34-8-37-33-90-57-156-111-367 0-2-1-5t-1-5zm256 1067q-14 23 6 43 44 54 54 63 44 54 75 58 55 10 97-50 3-2 11.5-13.5T821 1653q1 0 3-1t3-1h2q2-2 9-2 15-2 23.5-19t4.5-35q-8-32-41-30-49 0-90 59-2 2-10 16l-2 2-4 5q-12 0-41-35-3-3-13-14.5t-17-18.5-16.5-15.5T614 1552q-31-13-47 15z"/><glyph unicode="" horiz-adv-x="1038" d="M-12 385q0 31 30 39 54 17 76 20 11 121 35 285 5 42 21 134 7 50 10 63 0 4 2.5 20t4.5 28q1 9 2.5 20.5t3 19 1.5 12.5q0 16 8 51v4q0 1 1 6t1 7 1 12 1 12q8 39 41 39 15 0 28-12.5t11-26.5q-13-122-41-297-37-265-37-280 0-6-2-36 0-8-4-36 6 2 33 8 0 3 1.5 8.5t4 15T225 518q44 191 107 369 24 64 65 164 44 104 72 157 43 82 90 144 19 27 49 55 34 34 64 47 46 20 71 10 37-16 52-45 22-46 30-155 12-144-4-381-9-167-16-312 116 9 256 9 16 0 29.5-12.5T1104 539q0-18-13.5-30.5T1061 496q-134 0-258-13h-2l-6-166q-5-126-7-286 1-19 3-64 0-37 2-63 1-6 1.5-28t2.5-28q0-2 1-12t1-14q2-2 2-10v-2 2-2q8-44-31-54-19-4-36 5t-19 26q-11 77-15 176-4 192 11 514-138-12-291-43-113-22-131-26-52-245-80-476 0-27-6-53-6-43-6-47 4-51-23-92-14-26-43-21-30 5-37 33-23 83-22 271 1 149 12 301 0 4 1 16t1 14q-46-9-57-10-14-2-27.5 11.5T-12 385zm178-141q16 93 27 139l-19-6q-3-25-8-133zm145 256q212 46 404 65 0 15 4 91 5 103 8 128 16 303 14 383 0 40-5 110-1 17-3 32t-4.5 27-5 21-6 13.5-6.5 3.5q-61-14-156-192-35-66-70-150-2-2-2-4-1-3-4-8 0-1-4-8t-4-11q-4-12-14-34-8-37-33-90-57-156-111-367 0-2-1-5t-1-5zm234 1132q27 70 86 82 34 6 78-14 49-33 67-10 1 3 4 6 9 12 23 18 20 13 43-4 22-16 18-39-11-40-41-59-33-18-49-21-31-4-82 19-28 12-45 18l-2-2q-2 0-2-2l-4-2q-1-4-4-4-2-2-2-4-7-12-15-21-6-12-20-16t-27 2q-41 14-26 53zm88-12l2 2q-2 0-2-2z"/><glyph unicode="" horiz-adv-x="1038" d="M-12 385q0 31 30 39 54 17 76 20 11 121 35 285 5 42 21 134 7 50 10 63 0 4 2.5 20t4.5 28q1 9 2.5 20.5t3 19 1.5 12.5q0 16 8 51v4q0 1 1 6t1 7 1 12 1 12q8 39 41 39 15 0 28-12.5t11-26.5q-13-122-41-297-37-265-37-280 0-6-2-36 0-8-4-36 6 2 33 8 0 3 1.5 8.5t4 15T225 518q44 191 107 369 24 64 65 164 44 104 72 157 43 82 90 144 19 27 49 55 34 34 64 47 46 20 71 10 37-16 52-45 22-46 30-155 12-144-4-381-9-167-16-312 116 9 256 9 16 0 29.5-12.5T1104 539q0-18-13.5-30.5T1061 496q-134 0-258-13h-2l-6-166q-5-126-7-286 1-19 3-64 0-37 2-63 1-6 1.5-28t2.5-28q0-2 1-12t1-14q2-2 2-10v-2 2-2q8-44-31-54-19-4-36 5t-19 26q-11 77-15 176-4 192 11 514-138-12-291-43-113-22-131-26-52-245-80-476 0-27-6-53-6-43-6-47 4-51-23-92-14-26-43-21-30 5-37 33-23 83-22 271 1 149 12 301 0 4 1 16t1 14q-46-9-57-10-14-2-27.5 11.5T-12 385zm178-141q16 93 27 139l-19-6q-3-25-8-133zm145 256q212 46 404 65 0 15 4 91 5 103 8 128 16 303 14 383 0 40-5 110-1 17-3 32t-4.5 27-5 21-6 13.5-6.5 3.5q-61-14-156-192-35-66-70-150-2-2-2-4-1-3-4-8 0-1-4-8t-4-11q-4-12-14-34-8-37-33-90-57-156-111-367 0-2-1-5t-1-5zm277 1120q11 41 45 47 21 2 41-14 28-20 5-53-23-34-58-29-43 6-33 49zm162-43q-33 33 0 70 33 39 65 10 12-14 16-21l-2 4q-2 2-2 5 5-10 7-23 0-31-30-49-29-19-54 4z"/><glyph unicode="" horiz-adv-x="1038" d="M-12 385q0 31 30 39 54 17 76 20 11 121 35 285 5 42 21 134 7 50 10 63 0 4 2.5 20t4.5 28q1 9 2.5 20.5t3 19 1.5 12.5q0 16 8 51v4q0 1 1 6t1 7 1 12 1 12q8 39 41 39 15 0 28-12.5t11-26.5q-13-122-41-297-37-265-37-280 0-6-2-36 0-8-4-36 6 2 33 8 0 3 1.5 8.5t4 15T225 518q44 191 107 369 24 64 65 164 44 104 72 157 43 82 90 144 19 27 49 55 34 34 64 47 46 20 71 10 37-16 52-45 22-46 30-155 12-144-4-381-9-167-16-312 116 9 256 9 16 0 29.5-12.5T1104 539q0-18-13.5-30.5T1061 496q-134 0-258-13h-2l-6-166q-5-126-7-286 1-19 3-64 0-37 2-63 1-6 1.5-28t2.5-28q0-2 1-12t1-14q2-2 2-10v-2 2-2q8-44-31-54-19-4-36 5t-19 26q-11 77-15 176-4 192 11 514-138-12-291-43-113-22-131-26-52-245-80-476 0-27-6-53-6-43-6-47 4-51-23-92-14-26-43-21-30 5-37 33-23 83-22 271 1 149 12 301 0 4 1 16t1 14q-46-9-57-10-14-2-27.5 11.5T-12 385zm178-141q16 93 27 139l-19-6q-3-25-8-133zm145 256q212 46 404 65 0 15 4 91 5 103 8 128 16 303 14 383 0 40-5 110-1 17-3 32t-4.5 27-5 21-6 13.5-6.5 3.5q-61-14-156-192-35-66-70-150-2-2-2-4-1-3-4-8 0-1-4-8t-4-11q-4-12-14-34-8-37-33-90-57-156-111-367 0-2-1-5t-1-5zm326 1130q10 21 20 35-11 27 9 45 33 33 71 31 33-2 58.5-24.5T827 1661q14-85-53-123-43-25-82-16-35 6-49 41-16 33-6 67zm74-28q14 0 24 11t10 25q-2 2-2 7l-2 2-2 2q0 1-1 2t-1 2h-4q0-7-8-20t-12-17v-2l-2-4v-8z"/><glyph unicode="" horiz-adv-x="1380" d="M-12 385q0 31 30 39l76 20q11 121 35 285 5 42 21 134 7 50 10 63l14 100 8 51v4q0 1 1 6t1 7 1 12 1 12q8 39 41 39 15 0 28-12.5t11-26.5q-13-122-41-297-37-265-37-280l-6-72q6 2 33 8 0 3 1.5 8.5t4 15T225 518q44 191 107 369 24 64 65 164 44 104 72 157 43 82 90 144 19 27 49 55 34 34 64 47 46 20 71 10 37-16 52-45 19-45 26-123 3 0 9.5 1t7.5 1l4 2h2q54 8 80 15l161 37q54 10 191 32l178 25q95 9 127 10 60 0 88-14 14-8 19.5-27.5t-2.5-34.5q-20-35-60-16h-4l-4 2h-12q-8 2-17 2-3 0-100-6-201-18-344-49-37-6-102-21-66-16-80-18l-31-6q2-20-6-62-22-104-56-237-11-45-22.5-90t-17-67.5T823 745l-14-55-4-119q116 8 256 9 16 0 29.5-12.5T1104 539q0-18-13.5-30.5T1061 496q-134 0-258-13h-2l-6-166q-5-126-7-286l5-127 4-56q0-2 1-12t1-14q2-2 2-10v-17q60 21 142 59 95 44 120 54 74 35 244 102 167 59 227 74 52 12 102 18 42 4 76-4 17-4 27-21.5t6-33.5q-4-18-21.5-27.5T1690 12q-7 0-13 2h-6q-105 0-342-92l-121-47-16-6q0-1-2-2t-2-2l-29-10-55-25-176-82q-102-50-156-61-102-20-145 22-34 34-41 109-2 31 2 104 32 260 39 303 18 124 47 248-97-11-254-39-113-22-131-26-52-245-80-476l-6-53q-6-43-6-47 4-51-23-92-14-26-43-21-30 5-37 33-23 83-22 271 1 149 12 301 0 4 1 16t1 14q-46-9-57-10-14-2-27.5 11.5T-12 385zm178-141q16 93 27 139l-19-6q-3-25-8-133zm145 256q207 45 381 63 0 6 10 53 1 10 9.5 49t9.5 44l6 75q16 303 14 383 0 20-2 62-8 8-8 24 0 9 4 21-2 22-4.5 40t-5.5 32.5-6.5 21.5-7.5 6q-61-14-156-192-35-66-70-150-2-2-2-4-1-3-4-8l-8-19-14-34-33-90q-57-156-111-367 0-2-1-5t-1-5zm377-725q0-2 2-2v-2q2 0 4-2h6q2 0 10 1t11 1q-6 6-6 16-11 77-15 176-2 74-2 170-41-274-10-358zm139 1437q2-34 2-75l19 67q-10 4-14 10-1 0-7-2z"/><glyph unicode="" horiz-adv-x="1073" d="M78 446q1 185 53 371 52 177 125 297 67 122 150 193 119 107 221 75 62-18 112-86 18-29 29-55 16-10 18-31.5t-12-38.5q-14-14-41-10-17 1-37 35-3 4-10.5 18.5T676 1233q-131 174-332-143-77-123-117-265-78-253-57-501 6-138 55-261l2-2 2-8q51-91 115.5-132T478-111.5 619-50q106 79 221 245 34 51 82 135 28 53 143 305 8 15 26.5 20t32.5-4q32-23 21-49-103-245-166-354Q889 95 786-18q-55-58-122-109-78-57-146-72-88-25-164 6-73 28-131 91Q136 0 102 160 74 301 78 446zM317-623q4 17 20 26t34 5q29-6 32-35h11q34 0 89 33 56 33 32 66-2 7-35 8.5t-75 4-60 11.5q-25 12-21 37 0 50 31 100 34 56 57 76 26 18 45 6 28-14 17-43-4-10-45-78-1-2-4-9t-5-9q0-2-1-2t-1-2v-2q6 0 22.5 1t20.5 1q69 4 109-31 33-27 39-70.5T610-606q-50-78-161-105-58-12-87-2-33 16-40 35-12 30-5 55z"/><glyph unicode="" d="M102 653q7 134 119 303 90 141 199 254 137 139 282 220 120 64 220 77 149 25 211-59 35-44 26-109-1-30-22-87-20-50-25-72 0-9-2-15-14-41-53-30-13 4-23 15.5t-8 25.5v8q0 15 31 102 14 30 14 47 8 42-20 67t-78 25q-94 0-201-56-104-54-190-130-45-37-66-57-182-182-278-377-78-142-22-221 56-78 204-23 4 2 32.5 15t99 45.5T692 686q43 18 62-16 18-28-6-54-33-34-96-93-64-59-81-72Q404 284 301 76 264-3 247-78q-12-51 3.5-83t56.5-32h10q60 0 121 40 31 22 50 33 11 7 57 47 36 31 45 40 40 34 94 92 4 6 20.5 23t20.5 22q11 11 18 25 1 0 2 1t3 1q6 6 6 10 27 35 59 17 16-10 21.5-27T829 96Q756-5 651-98 534-200 432-248q-139-61-215-12-92 57-59 211 18 72 47 131 27 62 71 133 46 75 86 127 56 78 97 121 12 14 26 26l-55-18q-54-17-113-25-62-4-98 11-55 18-86 67-35 60-31 129zm697 1104q4 19 18 28t31 1q8-2 22-17l4-4 5-4q19-19 34-26 6-6 33-24.5t31-22.5q35-27 11-60-25-32-62-10-9 9-70 53-23 21-35 37-27 27-22 49zm311-565h2q-2 8-2 0z"/><glyph unicode="" d="M102 653q7 134 119 303 90 141 199 254 137 139 282 220 120 64 220 77 149 25 211-59 35-44 26-109-1-30-22-87-20-50-25-72 0-9-2-15-14-41-53-30-13 4-23 15.5t-8 25.5v8q0 15 31 102 14 30 14 47 8 42-20 67t-78 25q-94 0-201-56-104-54-190-130-45-37-66-57-182-182-278-377-78-142-22-221 56-78 204-23 4 2 32.5 15t99 45.5T692 686q43 18 62-16 18-28-6-54-33-34-96-93-64-59-81-72Q404 284 301 76 264-3 247-78q-12-51 3.5-83t56.5-32h10q60 0 121 40 31 22 50 33 11 7 57 47 36 31 45 40 40 34 94 92 4 6 20.5 23t20.5 22q11 11 18 25 1 0 2 1t3 1q6 6 6 10 27 35 59 17 16-10 21.5-27T829 96Q756-5 651-98 534-200 432-248q-139-61-215-12-92 57-59 211 18 72 47 131 27 62 71 133 46 75 86 127 56 78 97 121 12 14 26 26l-55-18q-54-17-113-25-62-4-98 11-55 18-86 67-35 60-31 129zm594 986q-14 24 4 42 15 10 77 62 13 11 42 35t41 34q12 8 30.5 4t27.5-18q20-32-15-57-33-21-82-60-48-41-86-59-26-8-39 17zm414-447h2q-2 8-2 0z"/><glyph unicode="" d="M102 653q7 134 119 303 90 141 199 254 137 139 282 220 120 64 220 77 149 25 211-59 35-44 26-109-1-30-22-87-20-50-25-72 0-9-2-15-14-41-53-30-13 4-23 15.5t-8 25.5v8q0 15 31 102 14 30 14 47 8 42-20 67t-78 25q-94 0-201-56-104-54-190-130-45-37-66-57-182-182-278-377-78-142-22-221 56-78 204-23 4 2 32.5 15t99 45.5T692 686q43 18 62-16 18-28-6-54-33-34-96-93-64-59-81-72Q404 284 301 76 264-3 247-78q-12-51 3.5-83t56.5-32h10q60 0 121 40 31 22 50 33 11 7 57 47 36 31 45 40 40 34 94 92 4 6 20.5 23t20.5 22q11 11 18 25 1 0 2 1t3 1q6 6 6 10 27 35 59 17 16-10 21.5-27T829 96Q756-5 651-98 534-200 432-248q-139-61-215-12-92 57-59 211 18 72 47 131 27 62 71 133 46 75 86 127 56 78 97 121 12 14 26 26l-55-18q-54-17-113-25-62-4-98 11-55 18-86 67-35 60-31 129zm633 1000q-14 23 6 43 5 5 25.5 30.5T795 1759q44 54 75 58 55 10 97-50 1-4 10.5-14t11.5-14q1 0 3-1t3-1h2q2-2 9-2 15-2 23.5-19t4.5-35q-8-32-41-30-49 0-90 59-2 2-10 16l-2 3-4 4q-12 0-41-35-3-3-13-14.5t-17-18.5-16.5-15.5T782 1638q-31-13-47 15zm375-461h2q-2 8-2 0z"/><glyph unicode="" d="M102 653q7 134 119 303 90 141 199 254 137 139 282 220 120 64 220 77 149 25 211-59 35-44 26-109-1-30-22-87-20-50-25-72 0-9-2-15-14-41-53-30-13 4-23 15.5t-8 25.5v8q0 15 31 102 14 30 14 47 8 42-20 67t-78 25q-94 0-201-56-104-54-190-130-45-37-66-57-182-182-278-377-78-142-22-221 56-78 204-23 4 2 32.5 15t99 45.5T692 686q43 18 62-16 18-28-6-54-33-34-96-93-64-59-81-72Q404 284 301 76 264-3 247-78q-12-51 3.5-83t56.5-32h10q60 0 121 40 31 22 50 33 11 7 57 47 36 31 45 40 40 34 94 92 4 6 20.5 23t20.5 22q11 11 18 25 1 0 2 1t3 1q6 6 6 10 27 35 59 17 16-10 21.5-27T829 96Q756-5 651-98 534-200 432-248q-139-61-215-12-92 57-59 211 18 72 47 131 27 62 71 133 46 75 86 127 56 78 97 121 12 14 26 26l-55-18q-54-17-113-25-62-4-98 11-55 18-86 67-35 60-31 129zm684 1026q11 41 45 47 21 2 41-14 28-20 5-53-23-34-58-29-43 6-33 49zm162-43q-33 33 0 70 33 39 66 10 9-9 16-20l-2 4q-2 2-2 4 6-12 6-23 0-31-29-49-30-18-55 4zm162-444h2q-2 8-2 0z"/><glyph unicode="" horiz-adv-x="661" d="M-61 1313q0 35 36 43 28 8 41-10h4q7 0 13 2h2q1 0 8 1t10 1q47 10 90 12 75 9 101 10 96 9 114 10 13 84 23 113 14 44 55 33 31-10 31-43v-4q0-14-4-21-3-7-8-41l-6-30q212 10 393-7 43-4 43-43 0-16-14-30.5t-29-12.5q-76 5-174 7-116 2-230-5-33-239-51-649-12-385 19-712h4q196 33 329 32 41-5 41-43 0-18-12-29.5T737-115q-72 0-323-32 2-18-12.5-32T369-193q-31 0-41 31-3-1-30.5-5.5T262-174q-138-34-158-35-14 0-26 12.5T66-168q0 33 28 37 24 5 84 20 16 4 30.5 8t25.5 7 14 4q26 7 67 14 0 6-2 28.5T310-11t-3 38-2 28q-25 337 4 799 23 315 39 438-32-6-76-6-30-1-116-14-82-12-131-12-36 0-52 8-2 2-4 2l-8 6q-22 14-22 37zm415 432q4 18 19 27.5t30 1.5q8-2 23-17l4-4 4-4q17-17 35-27 6-6 32.5-24.5T532 1675q35-27 11-59-25-32-62-10-8 8-69 53-23 21-35 37-27 27-23 49z"/><glyph unicode="" horiz-adv-x="661" d="M-61 1313q0 35 36 43 28 8 41-10h4q7 0 13 2h2q1 0 8 1t10 1q47 10 90 12 75 9 101 10 96 9 114 10 13 84 23 113 14 44 55 33 31-10 31-43v-4q0-14-4-21-3-7-8-41l-6-30q212 10 393-7 43-4 43-43 0-16-14-30.5t-29-12.5q-76 5-174 7-116 2-230-5-33-239-51-649-12-385 19-712h4q196 33 329 32 41-5 41-43 0-18-12-29.5T737-115q-72 0-323-32 2-18-12.5-32T369-193q-31 0-41 31-3-1-30.5-5.5T262-174q-138-34-158-35-14 0-26 12.5T66-168q0 33 28 37 24 5 84 20 16 4 30.5 8t25.5 7 14 4q26 7 67 14 0 6-2 28.5T310-11t-3 38-2 28q-25 337 4 799 23 315 39 438-32-6-76-6-30-1-116-14-82-12-131-12-36 0-52 8-2 2-4 2l-8 6q-22 14-22 37zm382 301q-14 24 5 43 15 10 77 62 60 51 82 69 12 9 31 4.5t27-18.5q19-31-15-58-30-19-82-59-50-43-86-60-26-8-39 17z"/><glyph unicode="" horiz-adv-x="661" d="M-61 1313q0 35 36 43 28 8 41-10h4q7 0 13 2h2q1 0 8 1t10 1q47 10 90 12 75 9 101 10 96 9 114 10 13 84 23 113 14 44 55 33 31-10 31-43v-4q0-14-4-21-3-7-8-41l-6-30q212 10 393-7 43-4 43-43 0-16-14-30.5t-29-12.5q-76 5-174 7-116 2-230-5-33-239-51-649-12-385 19-712h4q196 33 329 32 41-5 41-43 0-18-12-29.5T737-115q-72 0-323-32 2-18-12.5-32T369-193q-31 0-41 31-3-1-30.5-5.5T262-174q-138-34-158-35-14 0-26 12.5T66-168q0 33 28 37 24 5 84 20 16 4 30.5 8t25.5 7 14 4q26 7 67 14 0 6-2 28.5T310-11t-3 38-2 28q-25 337 4 799 23 315 39 438-32-6-76-6-30-1-116-14-82-12-131-12-36 0-52 8-2 2-4 2l-8 6q-22 14-22 37zm352 317q-14 23 6 43t53 64q44 53 76 57 55 10 96-49 2-3 11-15t12-14h2q2-2 4-2h2q2-2 8-2 15-2 24-19.5t5-33.5q-7-31-41-31-49 0-90 60-9 8-10 16l-3 2-4 4q-12 0-41-35-3-3-12.5-14t-16.5-18.5-17-16-17-10.5q-31-13-47 14z"/><glyph unicode="" horiz-adv-x="661" d="M-61 1313q0 35 36 43 28 8 41-10h4q7 0 13 2h2q1 0 8 1t10 1q47 10 90 12 75 9 101 10 96 9 114 10 13 84 23 113 14 44 55 33 31-10 31-43v-4q0-14-4-21-3-7-8-41l-6-30q212 10 393-7 43-4 43-43 0-16-14-30.5t-29-12.5q-76 5-174 7-116 2-230-5-33-239-51-649-12-385 19-712h4q196 33 329 32 41-5 41-43 0-18-12-29.5T737-115q-72 0-323-32 2-18-12.5-32T369-193q-31 0-41 31-3-1-30.5-5.5T262-174q-138-34-158-35-14 0-26 12.5T66-168q0 33 28 37 24 5 84 20 16 4 30.5 8t25.5 7 14 4q26 7 67 14 0 6-2 28.5T310-11t-3 38-2 28q-25 337 4 799 23 315 39 438-32-6-76-6-30-1-116-14-82-12-131-12-36 0-52 8-2 2-4 2l-8 6q-22 14-22 37zm372 340q11 41 45 47 21 2 41-14 28-20 5-53-23-34-58-29-43 6-33 49zm162-43q-33 33 0 69 33 39 66 11 11-14 16-21l-2 4q-2 2-2 4 6-12 6-22 0-31-29-49-29-19-55 4z"/><glyph unicode="" horiz-adv-x="1024" d="M37-319q0 8 2 35.5t2 35.5Q50-28 51 14q5 330 8 404 6 210 25 405 26 248 47 406 1 7 6.5 40t9.5 60q7 63 17 94 3 9 8.5 40t7.5 40q11 44 29 70 18 28 49 12 29-14 12-47 0-4-6-10-4-7-4-10-32-146-39-230 0-18-8-53 0-1-1-6t-1-6v-4q-1-3-2-13t-2-12q-7-62-12-100-12-134-21-199-23-239-27-403-4-116-4-195 64 224 160 438 94 211 186 355 66 104 117 147 78 71 146 51 84-22 102-164 10-60 10-227V557q0-278 10-407 4-50 9-78 0-2 1-13t1-14v-2q2 0 2-2 0-6 2-12 5-44 8-56 6-32 14-53 1-3 5-13.5t6-12.5v-3q0-4 6-10 1-3 10-18l2-2 6-6 2-2q1-1 4-3l2-2h7q17-2 25.5-19t4.5-36q-10-38-55-31-61 10-100 107-21 54-37 147-25 181-25 654v278q0 91-6 155-6 68-35 87-47 29-166-143-25-37-53-91-36-62-133-264-83-208-105-270-65-183-104-371-11-52-16-94-5-17-9-49 0-2-2-11t-2-12v-10l-2-4-12-129q0-6-1-30t-1-31q-2-19-15-32.5T82-365q-16 0-30.5 14T37-319zm491 1835q27 70 86 81 34 6 78-14 49-32 68-10 1 3 4 6 7 11 22 18 20 13 43-4t19-39q-11-40-41-59-34-19-49-20-33-4-82 18-28 12-45 18l-2-2q-2 0-2-2l-4-2q-7-7-7-8-7-11-14-20-6-12-20.5-16.5T555 1462q-41 14-27 54zm88-13l2 2q-2 0-2-2z"/><glyph unicode="" horiz-adv-x="1265" d="M37 809q17 232 123 440 58 117 166 219 129 114 243 136 73 12 140-5 72-18 131-71 109-94 157-264 76-247 13-617-13-83-31-153 91 59 139 96 3 3 21 16l8 6q4 4 6 4 16 10 33 27 64 52 76 64 31 28 59 0 13-13 13.5-31t-13.5-31q-138-125-277-215-58-40-102-63-10-39-35-103-45-123-94-211-61-111-127-172-90-78-180-84-120-10-203 86-71 88-94 244-6 61-6 121l6 98q-23 15-41 35Q17 522 37 809zm93-135q14-117 69-195l2-2v-2h2q1-3 8-10 6-8 14-16 2 9 12 41 9 34 18 60 8 24 24 55 31 66 79 48 27-12 43-49 11-29-24-43-16-4-29 6l-2-4-2-6-2-4q-8-13-8-23-19-70-25-98-1-4-4-18.5t-4-18.5q236-115 547 21 2 2 10 6t10 6q31 93 52 217 66 345-5 580-19 72-49 127-82 154-224 160t-275-130q-13-14-48-51-1-1-5.5-6.5t-6.5-7.5q0-2-2-4l-2-2q-6-11-18-27-35-51-60-102-1-3-5-11.5t-5-11.5l-6-12v-2l-19-49q-83-209-60-422zm159-471q0-25 4-62l2-6v-2q0-1 1-7t1-7q6-16 6-29 7-37 16-59 0-2 5-17 2-2 2-4l12-24q12-23 16-27 3 0 4-4l2-4 2-2q1-1 3-4 1-1 5-6t8-9.5 7-5.5q0-3 4-4l4-2 4-4q12-9 27-14 2-2 4-2 6-3 10-4t8-3q9-4 17-4 2-2 8-2h2q18-4 37 0h8q2 2 8 2l21 7q4 4 8 4 2 0 2 2 2 1 9 3.5t9 4.5q12 8 21 12l6 6 2 2q29 25 68 70 0 2 2 2v2q2 1 8 10 0 1 3 5t6.5 9 4.5 7 4.5 7T711 56l14 22q14 25 51 98 1 3 5.5 13.5T788 203l7 16q8 15 20 51 6 10 14 39-3-3-18-8-178-73-377-39-81 13-145 41-4-49 0-100zm266 1648q4 18 19 27.5t30 1.5q7-1 23-16l4-4 4-5q19-19 35-26 6-6 32.5-24.5T733 1782q35-27 11-59-25-33-62-11-9 9-70 53-23 21-34 37-27 27-23 49z"/><glyph unicode="" horiz-adv-x="1265" d="M37 809q17 232 123 440 58 117 166 219 129 114 243 136 73 12 140-5 72-18 131-71 109-94 157-264 76-247 13-617-13-83-31-153 91 59 139 96 3 3 21 16l8 6q4 4 6 4 16 10 33 27 64 52 76 64 31 28 59 0 13-13 13.5-31t-13.5-31q-138-125-277-215-58-40-102-63-10-39-35-103-45-123-94-211-61-111-127-172-90-78-180-84-120-10-203 86-71 88-94 244-6 61-6 121l6 98q-23 15-41 35Q17 522 37 809zm93-135q14-117 69-195l2-2v-2h2q1-3 8-10 6-8 14-16 2 9 12 41 9 34 18 60 8 24 24 55 31 66 79 48 27-12 43-49 11-29-24-43-16-4-29 6l-2-4-2-6-2-4q-8-13-8-23-19-70-25-98-1-4-4-18.5t-4-18.5q236-115 547 21 2 2 10 6t10 6q31 93 52 217 66 345-5 580-19 72-49 127-82 154-224 160t-275-130q-13-14-48-51-1-1-5.5-6.5t-6.5-7.5q0-2-2-4l-2-2q-6-11-18-27-35-51-60-102-1-3-5-11.5t-5-11.5l-6-12v-2l-19-49q-83-209-60-422zm159-471q0-25 4-62l2-6v-2q0-1 1-7t1-7q6-16 6-29 7-37 16-59 0-2 5-17 2-2 2-4l12-24q12-23 16-27 3 0 4-4l2-4 2-2q1-1 3-4 1-1 5-6t8-9.5 7-5.5q0-3 4-4l4-2 4-4q12-9 27-14 2-2 4-2 6-3 10-4t8-3q9-4 17-4 2-2 8-2h2q18-4 37 0h8q2 2 8 2l21 7q4 4 8 4 2 0 2 2 2 1 9 3.5t9 4.5q12 8 21 12l6 6 2 2q29 25 68 70 0 2 2 2v2q2 1 8 10 0 1 3 5t6.5 9 4.5 7 4.5 7T711 56l14 22q14 25 51 98 1 3 5.5 13.5T788 203l7 16q8 15 20 51 6 10 14 39-3-3-18-8-178-73-377-39-81 13-145 41-4-49 0-100zm252 1520q-15 24 4 42 15 10 77 62 13 11 42 35t41 34q12 9 30.5 4.5T762 1882q20-32-14-57-33-21-82-60-48-41-86-59-26-8-39 17z"/><glyph unicode="" horiz-adv-x="1265" d="M37 809q17 232 123 440 58 117 166 219 129 114 243 136 73 12 140-5 72-18 131-71 109-94 157-264 76-247 13-617-13-83-31-153 91 59 139 96 3 3 21 16l8 6q4 4 6 4 16 10 33 27 64 52 76 64 31 28 59 0 13-13 13.5-31t-13.5-31q-138-125-277-215-58-40-102-63-10-39-35-103-45-123-94-211-61-111-127-172-90-78-180-84-120-10-203 86-71 88-94 244-6 61-6 121l6 98q-23 15-41 35Q17 522 37 809zm93-135q14-117 69-195l2-2v-2h2q1-3 8-10 6-8 14-16 2 9 12 41 9 34 18 60 8 24 24 55 31 66 79 48 27-12 43-49 11-29-24-43-16-4-29 6l-2-4-2-6-2-4q-8-13-8-23-19-70-25-98-1-4-4-18.5t-4-18.5q236-115 547 21 2 2 10 6t10 6q31 93 52 217 66 345-5 580-19 72-49 127-82 154-224 160t-275-130q-13-14-48-51-1-1-5.5-6.5t-6.5-7.5q0-2-2-4l-2-2q-6-11-18-27-35-51-60-102-1-3-5-11.5t-5-11.5l-6-12v-2l-19-49q-83-209-60-422zm159-471q0-25 4-62l2-6v-2q0-1 1-7t1-7q6-16 6-29 7-37 16-59 0-2 5-17 2-2 2-4l12-24q12-23 16-27 3 0 4-4l2-4 2-2q1-1 3-4 1-1 5-6t8-9.5 7-5.5q0-3 4-4l4-2 4-4q12-9 27-14 2-2 4-2 6-3 10-4t8-3q9-4 17-4 2-2 8-2h2q18-4 37 0h8q2 2 8 2l21 7q4 4 8 4 2 0 2 2 2 1 9 3.5t9 4.5q12 8 21 12l6 6 2 2q29 25 68 70 0 2 2 2v2q2 1 8 10 0 1 3 5t6.5 9 4.5 7 4.5 7T711 56l14 22q14 25 51 98 1 3 5.5 13.5T788 203l7 16q8 15 20 51 6 10 14 39-3-3-18-8-178-73-377-39-81 13-145 41-4-49 0-100zm213 1544q-14 23 6 43 8 8 53 63 44 54 76 58 55 10 96-49 1-4 11.5-14.5T756 1833l6-2h2q2-2 8-2 15-2 24-19.5t5-33.5q-7-31-41-31-49 0-90 59-6 7-11 17l-2 2-4 4q-12 0-41-35-3-3-12.5-14t-16.5-18.5-17-16-17-10.5q-31-13-47 14z"/><glyph unicode="" horiz-adv-x="1265" d="M37 809q17 232 123 440 58 117 166 219 129 114 243 136 73 12 140-5 72-18 131-71 109-94 157-264 76-247 13-617-13-83-31-153 91 59 139 96 3 3 21 16l8 6q4 4 6 4 16 10 33 27 64 52 76 64 31 28 59 0 13-13 13.5-31t-13.5-31q-138-125-277-215-58-40-102-63-10-39-35-103-45-123-94-211-61-111-127-172-90-78-180-84-120-10-203 86-71 88-94 244-6 61-6 121l6 98q-23 15-41 35Q17 522 37 809zm93-135q14-117 69-195l2-2v-2h2q1-3 8-10 6-8 14-16 2 9 12 41 9 34 18 60 8 24 24 55 31 66 79 48 27-12 43-49 11-29-24-43-16-4-29 6l-2-4-2-6-2-4q-8-13-8-23-19-70-25-98-1-4-4-18.5t-4-18.5q236-115 547 21 2 2 10 6t10 6q31 93 52 217 66 345-5 580-19 72-49 127-82 154-224 160t-275-130q-13-14-48-51-1-1-5.5-6.5t-6.5-7.5q0-2-2-4l-2-2q-6-11-18-27-35-51-60-102-1-3-5-11.5t-5-11.5l-6-12v-2l-19-49q-83-209-60-422zm159-471q0-25 4-62l2-6v-2q0-1 1-7t1-7q6-16 6-29 7-37 16-59 0-2 5-17 2-2 2-4l12-24q12-23 16-27 3 0 4-4l2-4 2-2q1-1 3-4 1-1 5-6t8-9.5 7-5.5q0-3 4-4l4-2 4-4q12-9 27-14 2-2 4-2 6-3 10-4t8-3q9-4 17-4 2-2 8-2h2q18-4 37 0h8q2 2 8 2l21 7q4 4 8 4 2 0 2 2 2 1 9 3.5t9 4.5q12 8 21 12l6 6 2 2q29 25 68 70 0 2 2 2v2q2 1 8 10 0 1 3 5t6.5 9 4.5 7 4.5 7T711 56l14 22q14 25 51 98 1 3 5.5 13.5T788 203l7 16q8 15 20 51 6 10 14 39-3-3-18-8-178-73-377-39-81 13-145 41-4-49 0-100zm186 1573q27 70 86 82 35 6 78-15 49-32 68-10 1 3 4 6 7 12 22 19 20 13 43-4t19-39q-11-40-41-60-34-19-49-20-33-4-82 18-43 18-45 19l-3-3q-2 0-2-2l-4-2q-1-4-4-4-2-2-2-4-7-11-14-20-6-12-20.5-16.5T502 1722q-40 14-27 54zm88-13l2 2q-2 0-2-2z"/><glyph unicode="" horiz-adv-x="1265" d="M37 809q17 232 123 440 58 117 166 219 129 114 243 136 73 12 140-5 72-18 131-71 109-94 157-264 76-247 13-617-13-83-31-153 91 59 139 96 3 3 21 16l8 6q4 4 6 4 16 10 33 27 64 52 76 64 31 28 59 0 13-13 13.5-31t-13.5-31q-138-125-277-215-58-40-102-63-10-39-35-103-45-123-94-211-61-111-127-172-90-78-180-84-120-10-203 86-71 88-94 244-6 61-6 121l6 98q-23 15-41 35Q17 522 37 809zm93-135q14-117 69-195l2-2v-2h2q1-3 8-10 6-8 14-16 2 9 12 41 9 34 18 60 8 24 24 55 31 66 79 48 27-12 43-49 11-29-24-43-16-4-29 6l-2-4-2-6-2-4q-8-13-8-23-19-70-25-98-1-4-4-18.5t-4-18.5q236-115 547 21 2 2 10 6t10 6q31 93 52 217 66 345-5 580-19 72-49 127-82 154-224 160t-275-130q-13-14-48-51-1-1-5.5-6.5t-6.5-7.5q0-2-2-4l-2-2q-6-11-18-27-35-51-60-102-1-3-5-11.5t-5-11.5l-6-12v-2l-19-49q-83-209-60-422zm159-471q0-25 4-62l2-6v-2q0-1 1-7t1-7q6-16 6-29 7-37 16-59 0-2 5-17 2-2 2-4l12-24q12-23 16-27 3 0 4-4l2-4 2-2q1-1 3-4 1-1 5-6t8-9.5 7-5.5q0-3 4-4l4-2 4-4q12-9 27-14 2-2 4-2 6-3 10-4t8-3q9-4 17-4 2-2 8-2h2q18-4 37 0h8q2 2 8 2l21 7q4 4 8 4 2 0 2 2 2 1 9 3.5t9 4.5q12 8 21 12l6 6 2 2q29 25 68 70 0 2 2 2v2q2 1 8 10 0 1 3 5t6.5 9 4.5 7 4.5 7T711 56l14 22q14 25 51 98 1 3 5.5 13.5T788 203l7 16q8 15 20 51 6 10 14 39-3-3-18-8-178-73-377-39-81 13-145 41-4-49 0-100zm215 1573q11 41 45 47 20 2 41-15 28-20 5-53-23-34-58-29-44 6-33 50zm162-43q-33 33 0 69 33 39 65 10 9-8 17-20l-3 4q-2 2-2 4 5-11 7-22 0-31-30-49-29-19-54 4z"/><glyph unicode="" horiz-adv-x="1265" d="M37 809q17 232 123 440 58 117 166 219 129 114 243 136 73 12 140-5 45-12 84-36 8 24 41 110 13 31 40 31 24 0 37-21 20-34 4-57l-6-8-8-8-37-105q88-89 133-241 76-247 13-617-13-83-31-153 91 59 139 96l21 16 8 6q4 4 6 4l33 27q64 52 76 64 31 28 59 0 13-13 13.5-31t-13.5-31q-138-125-277-215-58-40-102-63-10-39-35-103-45-123-94-211-61-111-127-172-90-78-180-84-106-6-184 68l-7-33q-4-18-20-26.5t-35-4.5q-39 10-31 54 4 26 23 110-30 71-43 162-6 61-6 121l6 98q-23 14-41 35Q17 522 37 809zm93-135q14-117 69-195l2-2v-2h2l8-10 14-16q2 9 12 41 9 34 18 60 8 24 24 55 31 66 79 48 27-12 43-49 11-29-24-43-16-4-29 6l-2-4-2-6-2-4-8-23q-19-70-25-98l-8-37q26-17 70-30 18 53 194 544 53 151 131 381 1 3 4.5 12.5t10.5 29 13 37.5q27 77 36 104-83 55-189 32-107-24-204-123l-48-51-12-14q0-2-2-4l-2-2-18-27q-35-51-60-102l-10-23-6-12v-2l-19-49q-83-209-60-422zm159-471q0-25 4-62l2-6v-8l12 41q10 43 35 115-46 17-53 20-4-49 0-100zm57-232q6-10 8-12l6-8 5-6q1-1 5-6t8-9.5 7-5.5l8-6 4-4q12-9 27-14 2-2 4-2 6-3 10-4t8-3q9-4 17-4 2-2 8-2h2q18-4 37 0h8q2 2 8 2l21 7q4 4 8 4 2 0 2 2l18 8 21 12 8 8q29 25 68 70 0 2 2 2v2q2 1 8 10 0 1 3 5t6.5 9 4.5 7l29 45q14 25 51 98l12 27 5 12q2 2 2 4 8 15 20 51 6 10 14 39-3-3-18-8-178-73-377-39h-4q-50-152-84-291zm111 373q176-20 391 72l20 12q31 93 52 217 66 345-5 580-19 72-49 127l-37 57-26-76-131-385q-60-170-133-368-52-147-82-236z"/><glyph unicode="" horiz-adv-x="1087" d="M109 580q6 207 38 403 12 90 37 170 18 64 33 86 27 30 41 31 35 6 59-27 8-15 3.5-30.5T303 1188q-7-6-18-6l-2-2q0-12-7-17-10-29-22-92-2-6-12-57-45-201-45-539 0-60 4-151 6-64 8-78 0-16 4-39v-2q0-6 2-8 0-3 1-10.5t1-8.5q12-80 33-143 1-8 10-33 6-10 6-16 0-2 2-2v-2q68-162 203 20 31 42 49 80 106 183 205 450 7 21 50 132 40 103 56 149 21 60 23 66 27 194 59 331l5 20 9.5 34.5 6.5 23.5q7 41 14 68 26 93 70 131 20 16 42.5 10.5t31.5-29.5q27-68-13-186-7-31-22-75-5-14-23-64-19-69-59-189-2-8-16.5-48.5T942 856v-4l-12-98-12-197q-6-229-3-395 8-132 15-197 0-29 6-51 0-2 1-11.5t1-13.5l2-6v-8q7-60 16-98 18-90 29-123 1-4 6-17.5t6-17.5l2-4v-4l2-4q2-6 5-8l12-25h2v-2q5-5 8-6 14-13 13.5-32t-13.5-32q-28-28-63 0-32 28-58 99-21 63-28 112-30 137-43 312-16 164-13 395 4 80 4 133-56-154-102-260Q628 71 545-47 410-241 289-184q-30 13-60 55-29 36-53 104-46 114-59 299-12 121-8 306zm405 1026q4 18 19 27t30 1q7-1 23-16l4-4 4-4q17-17 35-27 6-6 32.5-24.5T692 1536q35-27 11-59-25-33-62-11-7 7-70 54-23 21-34 36-27 28-23 50z"/><glyph unicode="" horiz-adv-x="1087" d="M109 580q6 207 38 403 12 90 37 170 18 64 33 86 27 30 41 31 35 6 59-27 8-15 3.5-30.5T303 1188q-7-6-18-6l-2-2q0-12-7-17-10-29-22-92-2-6-12-57-45-201-45-539 0-60 4-151 6-64 8-78 0-16 4-39v-2q0-6 2-8 0-3 1-10.5t1-8.5q12-80 33-143 1-8 10-33 6-10 6-16 0-2 2-2v-2q68-162 203 20 31 42 49 80 106 183 205 450 7 21 50 132 40 103 56 149 21 60 23 66 27 194 59 331l5 20 9.5 34.5 6.5 23.5q7 41 14 68 26 93 70 131 20 16 42.5 10.5t31.5-29.5q27-68-13-186-7-31-22-75-5-14-23-64-19-69-59-189-2-8-16.5-48.5T942 856v-4l-12-98-12-197q-6-229-3-395 8-132 15-197 0-29 6-51 0-2 1-11.5t1-13.5l2-6v-8q7-60 16-98 18-90 29-123 1-4 6-17.5t6-17.5l2-4v-4l2-4q2-6 5-8l12-25h2v-2q5-5 8-6 14-13 13.5-32t-13.5-32q-28-28-63 0-32 28-58 99-21 63-28 112-30 137-43 312-16 164-13 395 4 80 4 133-56-154-102-260Q628 71 545-47 410-241 289-184q-30 13-60 55-29 36-53 104-46 114-59 299-12 121-8 306zm407 860q-14 24 4 43 15 10 77 62 13 11 42 35t41 34q12 9 30.5 4.5T737 1599q20-32-14-57-30-19-82-59-50-43-86-60-26-8-39 17z"/><glyph unicode="" horiz-adv-x="1087" d="M109 580q6 207 38 403 12 90 37 170 18 64 33 86 27 30 41 31 35 6 59-27 8-15 3.5-30.5T303 1188q-7-6-18-6l-2-2q0-12-7-17-10-29-22-92-2-6-12-57-45-201-45-539 0-60 4-151 6-64 8-78 0-16 4-39v-2q0-6 2-8 0-3 1-10.5t1-8.5q12-80 33-143 1-8 10-33 6-10 6-16 0-2 2-2v-2q68-162 203 20 31 42 49 80 106 183 205 450 7 21 50 132 40 103 56 149 21 60 23 66 27 194 59 331l5 20 9.5 34.5 6.5 23.5q7 41 14 68 26 93 70 131 20 16 42.5 10.5t31.5-29.5q27-68-13-186-7-31-22-75-5-14-23-64-19-69-59-189-2-8-16.5-48.5T942 856v-4l-12-98-12-197q-6-229-3-395 8-132 15-197 0-29 6-51 0-2 1-11.5t1-13.5l2-6v-8q7-60 16-98 18-90 29-123 1-4 6-17.5t6-17.5l2-4v-4l2-4q2-6 5-8l12-25h2v-2q5-5 8-6 14-13 13.5-32t-13.5-32q-28-28-63 0-32 28-58 99-21 63-28 112-30 137-43 312-16 164-13 395 4 80 4 133-56-154-102-260Q628 71 545-47 410-241 289-184q-30 13-60 55-29 36-53 104-46 114-59 299-12 121-8 306zm364 933q-14 23 6 43 6 6 26 31.5t27 32.5q44 53 76 57 54 10 97-49 1-2 10-13t12-16q1 0 3-1t3-1h2q2-2 8-2 15-2 24-18.5t5-34.5q-7-31-41-31-49 0-90 60-5 6-10 16l-2 2-4 4q-13 0-41-34-3-3-17-19t-26-27-21-14q-31-13-47 14z"/><glyph unicode="" horiz-adv-x="1087" d="M109 580q6 207 38 403 12 90 37 170 18 64 33 86 27 30 41 31 35 6 59-27 8-15 3.5-30.5T303 1188q-7-6-18-6l-2-2q0-12-7-17-10-29-22-92-2-6-12-57-45-201-45-539 0-60 4-151 6-64 8-78 0-16 4-39v-2q0-6 2-8 0-3 1-10.5t1-8.5q12-80 33-143 1-8 10-33 6-10 6-16 0-2 2-2v-2q68-162 203 20 31 42 49 80 106 183 205 450 7 21 50 132 40 103 56 149 21 60 23 66 27 194 59 331l5 20 9.5 34.5 6.5 23.5q7 41 14 68 26 93 70 131 20 16 42.5 10.5t31.5-29.5q27-68-13-186-7-31-22-75-5-14-23-64-19-69-59-189-2-8-16.5-48.5T942 856v-4l-12-98-12-197q-6-229-3-395 8-132 15-197 0-29 6-51 0-2 1-11.5t1-13.5l2-6v-8q7-60 16-98 18-90 29-123 1-4 6-17.5t6-17.5l2-4v-4l2-4q2-6 5-8l12-25h2v-2q5-5 8-6 14-13 13.5-32t-13.5-32q-28-28-63 0-32 28-58 99-21 63-28 112-30 137-43 312-16 164-13 395 4 80 4 133-56-154-102-260Q628 71 545-47 410-241 289-184q-30 13-60 55-29 36-53 104-46 114-59 299-12 121-8 306zm409 995q11 41 45 47 21 2 41-14 28-20 5-53-23-34-58-29-43 6-33 49zm162-43q-33 33 0 70 33 39 65 10 10-10 17-21l-2 4q-2 2-2 4 6-12 6-22 0-31-29-49-29-19-55 4z"/><glyph unicode="" d="M49 653q18 310 96 584 7 27 36 30 28 3 42-20 3-3 6-13t4-11q10-25-14-45-84-344-84-617 0-218 70-295 34-41 94-8t133 139q84 123 100 152 87 145 181 336 23 52 24 53 0 2 1 6t1 6q29 146 78 348 27 102 35 119 39 86 82 107 38 23 61-17 29-45 9-129-7-36-33-106-52-149-123-305l-25-56q-6-55-31-221-24-147-30-233l-25-209q-33-315-45-488-9-169-10-198v-72q0-2 1-11.5t1-13.5v-6l2-2q10-43-31-55-19-4-36 4.5T600-567q-8 34-8 67-2 37 4 170 7 95 18 230 13 156 48 479 8 69 18.5 159T694 653q-3-8-18-35-60-108-96-163-10-17-44-66-12-17-27-38t-17-25q-51-75-89-111-63-63-120-72-63-11-113 21-40 28-66 72-41 78-53 206-8 102-2 211zm375 804q-14 24 4 42 15 10 77 62 13 11 42 35t41 34q12 9 30.5 4.5T645 1616q20-32-14-57-33-21-82-60-48-41-86-59-26-8-39 17z"/><glyph unicode="" horiz-adv-x="698" d="M-92-154q1 27 10 154l25 307q27 241 59 406 47 237 96 358 29 70 70 148 45 76 82 110 61 61 127 47 54-11 67-63 10-36-2-94-6-35-26-93-17-44-76-168 0-2-39-76-43-83-53-106-38-80 39-90 10 0 42-4 40-5 47-6 2 0 16.5-2.5T419 669q26-4 45-10 15-7 40-15 6-2 12-4.5t10.5-5 9.5-6 7.5-5 8-6 7-6.5 7.5-7.5 8-7.5q29-27 42-82 23-92-30-229-66-155-207-310-60-69-111-112-77-73-153-80-17-2-39 20v4q-2 0-2 3-10 10-13 14-10 16-5 33.5T78-115q31 16 55-8 4 0 4 2h2q57 33 97 74l39 39q17 17 48 53 38 44 40 47l3 6q3 3 4 5 7 9 7 10l8 8v2q0-2 2 0 79 102 122 211 29 69 27 123-1 57-52 95t-148 42q-117 0-162 45-44 49-22 131 13 50 53 125 41 73 69 135 104 188 84 260h-2q-48 0-106-108-73-120-119-303Q36 514-2-92q-6-50-6-101 0-7 1-26.5t1-24.5q2-2 2-10 12-19 2-35-8-23-29-28-35-8-45 20-4 4-4 8v2q-5 11-10 60-2 34-2 73zm90-112q1-13 0-23 5 12 0 23z"/><glyph unicode="" horiz-adv-x="655" d="M-47 389q-2 37 2 88 12 87 51 185 52 126 121 178 40 29 84 22 47-2 94-53 27-23 0-47-15-17-39-6-7 3-22.5 14T227 782h-2l-4 2q-44 14-87-55-45-74-64-145-14-40-23-88 0-14-4-21 0-1-1-17.5T41 432q-4-79 20.5-93t81.5 48q92 118 191 326 20 39 47 99 29 63 59 122 26 51 45 78 20 28 54 8 17-10 22-39 2-35-16-123-53-290-72-614-8-164-6-244 0-138 14-174 6-16-3-32.5T453-227q-24-8-41 11.5T389-155q-10 66-10 114-1 61 0 123 0 63 8 225 7 125 29 293 4 43 16 113l-22-45q-76-159-168-295-46-73-97-107-33-24-67-26-39-1-76 24-42 32-49 125zm250 821q4 18 19 27.5t30 1.5q7-1 22-16 2-1 5-4l4-5q19-19 34-26 6-6 33-24.5t31-22.5q35-27 11-59-25-33-62-11-9 9-70 53-23 21-35 37-27 27-22 49z"/><glyph unicode="" horiz-adv-x="655" d="M-47 389q-2 37 2 88 12 87 51 185 52 126 121 178 40 29 84 22 47-2 94-53 27-23 0-47-15-17-39-6-7 3-22.5 14T227 782h-2l-4 2q-44 14-87-55-45-74-64-145-14-40-23-88 0-14-4-21 0-1-1-17.5T41 432q-4-79 20.5-93t81.5 48q92 118 191 326 20 39 47 99 29 63 59 122 26 51 45 78 20 28 54 8 17-10 22-39 2-35-16-123-53-290-72-614-8-164-6-244 0-138 14-174 6-16-3-32.5T453-227q-24-8-41 11.5T389-155q-10 66-10 114-1 61 0 123 0 63 8 225 7 125 29 293 4 43 16 113l-22-45q-76-159-168-295-46-73-97-107-33-24-67-26-39-1-76 24-42 32-49 125zm260 674q-14 24 4 43 15 10 77 62 13 11 42 35t41 34q12 9 30.5 4.5T434 1223q20-32-14-58-30-19-82-59-48-41-86-59-26-8-39 16z"/><glyph unicode="" horiz-adv-x="655" d="M-47 389q-2 37 2 88 12 87 51 185 52 126 121 178 40 29 84 22 47-2 94-53 27-23 0-47-15-17-39-6-7 3-22.5 14T227 782h-2l-4 2q-44 14-87-55-45-74-64-145-14-40-23-88 0-14-4-21 0-1-1-17.5T41 432q-4-79 20.5-93t81.5 48q92 118 191 326 20 39 47 99 29 63 59 122 26 51 45 78 20 28 54 8 17-10 22-39 2-35-16-123-53-290-72-614-8-164-6-244 0-138 14-174 6-16-3-32.5T453-227q-24-8-41 11.5T389-155q-10 66-10 114-1 61 0 123 0 63 8 225 7 125 29 293 4 43 16 113l-22-45q-76-159-168-295-46-73-97-107-33-24-67-26-39-1-76 24-42 32-49 125zm190 674q-14 23 7 43 4 5 26.5 31.5T203 1169q44 54 76 58 55 10 96-49 2-4 10.5-14.5T397 1149l2-2h7q2-2 8-2 15-2 23.5-19.5t4.5-33.5q-7-31-41-31-49 0-90 59-9 9-10 17l-2 2-4 4q-12 0-41-35-3-3-17-19t-25.5-26.5T190 1049q-31-13-47 14z"/><glyph unicode="" horiz-adv-x="655" d="M-47 389q-2 37 2 88 12 87 51 185 52 126 121 178 40 29 84 22 47-2 94-53 27-23 0-47-15-17-39-6-7 3-22.5 14T227 782h-2l-4 2q-44 14-87-55-45-74-64-145-14-40-23-88 0-14-4-21 0-1-1-17.5T41 432q-4-79 20.5-93t81.5 48q92 118 191 326 20 39 47 99 29 63 59 122 26 51 45 78 20 28 54 8 17-10 22-39 2-35-16-123-53-290-72-614-8-164-6-244 0-138 14-174 6-16-3-32.5T453-227q-24-8-41 11.5T389-155q-10 66-10 114-1 61 0 123 0 63 8 225 7 125 29 293 4 43 16 113l-22-45q-76-159-168-295-46-73-97-107-33-24-67-26-39-1-76 24-42 32-49 125zm203 705q27 70 86 82 35 6 77-15 49-32 68-10 1 3 4 6 8 12 23 19 20 13 43-4 23-16 18-39-11-40-41-60-34-19-49-20-33-4-82 18-43 18-45 19l-2-3q-2 0-2-2l-4-2q-6-6-6-8-8-13-15-20-6-12-20-16.5t-27 1.5q-41 14-26 54zm88-13l2 2q-2 0-2-2z"/><glyph unicode="" horiz-adv-x="655" d="M-47 389q-2 37 2 88 12 87 51 185 52 126 121 178 40 29 84 22 47-2 94-53 27-23 0-47-15-17-39-6-7 3-22.5 14T227 782h-2l-4 2q-44 14-87-55-45-74-64-145-14-40-23-88 0-14-4-21 0-1-1-17.5T41 432q-4-79 20.5-93t81.5 48q92 118 191 326 20 39 47 99 29 63 59 122 26 51 45 78 20 28 54 8 17-10 22-39 2-35-16-123-53-290-72-614-8-164-6-244 0-138 14-174 6-16-3-32.5T453-227q-24-8-41 11.5T389-155q-10 66-10 114-1 61 0 123 0 63 8 225 7 125 29 293 4 43 16 113l-22-45q-76-159-168-295-46-73-97-107-33-24-67-26-39-1-76 24-42 32-49 125zm264 811q11 41 45 47 21 2 41-14 28-20 5-53-23-34-58-29-43 6-33 49zm162-43q-33 33 0 70 33 39 65 10 9-8 17-20l-2 4q-2 2-2 4 6-12 6-23 0-31-30-49t-54 4z"/><glyph unicode="" horiz-adv-x="655" d="M-47 389q-2 37 2 88 12 87 51 185 52 126 121 178 40 29 84 22 47-2 94-53 27-23 0-47-15-17-39-6-7 3-22.5 14T227 782h-2l-4 2q-44 14-87-55-45-74-64-145-14-40-23-88 0-14-4-21 0-1-1-17.5T41 432q-4-79 20.5-93t81.5 48q92 118 191 326 20 39 47 99 29 63 59 122 26 51 45 78 20 28 54 8 17-10 22-39 2-35-16-123-53-290-72-614-8-164-6-244 0-138 14-174 6-16-3-32.5T453-227q-24-8-41 11.5T389-155q-10 66-10 114-1 61 0 123 0 63 8 225 7 125 29 293 4 43 16 113l-22-45q-76-159-168-295-46-73-97-107-33-24-67-26-39-1-76 24-42 32-49 125zm301 754q10 21 20 35-10 27 9 45 33 33 71 30 33-2 58.5-24.5T444 1174q14-85-53-123-42-25-82-17-35 6-49 41-17 33-6 68zm74-29q14 0 24 11t10 26q-2 2-2 6l-2 2-2 2q0 1-1 2t-1 2h-4q0-7-8-20t-12-17v-2l-2-4v-8z"/><glyph unicode="" horiz-adv-x="1038" d="M-47 389q-2 37 2 88 12 87 51 185 52 126 121 178 40 29 84 22 47-2 94-53 27-23 0-47-15-17-39-6-7 3-22.5 14T227 782h-2l-4 2q-44 14-87-55-45-74-64-145-14-40-23-88l-4-21q0-1-1-17.5T41 432q-4-79 20.5-93t81.5 48q92 118 191 326 20 39 47 99 29 63 59 122 26 51 45 78 20 29 54 8 17-10 22-39 0-45-8-82l10 14q53 74 107 113 78 57 145 45 37-8 61.5-36.5T905 969q10-67-31-160-34-78-83-139-56-73-113-95-80-38-158-18-6 2-10 2-7-12-14-39-6-54-15-139 5-103 37-175 33-73 98-73 61 0 127 66 159 159 295 456 6 16 26 21.5t34-4.5q26-23 6-64-77-169-131-256-77-120-131-180-78-87-154-115-94-37-164 21-30 21-57 55-5-68 0-133 0-138 14-174 6-16-3-32.5T453-227q-24-8-41 11.5T389-155q-10 66-10 114-1 61 0 123 0 63 8 225 7 125 29 293l16 113-22-45q-76-159-168-295-46-73-97-107-33-24-67-26-39-1-76 24-42 32-49 125zm582 250h4q6-2 10-2 102 0 143 41 114 117 127 242 6 55-21 65t-53-10q-44-25-88-84-52-66-108-209-7-15-14-43z"/><glyph unicode="" horiz-adv-x="737" d="M-74 307q5 108 31 205 13 63 43 131 46 118 92 184 77 113 150 113 50 0 84-45 36-42 43-164 2-15-12.5-29T326 688q-41 0-45 43 0 84-23 107-13 15-31.5 7T190 813q-52-71-90-158-1-3-4.5-12.5T90 631q-4-7-4-10Q6 437 17 262q6-105 59-160 67-76 200 7 37 21 76 60 9 9 24.5 24t26.5 26.5 20 20.5q32 32 69 79 13 16 32.5 40.5T550 392q22 27 48 64t31 42q6 8 23 34t28 43q28 42 53 78 23 29 51 13 31-16 13-50-14-30-37-69-84-148-209-295Q451 131 342 53 239-21 143-12 79-7 37 20-7 52-33 98q-45 86-41 209zM41-410q4 17 20 26t33 5q28-6 33-35h10q33 0 90 33 56 33 31 66-2 7-34.5 8.5t-74.5 4T88-291q-24 12-20 37 0 49 30 100 33 54 58 76 26 18 45 6 27-13 16-43-5-11-45-78 0-1-4-8t-4-10q0-1-1-2t-1-2v-2q4 0 20.5 1t22.5 1q68 4 108-31 33-27 39-70.5T334-393q-50-78-162-105-58-12-86-2-34 17-41 35-12 28-4 55z"/><glyph unicode="" horiz-adv-x="591" d="M-59 332q-14 128 32 280 0 7-4 11-8 35 23 45 45 145 112 245 53 74 107 113 78 57 145 45 37-8 61.5-36.5T446 969q11-68-30-160-32-76-84-139-56-73-113-95-80-38-158-18-6 2-10 2-27-46-30-148-3-100 32-190 34-88 105-88 61 0 127 66 159 159 295 456 6 16 25.5 21.5T639 672q26-23 6-64-77-169-131-256-77-120-131-180-78-87-154-115-94-37-163 21-112 83-125 254zM76 639h4q6-2 10-2 102 0 143 41 114 117 127 242 6 55-21 65t-52-10q-44-25-88-84-54-68-109-209-7-15-14-43zm123 666q4 19 18 27.5t31 .5q8-1 22-16l4-4 5-4q19-19 34-27 6-6 33-24.5t31-22.5q35-28 10-59-26-33-61-11-7 7-70 54-22 20-35 36-27 27-22 50z"/><glyph unicode="" horiz-adv-x="591" d="M-59 332q-14 128 32 280 0 7-4 11-8 35 23 45 45 145 112 245 53 74 107 113 78 57 145 45 37-8 61.5-36.5T446 969q11-68-30-160-32-76-84-139-56-73-113-95-80-38-158-18-6 2-10 2-27-46-30-148-3-100 32-190 34-88 105-88 61 0 127 66 159 159 295 456 6 16 25.5 21.5T639 672q26-23 6-64-77-169-131-256-77-120-131-180-78-87-154-115-94-37-163 21-112 83-125 254zM76 639h4q6-2 10-2 102 0 143 41 114 117 127 242 6 55-21 65t-52-10q-44-25-88-84-54-68-109-209-7-15-14-43zm131 572q-14 24 4 42 15 10 77 62 13 11 42 35t41 34q12 9 30.5 4.5T428 1370q20-32-14-57-33-21-82-60-48-41-86-59-26-8-39 17z"/><glyph unicode="" horiz-adv-x="591" d="M-59 332q-14 128 32 280 0 7-4 11-8 35 23 45 45 145 112 245 53 74 107 113 78 57 145 45 37-8 61.5-36.5T446 969q11-68-30-160-32-76-84-139-56-73-113-95-80-38-158-18-6 2-10 2-27-46-30-148-3-100 32-190 34-88 105-88 61 0 127 66 159 159 295 456 6 16 25.5 21.5T639 672q26-23 6-64-77-169-131-256-77-120-131-180-78-87-154-115-94-37-163 21-112 83-125 254zM76 639h4q6-2 10-2 102 0 143 41 114 117 127 242 6 55-21 65t-52-10q-44-25-88-84-54-68-109-209-7-15-14-43zm67 502q-14 23 7 43 4 5 26.5 31.5T203 1247q44 54 76 58 55 10 96-50 20-32 28-30h3q2-2 8-2 15-2 23.5-19t4.5-35q-8-32-41-30-49 0-90 59-4 4-8 11t-8 9.5-10 .5q-24-24-31-33-3-3-17-18.5t-25.5-26.5-21.5-15q-31-13-47 15z"/><glyph unicode="" horiz-adv-x="591" d="M-59 332q-14 128 32 280 0 7-4 11-8 35 23 45 45 145 112 245 53 74 107 113 78 57 145 45 37-8 61.5-36.5T446 969q11-68-30-160-32-76-84-139-56-73-113-95-80-38-158-18-6 2-10 2-27-46-30-148-3-100 32-190 34-88 105-88 61 0 127 66 159 159 295 456 6 16 25.5 21.5T639 672q26-23 6-64-77-169-131-256-77-120-131-180-78-87-154-115-94-37-163 21-112 83-125 254zM76 639h4q6-2 10-2 102 0 143 41 114 117 127 242 6 55-21 65t-52-10q-44-25-88-84-54-68-109-209-7-15-14-43zm131 586q11 41 45 47 20 2 41-15 28-20 5-52-23-34-58-29-43 6-33 49zm162-43q-33 33 0 69 33 40 65 11 10-10 17-21l-2 4-2 2-1 2q5-11 7-22 0-31-30-49-29-19-54 4z"/><glyph unicode="" horiz-adv-x="239" d="M-35 1057q4 19 19 28t30 0q7-1 23-16l4-4 4-4q17-17 35-27 6-6 32.5-24.5T143 987q35-27 11-59-25-32-62-10-8 8-69 53-23 21-35 37-27 27-23 49zm6-920q0 54 4 207 0 11 1.5 27t3 39.5T-18 452q7 82 8 107Q0 666 0 698q5 35 33 41 35 12 49-20 4-4 8-17 4-17-2-28 0-4-4.5-68.5T75 494q-9-118-12-179-4-141-2-198 0-25 5-35v-8q0-5 3-12.5T72 51q18-18 12-41-6-18-18-24-7-4-9-4-14-2-28 0-1 2-6 2t-7 2v2q-3 1-8 6-2 0-2 2-19 17-26 57-4 31-9 84zM72 49q2 0 0 2v-2z"/><glyph unicode="" horiz-adv-x="239" d="M-43 898q-14 24 4 42 15 10 77 62 13 11 42 35t41 34q12 9 30.5 4.5T178 1057q20-32-14-58-30-19-82-59-48-41-86-59-26-8-39 17zm14-761q0 54 4 207 0 11 1.5 27t3 39.5T-18 452q7 82 8 107Q0 666 0 698q5 35 33 41 35 12 49-20 4-4 8-17 4-17-2-28 0-4-4.5-68.5T75 494q-9-118-12-179-4-141-2-198 0-25 5-35v-8q0-5 3-12.5T72 51q18-18 12-41-6-18-18-24-7-4-9-4-14-2-28 0-1 2-6 2t-7 2v2q-3 1-8 6-2 0-2 2-19 17-26 57-4 31-9 84zM72 49q2 0 0 2v-2z"/><glyph unicode="" horiz-adv-x="239" d="M-84 903q-14 23 6 43t53 64q44 53 76 57 55 10 96-49 19-31 29-31h2q2-2 8-2 15-2 24-19.5t5-33.5q-7-31-41-31-50 0-90 60-3 3-8 10.5t-9 9.5-10 0q-19-19-30-33-3-3-17-19t-26-26.5-21-13.5q-31-13-47 14zm55-766q0 54 4 207 0 11 1.5 27t3 39.5T-18 452q7 82 8 107Q0 666 0 698q5 35 33 41 35 12 49-20 4-4 8-17 4-17-2-28 0-4-4.5-68.5T75 494q-9-118-12-179-4-141-2-198 0-25 5-35v-8q0-5 3-12.5T72 51q18-18 12-41-6-18-18-24-7-4-9-4-14-2-28 0-1 2-6 2t-7 2v2q-3 1-8 6-2 0-2 2-19 17-26 57-4 31-9 84zM72 49q2 0 0 2v-2z"/><glyph unicode="" horiz-adv-x="237" d="M-55 956q11 40 45 48 20 2 41-15 27-19 4-53t-58-29q-42 6-32 49zm26-819q0 54 4 207 0 11 1.5 27t3 39.5T-18 452q7 82 8 107Q0 666 0 698q5 35 33 41 35 12 49-20 4-4 8-17 4-17-2-28 0-4-4.5-68.5T75 494q-9-118-12-179-4-141-2-198 0-25 5-35v-8q0-5 3-12.5T72 51q18-18 12-41-6-18-18-24-7-4-9-4-14-2-28 0-1 2-6 2t-7 2v2q-3 1-8 6-2 0-2 2-19 17-26 57-4 31-9 84zM72 49q2 0 0 2v-2zm34 864q-33 33 0 70 33 39 66 10 9-9 16-20l-2 4q-2 2-2 4 6-12 6-23 0-31-29-49-30-18-55 4z"/><glyph unicode="" horiz-adv-x="768" d="M-41 268q0 39 1 70 2 48 3 70 7 132 17 208 7 56 14 80 14 47 43 58 15 6 31-3.5T88 725q8-23-10-41-17-76-19-147-3-24-8-131 36 84 78 176 62 128 100 184 63 94 117 123 45 19 82 12 55-10 82-80 18-47 27-129 0-2 1-11.5t1-12.5q4-23 4-35l18-154q26-249 55-413 18-106 43-168 0-3 7-17t12-22q39-5 39-43 0-20-13-32.5T672-229q-27 0-50 20t-34 46q-10 24-21 54-24 75-41 179-19 109-32 227-10 77-20 172-13 111-21 172v4q-15 166-55 165-6 0-13-4-26-15-50.5-45T272 668q-49-91-172-373-46-113-57-129-14-33-49-21-28 7-33 43-2 36-2 80zm205 793q27 70 86 82 34 6 78-15 49-33 67-10 1 3 4 6 8 12 23 19 20 13 43-4t18-39q-11-40-41-60-34-19-49-20-33-4-82 18-43 18-45 19l-2-2q-2 0-2-2l-4-2q-6-6-6-9-7-11-14-20-6-12-20.5-16.5T190 1008q-41 14-26 53zm88-12l2 2q-2 0-2-2z"/><glyph unicode="" horiz-adv-x="528" d="M-63 500q11 87 32 164 6 13 13 20-2-2-2.5-2t.5 2q2 3 6 8 14 14 39 10 2 0 2-2h2q39 78 100 88 52 10 92-14 37-22 64-63 36-51 47-144 4 0 6 2 17 10 45 21 63 31 135 74 39 18 60-17 10-14 5-32.5T561 588q-128-75-229-117-6-83-35-164-32-79-70-123-52-61-110-69-44-6-82 14-27 17-51 51-32 56-43 127-16 88-4 193zm83-4Q-4 238 82 205q57-23 103 59t55 166v10q-38-18-96-14-60 5-97 37-11 7-27 33zm50 530q4 19 18 28t31 1q8-2 22-17l4-4 5-4q19-19 34-26 6-6 33-25t31-23q35-28 10-59-25-32-61-10-9 9-70 53-23 21-35 37-26 27-22 49zm20-414q-8-35 6-71 34-47 150-9 0 15-10 74-31 90-89 78-47-10-57-72z"/><glyph unicode="" horiz-adv-x="528" d="M-63 500q11 87 32 164 6 13 13 20-2-2-2.5-2t.5 2q2 3 6 8 14 14 39 10 2 0 2-2h2q39 78 100 88 52 10 92-14 37-22 64-63 36-51 47-144 4 0 6 2 17 10 45 21 63 31 135 74 39 18 60-17 10-14 5-32.5T561 588q-128-75-229-117-6-83-35-164-32-79-70-123-52-61-110-69-44-6-82 14-27 17-51 51-32 56-43 127-16 88-4 193zm83-4Q-4 238 82 205q57-23 103 59t55 166v10q-38-18-96-14-60 5-97 37-11 7-27 33zm39 391q-14 24 4 43 15 10 77 62 13 11 42 35t41 34q12 8 30.5 4t27.5-18q19-31-15-58-30-19-82-59-50-43-86-60-26-8-39 17zm31-275q-8-35 6-71 34-47 150-9 0 15-10 74-31 90-89 78-47-10-57-72z"/><glyph unicode="" horiz-adv-x="528" d="M-63 500q11 87 32 164 6 13 13 20-2-2-2.5-2t.5 2q2 3 6 8 14 14 39 10 2 0 2-2h2q39 78 100 88 52 10 92-14 37-22 64-63 36-51 47-144 4 0 6 2 17 10 45 21 63 31 135 74 39 18 60-17 10-14 5-32.5T561 588q-128-75-229-117-6-83-35-164-32-79-70-123-52-61-110-69-44-6-82 14-27 17-51 51-32 56-43 127-16 88-4 193zm75 385q-14 23 6 43 6 6 28.5 32.5T72 991q44 54 75 58 55 10 97-50 20-32 28-30h2q2-2 9-2 15-2 23.5-19t4.5-35q-8-32-41-30-49 0-90 59-4 4-8 11t-8 9.5-10 .5q-24-24-31-33-3-3-17-18.5T80.5 885 59 870q-31-13-47 15zm8-389Q-4 238 82 205q57-23 103 59t55 166v10q-38-18-96-14-60 5-97 37-11 7-27 33zm70 116q-8-35 6-71 34-47 150-9 0 15-10 74-31 90-89 78-47-10-57-72z"/><glyph unicode="" horiz-adv-x="528" d="M-63 500q11 87 32 164 6 13 13 20-2-2-2.5-2t.5 2q2 3 6 8 14 14 39 10 2 0 2-2h2q39 78 100 88 52 10 92-14 37-22 64-63 36-51 47-144 4 0 6 2 17 10 45 21 63 31 135 74 39 18 60-17 10-14 5-32.5T561 588q-128-75-229-117-6-83-35-164-32-79-70-123-52-61-110-69-44-6-82 14-27 17-51 51-32 56-43 127-16 88-4 193zm75 424q27 70 86 82 34 6 78-15 49-32 68-10 1 3 4 6 7 12 22 19 20 13 43-4t19-39q-11-40-41-60-34-19-49-20-33-4-82 18-43 18-45 19l-2-2q-2 0-2-3l-5-2q-1-4-4-4-2-2-2-4-7-11-14-20-6-12-20.5-16.5T39 870q-41 14-27 54zm8-428Q-4 238 82 205q57-23 103 59t55 166v10q-38-18-96-14-60 5-97 37-11 7-27 33zm70 116q-8-35 6-71 34-47 150-9 0 15-10 74-31 90-89 78-47-10-57-72zm10 299l2 2q-2 0-2-2z"/><glyph unicode="" horiz-adv-x="528" d="M-63 500q11 87 32 164 6 13 13 20-2-2-2.5-2t.5 2q2 3 6 8 14 14 39 10 2 0 2-2h2q39 78 100 88 52 10 92-14 37-22 64-63 36-51 47-144 4 0 6 2 17 10 45 21 63 31 135 74 39 18 60-17 10-14 5-32.5T561 588q-128-75-229-117-6-83-35-164-32-79-70-123-52-61-110-69-44-6-82 14-27 17-51 51-32 56-43 127-16 88-4 193zm83-4Q-4 238 82 205q57-23 103 59t55 166v10q-38-18-96-14-60 5-97 37-11 7-27 33zm29 440q11 41 45 47 21 2 41-14 28-20 5-53-23-34-58-29-43 6-33 49zm41-324q-8-35 6-71 34-47 150-9 0 15-10 74-31 90-89 78-47-10-57-72zm121 281q-33 33 0 70 33 39 65 10 10-10 17-21l-2 4q-2 2-2 5 6-12 6-23 0-31-29-49-29-19-55 4z"/><glyph unicode="" horiz-adv-x="528" d="M-63 500q11 87 32 164 1 1 5 7.5t6 8.5q6 8 6 12 14 14 39 10 2 0 2-2h2q39 78 100 88 52 10 92-14 10-6 12-8 0 4 3 6 18 31 47 25 15-2 25.5-12.5T319 760q2-6 3-19-5-19-15-26l-10-25q23-45 35-123 4 0 6 2 17 10 45 21 63 31 135 74 39 18 60-17 10-14 5-32.5T561 588q-128-75-229-117-6-83-35-164-32-79-70-123-52-61-110-69-32-6-64 4 0-1-6-15-19-14-27-14-4 0-10-2-20 8-26 12-11 11-11 13l-4 6v4q-10 18-2 63l4 17q-19 46-30 104-16 88-4 193zm79-172l56 116q-4 4-13 10t-12 9q-11 7-27 33-10-92-4-168zm52-115q2-2 7-4.5l7-3.5q57-23 103 59t55 166v10q-36-16-80-16l-15-29q-10-19-35-78-31-70-42-104zm28 328q8-13 15-17l61 123q0 1 2 4.5l6 10.5 8 14q-45 29-81-20-36-50-11-115zm115-21l35 12q0 22-6 48z"/><glyph unicode="" horiz-adv-x="673" d="M-41 258q6 130 6 133 10 100 10 101 12 156 39 249 6 31 39 31 24 0 35-20 6-10 6-17 2-3 2.5-17t1.5-18q0-16-14-24-30-123-37-369 0-112 10-133 13-38 45-6 59 77 213 397 20 42 47 98.5t33 69.5q44 99 86 148 17 18 42 11 26-8 32-30 10-34 8-65 0-14-4-37 0-3-3-25t-5-42q-7-62-8-85-1-25-10-129-10-93-11-129-14-231-6-405 1-35 10-162 0-5 2-26.5t2-28.5v-7q13-5 17-14 11-14 6-35 0-18-6-34-2-14-15-23.5t-28-9.5q-27 0-37 22-16 30-25 97-6 40-6 86-11 122-12 241 0 204 18 406 7 98 17 200v7q-11-23-31.5-65T401 543q-5-11-23.5-48.5T346 430q-45-91-59-123-62-136-117-194-45-49-96-52-36 0-56 17-31 19-43 57-16 38-16 123zm199 805q4 19 18 28t31 1q8-2 22-17l4-4 5-4q19-19 34-27 6-6 33-24.5t31-22.5q35-27 11-59-25-32-62-10-9 9-70 53-23 21-35 37-26 26-22 49z"/><glyph unicode="" horiz-adv-x="673" d="M-41 258q6 130 6 133 10 100 10 101 12 156 39 249 6 31 39 31 24 0 35-20 6-10 6-17 2-3 2.5-17t1.5-18q0-16-14-24-30-123-37-369 0-112 10-133 13-38 45-6 59 77 213 397 20 42 47 98.5t33 69.5q44 99 86 148 17 18 42 11 26-8 32-30 10-34 8-65 0-14-4-37 0-3-3-25t-5-42q-7-62-8-85-1-25-10-129-10-93-11-129-14-231-6-405 1-35 10-162 0-5 2-26.5t2-28.5v-7q13-5 17-14 11-14 6-35 0-18-6-34-2-14-15-23.5t-28-9.5q-27 0-37 22-16 30-25 97-6 40-6 86-11 122-12 241 0 204 18 406 7 98 17 200v7q-11-23-31.5-65T401 543q-5-11-23.5-48.5T346 430q-45-91-59-123-62-136-117-194-45-49-96-52-36 0-56 17-31 19-43 57-16 38-16 123zm188 656q-14 25 5 42 15 10 77 62 60 51 82 69 12 8 30.5 4t27.5-18q19-31-15-57-33-21-82-60-48-41-86-59-26-8-39 17z"/><glyph unicode="" horiz-adv-x="673" d="M-41 258q6 130 6 133 10 100 10 101 12 156 39 249 6 31 39 31 24 0 35-20 6-10 6-17 2-3 2.5-17t1.5-18q0-16-14-24-30-123-37-369 0-112 10-133 13-38 45-6 59 77 213 397 20 42 47 98.5t33 69.5q44 99 86 148 17 18 42 11 26-8 32-30 10-34 8-65 0-14-4-37 0-3-3-25t-5-42q-7-62-8-85-1-25-10-129-10-93-11-129-14-231-6-405 1-35 10-162 0-5 2-26.5t2-28.5v-7q13-5 17-14 11-14 6-35 0-18-6-34-2-14-15-23.5t-28-9.5q-27 0-37 22-16 30-25 97-6 40-6 86-11 122-12 241 0 204 18 406 7 98 17 200v7q-11-23-31.5-65T401 543q-5-11-23.5-48.5T346 430q-45-91-59-123-62-136-117-194-45-49-96-52-36 0-56 17-31 19-43 57-16 38-16 123zm143 682q-14 23 7 43 20 20 53 64 44 53 76 57 55 10 96-49 19-31 28-31h3q2-2 8-2 16-2 24.5-19.5T401 969q-7-31-41-31-49 0-90 59-4 4-8 11t-8 9.5-10 .5q-24-24-31-33-3-3-17-19t-25.5-26.5T150 926q-32-14-48 14z"/><glyph unicode="" horiz-adv-x="673" d="M-41 258q6 130 6 133 10 100 10 101 12 156 39 249 6 31 39 31 24 0 35-20 6-10 6-17 2-3 2.5-17t1.5-18q0-16-14-24-30-123-37-369 0-112 10-133 13-38 45-6 59 77 213 397 20 42 47 98.5t33 69.5q44 99 86 148 17 18 42 11 26-8 32-30 10-34 8-65 0-14-4-37 0-3-3-25t-5-42q-7-62-8-85-1-25-10-129-10-93-11-129-14-231-6-405 1-35 10-162 0-5 2-26.5t2-28.5v-7q13-5 17-14 11-14 6-35 0-18-6-34-2-14-15-23.5t-28-9.5q-27 0-37 22-16 30-25 97-6 40-6 86-11 122-12 241 0 204 18 406 7 98 17 200v7q-11-23-31.5-65T401 543q-5-11-23.5-48.5T346 430q-45-91-59-123-62-136-117-194-45-49-96-52-36 0-56 17-31 19-43 57-16 38-16 123zm203 789q11 41 45 47 20 2 41-15 28-20 5-53-23-34-58-29-44 6-33 50zm162-43q-33 33 0 69 33 39 65 10 9-8 17-20l-3 4q-2 2-2 4 5-11 7-22 0-31-30-49-29-19-54 4z"/><glyph unicode="" horiz-adv-x="1036" d="M-19 523q2 135 19 192 4 10 4 11l-4-7q0 1 1 3.5t1 4.5q0 5 4 12 4 23 27.5 29T74 758q13-17 14-29 2-6 2-14v-2q6-26-10-39-2-8-2-17-9-87-10-104-4-55 0-115 0-143 51-137t102 127q4 7 6 14l66 156q35 82 86 211 45 119 113 238 44 69 61 86 55 55 102 24 48-32 50-125 2-30-5-121-13-191-47-419-4-40-28-203 0-3-1-11.5t-1-9.5q104 122 217 224 68 62 116 98 21 15 113 84 14 8 31.5 3t25.5-20q20-35-14-57l-2-2q-4 0-92-72-71-59-113-96Q736 275 598 92v-8q-8-24-8-53l-6-49q-1-6-7.5-49.5T569-123q-17-118-30-205-62-420-113-569-22-70-53-102-19-24-45-31-7-4-27-4-25 0-47 22-42 40-49 129-10 94 22 293 18 96 49 191 52 164 152 374 34 66 86 152 41 251 68 483 7 68 12 103 9 108 16 207 0 14 3 58.5t3 57.5v17l-2 2v12q-5-5-6-8-4 0-4-4l-4-4q-23-37-57-97-33-66-58-120-99-248-204-482-22-45-64-92-40-46-80-51-59-11-98 33-31 34-45 88-14 63-13 193zm156 608q-14 24 4 43 15 10 77 62 13 11 42 35t41 34q12 9 30.5 4.5T358 1290q20-32-14-57-30-19-82-59-50-43-86-60-26-8-39 17zM293-885v-6l2-2q0-2 1-7.5t1-6.5q1-7 6-21 0-4 6-10 2 2 2 4 17 28 36 88 18 59 27 107 20 106 25 128 4 21 8.5 45.5t7 37.5 3.5 20q21 112 35 205 5 30 26 178-50-97-117-295-82-284-69-465z"/><glyph unicode="" horiz-adv-x="1036" d="M-19 523q2 135 19 192 4 10 4 11l-4-7q0 1 1 3.5t1 4.5q0 5 4 12 4 23 27.5 29T74 758q13-17 14-29 2-6 2-14v-2q6-26-10-39-2-8-2-17-9-87-10-104-4-55 0-115 0-143 51-137t102 127q4 7 6 14l66 156q35 82 86 211 45 119 113 238 44 69 61 86 55 55 102 24 48-32 50-125 2-30-5-121-13-191-47-419-4-40-28-203 0-3-1-11.5t-1-9.5q104 122 217 224 68 62 116 98 21 15 113 84 14 8 31.5 3t25.5-20q20-35-14-57l-2-2q-4 0-92-72-71-59-113-96Q736 275 598 92v-8q-8-24-8-53l-6-49q-1-6-7.5-49.5T569-123q-17-118-30-205-62-420-113-569-22-70-53-102-19-24-45-31-7-4-27-4-25 0-47 22-42 40-49 129-10 94 22 293 18 96 49 191 52 164 152 374 34 66 86 152 41 251 68 483 7 68 12 103 9 108 16 207 0 14 3 58.5t3 57.5v17l-2 2v12q-5-5-6-8-4 0-4-4l-4-4q-23-37-57-97-33-66-58-120-99-248-204-482-22-45-64-92-40-46-80-51-59-11-98 33-31 34-45 88-14 63-13 193zm175 687q11 41 45 47 21 2 41-14 27-19 4-53t-58-29q-42 6-32 49zM293-885v-6l2-2q0-2 1-7.5t1-6.5q1-7 6-21 0-4 6-10 2 2 2 4 17 28 36 88 18 59 27 107 20 106 25 128 4 21 8.5 45.5t7 37.5 3.5 20q21 112 35 205 5 30 26 178-50-97-117-295-82-284-69-465zm24 2052q-33 33 0 70 33 39 66 10 9-9 16-20l-2 4q-2 2-2 4 6-12 6-23 0-31-29-49-30-18-55 4z"/><glyph unicode="" horiz-adv-x="1454" d="M53 584q7 81 25 186 20 124 45 221 33 130 67 193 46 94 111 90 36-4 41-39 21 84 47 145 58 138 160 205 59 41 117 35 61-10 106-51 72-63 115-205 8-21 8-27h12q2 0 11 1t12 1h4l4 2h2q54 8 80 15l162 37q51 10 190 32l178 25q95 9 127 10 60 0 88-14 14-8 19.5-27.5t-2.5-34.5q-20-35-60-16h-4q-2 2-4 2h-12q-8 2-16 2-2 0-101-6-201-18-344-49-37-6-102-21-66-16-80-18l-31-6q2-20-6-62-9-45-61-258 5 5 25.5 23.5t27.5 25.5q34 27 63 0 13-15 13.5-33.5T1077 936q-85-74-90-78l-63-51-4-21q26 7 62 15l36 8q70 14 147 20 87 4 121-20 35-27 17-59-19-34-60-15l-6 2-12 4q-143 0-320-47-22-152-71-319l-11-35-6-35q-72-379-33-489 0-2 2-2v-2q1 0 5-2h6q64 5 164 49 24 12 102 46 24 11 56.5 26t39.5 18q74 35 244 102 167 59 227 74 51 12 103 18 41 4 75-4 17-4 27-21.5t6-33.5q-4-18-21.5-27.5T1786 53q-6 0-12 2h-7q-105 0-342-92l-120-47-17-6q0-2-2-2t-2-2l-29-10-55-25-176-82q-102-50-156-61-102-20-145 22-34 34-41 109-2 31 2 104l4 39q-33-60-76-119-100-125-192-141-67-12-127 14-52 19-105 80Q106-69 76 82 35 272 53 584zm90 10q-16-164 4-412v-6l3-2v-4q0-1 1-7t1-9l6-33q22-133 84-211 0-2 6-8 53-59 108.5-68.5T460-137q46 37 91 95 43 56 81 138 39 85 63 148 20 55 46 135 17 100 58 278 0 7 4 11-69-17-84 14-103-39-189-18-126 28-182 178-39 108-29 258 6 62 19 114-17-23-37-20h-2l-2-2-10-10q0-2-2-2l-2-4-2-5q-30-41-70-182-25-95-45-221-3-9-8-51l-4-27v-2l-2-6v-4q-4-32-9-84zm269 534q-23-104 24-257 20-67 74-101.5T639 752l55 18 8 4 13 6 26 13q31 17 95 59 12 39 7 153-5 111-18 228-13 115-61 207-46 90-117 90h-2q-80-14-164-162l-12-31-2-2q0-2-2-4-4-7-4-14-14-37-23-64-10-39-16-67l-6-35q0-19-4-23zm501 125q11-81 11-84l20 76q-10 4-14 10-10-2-17-2z"/><glyph unicode="" horiz-adv-x="843" d="M-66 512q6 90 23 166l10 18 6 13q10 12 37 12 2 0 2-2h2q34 77 97 94 53 14 92-10 37-18 67-60l21-34q33 92 71 153 44 75 99 119 72 61 143 53 36-6 62-32.5t34-63.5q12-71-22-162-21-66-76-143-51-74-106-101-77-45-156-28-6 2-8 2-5-92-23-150 4-108 42-191 38-84 110-79 58 1 123 74 149 167 268 473 4 16 23.5 22t33.5-4q27-18 11-61-78-195-117-264-68-126-119-187-74-92-147-125-92-41-164 13-96 62-129 188-49-66-107-76-47-11-82 11-29 12-55 47-36 54-49 125-23 87-17 190zm84 2q-8-260 78-287 40-16 75 26 34 41 52 109 0 30 8 105-37-18-93-16t-91 32q-8 6-29 31zm62 115q-2-33 12-66 34-43 150 0-3 28-15 74-37 91-94 72-47-17-53-80zm268-43h14q100 4 142 49 105 124 112 248 4 55-24 64-29 9-51-13-42-28-84-88-49-75-97-215z"/><glyph unicode="" d="M49 653q18 310 96 584 7 27 36 30 28 3 42-20 3-3 6-13t4-11q10-25-14-45-84-344-84-617 0-218 70-295 34-41 94-8t133 139q84 123 100 152 87 145 181 336 23 52 24 53 0 2 1 6t1 6q29 146 78 348 27 102 35 119 39 86 82 107 38 23 61-17 29-45 9-129-7-36-33-106-52-149-123-305l-25-56q-6-55-31-221-24-147-30-233l-25-209q-33-315-45-488-9-169-10-198v-72q0-2 1-11.5t1-13.5v-6l2-2q10-43-31-55-19-4-36 4.5T600-567q-8 34-8 67-2 37 4 170 7 95 18 230 13 156 48 479 8 69 18.5 159T694 653q-3-8-18-35-60-108-96-163-10-17-44-66-12-17-27-38t-17-25q-51-75-89-111-63-63-120-72-63-11-113 21-40 28-66 72-41 78-53 206-8 102-2 211zm363 887q11 41 45 47 21 2 41-14 27-19 4-53t-58-29q-42 6-32 49zm161-43q-33 33 0 70 33 39 66 10 11-14 16-21l-2 5q-2 2-2 4 6-12 6-23 0-31-29-49-30-18-55 4z"/><glyph horiz-adv-x="956"/><glyph horiz-adv-x="1912"/><glyph horiz-adv-x="956"/><glyph horiz-adv-x="1912"/><glyph horiz-adv-x="637"/><glyph horiz-adv-x="478"/><glyph horiz-adv-x="318"/><glyph horiz-adv-x="318"/><glyph horiz-adv-x="239"/><glyph horiz-adv-x="382"/><glyph horiz-adv-x="106"/><glyph unicode="" horiz-adv-x="688" d="M106 598q0 16 15.5 29.5T154 639h32l9 2q1 0 10 1t10 1q11 3 123 14 55 5 125 7 78 3 129-13 39-11 29-51-7-31-39-31-4 0-52 3-49 3-73 3-100-5-123-8l-62-6q-2 0-13-1t-15-1h4q-2-1-6-2-7 0-13-2-119-18-123 43z"/><glyph unicode="" horiz-adv-x="688" d="M106 598q0 16 15.5 29.5T154 639h32l9 2q1 0 10 1t10 1q11 3 123 14 55 5 125 7 78 3 129-13 39-11 29-51-7-31-39-31-4 0-52 3-49 3-73 3-100-5-123-8l-62-6q-2 0-13-1t-15-1h4q-2-1-6-2-7 0-13-2-119-18-123 43z"/><glyph unicode="" horiz-adv-x="688" d="M106 598q0 16 15.5 29.5T154 639h32l9 2q1 0 10 1t10 1q11 3 123 14 55 5 125 7 78 3 129-13 39-11 29-51-7-31-39-31-4 0-52 3-49 3-73 3-100-5-123-8l-62-6q-2 0-13-1t-15-1h4q-2-1-6-2-7 0-13-2-119-18-123 43z"/><glyph unicode="" horiz-adv-x="1193" d="M106 598q0 16 30.5 29.5T201 639h63l18 2q2 0 20 1t20 1q22 3 243 14 109 5 248 7 155 3 256-13 77-11 57-51-14-31-77-31-8 0-103 3-97 3-145 3-198-5-243-8l-123-6q-4 0-26-1t-30-1h8q-4-1-12-2-14 0-25-2-236-18-244 43z"/><glyph unicode="" horiz-adv-x="2217" d="M106 598q0 16 61.5 29.5T296 639h127l36 2q3 0 39 1t40 1q43 3 487 14 218 5 495 7 309 3 511-13 155-11 115-51-28-31-155-31-15 0-206 3-194 3-289 3-396-5-487-8l-245-6q-8 0-52-1t-59-1h15q-7-1-23-2-28 0-52-2-471-18-487 43z"/><glyph unicode="" horiz-adv-x="256" d="M70 1221q-8 18 6 71 7 27 16 56 12 44 27 102 0 16 12 29 18 18 45 8t27-37q-1-42-27-125-9-37-14-57-3-5-8-29-6-20-21-35-16-15-36.5-8.5T70 1221z"/><glyph unicode="" horiz-adv-x="256" d="M70 1221q-8 18 6 71 7 27 16 56 12 44 27 102 0 16 12 29 18 18 45 8t27-37q-1-42-27-125-9-37-14-57-3-5-8-29-6-20-21-35-16-15-36.5-8.5T70 1221z"/><glyph unicode="" horiz-adv-x="446" d="M81 1183q-7 55 3 93 0 5 2.5 23.5T95 1359t11 83q6 29 41 29 35-2 39-29 6-30-2-74-1-11-10-84-6-74-6-78 0-8 2-14v-2q12-20 0-45-16-22-37-21-44 1-52 59zm140 60q-6 43 9 120 14 79 14 105l2 9q0 1 1 8t1 10q6 29 38 29 30 0 38-29 6-36-4-100-11-69-11-90-1-7-1.5-31t-2.5-31q0-18-12-30.5t-29-12.5q-18 0-30.5 12.5T221 1243z"/><glyph unicode="" horiz-adv-x="446" d="M81 1183q-7 55 3 93 0 5 2.5 23.5T95 1359t11 83q6 29 41 29 35-2 39-29 6-30-2-74-1-11-10-84-6-74-6-78 0-8 2-14v-2q12-20 0-45-16-22-37-21-44 1-52 59zm140 60q-6 43 9 120 14 79 14 105l2 9q0 1 1 8t1 10q6 29 38 29 30 0 38-29 6-36-4-100-11-69-11-90-1-7-1.5-31t-2.5-31q0-18-12-30.5t-29-12.5q-18 0-30.5 12.5T221 1243z"/><glyph horiz-adv-x="382"/><glyph horiz-adv-x="478"/><glyph unicode="" horiz-adv-x="768" d="M25 485q1 8 2.5 11.5t5.5 10 5 7.5q3 6 19 12 24 9 48 15 11 3 20 6l25 86q-29-4-50-4-40-20-59 14-10 22-2 37 2 18 19.5 30.5T94 719l6-2h19q50 9 67 14 2 3 7 14t6 13q51 114 112 194 52 69 80 92 51 46 96 60 63 14 117-27 30-25 41-67 6-22 6-45v-37q-8-35-39-35-34 0-39 35v4q5 38-15 69-19 30-56 17-95-44-183-215-26-49-28-55 16 6 45 6 131 12 258-2 37-4 37-37 0-35-37-35-269-13-344-29l-6-12q-2-6-12.5-39T219 561q6 1 28.5 4.5T276 571q186 27 269 21 16 0 27.5-11.5T584 555q0-31-29-39-25-4-105-12-55-5-138-16-55-8-113-21-4-13-9-43 0-2-1-6t-1-6v-15q-4-23-4-32-2-94 26.5-146.5T288 164q95-4 212 94 75 64 153 160 10 14 29.5 13.5T715 418q27-27 0-62-5-6-6-10l-9-8q-1-1-6-7t-8-9q-32-38-33-39-43-48-86-84Q440 93 348 72q-65-16-119 4-72 31-100 92-49 97-25 278 2 0 2 5-15-9-24-9-16-4-32.5 5.5T29 473q-5 4-4 12zm548 441v6-6z"/><glyph unicode="" horiz-adv-x="870" d="M0 0v870h870V0H0z"/></font>
</defs>
</svg>
