<svg width="66" height="127" viewBox="0 0 66 127" fill="none" xmlns="http://www.w3.org/2000/svg">
<path d="M65.2548 65.2548L61.2548 65.2548L61.2548 61.2548L65.2548 61.2548L65.2548 65.2548Z" fill="#FF4800"/>
<path d="M49.9411 80.5685L45.9411 80.5685L45.9411 76.5685L49.9411 76.5685L49.9411 80.5685Z" fill="#FF4800"/>
<path d="M34.6274 95.8823L30.6274 95.8823L30.6274 91.8823L34.6274 91.8823L34.6274 95.8823Z" fill="#FF4800"/>
<path d="M19.3137 111.196L15.3137 111.196L15.3137 107.196L19.3137 107.196L19.3137 111.196Z" fill="#FF4800"/>
<path d="M4 126.51L0 126.51L1.74846e-07 122.51L4 122.51L4 126.51Z" fill="#FF4800"/>
<path d="M49.9411 49.9411L45.9411 49.9411L45.9411 45.9411L49.9411 45.9411L49.9411 49.9411Z" fill="#FF4800"/>
<path d="M34.6274 65.2548L30.6274 65.2548L30.6274 61.2548L34.6274 61.2548L34.6274 65.2548Z" fill="#FF4800"/>
<path d="M19.3137 80.5685L15.3137 80.5685L15.3137 76.5685L19.3137 76.5685L19.3137 80.5685Z" fill="#FF4800"/>
<path d="M4 95.8823L1.33877e-06 95.8823L1.51361e-06 91.8823L4 91.8823L4 95.8823Z" fill="#FF4800"/>
<path d="M34.6274 34.6274L30.6274 34.6274L30.6274 30.6274L34.6274 30.6274L34.6274 34.6274Z" fill="#FF4800"/>
<path d="M19.3137 49.9411L15.3137 49.9411L15.3137 45.9411L19.3137 45.9411L19.3137 49.9411Z" fill="#FF4800"/>
<path d="M4 65.2548L2.67753e-06 65.2548L2.85238e-06 61.2548L4 61.2548L4 65.2548Z" fill="#FF4800"/>
<path d="M19.3137 19.3137L15.3137 19.3137L15.3137 15.3137L19.3137 15.3137L19.3137 19.3137Z" fill="#FF4800"/>
<path d="M4 34.6274L4.0163e-06 34.6274L4.19115e-06 30.6274L4 30.6274L4 34.6274Z" fill="#FF4800"/>
<path d="M4.00001 4L5.35507e-06 4L5.52991e-06 0L4.00001 1.74846e-07L4.00001 4Z" fill="#FF4800"/>
</svg>
