<svg width="40" height="40" viewBox="0 0 40 40" fill="none" xmlns="http://www.w3.org/2000/svg">
    <path d="M19.9993 22.3902H35.0433L37.4333 20.0003L35.0433 17.6104H19.9993C18.6786 17.6104 17.6094 18.6795 17.6094 20.0003C17.6094 21.321 18.6786 22.3902 19.9993 22.3902Z"
          fill="#00CCCC"/>
    <path d="M19.9997 8.80469C13.8236 8.80469 8.80469 13.8236 8.80469 19.9997C8.80469 26.1758 13.8236 31.1946 19.9997 31.1946H26.2386L31.0185 26.4148H19.9997C16.4651 26.4148 13.5846 23.5342 13.5846 19.9997C13.5846 16.4651 16.4651 13.5846 19.9997 13.5846H31.0185L26.2386 8.80469H19.9997Z"
          fill="#00CCCC"/>
    <path d="M39.9985 31.1949V26.415H36.401L31.6211 31.1949H39.9985Z" fill="#00CCCC"/>
    <path d="M5.86164 5.86164C2.07547 9.63522 0 14.6541 0 20C0 25.3459 2.07547 30.3648 5.86164 34.1384C9.63522 37.9119 14.6667 40 20 40H40V35.2201H20C15.9371 35.2201 12.1132 33.6352 9.23271 30.7673C6.36478 27.8868 4.77987 24.0629 4.77987 20C4.77987 15.9371 6.36478 12.1132 9.23271 9.23271C12.1132 6.36478 15.9371 4.77987 20 4.77987H40V0H20C14.6541 0 9.63522 2.07547 5.86164 5.86164Z"
          fill="#00CCCC"/>
    <path d="M36.401 13.5846H39.9985V8.80469H31.6211L36.401 13.5846Z" fill="#00CCCC"/>
</svg>