<svg width="48" height="48" viewBox="0.9 0 24 24" fill="none" xmlns="http://www.w3.org/2000/svg">
    <g clip-path="url(#clip0)">
        <path d="M12.9102 24C19.5376 24 24.9102 18.6274 24.9102 12C24.9102 5.37258 19.5376 0 12.9102 0C6.28274 0 0.910156 5.37258 0.910156 12C0.910156 18.6274 6.28274 24 12.9102 24Z"
              fill="#F0F0F0"/>
        <path d="M3.3895 4.69434C2.44689 5.92073 1.73613 7.33424 1.32227 8.86982H7.56498L3.3895 4.69434Z"
              fill="#0052B4"/>
        <path d="M24.4936 8.86978C24.0797 7.33425 23.3689 5.92073 22.4264 4.69434L18.251 8.86978H24.4936Z"
              fill="#0052B4"/>
        <path d="M1.32227 15.1309C1.73617 16.6664 2.44694 18.0799 3.3895 19.3063L7.56484 15.1309H1.32227Z"
              fill="#0052B4"/>
        <path d="M20.2125 2.48086C18.9862 1.53825 17.5727 0.82748 16.0371 0.413574V6.65625L20.2125 2.48086Z"
              fill="#0052B4"/>
        <path d="M5.60156 21.5196C6.82795 22.4622 8.24147 23.173 9.777 23.5869V17.3442L5.60156 21.5196Z"
              fill="#0052B4"/>
        <path d="M9.77695 0.413574C8.24142 0.82748 6.82791 1.53825 5.60156 2.48081L9.77695 6.6562V0.413574Z"
              fill="#0052B4"/>
        <path d="M16.0381 23.5869C17.5736 23.173 18.9871 22.4622 20.2135 21.5196L16.0381 17.3442V23.5869Z"
              fill="#0052B4"/>
        <path d="M18.251 15.1309L22.4264 19.3063C23.3689 18.08 24.0797 16.6664 24.4936 15.1309H18.251Z" fill="#0052B4"/>
        <path d="M24.8086 10.4348H14.4755H14.4754V0.101578C13.963 0.034875 13.4406 0 12.9102 0C12.3796 0 11.8573 0.034875 11.345 0.101578V10.4347V10.4347H1.01173C0.945031 10.9471 0.910156 11.4695 0.910156 12C0.910156 12.5306 0.945031 13.0529 1.01173 13.5652H11.3449H11.3449V23.8984C11.8573 23.9651 12.3796 24 12.9102 24C13.4406 24 13.963 23.9652 14.4754 23.8984V13.5653V13.5653H24.8086C24.8753 13.0529 24.9102 12.5306 24.9102 12C24.9102 11.4695 24.8753 10.9471 24.8086 10.4348Z"
              fill="#D80027"/>
        <path d="M16.042 15.1304L21.3968 20.4852C21.6431 20.239 21.878 19.9817 22.1022 19.7148L17.5177 15.1304H16.042V15.1304Z"
              fill="#D80027"/>
        <path d="M9.77966 15.1304H9.77956L4.4248 20.4851C4.67099 20.7314 4.92838 20.9664 5.19519 21.1905L9.77966 16.6059V15.1304Z"
              fill="#D80027"/>
        <path d="M9.77894 8.86961V8.86951L4.42413 3.51465C4.17784 3.76084 3.94291 4.01823 3.71875 4.28504L8.30327 8.86956H9.77894V8.86961Z"
              fill="#D80027"/>
        <path d="M16.042 8.8698L21.3969 3.5149C21.1507 3.26862 20.8933 3.03368 20.6265 2.80957L16.042 7.39409V8.8698Z"
              fill="#D80027"/>
    </g>
    <defs>
        <clipPath id="clip0">
            <rect width="24" height="24" fill="white" transform="translate(0.910156)"/>
        </clipPath>
    </defs>
</svg>
