<svg width="183" height="130" viewBox="0 0 183 130" fill="none" xmlns="http://www.w3.org/2000/svg">
<path d="M3.22441 112.059L0.0234375 129.097H16.9311L20.2142 112.059H3.22441Z" fill="#FF4800"/>
<path d="M11.761 67.8555C11.761 67.8555 7.90338 87.6925 4.78448 104.073H41.2264C43.5245 104.073 45.2481 106.13 44.8377 108.435L44.3452 110.74C43.9349 112.88 42.0471 114.444 39.9131 114.444L28.1762 114.526L25.3856 129.26H47.9566C55.0972 129.26 61.253 124.239 62.5662 117.242C63.0586 114.691 63.6332 111.974 64.1256 109.423C65.2747 103.332 60.3501 98.7223 54.1123 98.7223L54.5227 96.7468C61.0067 96.4999 65.5209 93.2074 66.752 86.8694L67.6549 82.013C69.0502 74.852 63.5511 68.1024 56.2463 68.1024L11.761 67.8555ZM46.8896 85.964L46.7255 87.281C46.233 89.668 44.1811 91.3965 41.7188 91.3965H26.7809L28.5045 82.1777H43.7707C45.7405 82.1777 47.2179 83.9885 46.8896 85.964Z" fill="white"/>
<path d="M131.099 67.8555L128.062 83.33H144.149L135.367 129.095H155.148L163.93 83.33H180.017L182.971 67.8555H131.099Z" fill="white"/>
<path d="M66.9978 121.357C66.2591 125.391 69.2959 129.095 73.3997 129.095H118.624L121.579 113.785H87.681L89.5688 103.99H114.192L116.572 91.396H91.949L93.5084 83.4118H123.302L126.257 68.0195H85.3008C80.7045 68.0195 76.6007 71.312 75.6979 75.8391L66.9978 121.357Z" fill="white"/>
<path d="M94.3301 26.6195C95.4792 20.4462 99.501 15.919 107.134 15.919H136.025L138.98 0.691406H102.209C89.4876 0.691406 80.131 5.6301 76.1092 22.3393C74.796 27.9365 73.8932 34.0275 72.7441 39.707C70.6922 50.5721 78.8998 60.7788 89.9801 60.7788H127.489L134.63 23.8209H104.261L101.799 36.1676H114.275L112.469 45.3042H100.322C92.1141 45.3042 91.5396 40.7771 92.4424 35.8384L94.3301 26.6195Z" fill="#FF4800"/>
<path d="M29.2434 26.6195C30.3924 20.4462 34.4142 15.919 42.0473 15.919H70.9381L73.8929 0.691406H37.0406C24.3188 0.691406 14.9621 5.6301 10.9404 22.3393C9.62713 27.9365 8.72431 34.0275 7.57525 39.707C5.52334 50.5721 13.731 60.7788 24.8113 60.7788H62.3201L69.4607 23.8209H39.0925L36.6302 36.1676H49.1058L47.3002 45.3042H35.1528C26.9452 45.3042 26.3707 40.7771 27.2735 35.8384L29.2434 26.6195Z" fill="#FF4800"/>
</svg>
