<svg width="914" height="569" xmlns="http://www.w3.org/2000/svg" xml:space="preserve" version="1.1">
  <rect id="svg_9" height="414.00977" width="828.01954" y="52.49452" x="42.99026" stroke="#000" fill="#fff"/>
  <rect id="svg_1" fill="rgba(102,51,102,0)" height="1000" width="1000" y="282.89637" x="454.54555"/>
  <g id="540823" transform="matrix(8.6045 0 0 7.297 505.69 498.372)">
   <path id="svg_2" fill-rule=" nonzero" fill="#0b6b45" stroke-miterlimit="4" stroke-linejoin=" miter" stroke-dashoffset="0" stroke-dasharray=" none" stroke=" none" stroke-linecap=" butt" d="m96.32649,13.76886l-87,0l0,50l87,0l0,-50z" vector-effect="non-scaling-stroke"/>
  </g>
  <g id="35491" transform="matrix(1 0 0 1 500 506.537)">
   <g id="svg_3" vector-effect="non-scaling-stroke">
    <g id="svg_4" transform="matrix(0.1894 0 0 -0.1894 0.0145 0.0091)">
     <path id="svg_5" fill-rule=" nonzero" fill="#0b6b45" stroke-miterlimit="4" stroke-linejoin=" miter" stroke-dashoffset="0" stroke-dasharray=" none" stroke=" none" stroke-linecap=" butt" d="m-363.37441,2655.96645c-11,-2 -110,-8 -220,-14c-110,-6 -360,-19 -555,-30c-195,-11 -438,-25 -540,-31c-102,-5 -338,-19 -525,-29c-187,-11 -355,-20 -372,-20l-33,0l0,-1385l0,-1385l48,0c26,0 160,7 297,15c237,14 382,22 793,45c97,5 341,19 542,30c201,11 473,27 605,35c132,8 247,15 256,15c14,0 17,-17 21,-110c3,-61 8,-114 12,-117c5,-6 367,11 796,37c148,9 315,19 698,40c405,23 533,30 630,36l102,6l0,1384l0,1384l-30,0c-16,0 -188,-9 -382,-20c-1053,-60 -1208,-69 -1588,-90c-96,-6 -218,-13 -271,-16l-96,-6l-6,39c-4,21 -7,66 -7,100c0,93 -1,93 -84,92c-39,-1 -80,-3 -91,-5zm245,-779l0,-215l230,0l230,0l0,-155l0,-155l-230,0l-231,0l3,-252c3,-204 7,-260 19,-288c49,-109 206,-140 346,-70c32,16 58,28 58,27c1,-3 27,-58 81,-174l43,-92l-54,-31c-97,-56 -189,-81 -310,-87c-179,-8 -313,36 -406,134c-56,59 -75,89 -102,161c-19,52 -21,82 -25,365l-4,307l-124,0l-124,0l0,155l0,155l135,0l135,0l0,215l0,215l165,0l165,0l0,-215zm1425,-180c50,-8 113,-23 141,-34c70,-27 163,-83 197,-119l28,-29l-61,-104c-97,-163 -89,-153 -108,-136c-29,25 -119,66 -179,82c-225,59 -409,-47 -442,-254c-25,-154 42,-296 167,-358c52,-26 66,-28 172,-28c131,0 188,15 271,71c28,19 54,34 58,34c5,-1 151,-238 159,-261c10,-25 -128,-106 -248,-145c-79,-26 -98,-28 -250,-28c-146,-1 -174,2 -240,22c-176,55 -305,162 -379,312c-57,118 -75,213 -68,365c13,295 149,492 397,579c130,46 242,55 385,31zm-2592,-50c44,-7 111,-29 150,-48c217,-103 327,-294 327,-567l0,-90l-459,0c-253,0 -462,-4 -465,-8c-10,-16 44,-127 81,-164c21,-22 67,-53 103,-71c63,-31 68,-32 195,-32c118,0 136,3 192,27c35,15 76,36 93,48c16,12 34,18 40,15c20,-12 151,-205 146,-214c-14,-22 -124,-85 -195,-111c-106,-39 -219,-54 -360,-47c-211,10 -355,68 -482,196c-121,121 -179,263 -179,441c0,423 367,705 813,625z"/>
    </g>
    <g id="svg_6" transform="matrix(0.1894 0 0 -0.1894 -235.888 -17.407)">
     <path id="svg_7" fill-rule=" nonzero" fill="#0b6b45" stroke-miterlimit="4" stroke-linejoin=" miter" stroke-dashoffset="0" stroke-dasharray=" none" stroke=" none" stroke-linecap=" butt" d="m-245.87441,1290.05386c-122,-21 -202,-96 -242,-227l-6,-23l285,0l286,0l0,30c0,17 -7,46 -14,65c-49,117 -171,178 -309,155z"/>
    </g>
   </g>
  </g>
</svg>