<?xml version="1.0" standalone="no"?>
<!DOCTYPE svg PUBLIC "-//W3C//DTD SVG 1.1//EN" "http://www.w3.org/Graphics/SVG/1.1/DTD/svg11.dtd" >
<svg xmlns="http://www.w3.org/2000/svg" xmlns:xlink="http://www.w3.org/1999/xlink" version="1.1">
<metadata></metadata>
<defs>
<font id="golden_youth_scriptregular" horiz-adv-x="960" >
<font-face units-per-em="2048" ascent="1638" descent="-410" />
<missing-glyph horiz-adv-x="512" />
<glyph horiz-adv-x="0" />
<glyph unicode="&#xd;" horiz-adv-x="512" />
<glyph horiz-adv-x="0" />
<glyph horiz-adv-x="0" />
<glyph unicode=" "  horiz-adv-x="512" />
<glyph unicode="&#x09;" horiz-adv-x="512" />
<glyph unicode="&#xa0;" horiz-adv-x="512" />
<glyph unicode="!" horiz-adv-x="307" d="M98 225q12 54 45 94q17 20 43 7q15 -12 19 -31q4 -33 -10 -68q-10 -32 -41 -28q-15 -19 -33 -13q-31 6 -23 39zM104 623q-2 143 0 286q7 391 60 805q4 45 45 45q17 0 31 -13.5t12 -31.5q-22 -201 -29 -284q-30 -361 -35 -807q0 -16 -12.5 -29.5t-28.5 -13.5 q-18 0 -30.5 13t-12.5 30z" />
<glyph unicode="&#x22;" horiz-adv-x="446" d="M81 1183q-7 55 3 93q0 5 2.5 23.5t8.5 59.5t11 83q6 29 41 29q35 -2 39 -29q6 -30 -2 -74q-1 -11 -10 -84q-6 -74 -6 -78q0 -8 2 -14v-2q12 -20 0 -45q-16 -22 -37 -21q-44 1 -52 59zM221 1243q-6 43 9 120q14 79 14 105l2 9q0 1 1 8t1 10q6 29 38 29q30 0 38 -29 q6 -36 -4 -100q-11 -69 -11 -90q-1 -7 -1.5 -31t-2.5 -31q0 -18 -12 -30.5t-29 -12.5q-18 0 -30.5 12.5t-12.5 30.5z" />
<glyph unicode="#" horiz-adv-x="847" d="M-76 569q-6 17 17 37q5 5 24 10q1 0 2 1t2 1q26 9 100 44q75 36 103 47q17 181 39 317q2 14 18 22.5t31 4.5q29 -8 29 -37q0 -2 -2 -8q-1 -7 -3.5 -29t-3.5 -35q-7 -52 -8 -70q-7 -53 -14 -129q3 2 33 13q107 45 147 59q4 31 6 47q14 119 27 197q1 12 7.5 51.5t6.5 42.5 l19 92q4 14 16 21.5t27 3.5q31 -7 26 -35v-10q0 -6 -2 -8q0 -9 -2 -19l-6 -43q0 -3 -16 -114q-11 -77 -12 -97q-10 -91 -11 -98q154 47 264 43q41 -5 41 -43q0 -16 -12 -28.5t-29 -12.5q-108 4 -274 -47q-1 -10 -4 -55.5t-4 -55.5q0 -4 -2 -10q58 12 112 12q16 2 28.5 -10 t12.5 -29q0 -36 -41 -41q-25 0 -106 -12l-4 -2h-6q-7 -147 -6 -295q0 -54 8 -190q5 -78 8 -95l6 -49q0 -12 2 -22v-8l2 -7q4 -27 -12 -43q-12 -12 -30.5 -12t-31.5 12q-8 12 -12 31q-37 266 -22 600q2 6 2.5 29t1.5 29q-60 -19 -82 -27q-5 -2 -19.5 -7.5t-24.5 -9.5 q-31 -13 -36 -16q-2 -1 -9 -3.5t-9 -4.5q-10 -215 -3 -387q0 -18 -13 -31.5t-32 -13.5q-16 0 -29.5 13.5t-13.5 31.5q-2 66 -2 145q0 107 7 199q-14 -9 -21 -10q-92 -47 -129 4q-10 11 4 31q17 14 33 4h8q26 6 109 55q0 3 2 22t3 34q1 12 2.5 32t2.5 27q-8 -2 -17 -9 q-159 -67 -182 -71q-31 -7 -41 24zM242 553q2 0 4 2l4 2q100 46 172 64q6 88 8 108q-33 -11 -123 -47q-47 -18 -57 -23q-2 -20 -8 -106z" />
<glyph unicode="$" horiz-adv-x="608" d="M51 774q-63 89 25 201q50 60 137 100q10 3 21 7.5t17 6.5l9 3q-1 51 6 145q7 74 17 115q1 13 10 51q7 34 20 51q10 12 27.5 7t21.5 -21q1 -16 0 -35l-2 -2v-4v-2v-11q0 -1 -2 -8t-2 -10v-6v-2q0 -2 -2 -12t-2 -13q-9 -87 -10 -104q-2 -52 -2 -119q22 2 49 2q98 0 143 -63 q23 -32 23 -78q0 -12 -8 -47q-7 -40 -27 -60q-12 -15 -33.5 -12.5t-29.5 20.5q-10 22 -4 44q5 14 10 18v2l2 4q8 46 -17.5 65t-85.5 19q-8 0 -10 -2h-6v-2q2 -16 -11 -28.5t-30 -12.5q-26 0 -37 23q-3 -2 -7 -3q-1 -1 -2 -1l-1 -1l-4 -2q-2 0 -2 -2q-3 0 -10 -4 q-3 0 -10.5 -4t-8.5 -4q-106 -66 -106 -133q0 -28 31 -53q29 -26 63 -43q42 -21 84 -37q49 -20 61 -27q77 -39 121 -82q59 -56 68 -114q18 -121 -103 -236q-32 -32 -73 -55v-17q-1 -10 -3.5 -41t-3.5 -49q0 -106 21 -170q8 -41 -29 -51q-32 -8 -45 19q-25 44 -28 116 q-1 56 0 111l6 49q-8 -2 -19 -2q-12 -4 -24 0q-33 0 -43 22q0 1 -2 6.5t-4 10.5q-10 14 -5 32.5t21 28.5q31 14 55 -10h4q12 3 23 6q40 11 84 55q64 68 71 121t-34 96t-135 93q-87 43 -113 55q-82 46 -115 90z" />
<glyph unicode="%" horiz-adv-x="808" d="M-43 -215q0 93 57 229q0 1 15 36t25 61q23 56 32 77q48 113 82 187q85 181 176 350q62 117 201 342q26 45 52 85t52 85q3 7 22.5 34.5t22.5 33.5q-14 -7 -155 -111q-6 -5 -27 -17.5t-25 -15.5q-3 -1 -12.5 -7t-27.5 -17t-37 -23q-12 -5 -37 -20q9 -11 14 -37 q4 -43 -45 -107q-40 -46 -90 -80q-52 -40 -88 -41q-32 0 -51 15q-25 18 -31 53q-2 42 29 92q25 43 65 82q4 1 6 6q-4 37 33 47q6 6 21 6q178 84 282 160q37 29 86 64q66 44 94 55q64 30 105 12q31 -18 20 -51q-25 -65 -51 -106l-31 -50l-30 -49q-87 -137 -209 -340 q-92 -158 -185 -346q-228 -492 -260 -612q-4 -15 -4 -25q-2 -6 -2 -10l-2 -6q0 -4 -1 -20.5t-1 -20.5q0 -18 -13.5 -31.5t-31.5 -13.5t-31.5 13.5t-13.5 31.5zM164 915q58 26 131 121l2 4l2 4v3q-2 0 -4 2h-2h-4q-43 -12 -83 -55t-40 -76zM328 90q-2 30 10 78q27 94 86 156 q77 86 141 38l15 -14q2 -2 8 -5t8 -5q31 -22 43 -53q23 -51 -12 -123q-27 -55 -70 -94q-51 -50 -106 -64q-49 -15 -84 8q-33 27 -39 78zM412 86l2 -2h6q82 10 133 125q6 18 6 22q0 39 -41 39h-2q-13 -37 -53 -26h-2q-59 -85 -49 -152v-6z" />
<glyph unicode="&#x26;" horiz-adv-x="905" d="M23 223q-6 50 20 117q45 102 133 205q41 49 107 106q-84 -12 -121 27q-37 33 -31 80t27 83q20 37 51 68q46 47 78 74q-2 89 2 211q0 22 8 102q5 44 8 56q6 40 12 51q18 25 43 16q20 -2 29 -26q4 -9 -2 -52q-4 -29 -4 -49q-3 -19 -8 -102q-2 -62 -2 -143q4 0 8 4 q31 17 61 28q40 12 64 11q52 -6 74 -43q16 -26 16 -52v-41q5 -29 -33 -43q-29 -7 -51 21q0 2 -2 4t-2 4q-12 19 -2 41v10v6l-2 2h-2h-8q-70 0 -191 -120q-60 -60 -74 -109q-6 -33 31 -33h4q31 4 109 33q77 24 98 25q29 2 41 -28t-10 -48q-2 -2 -29.5 -26t-34.5 -29 q-154 -122 -225 -215l-4 -5q-8 -8 -8 -12q-1 -1 -8 -10.5t-9 -11.5q-48 -74 -57 -133.5t20 -80.5q25 -26 83.5 -15t125.5 57q4 3 15.5 11t13.5 9l6 6q3 1 12 10q206 167 345 406q33 60 40 78q14 33 50 18q36 -17 26 -49q-11 -37 -37 -88q-21 -41 -45 -76q-91 -144 -221 -268 q-109 -106 -194 -158q0 -42 -5 -174q0 -66 3 -98q0 -21 2 -37v-2v-2l2 -4v-4q6 -15 -4.5 -32t-26.5 -22q-37 -12 -53 31q-4 7 -4 27q-3 20 -5 80q5 50 5 106q0 37 4 92q-115 -43 -193 11q-35 20 -49 49q-15 26 -20 65z" />
<glyph unicode="'" horiz-adv-x="256" d="M70 1221q-8 18 6 71q7 27 16 56q12 44 27 102q0 16 12 29q18 18 45 8t27 -37q-1 -42 -27 -125q-9 -37 -14 -57q-3 -5 -8 -29q-6 -20 -21 -35q-16 -15 -36.5 -8.5t-26.5 25.5z" />
<glyph unicode="(" horiz-adv-x="591" d="M74 610q5 200 41 363q25 103 49 170q39 108 63 151q43 81 103 158q90 119 172 170q79 45 151 31q21 6 37 -4q26 -17 37 -39q18 -28 -6 -54q-27 -27 -55 -8q-5 5 -17 13q-2 0 -4 2q-1 0 -4 1t-4 1q-56 0 -100 -29l-13 -6l-6 -6q-123 -103 -207 -266q-85 -163 -116 -342 q-33 -179 -28 -365.5t50 -349.5q32 -118 125 -287q71 -114 186 -236q26 -28 0 -57q-25 -25 -49 -6q-37 21 -82 72q-102 111 -180 270q-74 155 -108 305q-39 164 -35 348z" />
<glyph unicode=")" horiz-adv-x="579" d="M-114.5 -368q-5.5 18 3.5 34q151 194 273 436q148 293 227 619q45 185 45 299v76q-5 187 -116 334q-112 147 -295 147h-5q-2 0 -6 -2t-6 -2q-8 -1 -33 -10q-14 -6 -30.5 3.5t-20.5 24.5q-8 33 21 47q112 51 260 -10q118 -51 196 -151q87 -117 113 -285q23 -149 -4 -324 q-18 -128 -68 -299q-52 -171 -112 -315q-146 -357 -361 -633q-27 -37 -61 -16q-15 9 -20.5 27z" />
<glyph unicode="*" horiz-adv-x="462" d="M66 1260.5q2 15.5 14 23.5q6 4 20 8t30.5 7.5t21.5 5.5q6 0 8 2q0 16 4 41q4 45 18 84q11 29 39 22q23 -6 23 -31q0 -11 -3 -40.5t-3 -39.5q7 4 33 15.5t32 15.5q50 19 82 27q43 4 51 -29q4 -16 -4.5 -32.5t-23.5 -18.5q-46 -7 -148 -53q5 -6 15 -37q11 -31 20 -41 q14 -12 11 -30t-19 -30q-33 -20 -54 13q-15 25 -22 59q-17 -26 -33 -63q10 -16 4 -31q-4 -13 -14.5 -22t-22.5 -7q-31 4 -41 25q-8 20 -4 41q6 26 25 55q5 10 16 25q-50 -7 -67 10q-10 10 -8 25.5z" />
<glyph unicode="+" horiz-adv-x="880" d="M102 596q0 34 33 41l25 6h14h-4q4 0 6 2q16 2 86 19q35 7 43 10q33 8 51 12q12 117 27 180v2q-8 19 2 31q25 33 53 14q23 -12 23 -41q2 -17 -2 -34q0 -2 -1 -5t-1 -4q0 -10 -2 -12l-13 -117l50 7q104 14 174 14q77 4 147 -10q15 -2 24 -19t5 -35q-10 -39 -54 -30h-4 q-60 18 -352 -19q-6 -62 -6 -125q0 -35 4 -82l2 -8v-6q0 -13 4 -20q5 -30 8 -37q4 -16 -5 -32.5t-25 -20.5t-32.5 4t-21.5 24q-31 126 -14 287q-16 -6 -29 -6q-24 -6 -86 -21q-62 -16 -96 -10q-33 7 -33 41z" />
<glyph unicode="," horiz-adv-x="276" d="M27 92q82 82 88 133q-6 20 4 35q37 48 74 14q27 -23 8 -75q-13 -34 -29 -62q-44 -66 -78 -96q-31 -31 -59 0q-25 25 -8 51z" />
<glyph unicode="-" horiz-adv-x="688" d="M106 598q0 16 15.5 29.5t32.5 11.5h20h12l9 2q1 0 10 1t10 1q11 3 123 14q55 5 125 7q78 3 129 -13q39 -11 29 -51q-7 -31 -39 -31q-4 0 -52 3q-49 3 -73 3q-100 -5 -123 -8l-62 -6q-2 0 -13 -1t-15 -1h4q-2 -1 -6 -2q-7 0 -13 -2q-119 -18 -123 43z" />
<glyph unicode="." horiz-adv-x="303" d="M47 207q0 31 12 57q5 7 13 15v2q13 13 26 8q16 0 28.5 -12.5t12.5 -28.5q0 -36 -28 -68q-16 -16 -40 -7t-24 34z" />
<glyph unicode="/" horiz-adv-x="544" d="M-55 -276q28 149 78 313q41 139 258 741q53 151 131 381q35 100 67 193q47 133 70 190q13 31 41 31q24 0 37 -21q20 -34 4 -57l-2 -4q-1 -4 -4 -4l-2 -2l-7 -6l-98 -277q-11 -37 -64 -191q-16 -47 -38.5 -112t-28.5 -82q-60 -170 -133 -368q-166 -462 -223 -748 q-4 -18 -20.5 -26.5t-35.5 -4.5q-39 10 -30 54z" />
<glyph unicode="0" horiz-adv-x="641" d="M18 319q-31 184 11 379l24 99q5 18 8 22v6l2 4q6 17 7 19l-2 -6q25 49 38 55q0 16 9 31q28 89 63 151q44 79 96 119q53 38 118 30q64 -8 108 -54q64 -67 86 -199q16 -81 16 -195q-5 -174 -37 -311q-44 -184 -121 -301q-62 -93 -120 -121q-1 0 -6.5 -2t-10.5 -4 q0 -14 -10 -21q-23 -23 -53 0l2 -2q-2 1 -6 2q-3 3 -9 7l-4 4q-28 6 -53 16q-59 32 -102 107q-38 70 -54 165zM156 551q0 -102 3 -156t27 -140q22 -85 72 -136h2h6q7 4 15 4q4 4 6 4q1 1 8 4.5t8 5.5q4 0 4 4l2 2h2q134 134 184 416q48 279 -14 471q-8 13 -8 25l-2 2 q-33 57 -73 71.5t-79 -14t-71 -94.5q-3 -6 -10.5 -21.5t-10.5 -21.5l-2 -8q0 -2 -2 -2l-2 -4q-22 -65 -28 -89q-11 -39 -19 -90q-4 -15 -4 -24q-2 -6 -2 -8v-7q0 -27 -6 -45q-6 -74 -6 -149zM471 1055q0 6 2 0h-2z" />
<glyph unicode="1" horiz-adv-x="415" d="M29 1090q11 23 20 34q4 10 19 17q18 29 20 35q62 124 121 161q39 27 72 0q35 -23 34 -71q0 -34 -6 -66q0 -2 -1 -5t-1 -5v-4q-4 -29 -4 -49q-31 -292 -41 -408q-12 -135 -24 -405l-7 -203q0 -52 -4 -84v-33q1 -4 4 -14l2 -4q10 -16 5 -34t-21 -28q-15 -9 -32.5 -4.5 t-26.5 21.5q-23 34 -19 86q0 7 1 42t1 44q5 136 9 206q6 204 24 406q10 141 39 408q5 60 10 84v4q-1 -1 -3.5 -5t-4.5 -6q-18 -30 -20 -32l-9 -9q1 1 4 2l-6 -8q-2 -2 -3.5 -5t-3 -5t-2.5 -3.5t-1 -2.5q-10 -17 -20 -37q-32 -48 -58 -74q-29 -29 -61 0q-25 26 -6 54z" />
<glyph unicode="2" horiz-adv-x="595" d="M-80 131q5 53 51 119q47 66 191 274q73 111 137 215q63 103 96 176q42 85 62 179v2q3 50 -11 73t-45 19q-66 -10 -147 -111q-24 -30 -37 -55q-2 -2 -5.5 -9.5t-4.5 -8.5l-2 -3q0 -10 -4 -14v-4q5 -7 0 -18q-7 -25 -19 -33q-16 -16 -39 -10q-23 8 -28 28v2q-2 8 -2 15v8 q0 20 4 29q12 36 20 51q21 43 64 98q96 116 196 123q53 4 96 -30q43 -35 50 -87q12 -89 -35 -207q-49 -127 -193 -356q-64 -96 -113 -169q-19 -28 -43 -63.5t-39 -57t-24 -34.5q-49 -67 -65 -94q-9 -12 -15 -26q-2 -2 -2 -5l-2 -2q52 6 60 7q2 0 12 2t12 2h2q7 0 11 2 t20.5 2.5t20.5 1.5q30 5 77 12q53 8 78 12q175 25 348 17q45 -5 45 -45q0 -18 -13.5 -31.5t-31.5 -11.5q-174 10 -436 -31q-58 -9 -156 -23q-29 -4 -47 -4q-48 -4 -61 2q-37 19 -33 72z" />
<glyph unicode="3" horiz-adv-x="638" d="M-47 -68q-6 16 4 33t27 21q42 14 55 -31l2 -2v-4q37 -61 150 1q112 61 213 179q99 116 110 195q12 88 -21 119q-35 30 -145 63q-82 22 -117 39q-123 66 -47 215q32 61 134 186q98 120 137 193q41 70 9 99.5t-118 -1.5q-2 -2 -12.5 -6t-14.5 -6q-134 -70 -190 -183v-2 q-4 -24 -12 -32q-17 -27 -45 -21q-36 12 -31 41q12 111 121 199q77 65 162 94q89 33 145 14q34 -8 59 -32t33 -56q12 -46 -10 -110q-23 -53 -62 -109q-55 -71 -101 -128q-80 -99 -109 -150q-7 -19 -15 -27q-18 -22 -16 -55q2 -34 33 -47q3 -3 10 -5q3 -2 18 -8q20 -5 73 -18 q57 -15 92 -30q38 -16 65 -40q53 -44 63 -106q8 -43 -2 -88q-12 -69 -74 -166q-51 -78 -137 -164q-84 -81 -160 -123q-91 -49 -153 -45q-47 6 -80 33q-30 28 -43 71z" />
<glyph unicode="4" horiz-adv-x="657" d="M14 469q-2 49 19 133q29 94 41 127q42 139 43 143q35 120 45 146q3 6 9.5 30t8.5 31v2q-7 39 19 49q31 14 51 -12q12 -14 8 -45q-5 -34 -10 -49q-4 -20 -21 -66q-3 -8 -30 -106q-31 -105 -43 -141q-4 -17 -18 -60q-16 -47 -21 -67q-18 -73 -14 -116q7 -65 87 -42 q54 18 97 39q1 1 5 2t5 2q0 23 4 63q13 213 35 381q18 141 28 197q13 69 21 94q1 6 10 47q1 4 2.5 18.5t3.5 18.5q13 31 41 31q23 0 36 -20.5t5 -43.5q-4 -11 -4 -18q-11 -45 -16 -74q-24 -123 -29 -155q-12 -73 -18 -148q-6 -51 -15 -153q-8 -86 -14 -189q50 29 138 68 q91 40 132 63q37 22 62 -16q8 -14 3 -32.5t-20 -27.5q-55 -29 -122 -58q-81 -36 -129 -62q-7 -3 -36 -19.5t-36 -19.5l-6 -99q-6 -104 -4 -200q0 -51 2 -97v-22q0 -1 1 -4.5t1 -5.5v-2v-2q14 -14 14 -31q0 -3 -1 -10.5t-1 -8.5q-1 -1 -1.5 -0.5t-0.5 2.5q-5 -45 -43 -45 q-32 0 -43 33q-11 31 -16 141q-5 78 0 156q6 123 8 150q-63 -26 -115 -33q-64 -8 -102 20q-52 38 -56 113zM180 1087v5v2v-7z" />
<glyph unicode="5" horiz-adv-x="706" d="M43 760q5 18 10 34.5t8.5 28t4.5 13.5q14 53 16 57q21 45 31 90q32 96 34 156q-2 0 -12 10q0 1 -1 2t-3 4t-4 8q-8 14 0 30.5t25 18.5q14 12 38 5h9q33 6 71 18q2 1 52 12t86 19q161 36 288 41q15 2 29 -11.5t14 -29.5q0 -18 -13 -30.5t-30 -12.5q-34 0 -78 -4 q-130 -21 -206 -35q-46 -8 -72 -14q-46 -10 -72 -15q-7 -3 -39 -8q2 -25 -2 -55q-6 -46 -30 -131q-53 -162 -70 -224q-38 -176 23 -176h4l24 6q11 1 53 17q69 24 111 34q98 25 160 11q78 -16 112 -92q50 -111 -18 -275q-56 -137 -143 -231q-66 -71 -136 -99q-91 -35 -151 2 q-51 33 -60 111q-2 17 5 107q4 43 43 43q18 0 31.5 -12.5t13.5 -30.5q-4 -47 -4 -84q0 -51 22 -58q2 -2 6.5 -2t5.5 -2q109 4 213 156q100 147 99 270q-4 121 -125 111q-4 0 -12 -1.5t-13 -2.5q-8 0 -69 -19q-10 -4 -47 -15q-35 -11 -54 -18q-75 -25 -121 -8 q-122 39 -57 281z" />
<glyph unicode="6" horiz-adv-x="679" d="M39 268q-16 139 18 316q33 157 115 360q41 100 82 180q11 22 25.5 50t17.5 34q4 5 14 24t15 25q-4 11 0 21q6 29 36 29h19q20 0 35 -21q10 -16 0 -41v2q-4 -9 -4 -12q-4 -4 -4 -6q-6 -5 -9 -15q-8 -11 -16 -28q-11 -17 -33 -62q-82 -154 -153 -360q-49 -144 -76 -365v-51 q40 69 90 119q124 121 264 121q84 4 135 -51q42 -48 47 -121q6 -101 -77 -213q-83 -113 -189 -164q-132 -63 -229 -8q-68 39 -99 123q-19 20 -12 45q-7 33 -12 69zM147 178l3 -2v-2q39 -92 116 -81q75 10 149 68q73 58 111 118q51 88 40 139q-10 51 -51 72q-41 20 -104 1 t-120 -73q-65 -57 -92 -113q-14 -24 -37 -67q-1 -2 -3.5 -9.5t-4.5 -9.5l-2 -6l-2 -4q-11 -14 -3 -31z" />
<glyph unicode="7" horiz-adv-x="647" d="M-4 1112q0 24 18 35q2 2 6 2q2 2 5 2q6 6 12 6q6 2 8 2q13 7 23 12q8 5 19 11.5t18 10.5t12 7q79 45 106 60q55 30 137 65q84 41 136 41q88 4 110 -72q14 -54 -8 -123q-30 -95 -99 -256q-75 -176 -91 -221q120 14 204 -4q15 -4 24 -19t5 -30q-6 -31 -39 -31 q-166 0 -235 -12q0 -4 -5 -12q-91 -225 -135 -373q-29 -94 -47 -186q-12 -66 -12 -99v-2l2 -4q18 -43 -16 -61q-14 -10 -34 -5t-28 21q-14 29 -13 69q1 34 9 70q6 27 6 33q26 142 111 371q6 15 26 69.5t33 88.5l-24 -7l-62 -18q-6 -2 -21 -6.5t-20 -5.5q-18 -14 -35 -9 q-15 7 -22 15q-15 12 -12.5 35.5t20.5 31.5q34 14 131 43q24 6 86 21q3 7 11.5 27t13.5 33q23 57 24 59q5 18 34 82q32 71 40 94l31 74q12 32 26 68t20.5 53t8.5 24q12 31 13.5 50.5t-6.5 26.5t-21 8.5t-30 -3.5q-34 -11 -68 -26q-23 -10 -29 -11q-21 -7 -78 -37 q-53 -32 -86 -45q-67 -36 -82 -45t-39 -23q-38 -16 -53 -16q-39 5 -39 41z" />
<glyph unicode="8" horiz-adv-x="724" d="M43 897q22 83 100 150q33 28 70 51q11 7 18 14q2 2 5 2l4 4q5 4 24 23q17 20 43 8l31 18q52 31 113 54q63 18 106 14q69 -11 100 -53q45 -58 39 -123q-6 -103 -110 -248q-8 -13 -33 -46l-33 -44q-18 -25 -51 -69q-34 -45 -41 -56q40 -33 64 -59q60 -68 79 -142 q22 -82 0 -164q-46 -155 -202 -237q-82 -42 -148 -43q-96 -4 -135 74q-51 102 41 272q70 131 166 264q1 1 4 6t4 6q-91 55 -113 70q-24 13 -61 43q-39 28 -53 49q-55 77 -31 162zM156 92q12 -39 56 -44t88 12t79 44q70 56 99.5 128.5t8.5 149.5q-23 80 -106 138l-2 2 q-2 2 -4 2q-209 -285 -219 -411v-19v-2zM188 973q-136 -135 19 -238q27 -17 57 -37q5 -3 42.5 -25t47.5 -28q40 57 123 168q42 53 74 107q17 24 33 57q12 26 18 51.5t3.5 49t-16.5 39.5t-40 22.5t-68 -2.5q-49 -13 -94 -43l-49 -31q-2 -1 -11.5 -8t-11.5 -8q-2 -2 -5.5 -5 t-4.5 -4l-2 -2q-36 -26 -63 -55q-17 -25 -52 -8z" />
<glyph unicode="9" horiz-adv-x="641" d="M49 788q-20 63 2 158q13 67 47 137q32 73 78 119q63 68 133 62q47 -5 84 -37q31 -22 33 -49q0 -23 -23 -37q-13 -8 -32 -4q-7 0 -11 6q-5 2 -24.5 15.5t-28.5 17.5q-67 12 -111 -78q-36 -71 -59 -152q-22 -88 -2 -140q8 -16 26 -16.5t49.5 20.5t68.5 62q70 73 141 215 q114 214 119 236q0 1 2 5t2 5q14 54 20 72q14 42 53 31q38 -8 33 -56q-5 -30 -20 -73q-7 -56 -17 -103q-24 -125 -67 -569q-6 -70 -29 -336l-12 -184q-8 -96 -8 -140q12 -14 8 -38q0 -4 -4 -16.5t-4 -14.5q-4 -18 -20.5 -26.5t-35.5 -4.5q-33 6 -32 43q-2 46 6 195 q3 17 8 90q4 61 6 90q6 109 27 321q30 310 41 402q0 4 2 16t2 15q-47 -85 -74 -123q-73 -115 -168 -193q-55 -43 -119 -28q-64 13 -90 85z" />
<glyph unicode=":" horiz-adv-x="368" d="M125 750q5 37 37 38q4 3 14 5q24 8 37 -11q17 -12 10 -43q-6 -25 -29.5 -37t-46.5 -2q-27 13 -22 50zM129 406q0 14 8.5 30.5t20.5 16.5v2h2q22 37 57 14q31 -17 21 -45q0 -31 -35 -49q-20 -12 -47 -5q-27 8 -27 36z" />
<glyph unicode=";" horiz-adv-x="417" d="M88 272q4 6 21 39q34 58 47 119v2q-22 28 6 57q30 27 61 0q27 -22 19 -79q-6 -39 -21 -66q-32 -82 -65 -123q-12 -14 -32 -13.5t-30 13.5q-26 25 -6 51zM152 750.5q-1 28.5 14 48.5q16 16 39 10q37 0 47 -33q6 -24 -29 -59q-25 -19 -51 -6q-19 11 -20 39.5z" />
<glyph unicode="&#x3c;" horiz-adv-x="845" d="M51 506q14 58 84 119q34 34 101 84q24 17 53 36q48 33 166 107q237 154 280 197q1 1 29 11q14 5 20 -1q28 -16 15 -53q-12 -23 -62 -64q-51 -39 -176 -121q-62 -43 -182 -119q-32 -22 -66 -43q-8 -8 -18 -14h-2q-5 -5 -23 -18q-38 -31 -114 -107v-2q-63 -63 92 -143 q3 -1 6 -4q69 -36 147 -76q94 -45 140 -70q72 -39 147 -96q37 -28 17 -61q-8 -16 -27 -21.5t-35 4.5q-103 78 -237 144q-84 40 -142 69q-21 9 -76 41q-62 37 -84 57q-72 63 -53 144z" />
<glyph unicode="=" horiz-adv-x="751" d="M145 702q-14 20 5 39q8 12 50.5 20.5t87.5 10.5q6 0 25.5 1.5l32.5 2.5q9 0 18.5 0.5t15 1t7.5 0.5q103 8 227 4q43 -4 43 -43q0 -16 -12.5 -29.5t-30.5 -13.5q-98 2 -229 -2q-95 -6 -117 -8q-23 0 -59 -4q-13 -2 -33 0q-16 1 -31 20zM168 560q0 25 20 36q21 8 31 8h10 h25q24 4 76 4q43 0 69 2q132 7 193 6q16 0 28.5 -12t12.5 -29q0 -37 -41 -40q-78 -9 -197 -13q-55 -4 -96 -4h-49h-23q-21 0 -39 8q-20 8 -20 34z" />
<glyph unicode="&#x3e;" horiz-adv-x="864" d="M-54 21.5q-4 17.5 5 33.5q3 5 22.5 31t30.5 41q61 74 135 132q33 26 68 55q26 21 82 57q17 11 32.5 21t27.5 17t14 9q9 6 85 52q18 11 76 46q33 23 66 43q31 15 49 27q40 25 56.5 38.5t22.5 29.5q7 16 -7 31t-52 34q-55 30 -208 91q-151 60 -228 108q-34 18 -67 49 q-21 20 -33 34q-7 7 -21 29q-8 14 -4 29.5t19 23.5q23 12 45 -6q9 -9 12 -10l2 -2v-2q9 -5 27 -23q47 -37 97 -65q45 -27 92 -47q47 -21 101 -40q75 -29 91 -36q3 -1 8 -4h2q3 -2 10.5 -5.5t9.5 -4.5q84 -34 117 -58q72 -47 80 -98q6 -45 -14 -80q-18 -28 -45 -51 q-15 -13 -57.5 -36.5t-53.5 -31.5q-4 -2 -34 -20q-18 -11 -29 -19q-47 -30 -68 -41q-243 -146 -387 -278q-29 -29 -53 -59q-19 -19 -19 -23l-2 -2q-15 -24 -22 -31q-22 -37 -62 -16q-15 10 -19 27.5z" />
<glyph unicode="?" horiz-adv-x="608" d="M76 1350q-16 54 37 139q29 50 61 86q38 49 80 92q52 53 108 84q62 37 130 29q57 -10 88 -58q30 -47 23 -123q-3 -30 -17 -77q-16 -49 -27 -77q-13 -35 -37 -81q-9 -18 -21.5 -41t-15.5 -29q-15 -29 -37 -67q-26 -45 -30 -51q-31 -53 -64 -121q-14 -25 -38 -72 q-13 -23 -29.5 -55t-16.5 -33q-10 -17 -38 -79q-42 -93 -54 -173v-2l-2 -2v-10v-19q0 -2 2 -4v-4q0 -2 1 -5t1 -5q18 -39 -14 -60q-35 -20 -57 17q-39 56 -7 166q19 55 60 155q36 74 157 312q14 29 44 82q9 15 17 29.5t12 22t5 9.5q53 104 88 186q45 104 18 158 q-29 53 -134 -20q-4 -4 -7 -4l-2 -3q-1 -2 -5.5 -5.5t-6.5 -4.5q-1 -1 -10 -9t-12 -11q-86 -77 -158 -207v-2q-2 0 -2 -4q-6 -6 -6 -17v-2q10 -10 6 -34q-6 -18 -23 -29q-31 -17 -59 14q-6 8 -8 19zM88 221v12q-4 22 10 35q13 13 21 17q7 7 24 12q29 11 45 -18q14 -20 0 -41 q-13 -25 -34 -43q-26 -20 -48 -7q-22 12 -18 33z" />
<glyph unicode="@" horiz-adv-x="1345" d="M166 301q6 137 55 281q51 156 139 286q94 139 223 232q127 92 273 96q162 6 266 -98q112 -110 125 -303q6 -86 -8 -170q-14 -80 -39 -146q-51 -123 -106 -196q-106 -141 -211 -117q-104 23 -140 184q-14 75 -14 154q-21 -36 -53 -78l-55 -66q-18 -24 -46 -45 q-37 -29 -69 -36q-55 -7 -86 26q-39 43 -27 135q12 110 96 207q45 53 95 62q44 4 69 -11q24 -14 49 -47q2 0 3 -2q1 -3 2 -4q24 36 28 55q12 87 51 125q20 20 49 9t27 -41q0 -51 -37 -115l-2 -6v-6q-4 -35 -4 -117q0 -295 86 -295l2 -2h13q77 27 136 120q57 90 83 203 q24 109 18 221t-49 173q-64 91 -159 121.5t-187 -4.5q-95 -33 -184 -107.5t-154 -175.5q-92 -141 -132 -277q-40 -134 -32 -309q0 -122 70 -208q69 -87 194 -87q10 2 25 2q4 0 10 2h2q34 5 41 8q104 19 307 148q35 20 60 -14q9 -15 4.5 -33t-21.5 -27q-34 -21 -70 -43.5 t-49 -30.5t-14 -8q-65 -37 -149 -67q-176 -56 -305 6q-113 50 -159 173t-40 263zM481 381q18 -41 129 106q59 78 66 103q-25 -4 -37 12l-12 12l-2 2q-7 7 -11 7h-2q-50 0 -99 -97q-50 -98 -32 -145z" />
<glyph unicode="A" horiz-adv-x="1038" d="M-12 385q0 31 30 39q54 17 76 20q11 121 35 285q5 42 21 134q7 50 10 63q0 4 2.5 20t4.5 28q1 9 2.5 20.5t3 19t1.5 12.5q0 16 8 51v4q0 1 1 6t1 7t1 12t1 12q8 39 41 39q15 0 28 -12.5t11 -26.5q-13 -122 -41 -297q-37 -265 -37 -280q0 -6 -2 -36q0 -8 -4 -36q6 2 33 8 q0 3 1.5 8.5t4 15t4.5 17.5q44 191 107 369q24 64 65 164q44 104 72 157q43 82 90 144q19 27 49 55q34 34 64 47q31 13 52 13q11 0 19 -3q37 -16 52 -45q22 -46 30 -155q5 -62 5 -141q0 -105 -9 -240q-9 -167 -16 -312q116 9 256 9q16 0 29.5 -12.5t13.5 -28.5 q0 -18 -13.5 -30.5t-29.5 -12.5q-134 0 -258 -13h-2l-6 -166q-5 -126 -7 -286q1 -19 3 -64q0 -37 2 -63q1 -6 1.5 -28t2.5 -28q0 -2 1 -12t1 -14q2 -2 2 -10v-2v2v-2q1 -7 1 -14q0 -32 -32 -40q-19 -4 -36 5t-19 26q-11 77 -15 176q-1 40 -1 87q0 173 12 427 q-138 -12 -291 -43q-113 -22 -131 -26q-52 -245 -80 -476q0 -27 -6 -53q-6 -43 -6 -47q1 -7 1 -13q0 -43 -24 -79q-14 -26 -43 -21q-30 5 -37 33q-22 80 -22 256v15q1 149 12 301q0 4 1 16t1 14q-46 -9 -57 -10q-14 -2 -27.5 11.5t-13.5 29.5zM166 244q16 93 27 139l-19 -6 q-3 -25 -8 -133zM311 500q212 46 404 65q0 15 4 91q5 103 8 128q14 269 14 362v21q0 40 -5 110q-1 17 -3 32t-4.5 27t-5 21t-6 13.5t-6.5 3.5q-61 -14 -156 -192q-35 -66 -70 -150q-2 -2 -2 -4q-1 -3 -4 -8q0 -1 -4 -8t-4 -11q-4 -12 -14 -34q-8 -37 -33 -90 q-57 -156 -111 -367q0 -2 -1 -5t-1 -5z" />
<glyph unicode="B" horiz-adv-x="1040" d="M29 -98q5 74 14 102q17 56 47 72q3 3 8 4l6 2q-39 8 -47 53q-8 23 -8 54q0 14 2 30q5 88 8 107q16 132 39 241q12 72 39 195q0 19 2 33q1 39 11 192q8 149 8 215q0 14 11 25.5t26 11.5q35 0 34 -37q2 -50 2 -112v-37q35 83 66 143q44 86 74 133q29 56 78 121 q57 70 102 90q34 14 47 14q17 0 33 -10q21 -11 31 -31q15 -28 15 -66q0 -8 -1 -17q-6 -43 -23 -101q-34 -98 -84 -203q-58 -121 -90 -176q-43 -75 -69 -119q74 42 129 58q49 13 94 13q33 0 63 -7q71 -17 121 -61q99 -80 127 -236q12 -60 12 -124q0 -94 -26 -193 q-43 -166 -129 -301q-89 -146 -207 -244q-110 -97 -252 -149q-43 -17 -85 -17q-31 0 -61 9q-72 21 -114 91q-53 89 -53 214v18zM119 82q21 -5 31 -21q8 -14 8 -26q0 -19 -21 -33l-2 -2q0 -4 -2 -4l-2 -4v-4q-3 -5 -8 -33q0 -2 -2 -8v-19q-1 -21 -1 -41q0 -111 38 -169 q37 -55 97 -54q14 0 30 3q77 16 160.5 68.5t158.5 131.5q158 164 230 399q18 71 18 76l3 17q3 17 3 24l2 4v4q0 3 1 10.5t1 8.5q4 35 4 68q0 104 -42 191q-55 112 -161 138q-20 5 -41 5q-92 0 -210 -85q-8 -8 -19 -14l-6 -4l-4 -4q-17 -14 -33 -25q-37 -34 -63 -55 q-13 -13 -31 -13.5t-31 13.5q-4 0 -4 4q0 -130 -8 -244q-7 -74 -14 -123q-6 -56 -19 -102q-16 -61 -53 -76q-2 -2 -8 -2zM219 684q7 12 37 66q14 25 86 144q69 111 98 173q124 243 146 363v2v8q2 12 0 18q-1 -1 -11 -6q-4 -4 -6 -4l-6 -6q-64 -64 -129 -178 q-49 -88 -61 -113q-80 -162 -131 -342q-20 -75 -23 -84v-41z" />
<glyph unicode="C" horiz-adv-x="1073" d="M78 446q1 185 53 371q52 177 125 297q67 122 150 193q92 82 173 83q24 0 48 -8q62 -18 112 -86q18 -29 29 -55q16 -10 18 -31.5t-12 -38.5q-14 -14 -41 -10q-17 1 -37 35q-3 4 -10.5 18.5t-9.5 18.5q-46 62 -102 62q-101 0 -230 -205q-77 -123 -117 -265 q-61 -199 -61 -396q0 -53 4 -105q6 -138 55 -261l2 -2l2 -8q51 -91 115 -132q53 -34 110 -34q12 -1 24 1q69 8 141 62q106 79 221 245q34 51 82 135q28 53 143 305q8 15 26.5 20t32.5 -4q32 -23 21 -49q-103 -245 -166 -354q-90 -153 -193 -266q-55 -58 -122 -109 q-78 -57 -146 -72q-39 -11 -76 -11q-46 0 -88 17q-73 28 -131 91q-87 102 -121 262q-24 123 -24 250v36z" />
<glyph unicode="D" horiz-adv-x="1024" d="M37 -92q1 134 39 321q1 19 3.5 73t3.5 83q1 26 2.5 61t3 58t1.5 39q8 135 21 405q5 131 10 182q10 75 12 82q5 39 14 62q17 35 50 26q15 -4 23.5 -19t2.5 -30q-2 -4 -8 -32q-15 -77 -22 -340q0 -41 -4 -101q-5 -77 -5 -104q83 291 236 581q73 132 135 191q51 46 96 57 q21 6 42 5q38 0 73 -19q90 -52 123 -209q30 -150 29 -318q0 -122 -15 -253q-26 -213 -80 -375q-55 -159 -135 -295q-90 -156 -192 -240q-142 -105 -250 -105q-51 0 -94 23q-2 2 -5 2q-8 -18 -31.5 -20.5t-37.5 12.5q-35 39 -39 103q-2 42 -2 94zM158 -31q0 -48 2 -90 q0 -5 1 -25t1 -26q10 -10 10 -14q31 -29 74 -29q15 0 31 3q65 14 121 50q58 38 89 78q170 190 281 549q34 158 47 333q7 96 7 186q0 84 -6 163q-14 171 -64 235l-4 7q-24 24 -53 24q-33 0 -71 -33q-70 -63 -135 -189q-122 -239 -165 -374q-61 -182 -107 -366 q-38 -172 -53 -244q-4 -80 -4 -137t-2 -101z" />
<glyph unicode="E" d="M102 653q7 134 119 303q90 141 199 254q137 139 282 220q120 64 220 77q34 6 64 6q99 0 147 -65q28 -35 28 -83q0 -12 -2 -26q-1 -30 -22 -87q-20 -50 -25 -72q0 -9 -2 -15q-11 -32 -38 -32q-7 0 -15 2q-13 4 -23 15.5t-8 25.5v8q0 15 31 102q14 30 14 47q2 9 2 18 q0 30 -22 49q-28 25 -78 25q-94 0 -201 -56q-104 -54 -190 -130q-45 -37 -66 -57q-182 -182 -278 -377q-45 -83 -45 -144q0 -44 23 -77q33 -46 97 -46q45 0 107 23q4 2 32.5 15t99 45.5t140.5 64.5q15 6 27 6q23 0 35 -22q18 -28 -6 -54q-33 -34 -96 -93q-64 -59 -81 -72 q-167 -167 -270 -375q-37 -79 -54 -154q-5 -22 -6 -41q-1 -24 9 -42q16 -32 57 -32h10q60 0 121 40q31 22 50 33q11 7 57 47q36 31 45 40q40 34 94 92q4 6 20.5 23t20.5 22q11 11 18 25q1 0 2 1t3 1q6 6 6 10q18 23 38 23q10 0 21 -6q16 -10 21.5 -27t-5.5 -35 q-73 -101 -178 -194q-117 -102 -219 -150q-77 -34 -135 -34q-46 0 -80 22q-68 42 -68 136q0 34 9 75q18 72 47 131q27 62 71 133q46 75 86 127q56 78 97 121q12 14 26 26l-55 -18q-54 -17 -113 -25q-13 -1 -25 -1q-45 0 -73 12q-55 18 -86 67q-31 54 -31 115v14zM1110 1192 h2q-2 8 -2 0z" />
<glyph unicode="F" horiz-adv-x="616" d="M-111 543q0 27 27 35q58 15 106 25q9 2 25.5 5.5t22.5 5.5q1 32 10 185q6 84 8 102q6 71 10 120q9 125 11 165q-26 5 -37 10q-17 10 -19 33q2 25 20 44t42 21q0 90 -4 131q0 9 -2 15q0 36 36 40q36 5 43 -28q12 -44 12 -124q0 -17 -1 -36v-8q51 17 91 32q15 5 35 12 t33.5 12t22.5 8q109 32 127 38q12 3 32 9t25 8q132 34 191 41q51 10 104 12h49q13 0 23 -2h12q2 -2 12 -2q37 -4 37 -39q0 -15 -11.5 -27t-25.5 -10q-8 0 -33.5 -1t-31.5 -1q-30 0 -66 -4q-4 0 -14 -1t-12 -1q-1 0 -6 -1t-7 -1h-8q-36 -6 -43 -8q-36 -5 -94 -21 q-52 -11 -188 -51l-126 -42q-29 -10 -59 -19q-35 -12 -71 -21q0 -8 -1 -39t-1 -41q-13 -310 -15 -403v-80q17 5 74 16q144 28 257 29q50 0 93 -6q41 -5 41 -41q0 -16 -12 -28.5t-29 -10.5q-25 1 -50 1q-145 0 -286 -30q-6 0 -88 -18q0 -70 8 -236q7 -188 31 -401 q7 -80 12 -121q6 -33 17 -69q0 -2 1.5 -7t4 -13.5t4.5 -16.5q9 -34 10 -45q9 -44 9 -70q0 -9 -1 -16q-4 -45 -43 -45q-32 0 -43 32q-32 81 -49 269q-42 193 -59 383q-14 162 -14 331q-74 -16 -142 -22q-14 -2 -25.5 10t-11.5 27z" />
<glyph unicode="G" horiz-adv-x="1013" d="M4 266q20 340 189 678q78 150 174 279q96 127 163 180q58 49 119 72q34 13 66 13q30 0 59 -11q46 -19 72 -54q20 -27 24 -61q4 -19 9 -70v-10q0 -2 1 -5q1 -4 1 -5q7 -6 12 -12q14 -26 -4 -48l-2 -2q-6 -6 -6 -8q-1 -2 -21 -12q-10 -4 -25.5 2t-21.5 18q-15 29 -22 107 v12q-1 0 -3 2q-9 49 -41 65q-14 8 -30 8q-19 0 -40 -11q-74 -36 -122 -88q-89 -89 -147 -177q-57 -83 -93 -143q-61 -109 -139 -311q-86 -261 -86 -512q0 -42 2 -84q10 -178 137 -241q46 -22 97 -22q93 0 206 72q51 36 115 97q60 68 127 174l14 28q34 77 34 135 q0 77 -60 122q-61 44 -164 44h-8q-126 -26 -149 -28q-19 -1 -32 11q-14 14 -14 32q0 32 33 45q4 1 19.5 6t19.5 6q62 15 111 19q24 4 198 32q156 25 275 33q18 0 30.5 -13.5t12.5 -31.5q0 -39 -43 -43q-65 0 -236 -29q52 -33 78 -86q23 -47 23 -105q0 -11 -1 -22 q-11 -124 -94 -252q-91 -141 -223 -237q-144 -105 -288 -105h-5q-76 4 -127 33q-51 26 -90 78q-59 83 -78 211q-9 72 -9 143q0 41 3 82z" />
<glyph unicode="H" horiz-adv-x="1101" d="M-250 412q5 20 25 24q3 1 11.5 1.5t10.5 2.5h6h2q22 5 31 9q2 0 64 18q1 0 139 37l49 12v16q1 119 14 406q2 35 6 101q1 25 3 59t2 43l12 202q4 37 35 37q16 0 26.5 -10t10.5 -27q0 -27 -11 -352q-10 -180 -12 -354q0 -8 -1 -50t-1 -52q104 24 168 34q163 32 285 49 q1 24 10 119q11 114 47 402l25 202q10 91 16 201q0 16 11.5 28.5t29.5 12.5q16 0 28.5 -12t12.5 -29q0 -74 -17 -233q-10 -96 -34 -301q-31 -265 -41 -375q224 29 415 41q14 2 26.5 -10.5t12.5 -28.5q0 -37 -39 -41q-152 -11 -421 -49v-2q-1 -4 -2 -19.5t-3 -19.5 q-15 -219 -20 -813q0 -18 -13.5 -31.5t-31.5 -13.5q-19 0 -32 13t-13 32q2 104 2 235q7 382 22 604q-8 -1 -40.5 -6.5t-59.5 -9.5q-171 -28 -344 -65q0 -151 4 -216q0 -9 2 -79q1 -22 4 -76q4 -11 4 -35v-6q0 -17 9 -33l4 -12l2 -2v-4l2 -2q16 -16 15.5 -32t-15.5 -32 q-10 -10 -29.5 -10.5t-32.5 10.5q-36 45 -43 129q-6 52 -6 119q-6 130 -6 260q-6 -2 -56.5 -14.5t-88.5 -22.5q-9 -2 -37.5 -11t-38.5 -11q-35 -6 -59.5 -6.5t-38.5 6.5q-25 13 -17 43z" />
<glyph unicode="I" horiz-adv-x="661" d="M-61 1313q0 35 36 43q28 8 41 -10h4q7 0 13 2h2q1 0 8 1t10 1q47 10 90 12q75 9 101 10q96 9 114 10q13 84 23 113q11 35 40 35q7 0 15 -2q31 -10 31 -43v-4q0 -14 -4 -21q-3 -7 -8 -41l-6 -30q79 4 153 3q126 0 240 -10q43 -4 43 -43q0 -16 -14 -30.5t-29 -12.5 q-76 5 -174 7h-51q-90 0 -179 -5q-33 -239 -51 -649q-3 -107 -4 -210q0 -266 23 -502h4q190 32 321 32h8q41 -5 41 -43q0 -18 -12 -29.5t-31 -11.5q-72 0 -323 -32q2 -18 -12.5 -32t-32.5 -14q-31 0 -41 31q-3 -1 -30.5 -5.5t-35.5 -6.5q-138 -34 -158 -35q-14 0 -26 12.5 t-12 28.5q0 33 28 37q24 5 84 20q16 4 30.5 8t25.5 7t14 4q26 7 67 14q0 6 -2 28.5t-3 38.5t-3 38t-2 28q-12 156 -12 339q0 212 16 460q23 315 39 438q-32 -6 -76 -6q-30 -1 -116 -14q-82 -12 -131 -12q-36 0 -52 8q-2 2 -4 2l-8 6q-22 14 -22 37z" />
<glyph unicode="J" horiz-adv-x="1024" d="M35 823q6 60 37 129q28 61 57 109q39 64 115 156q84 108 176 169q90 66 171 66q24 0 48 -6q75 -18 121 -87q48 -71 61 -153q11 -67 13 -174q0 -106 -9 -190q-12 -150 -37 -289q134 93 271 152q15 7 28 7q21 0 33 -22q10 -14 5 -34.5t-21 -26.5q-118 -52 -236 -131 q-6 -6 -26 -18q-12 -8 -33 -23q-1 -1 -13.5 -10.5t-15.5 -12.5h-2v-2q-2 0 -6 -4q-2 -2 -4 -2q-41 -234 -61 -328q-46 -215 -99 -368q-49 -136 -57 -160q-43 -99 -78 -131q-45 -39 -89 -39q-26 0 -52 14q-43 22 -70 86q-20 54 -20 117v22q0 55 8 121q26 152 94 297 q67 141 184 269q66 72 158 149q6 10 6 27q34 194 45 354q6 78 6 155v38q0 200 -61 270q-36 38 -87 38q-49 0 -110 -34q-51 -28 -104 -79q-90 -89 -150 -183q-32 -44 -57 -92q-55 -100 -55 -166l2 -2q0 -2 2 -8v-2q6 -13 6 -25q0 -20 -20 -33q-14 -8 -32 -3t-26 20 q-16 26 -16 73zM330 -332q0 -80 8 -110q10 -41 27 -57.5t41 1t49 72.5l6 12l2 4q0 5 4 9q16 41 57 161q52 157 99 371q12 59 39 203q-2 -2 -5 -5.5t-4 -4.5q-112 -95 -194 -234q-84 -141 -111 -291q-4 -21 -12 -71v-2v-5l-2 -4q0 -10 -2 -18q0 -17 -2 -31z" />
<glyph unicode="K" horiz-adv-x="704" d="M-31 283q0 11 4 28q27 122 117 277q0 8 2 10q11 254 23 403q9 168 10 201q0 8 1 50t1 51q0 29 -2 51q0 2 -1 11t-1 11v4v2q-2 2 -2 4v5q-1 7 -1 14q0 29 30 37q34 12 47 -19l6 -12v-4q8 -37 8 -80q2 -22 2.5 -42.5t-2.5 -41.5q-2 -91 -21 -401q-6 -60 -6 -109 q76 107 162 205q123 140 254 256l16 12q-2 0 -6 -4l2 2l13 13q21 16 39 32q16 14 45 29q18 9 32 9q17 0 29 -13q22 -27 0 -49q-12 -13 -29 -11l-8 -6h-2l-2 -2q-29 -25 -45 -41q-4 -2 -14 -12.5t-15 -13.5l-2 -2l-8 -9q-1 -1 -8 -6.5t-8 -7.5q-17 -17 -31 -29 q-100 -100 -127 -129q-52 -57 -119 -139q-27 -35 -28 -37q-2 0 -2 -2l-9 -8l-12 -18q-10 -12 -53 -74q-28 -40 -70 -111q-6 -78 -6 -131q-4 -95 -4 -157q10 0 16 6q10 0 23 8q1 1 4 2t4 2h4l37 18q73 36 158 91q30 19 73 53q3 3 21 14l2 2q1 1 4 3q2 2 4 3q4 4 17.5 14.5 t17.5 14.5q67 56 133 115q16 13 31 13l31 -13q12 -12 12 -31t-12 -31q-139 -130 -273 -221q-161 -110 -309 -156q-1 -49 -1 -98q0 -243 17 -465q2 -18 -12 -31.5t-33 -13.5q-41 0 -45 45q-3 30 -8 162q-7 136 -7 273q0 55 1 110q-18 0 -37 6q-42 14 -55 45q-10 17 -13 37 q-4 15 -4 27zM55 281q1 -1 2 -8t2 -9l2 -2v-2l2 -2h3l4 -2h8h2q0 37 1 65q1 27 1 62q0 -5 -4 -12q-7 -20 -23 -86v-4zM59 264q0 -2 1 -2t1 -2q0 2 -2 4z" />
<glyph unicode="L" horiz-adv-x="704" d="M45 307q-1 36 -1 73q0 149 19 320q11 110 52 402q3 9 8 51q0 1 1 10t1 11l2 6v12q7 40 14 98q1 9 5.5 48t5.5 48q0 4 2 14.5t2 14.5q0 9 2 19v4q6 50 16 57q16 16 40 8q25 -8 26 -30q0 -11 -2 -23v-8q0 -13 -2 -23q0 -4 -1.5 -20.5t-1.5 -22.5q-2 -15 -8 -86 q-7 -68 -22 -172q-72 -542 -72 -780v-6q1 -95 12 -193q0 -4 2 -19.5t2 -19.5v-4l3 -4v-2q0 -3 1 -10t1 -8q6 -42 18 -76q2 -2 2 -6.5t2 -5.5l2 -4l6 -13q8 -8 8 -14q0 -2 7 -8q0 -3 16 -19q0 -1 1 -1.5l3 -1.5t4 -3h2h6h4l3 2q3 0 10 4l4 4q2 0 2 2l12 13q6 5 27 30l8 9v2 q1 2 7 8t7 8q17 23 95 154q28 52 90 159l202 351q12 25 33 25q13 0 29 -9q23 -14 23 -34q0 -12 -9 -27l-110 -190t-82.5 -143t-36.5 -63q-61 -114 -88 -159q-47 -83 -105 -154q-62 -83 -124 -83q-6 0 -11 1q-86 12 -131 131q-17 49 -31 160q-12 127 -12 186z" />
<glyph unicode="M" horiz-adv-x="1263" d="M35 -270q-3 6 -3 19q0 20 7 56q0 30 -2 56q0 102 2 180q12 392 88 721q27 124 76 285q28 101 67 198q50 120 82 162q49 71 104 71q11 0 23 -3q49 -12 76 -78q16 -38 25 -115q4 -37 7 -127q3 -83 3 -100q5 -97 13 -179q7 -74 26 -222q10 -80 22 -181q11 -69 23 -100 q7 -34 14 -54q2 -3 5 -14t5 -14q0 -6 4 -10q0 -3 3 -7l2 -4q2 -2 2 -4l6 19q9 38 10 53q0 13 6 27v10q0 2 2 4q0 18 8 90q5 61 23 193q26 173 67 372q22 106 62 205q26 60 57 92q33 36 67 36q19 0 38 -11q32 -19 49 -78q12 -53 12 -104q3 -33 3 -74q0 -55 -5 -123v-109v-202 q4 -352 33 -621q2 -10 8 -61q0 -3 1 -10.5t1 -8.5q0 -4 2 -6q0 -10 4 -29q6 -62 19 -114q4 -20 22 -90q6 -6 6 -15q0 -1 1 -2t1 -2l2 -2q14 -8 18.5 -25.5t-5.5 -31.5q-12 -23 -34 -23q-11 0 -26 6h-2l-2 2l-2 2q-8 6 -22 25q0 1 -2.5 5t-7 12.5t-9.5 17.5q-12 39 -22 88 q-18 83 -39 248q-7 71 -13 143q-4 34 -6 66q-11 157 -16 401v203v127q4 72 4 142v46q0 57 -10 88q0 9 -4 21l-6 -6q0 -2 -2 -2l-25 -43q-1 -6 -6 -15l-2 -4q-1 -2 -4.5 -12t-5.5 -12q-30 -82 -58 -226q-25 -126 -35 -186q-8 -41 -14 -92q0 -2 -2 -12t-2 -13q0 -6 -2 -12v-4 q-4 -27 -6 -41q0 -1 -11 -112q-11 -93 -18 -144q-7 -58 -22 -103q-32 -73 -75 -73h-5q-53 2 -84 69q-28 60 -41 115q-11 40 -19 94q-18 100 -30 207q-30 204 -37 389q-6 63 -6 127q0 92 -9 137v9q-2 6 -2 12q-6 31 -14 51v2l-2 2q0 4 -4 8l-2 2q0 4 -2 4q0 2 -2 2v3h-2 l-2 -3l-4 -2l-19 -18l-4 -4v-2q-3 -3 -10 -14q-27 -40 -39 -74q-4 -7 -10 -21q-4 -7 -4 -12h-3v-2q-10 -16 -18 -45q-53 -145 -113 -373l-30 -135q-16 -82 -31 -176q-4 -31 -6 -47q-2 -6 -2 -12v-5q-2 -1 -2 -9.5t-2 -10.5q0 -1 -4.5 -41t-6.5 -49q-15 -164 -22 -352v-148 q0 -31 -2 -53q-7 -54 -31 -68q-12 -7 -23 -7q-20 0 -34 24z" />
<glyph unicode="N" horiz-adv-x="1024" d="M37 -319q0 8 2 35.5t2 35.5q9 220 10 262q5 330 8 404q6 210 25 405q26 248 47 406q1 7 6.5 40t9.5 60q7 63 17 94q3 9 8.5 40t7.5 40q11 44 29 70q18 28 49 12q29 -14 12 -47q0 -4 -6 -10q-4 -7 -4 -10q-32 -146 -39 -230q0 -18 -8 -53q0 -1 -1 -6t-1 -6v-2v-2 q-1 -3 -2 -13t-2 -12q-7 -62 -12 -100q-12 -134 -21 -199q-23 -239 -27 -403q-4 -116 -4 -195q64 224 160 438q94 211 186 355q66 104 117 147q61 55 116 55q15 0 30 -4q84 -22 102 -164q10 -60 10 -227v-137v-203q0 -278 10 -407q4 -50 9 -78q0 -2 1 -13t1 -14v-2q2 0 2 -2 q0 -6 2 -12q5 -44 8 -56q6 -32 14 -53q1 -3 5 -13.5t6 -12.5v-3q0 -4 6 -10q1 -3 10 -18l2 -2l6 -6l2 -2q1 -1 4 -3l2 -2h7q17 -2 25.5 -19t4.5 -36q-8 -32 -42 -32q-6 0 -13 1q-61 10 -100 107q-21 54 -37 147q-25 181 -25 654v191v87q0 91 -6 155q-6 68 -35 87q-7 4 -15 4 q-49 0 -151 -147q-25 -37 -53 -91q-36 -62 -133 -264q-83 -208 -105 -270q-65 -183 -104 -371q-11 -52 -16 -94q-5 -17 -9 -49q0 -2 -2 -11t-2 -12v-2v-2v-6l-2 -4l-12 -129q0 -6 -1 -30t-1 -31q-2 -19 -15 -32.5t-30 -13.5q-16 0 -30.5 14t-14.5 32z" />
<glyph unicode="O" horiz-adv-x="1265" d="M37 809q17 232 123 440q58 117 166 219q129 114 243 136q30 5 59 5q41 0 81 -10q72 -18 131 -71q109 -94 157 -264q42 -135 42 -307q0 -142 -29 -310q-13 -83 -31 -153q91 59 139 96q3 3 21 16l8 6q4 4 6 4q16 10 33 27q64 52 76 64q16 14 30.5 14t28.5 -14 q13 -13 13.5 -31t-13.5 -31q-138 -125 -277 -215q-58 -40 -102 -63q-10 -39 -35 -103q-45 -123 -94 -211q-61 -111 -127 -172q-90 -78 -180 -84q-11 -1 -22 -1q-106 0 -181 87q-71 88 -94 244q-6 61 -6 121l6 98q-23 15 -41 35q-133 125 -133 363q0 31 2 65zM130 674 q14 -117 69 -195l2 -2v-2h2q1 -3 8 -10q6 -8 14 -16q2 9 12 41q9 34 18 60q8 24 24 55q24 52 59 52q10 0 20 -4q27 -12 43 -49q11 -29 -24 -43q-16 -4 -29 6l-2 -4l-2 -6l-2 -4q-8 -13 -8 -23q-19 -70 -25 -98q-1 -4 -4 -18.5t-4 -18.5q108 -53 232 -53q146 0 315 74 q2 2 10 6t10 6q31 93 52 217q32 166 32 307q0 151 -37 273q-19 72 -49 127q-82 154 -224 160h-12q-136 0 -263 -130q-13 -14 -48 -51q-1 -1 -5.5 -6.5t-6.5 -7.5q0 -2 -2 -4l-2 -2q-6 -11 -18 -27q-35 -51 -60 -102q-1 -3 -5 -11.5t-5 -11.5l-6 -12v-2l-19 -49 q-65 -164 -65 -330q0 -46 5 -92zM289 203q0 -25 4 -62l2 -6v-2q0 -1 1 -7t1 -7q6 -16 6 -29q7 -37 16 -59q0 -2 5 -17q2 -2 2 -4l12 -24q12 -23 16 -27q3 0 4 -4l2 -4l2 -2q1 -1 3 -4q1 -1 5 -6t8 -9.5t7 -5.5q0 -3 4 -4l4 -2l4 -4q12 -9 27 -14q2 -2 4 -2q6 -3 10 -4t8 -3 q9 -4 17 -4q2 -2 8 -2h2q18 -4 37 0h8q2 2 8 2l21 7q4 4 8 4q2 0 2 2q2 1 9 3.5t9 4.5q12 8 21 12l6 6l2 2q29 25 68 70q0 2 2 2v2q2 1 8 10q0 1 3 5t6.5 9t4.5 7t4.5 7t10.5 16l14 22q14 25 51 98q1 3 5.5 13.5t6.5 13.5l7 16q8 15 20 51q6 10 14 39q-3 -3 -18 -8 q-121 -50 -253 -50q-61 0 -124 11q-81 13 -145 41q-2 -24 -2 -49t2 -51z" />
<glyph unicode="P" horiz-adv-x="968" d="M51 -231q0 11 2 49.5t3 66.5q3 78 3 117q7 365 56 813q25 222 51 406q5 37 16 92q5 27 17 92q17 110 47 149q18 25 45 19q29 -11 28 -39v-59q-5 -33 -32 -33q-6 -21 -15 -82q-15 -89 -32 -217q-2 -6 -2 -17q-2 0 -2 -2v-2q0 -2 -1.5 -12t-1.5 -12q-2 -16 -6 -47 q0 -1 -5.5 -45.5t-6.5 -55.5q-10 -85 -20 -200q-12 -131 -19 -207q51 155 107 274q73 165 129 250q90 153 204 233q57 43 113 60q31 8 56 8q18 0 34 -4q76 -19 94 -119q6 -38 6 -82t-6 -94q-12 -92 -34 -172q-22 -76 -74 -195q-2 -7 -13.5 -27.5t-13.5 -25.5q90 35 180 47 q30 3 41.5 -26.5t-10.5 -51.5q-7 -7 -31 -12h-2q-6 -2 -10 -2q-13 0 -20 -4q-4 -2 -21.5 -5t-21.5 -5q-83 -29 -88 -31q-3 -1 -13 -5t-12 -5h-2q-2 0 -2 -2q-2 0 -4 -2h-4q-16 -7 -45 -21l-4 -4q-57 -91 -91 -133q-50 -72 -141 -174q-34 -38 -78 -82q-59 -51 -84 -63 q-36 -19 -66 -19q-19 0 -34 8q-10 6 -20 17q-13 18 -15 32v17q6 46 23 82q28 60 88 129q51 55 108 100q111 90 246 156q101 180 150 338l18 78q15 60 23 138q1 16 1 30q0 24 -4 42q-17 59 -59 59q-8 0 -18 -2q-39 -9 -90 -46q-6 -6 -11 -6l-12 -13q-18 -13 -27 -22 q-20 -20 -49 -53q-1 -1 -6.5 -8t-7.5 -9q0 -2 -2 -2l-2 -4l-2 -2q-20 -27 -21 -29q-47 -64 -77 -127q-43 -78 -64 -127q-10 -17 -27 -59q-94 -183 -151 -442q-36 -180 -47 -383q-2 -66 -3 -198t-3 -198q0 -18 -12.5 -31.5t-30.5 -13.5q-15 0 -28 9.5t-15 23.5 q-15 97 -17 236zM276 150q55 27 131 113q80 89 128 159q-78 -44 -156 -126q-77 -81 -103 -146z" />
<glyph unicode="Q" horiz-adv-x="1136" d="M-7 -371.5q4 17.5 19 25.5q142 73 330 131q-119 51 -182 197q-52 123 -68 294q-7 78 -7 159q0 67 5 136q13 200 64 338q57 159 120 203q19 12 38 12q26 0 50 -24q14 -14 14 -28t-14 -28q-18 -23 -47 -6l-6 -6l-2 -2q0 -2 -4 -6q-133 -225 -133 -551q0 -112 16 -237 q0 -7 2 -11q0 -7 4.5 -28t4.5 -23q33 -181 112 -254q57 -54 120 -54q24 0 48 8q90 28 177 120q86 91 141 223l20 41v4l2 4l2 4q8 13 8 21q67 164 101 344q29 161 35 254q5 67 5 125t-5 108q0 7 -2 17v4q-2 3 -3 14t-2 14q-17 91 -56 140q-38 48 -84 48h-2q-46 -1 -95 -38 t-92 -104q-97 -156 -125 -302q-5 -19 -15 -67q-4 -23 -4 -35l-2 -4v-4q0 -3 -1 -9t-1 -8q-15 -120 -15 -211q0 -112 23 -180v-2l2 -2q1 -1 3 -4l2 -2q18 -31 -7 -53q-10 -13 -28 -13.5t-31 13.5l-2 2q-1 2 -4.5 6t-5.5 6q0 4 -4 8q0 1 -2.5 7.5t-6 14.5t-4.5 13 q-9 34 -16 84q-5 56 -5 116q0 44 3 91q6 150 39 285q72 268 217 409q84 75 168 75q29 0 57 -9q193 -63 197 -412q0 -88 -15 -213q-19 -179 -59 -332q-50 -189 -127 -344q-89 -177 -190 -272q-2 -2 -8 -7.5t-9 -6.5q33 7 121 20q48 5 90 5t78 -5q40 -6 78 -22q59 -23 59 -60 q0 -9 -4 -20q-6 -25 -33 -25q-23 0 -32 21q-39 31 -133 31q-150 0 -441 -81q-27 -7 -33 -8q-78 -21 -178 -59q-21 -8 -45 -19q-5 0 -12 -4h-2l-21 -10q-66 -30 -86 -39q-14 -6 -25 -6q-22 0 -34 23q-9 14 -5 31.5z" />
<glyph unicode="R" d="M33 -233q-1 26 -1 52q0 231 48 466q1 108 12 215q4 54 13 137q5 41 6 63q6 98 18 201q23 241 57 402q2 15 17 23.5t30 4.5q34 -10 27 -49l-6 -39v-8q-2 -6 -2 -12q-2 -1 -2 -7t-2 -8q-2 -18 -6 -51q-4 -15 -4 -24q0 -1 -1 -5t-1 -6v-6q-1 -7 -3 -25t-4.5 -37t-5.5 -38 q-9 -68 -20 -199q-1 -16 -10 -121q96 251 223 424q97 128 188 201q96 71 179 71q37 0 71 -14q43 -18 64 -43q28 -33 38 -65q17 -48 19 -127q-6 -155 -80 -324q-63 -149 -190 -311q-67 -86 -150 -162q-101 -93 -186 -133q21 -14 56 -35q9 -6 22 -14t21.5 -13.5t14.5 -9.5 q152 -98 271 -155q102 -50 139 -54q2 0 4 -2h4h17q18 0 31.5 -13t13.5 -32q0 -18 -13.5 -31.5t-31.5 -13.5q-37 0 -103 21q-39 13 -141 63q-111 59 -266 160q-117 67 -136 78q-16 10 -32 16q-48 5 -78 23q-4 -113 -4 -189q-2 -54 -2 -126q0 -85 -3 -151q-3 -72 -10 -124 q0 -25 -20 -39q-15 -8 -35 -4q-35 6 -43 53q-5 17 -10 66q-3 31 -3 56q0 13 1 24zM172 299h2q5 -2 32.5 -11.5t51.5 -17.5h2h6q2 0 8 2t9 2l18 7q1 1 4.5 2t5.5 2q15 6 35 18q104 57 215 177q109 118 189 249l43 80q1 3 9.5 20t10.5 23l12 25q63 127 63 249q0 28 -3 56 q-8 64 -34 96q-25 31 -66 31h-3q-74 -2 -182 -111q-50 -50 -151 -186q-49 -75 -91 -158q-65 -140 -131 -334q-29 -102 -55 -221z" />
<glyph unicode="S" horiz-adv-x="1054" d="M59 868q8 125 105 242q74 94 207 180q119 75 233 113q137 47 221 47q125 0 138 -102q2 -15 -11 -27t-28 -12q-33 0 -39 28q0 7 -2 13l-2 2v2l-2 2l-5 2h-2q-15 7 -41 7q-44 0 -122 -19q-173 -43 -289 -129q-213 -130 -261 -332q-6 -27 -6 -53q0 -81 58 -156q0 -2 2 -2 q7 -10 12 -15q53 -59 217 -163q10 -7 49.5 -33t68.5 -45q84 -56 114 -74q94 105 194 199q117 102 181 149q16 10 33.5 5t27.5 -21q7 -13 7 -25q0 -21 -23 -37q-2 -1 -8 -4.5t-7 -5.5l-8 -6l-4 -4q-52 -41 -190 -168q-61 -61 -134 -139l35 -35q74 -83 92 -160q6 -30 7 -59 q0 -69 -35 -137q-27 -52 -72 -105q-41 -45 -65 -65q-43 -38 -87 -60q-57 -26 -86 -31q-15 -2 -29 -2q-39 0 -63 17q-45 33 -51 84q-6 35 -4 63q4 55 12 82q27 89 70 172q45 89 94 152q1 2 6 8t6 8l2 2q1 2 4 6.5t5 5.5q2 4 12.5 17.5t13.5 17.5l6 6l-4 5q-11 7 -18 14 q-15 8 -43 29q-49 33 -90 57l-172 110q-90 61 -139 121q-92 110 -92 232q0 13 1 26zM479 -162q-7 -34 -7 -58q0 -57 42 -57q5 0 10 1q71 11 168 112q34 35 47 62q43 56 43 130q0 15 -2 30q-11 95 -82 147l-14 14q-6 -7 -34 -48q-38 -51 -40 -54q-44 -59 -71 -121 q-9 -14 -19 -41v-2q-2 -2 -2 -4l-2 -2q0 -4 -2 -4q-6 -10 -6 -21q-23 -58 -29 -84z" />
<glyph unicode="T" horiz-adv-x="495" d="M-369 1202q0 30 33 43q54 16 139 31q39 5 47 -27v-2q36 4 196 28q99 15 198 28q0 20 4 49q0 57 4 84q5 39 10 49q14 20 33 26q39 7 49 -28q2 -9 -2 -33.5t-4 -32.5q-2 -8 -2.5 -38t-1.5 -38q-2 -14 -2 -30q439 37 680 39h53q6 -1 27.5 -4t27.5 -5q14 -2 22.5 -17t4.5 -32 q-6 -25 -37 -28h-12q-6 -2 -13 -2h-20h-45h-88q-9 0 -87 -2q-21 -1 -51 -3t-38 -2q-294 -17 -432 -34q-42 -502 -52 -678q-10 -206 -10 -383q0 -232 17 -416q2 -18 -12.5 -31.5t-33.5 -13.5q-41 0 -45 45q-7 103 -12 209q-3 86 -3 180q0 275 26 621q1 21 20 273 q7 100 10 126q0 36 7 59q-406 -54 -528 -54q-19 0 -32 1q-45 5 -45 43z" />
<glyph unicode="U" horiz-adv-x="1087" d="M109 580q6 207 38 403q12 90 37 170q18 64 33 86q27 30 41 31q5 1 11 1q28 0 48 -28q8 -15 3.5 -30.5t-17.5 -24.5q-7 -6 -18 -6l-2 -2q0 -12 -7 -17q-10 -29 -22 -92q-2 -6 -12 -57q-45 -201 -45 -539q0 -60 4 -151q6 -64 8 -78q0 -16 4 -39v-2q0 -6 2 -8q0 -3 1 -10.5 t1 -8.5q12 -80 33 -143q1 -8 10 -33q6 -10 6 -16q0 -2 2 -2v-2q32 -76 79 -76q53 0 124 96q31 42 49 80q106 183 205 450q7 21 50 132q40 103 56 149q21 60 23 66q27 194 59 331l5 20t9.5 34.5t6.5 23.5q7 41 14 68q26 93 70 131q20 16 42.5 10.5t31.5 -29.5q11 -27 11 -63 q0 -53 -24 -123q-7 -31 -22 -75q-5 -14 -23 -64q-19 -69 -59 -189q-2 -8 -16.5 -48.5t-16.5 -49.5v-4l-12 -98l-12 -197q-4 -153 -4 -277q0 -62 1 -118q8 -132 15 -197q0 -29 6 -51q0 -2 1 -11.5t1 -13.5l2 -6v-8q7 -60 16 -98q18 -90 29 -123q1 -4 6 -17.5t6 -17.5l2 -4v-4 l2 -4q2 -6 5 -8l12 -25h2v-2q5 -5 8 -6q14 -13 13.5 -32t-13.5 -32q-14 -14 -30 -14t-33 14q-32 28 -58 99q-21 63 -28 112q-30 137 -43 312q-13 138 -13 324v71q4 80 4 133q-56 -154 -102 -260q-97 -222 -180 -340q-104 -150 -200 -150q-28 0 -56 13q-30 13 -60 55 q-29 36 -53 104q-46 114 -59 299q-9 92 -9 218q0 42 1 88z" />
<glyph unicode="V" horiz-adv-x="880" d="M20 1090q0 36 33 43q21 8 43 -11l4 -4q2 -2 4 -2l7 -6q9 -6 18 -20q38 -62 70 -228q11 -51 45 -280q50 -382 84 -537q27 -140 71 -227q0 -2 7 -8v-3v3q3 1 10 8q0 2 1 2t1 2q2 0 2 2q10 14 20 35q44 86 91 289q19 88 36 145q3 12 26 95q4 16 10 37t9.5 35t5.5 23 q133 503 230 754q28 75 70 168q2 4 9 19.5t13 27.5q20 42 25 51q18 32 22 37q1 2 6.5 11t7.5 12q4 0 5 4q2 0 2 1t2 1q13 13 30.5 13.5t30.5 -13.5q12 -12 12 -30.5t-12 -31.5l-4 -4l-10 -20q-28 -54 -29 -56q-32 -59 -61 -133q-2 -7 -6 -14v-2q-2 -2 -5 -9t-4 -9l-12 -31 q-22 -59 -51 -144q-38 -109 -117 -374q-11 -39 -52 -190q-10 -38 -19.5 -74.5t-18.5 -70.5t-12 -46q-1 -3 -3.5 -12.5t-5.5 -21.5t-7 -25q-11 -35 -17 -68q-9 -39 -14 -64q-27 -117 -52 -192q-40 -129 -86 -185q-27 -37 -63 -43q-34 -6 -60 11q-28 16 -45 51q-20 36 -41 113 q-5 14 -26 86q-7 32 -21 94q-16 79 -43 250q-11 87 -18 149q-11 64 -25 182q-19 143 -37 215q0 2 -1 6.5t-2 8.5t-2.5 11.5t-2.5 13.5q-8 39 -10 47q-11 47 -35 81l-4 9q-12 1 -18 16v-2v2q-6 6 -6 10l4 -8q-8 17 -9 25zM94 1124q0 -2 1 -2t1 -2q0 2 -1 2t-1 2z" />
<glyph unicode="W" horiz-adv-x="1247" d="M49 764q12 209 37 395q11 110 25 195q6 51 16 92q0 2 10 47q6 6 6 20q14 53 51 53q5 0 11 -1q35 -12 31 -43q0 -27 -3 -39q0 -17 -14 -33q-7 -28 -20 -98q-24 -137 -56 -498q-16 -215 -16.5 -413.5t16.5 -379.5q0 -6 1.5 -16t3.5 -29t3 -33q4 -49 11 -99q6 -39 20 -79 q1 -10 8 -22q0 -3 3 -4q0 -4 4 -8q3 -5 6 -11v-2l2 -2q9 15 10 17q8 14 14 28q8 6 56 152q3 10 12.5 42.5t16.5 56.5q18 63 24 87q18 63 51 195q35 130 96 393q3 12 20 75q10 36 19 75q12 127 49 243q13 34 40 34q8 0 16 -3q13 -4 24 -17t9 -26v-4q-17 -114 -39 -203 q-1 -4 -5.5 -20.5t-5.5 -20.5q0 -3 -1 -9t-1 -7q-1 -30 -6 -88q-4 -81 -4 -155q0 -113 10 -207q15 -155 84 -298q44 -87 94 -86q53 0 113 96q54 88 82 195q23 94 37 174l18 98q4 37 9 52q0 3 1 12t1 10l2 8v9q15 115 22 198q6 83 8 101q0 9 4.5 48.5t4.5 49.5q4 43 43 43 q16 0 29.5 -14t11.5 -29q-2 -26 -2 -61q-2 -43 -3 -62l-12 -123q-15 -153 -31 -254q-4 -28 -34 -188q-25 -113 -45 -170q-27 -81 -76 -156q-52 -85 -109 -110q-38 -19 -73 -19q-43 0 -80 29q-52 40 -93 116q-68 136 -92 330l-6 80q-10 -45 -19 -80q-3 -11 -22 -80 q-2 -10 -5.5 -24t-9.5 -35.5t-10 -37.5q-21 -76 -26 -97q-5 -23 -24 -88q-7 -24 -16.5 -56.5t-12.5 -42.5q-19 -64 -49 -139q-32 -81 -62 -108q-26 -23 -55 -23q-8 0 -17 2q-28 6 -47 27q-36 39 -49 98q-10 35 -31 195q-27 210 -27 445q0 162 13 335z" />
<glyph unicode="X" horiz-adv-x="880" d="M72 -256q-2 6 -2 16q0 21 8 58q38 147 125 342q61 143 170 336q6 13 16 30q-22 53 -35 92q-45 124 -118 365q-23 80 -60 182q-16 49 -33 90l-5 15t-5 14q-12 6 -18 23q-6 19 -6 47q-2 29 29 38q30 9 44 -18q30 -61 101 -258q3 -8 50 -164q43 -141 64 -202q11 -37 47 -129 q140 234 320 489q66 96 192 266q84 110 95 123q60 75 118 107q13 6 24 6q22 0 36 -23q10 -14 5 -33.5t-22 -27.5q-8 -8 -14 -8q-4 -1 -10 -9q-2 0 -2 -2q-37 -28 -63 -56q-30 -33 -73 -94q-45 -65 -51 -71q-98 -129 -196 -276q-177 -250 -318 -494q14 -31 63 -143 q39 -95 73 -164q20 -50 41 -90q28 -61 45 -90q8 -17 36 -73q23 -48 33 -69q19 -40 41 -71q12 -21 23 -33v-2l2 -3q2 0 2 -1.5t2 -1.5q6 -10 10 -15q16 -18 16 -33t-16 -28q-13 -13 -32 -13.5t-29 13.5q-49 55 -127 209q-9 21 -41 85q-30 60 -35 71q-45 92 -84 180 q-21 43 -40 88q-29 68 -38 90q-5 -12 -16 -31q-43 -77 -86 -168q-30 -61 -41 -86q-10 -17 -21 -45q-6 -15 -8 -18v-2l-2 -4q0 -3 -4 -11q-25 -55 -66 -176q-17 -51 -22 -71q-2 -8 -4.5 -17.5t-4 -15t-1.5 -8.5v-11q-2 -6 -2 -16q2 -15 -10.5 -28t-28.5 -13q-36 0 -41 41z " />
<glyph unicode="Y" d="M49 653q18 310 96 584q7 27 36 30q28 3 42 -20q3 -3 6 -13t4 -11q10 -25 -14 -45q-84 -344 -84 -617q0 -218 70 -295q19 -23 46 -23q21 0 48 15q60 33 133 139q84 123 100 152q87 145 181 336q23 52 24 53q0 2 1 6t1 6q29 146 78 348q27 102 35 119q39 86 82 107 q14 8 26 8q20 0 35 -25q17 -27 17 -67q0 -28 -8 -62q-7 -36 -33 -106q-52 -149 -123 -305l-25 -56q-6 -55 -31 -221q-24 -147 -30 -233l-25 -209q-33 -315 -45 -488q-9 -169 -10 -198v-72q0 -2 1 -11.5t1 -13.5v-6l2 -2q2 -8 2 -16q0 -29 -33 -39q-19 -4 -36 4.5t-19 26.5 q-8 34 -8 67v24q0 46 4 146q7 95 18 230q13 156 48 479q8 69 18.5 159t13.5 115q-3 -8 -18 -35q-60 -108 -96 -163q-10 -17 -44 -66q-12 -17 -27 -38t-17 -25q-51 -75 -89 -111q-63 -63 -120 -72q-16 -3 -31 -3q-45 0 -82 24q-40 28 -66 72q-41 78 -53 206q-5 58 -5 119 q0 45 3 92z" />
<glyph unicode="Z" horiz-adv-x="1214" d="M154 -162q5 40 26 84q0 3 4 10l2 5h-2q0 -1 -2 -7l6.5 13t6.5 14l18 37q19 43 41 78q124 216 434 571q96 109 256 285q7 8 68 73q17 18 39 42t28 30q86 100 113 129q20 20 45 49q76 94 76 136v6q0 18 -40 22q-20 2 -39.5 2t-39.5 -2q-41 -5 -57 -10q-35 -6 -97 -23 q-176 -50 -354 -143q-82 -42 -154 -90q-138 -97 -200 -160q-21 -21 -27 -28q0 -25 -20 -39q-16 -9 -31 -13q-27 -11 -44 14q-17 23 -5 48q28 46 102 116l123 99q127 90 254 151q133 67 279 113q96 33 172 45q61 12 108 12q61 0 100 -20q48 -26 56 -74q3 -14 2 -29 q0 -54 -35 -110q-19 -31 -94 -119q-54 -58 -107 -119q-19 -21 -80.5 -88t-101.5 -111q-60 -67 -84 -92q-71 -78 -242 -274q-212 -257 -313 -422q-83 -153 -100 -211v-2v-8v-2h2q0 -2 2 -4h4q36 0 215 42q180 42 211 48q219 44 387 45q168 0 221 -8q153 -28 182 -135 q2 -9 2 -16q0 -30 -32 -40q-8 -2 -15 -2q-29 0 -41 33q-2 1 -2 5t-2 5q-2 5 -5 10l-3 5q-58 58 -240 58q-80 0 -184 -11q-18 0 -51 -4q-14 0 -23 -4h-12h-2q0 -1 -2 -2l-2 -1q-149 -19 -391 -77q-18 -5 -60 -18q-36 -11 -67 -17q-36 -10 -66 -10q-51 0 -84 28q-33 29 -33 67 q0 7 1 15z" />
<glyph unicode="[" horiz-adv-x="333" d="M47 -109q-6 257 37 809q1 31 8 127l10 150q3 39 7 127q6 155 4 192q0 7 -2 69t-2 71q0 95 20 149q33 82 94 109q58 25 181 30q47 1 83 7q15 2 28 -11.5t13 -29.5q0 -33 -30 -39q-32 -7 -90 -11q-121 -13 -152 -28q-59 -35 -59 -164l6 -141q2 -39 -4 -187q0 -7 -2 -40.5 t-3 -59.5q-4 -65 -6 -100q-24 -329 -28 -406q-14 -189 -23 -403q-12 -363 13 -410q2 -2 2 -4h6h6l4 2q5 0 16 4q31 8 82 33q111 40 168 57q104 26 187 27q18 0 31.5 -13.5t13.5 -32.5q0 -18 -13.5 -31t-31.5 -13q-68 0 -197 -33q-97 -33 -166 -62q-100 -39 -149 -18 q-45 19 -54 104q-8 78 -8 170z" />
<glyph unicode="\" horiz-adv-x="688" d="M-37 1538q0 2 2 5t2 5l2 2q5 8 17 17q19 10 37 4q27 -5 26 -35q0 -9 -4 -16q1 -12 10 -35q1 -2 8.5 -19.5t14 -33.5t8.5 -23q27 -81 49 -146q36 -105 47 -147q7 -22 21 -66.5t38 -119.5t45 -143q101 -318 124 -388q108 -337 235 -669q6 -16 -4 -32.5t-27 -21.5 q-36 -12 -53 29q-103 250 -225 635q-23 70 -124 388q-58 183 -103 329q-101 314 -107 332q0 2 -16 38q-12 28 -17 50q-14 52 -4 67q-1 -2 -2 -6z" />
<glyph unicode="]" horiz-adv-x="419" d="M-176 -391q-4 17 5.5 34t27.5 21q47 11 94 21q24 5 53.5 12t34.5 8q86 17 90 19q66 10 66 28v4q0 43 -7 126q-8 88 -6 141q2 77 9 216q7 169 8 197q3 88 5 283q1 56 1 129q0 248 12 409q8 91 16 205q8 120 5 174v4q-5 23 -31 23q-27 0 -41 -6q-38 -15 -60 -19 q-83 -29 -124 -36q-79 -16 -123 14q-32 27 -15 53q8 14 23.5 18.5t30.5 -4.5l8 -4h2q2 -2 4 -2h2h12h15h6q10 6 26 6q18 4 125 41q78 27 119 25q49 -5 76 -29q24 -24 29 -57q6 -48 2 -168q-1 -12 -3.5 -46.5t-3.5 -53.5q-7 -78 -8 -105q-10 -102 -12 -203q-2 -46 -2 -103 t-2 -103q0 -289 -4 -412q-1 -57 -8 -219q-7 -141 -9 -195q-2 -31 0 -114q2 -110 2 -153q0 -72 -6 -91q-1 -7 -16 -23q-5 -5 -35 -16q-42 -16 -43 -16q-32 -8 -96 -21q-174 -38 -199 -43q-42 -12 -55 31z" />
<glyph unicode="_" horiz-adv-x="911" d="M61 66q-6 18 9.5 32.5t33.5 10.5q5 -1 17 -3q2 -2 4 -2l6 -2h4q1 0 6 -1t6 -1q28 0 64 4q30 7 53 7q13 2 82 8q336 27 381 28q18 0 30.5 -13t12.5 -30q0 -39 -43 -43l-393 -30q-26 -1 -78 -6q-28 -5 -59 -7q-43 -4 -64 0q-19 0 -33 7h-2l-4 2q-2 3 -10 4q-1 1 -4 3 q-1 1 -2 1.5t-2 1.5q-5 5 -15 29z" />
<glyph unicode="a" horiz-adv-x="655" d="M-47 389q-1 12 -1 26q0 28 3 62q12 87 51 185q52 126 121 178q32 23 67 23q8 0 17 -1q47 -2 94 -53q27 -23 0 -47q-15 -17 -39 -6q-7 3 -22.5 14t-16.5 12h-2l-4 2q-7 2 -15 2q-36 0 -72 -57q-45 -74 -64 -145q-14 -40 -23 -88q0 -14 -4 -21q0 -1 -1 -17.5t-1 -25.5 q-1 -11 -1 -21q0 -60 22 -72q5 -3 10 -3q25 0 71 51q92 118 191 326q20 39 47 99q29 63 59 122q26 51 45 78q20 28 54 8q17 -10 22 -39v-8q0 -36 -16 -115q-53 -290 -72 -614q-6 -131 -7 -209q0 -19 1 -35q0 -138 14 -174q6 -16 -3 -32.5t-25 -20.5q-24 -8 -41 11.5 t-23 60.5q-10 66 -10 114q0 30 -0.5 61t0.5 62q0 63 8 225q7 125 29 293q4 43 16 113l-22 -45q-76 -159 -168 -295q-46 -73 -97 -107q-33 -24 -67 -26h-3q-37 0 -73 24q-42 32 -49 125z" />
<glyph unicode="b" horiz-adv-x="610" d="M-29 178q-1 22 -1 43q0 96 22 187q0 48 1 87t1 87q7 186 29 428q6 87 16 198q5 54 10 76q8 53 47 55q16 0 29.5 -13t13.5 -30q0 -11 -4 -18q0 -2 -2 -4q0 -2 -1 -14.5t-1 -16.5q-9 -89 -10 -113q-15 -156 -25 -323q0 -7 -2 -34t-3 -47t-3 -47t-2 -34q45 72 94 109 q46 32 87 31q20 0 40 -7q53 -23 82 -94q16 -43 19 -92q30 21 57 35q22 14 70 37q21 13 47 18q4 2 18 5t18 5q15 4 29.5 -4t16.5 -22q10 -33 -25 -45h2q-3 -1 -6.5 -2t-5.5 -2l-2 -1l-2 -2h-2q-3 -1 -51.5 -24t-67.5 -35q-24 -13 -64 -41l-4 -4l-4 -4q-10 -6 -18 -14 q-2 -18 -2 -37q-6 -93 -31 -176q-10 -38 -64 -173q-39 -89 -92 -159q-44 -52 -86 -56h-7q-48 0 -77 72h-2q-1 0 -3 -1t-3 -1q-29 0 -43 33q-27 84 -33 184zM80 395q0 -82 4 -198q2 3 7.5 13t17.5 32t24 43q97 153 191 237v4q-2 164 -58 164h-4q-61 -6 -129 -149 q-2 -3 -6.5 -14t-5.5 -13l-6 -12q-1 -5 -4 -8q-16 -44 -31 -99zM137 -2q1 -3 8 -8q45 45 123 233q34 86 47 164v8q-1 -1 -4 -4.5t-4 -5.5q-55 -55 -139 -211q-41 -78 -41 -131q0 -26 10 -45z" />
<glyph unicode="c" horiz-adv-x="737" d="M-74 307q5 108 31 205q13 63 43 131q46 118 92 184q77 113 150 113q50 0 84 -45q36 -42 43 -164q2 -15 -12.5 -29t-30.5 -14q-41 0 -45 43q0 84 -23 107q-13 15 -31.5 7t-36.5 -32q-52 -71 -90 -158q-1 -3 -4.5 -12.5t-5.5 -11.5q-4 -7 -4 -10q-70 -162 -70 -317 q0 -21 1 -42q6 -105 59 -160q32 -36 79 -36q51 0 121 43q37 21 76 60q9 9 24.5 24t26.5 26.5t20 20.5q32 32 69 79q13 16 32.5 40.5t25.5 32.5q22 27 48 64t31 42q6 8 23 34t28 43q28 42 53 78q23 29 51 13q31 -16 13 -50q-14 -30 -37 -69q-84 -148 -209 -295 q-100 -121 -209 -199q-92 -66 -178 -66q-10 0 -21 1q-64 5 -106 32q-44 32 -70 78q-41 79 -41 189v20z" />
<glyph unicode="d" horiz-adv-x="591" d="M-92 285q-1 11 -1 23q0 59 17 138q27 111 68 197q26 53 45 80q32 44 65 61q28 16 54 15q17 0 32 -6q42 -17 76 -64q6 -5 10 -16q31 97 50 174q18 70 22 90q11 141 35 289q0 4 1.5 12.5t4 23.5t4.5 29q5 34 13 74q7 35 13 62q18 79 48 132q18 29 51 21q28 -7 33 -43 q2 -21 2 -45q0 -93 -31 -223q-19 -77 -32 -128q-25 -97 -33 -128q-20 -86 -21 -92q-2 -25 -6 -78q-12 -192 -12 -383v-29q5 -197 18 -389q1 -22 35 -293q11 -59 20 -98q17 -57 27 -84q11 -39 53 -84l2 -2h4h5q16 6 32.5 -3.5t20.5 -27.5q4 -17 -4.5 -33t-26.5 -20 q-16 -5 -31 -5q-57 0 -102 66q-36 55 -61 158q-24 93 -37 199q-21 165 -35 362q0 35 -3 108q-1 26 -3 62t-2 47q-2 68 -2 156q-146 -364 -230 -424q-39 -26 -74 -26q-28 0 -53 16q-49 34 -61 129zM2 381q-5 -35 -5 -64q0 -50 15 -81l4 -5q4 -4 9 -2h2q31 5 67 62 q41 68 64 122q18 43 29 67q1 1 29 69q5 12 10 26t8 21t4 10q9 21 16 45q-13 -8 -25 -8q-17 0 -31 14t-12 31h-2q-13 14 -27 14q-37 0 -85 -92q-2 -8 -4 -10l-19 -37q-34 -87 -47 -182z" />
<glyph unicode="e" horiz-adv-x="591" d="M-59 332q-3 30 -3 61q0 102 35 219q0 7 -4 11q-8 35 23 45q45 145 112 245q53 74 107 113q64 47 121 47q12 0 24 -2q37 -8 61.5 -36.5t28.5 -65.5q2 -14 2 -30q0 -58 -32 -130q-32 -76 -84 -139q-56 -73 -113 -95q-52 -25 -104 -25q-27 0 -54 7q-6 2 -10 2 q-27 -46 -30 -148v-16q0 -91 32 -174q34 -88 105 -88q61 0 127 66q159 159 295 456q6 16 25.5 21.5t33.5 -4.5q15 -13 15 -32q0 -14 -9 -32q-77 -169 -131 -256q-77 -120 -131 -180q-78 -87 -154 -115q-37 -14 -69 -14q-51 0 -94 35q-112 83 -125 254zM76 639h4q6 -2 10 -2 q102 0 143 41q114 117 127 242q1 10 1 19q0 38 -22 46q-27 10 -52 -10q-44 -25 -88 -84q-54 -68 -109 -209q-7 -15 -14 -43z" />
<glyph unicode="f" horiz-adv-x="352" d="M-229 840q14 36 51 37q44 15 58 20q10 4 73 27q25 10 55 20q34 258 98 449q56 177 140 309q56 90 90 123q54 55 104 59q30 2 54 -17.5t30 -49.5q7 -23 7 -53q0 -34 -9 -78q-12 -67 -35 -136q-45 -152 -143 -407q-26 -68 -53 -133q118 25 248 37q39 3 71 3q15 0 29 -1 q48 -2 76 -19q14 -8 18 -24.5t-4 -30.5q-8 -15 -24.5 -20t-30.5 3h-2q-29 7 -70 7q-27 0 -59 -3q-8 -1 -35.5 -4.5t-46.5 -6.5q-12 -2 -29.5 -4.5l-28 -4l-17.5 -2.5q-1 0 -28.5 -5t-48.5 -9q-35 -7 -59 -13q-32 -78 -80 -174q-43 -84 -68 -121q-18 -26 -34 -36 q-5 -121 -7 -273q-2 -51 -2 -104q0 -150 13 -316q0 -3 3 -37t3 -53q0 -50 4 -71v-21q25 -6 29 -37q1 -18 1 -33q0 -42 -8 -67q-6 -26 -35 -31q-30 -5 -44 21q-18 34 -27 96q-6 45 -21 313q-5 99 -5 247q0 73 1 159q0 172 13 332q2 72 12 141q-6 -2 -13 -4.5t-10.5 -4 t-5.5 -1.5q-9 -4 -48 -18t-48 -17q-13 -5 -35 -12q-8 -5 -20 -5q2 0 10 2l-2 -2h-12q-20 0 -33.5 16.5t-9.5 37.5zM78 750q1 6 10 20q28 58 55 119q-2 -2 -6 -2q-25 -6 -47 -13q0 -4 -12 -124zM100 969l25 6q6 1 30 7t31 7q16 42 23 53l17 42.5t26 66.5q35 85 82 217 q44 126 65 195q45 159 45 210q0 15 -4 21q-60 -32 -115 -123q-56 -90 -84 -166q-24 -64 -67 -192q-45 -151 -72 -336q0 -6 -2 -8z" />
<glyph unicode="g" horiz-adv-x="894" d="M-70 395q6 87 33 193q21 72 64 176q31 66 63 117q49 66 98 82q17 5 33 5q46 0 86 -40q23 -20 47 -66q21 -42 23 -47q10 -17 16 -43q0 -2 2 -5t2 -5q42 69 89 69h1q51 -1 72 -55q8 -21 8 -96q0 -9 1 -49t1 -47q4 -153 4 -258q49 66 80 102q53 70 129 152q5 5 31.5 33 t39.5 40q9 8 36 31q10 10 27.5 10t27.5 -10q12 -12 12 -29.5t-12 -27.5l2 2q-86 -86 -192 -217q-59 -70 -138 -179q-37 -51 -47 -67q-1 -17 -3.5 -66.5t-3.5 -74.5q-1 -27 -3.5 -76t-3.5 -66q-7 -159 -16 -340q-12 -159 -35 -329q-27 -207 -72 -324q-32 -81 -74 -127 q-73 -80 -140 -80h-9q-63 4 -109 50.5t-69 119.5q-23 77 -23 182q0 33 2 70q6 66 19 123q6 27 22 71q10 31 21 64q73 262 278 621q38 68 131 213q0 1 1 9t1 11q1 38 1 93q0 109 -3 284q-1 8 -2 48.5t-2 49.5l2 17q0 14 -2 14q-41 -53 -53 -82q0 -15 -12 -29q-1 -11 -9 -22 q-3 -8 -12.5 -34t-16.5 -44q-17 -44 -30 -76q-55 -127 -70 -155q-38 -77 -73 -121q-53 -69 -113 -69q-16 0 -33 5q-69 19 -104 119q-22 64 -22 144q0 17 1 36zM29 260q12 -53 35 -66t47.5 5t50.5 57q37 60 69 134q3 10 14 36t17 43q3 8 27 70q13 32 28 75l19 43q0 6 -7 30 q-10 34 -12 40q0 12 -8 25q-29 85 -63 108q-14 9 -27 9q-22 0 -44 -23q-36 -36 -71 -125q-1 -1 -2 -4l-2 -2q0 -4 -2 -6q-8 -20 -8 -21q-2 -4 -7 -19.5t-7 -19.5q-6 -20 -13 -40.5t-10.5 -32.5t-5.5 -17q-28 -117 -28 -205q0 -52 10 -94zM96 -967q-2 -16 -2 -33 q0 -58 22 -118q28 -77 71 -99q11 -6 24 -6q21 0 46 17q40 28 81 100q40 91 55 170q11 52 18 93q5 27 14 106q4 36 10 99q2 23 9 103q2 38 7 89q9 181 16 340l6 122q-81 -129 -156 -286q-83 -167 -100 -228q-9 -19 -33 -82q-77 -205 -88 -387z" />
<glyph unicode="h" horiz-adv-x="870" d="M-25 72q-1 28 -1 68q0 80 3 208q10 216 27 397q12 157 49 381q44 269 94 459q18 59 52 74q31 18 51 -12q17 -29 -12 -52q-2 0 -2 -4h-3q0 -1 -1 -5t-1 -5q-9 -31 -10 -39q-7 -24 -20 -84q-9 -45 -14 -65q-11 -47 -15 -64q-12 -72 -21 -127l-16 -98q-1 -7 -5 -41t-5 -39 q-3 -10 -8 -49q-4 -7 -4 -23v-12q-2 -2 -2 -4q-16 -129 -21 -199q-12 -130 -24 -397q-1 -56 -2 -113.5t-2 -87.5t-1 -41q9 26 17 57q14 50 16 56q28 99 58 174q74 186 147 279q46 61 102 79q34 12 58 5q20 -6 39 -31q15 -25 22 -74q6 -31 15 -96q7 -54 20 -101q5 -18 8 -22 q0 -2 1 -4t1 -4q2 -2 2 -4q1 -4 11 -19q2 -2 2 -4q2 0 2 -1t2 -1l6 -6q2 0 2 -2v2h2q2 0 6 4q5 5 13.5 8t11.5 6v2q9 8 16 13q55 47 145 149q35 40 58 68q7 7 18 22q5 5 8 6q0 2 -2 0q26 29 56 13q15 -8 19 -25.5t-5 -32.5q-2 -2 -6.5 -8.5t-5.5 -7.5q-1 -2 -7 -8.5 t-12 -14.5t-8 -14q-85 -102 -131 -149q-30 -30 -74 -70q-47 -36 -78 -47q-15 -5 -28 -5q-32 0 -58 26q-39 37 -55 90q-10 29 -37 198q-6 33 -8 41q0 1 -2 6t-2 6h-4q-2 -1 -8 -5t-8 -5l-3 -2q-2 0 -2 -2q-3 -1 -10 -8q-14 -14 -20 -23l-9 -8l-2 -6l-4 -4q-42 -60 -73 -129 l-19 -37l-6 -18l-4 -9q-4 -9 -16 -37q-13 -31 -13 -32q-29 -78 -57 -187q-5 -20 -13.5 -51.5t-11.5 -42.5q-17 -49 -18 -78q-2 0 -2 -4v-8q0 -2 -2 -12.5t-2 -14.5q0 -16 -6 -32q-11 -48 -37 -74q-14 -16 -38 -13t-32 21q-6 10 -6 17q-11 32 -16 94q-4 39 -9 125z" />
<glyph unicode="i" horiz-adv-x="239" d="M-29 137q0 54 4 207q0 11 1.5 27t3 39.5t2.5 41.5q7 82 8 107q10 107 10 139q5 35 33 41q35 12 49 -20q4 -4 8 -17q4 -17 -2 -28q0 -4 -4 -68.5t-9 -111.5q-9 -118 -12 -179q-3 -94 -3 -151q0 -28 1 -47q0 -25 5 -35v-2v-6q0 -5 3 -12.5t3 -10.5q18 -18 12 -41 q-6 -18 -18 -24q-7 -4 -9 -4q-14 -2 -28 0q-1 2 -6 2t-7 2v2q-3 1 -8 6q-2 0 -2 2q-19 17 -26 57q-4 31 -9 84zM53.5 1039q6.5 24 30.5 34q18 4 29 -4q23 -14 21 -41q-3 -27 -21 -36q-19 -9 -47 7q-19 16 -12.5 40zM72 49q2 0 0 2v-2z" />
<glyph unicode="j" horiz-adv-x="512" d="M-467 -807q11 104 27 182q40 168 127 328q78 144 284 412l2 2q2 2 2 4q0 12 2 104q3 67 3 103q0 114 2 200v101q0 33 12 45q18 18 43 12q35 -11 31 -45q0 -13 -5 -18q3 -65 3 -162t-3 -228q162 204 429 445q16 16 32 16t31 -16q13 -13 13.5 -32t-13.5 -32 q-150 -135 -252 -241q-111 -119 -182 -209q-3 -2 -12 -13t-11 -14q-1 -3 -10 -12q1 0 -4 -6t-13 -16t-12 -17q-5 -195 -16 -324q-17 -180 -39 -327q-33 -223 -78 -367q-27 -87 -63 -149q-38 -66 -86 -97q-31 -17 -63 -17t-66 17q-97 50 -113 207q-5 46 -5 93q0 35 3 71z M-381 -915q0 -23 2 -41q0 -7 2 -13v-8l2 -6q6 -98 66 -113q7 -2 14 -2q54 0 100 94q7 12 7 17q2 2 2 4q2 2 2 4q2 4 7.5 18.5t6.5 18.5q17 46 25 82q22 75 43 182q29 147 41 266q3 16 8 82q14 117 20 254q0 4 1 20.5t1 20.5q-77 -95 -121 -166q-230 -352 -230 -675 q0 -19 1 -39zM-24 1023q-8 31 13 47q9 8 23 7q22 1 33 -19t2 -40.5t-35 -20.5q-28 -4 -36 26z" />
<glyph unicode="k" horiz-adv-x="638" d="M-117 162q-11 33 21 51q4 2 19.5 13t19.5 14l6 6l4 2q-6 -2 -14 -2q-18 0 -30.5 13t-12.5 30q-1 8 -1 17q0 87 54 216q0 1 2 5t5.5 12t6.5 16q13 31 21 43l18 252q18 234 37 420q29 249 41 329q0 7 7 43q2 10 4.5 23t4 21t2.5 14q16 80 69 80q8 0 17 -2q25 -6 21 -43 q0 -18 -17 -29v-2l-2 -4q-10 -45 -10 -47q-2 -5 -18 -115q0 -1 -1 -7t-1 -9q0 -5 -2 -9q0 -15 -4 -36q-10 -79 -11 -82q-25 -256 -37 -394l-18 -227q62 94 162 201q57 58 106 96q73 48 127 55q9 1 18 1q43 0 76 -29q33 -31 33 -81q0 -61 -49 -163q-68 -132 -205 -311 q-62 -79 -141 -174q-63 -72 -123 -125q87 9 166 10q133 0 246 -27q16 -4 25.5 -20.5t4.5 -32.5q-7 -31 -51 -22q-134 12 -223 12q-34 0 -61 -2q-18 -1 -140 -10q0 -2 -6 -2v-29q-5 -165 -5 -264q0 -50 1 -84q4 -122 21 -181q4 -16 -6.5 -33.5t-26.5 -21.5q-8 -2 -15 -2 q-27 0 -38 33q-7 15 -11 43q-3 15 -8 74q-5 74 -5 184q0 55 1 119q0 60 4 147q-15 0 -22 -4q-8 -1 -15 -1q-33 0 -41 32zM57 336q31 30 93 98q87 106 102 125q7 8 15.5 18t8.5 11q7 7 7 10l2 2q69 91 94 131q137 208 137 287v4v6l-2 2q0 2 -2 2v2q-5 5 -14 5q-37 0 -142 -81 q-60 -60 -84 -88q-66 -73 -98 -122q-46 -65 -92 -156q-2 -2 -6.5 -11.5t-5.5 -11.5v-16q-2 -33 -13 -217z" />
<glyph unicode="l" horiz-adv-x="305" d="M-27 592v4q0 3 1 8t1 6q5 11 15 43q13 313 71 645q27 154 50 238q12 48 28 88q19 49 60 49q30 -5 37 -22q12 -29 12 -76v-18q0 -88 -17 -205q-13 -101 -38 -236q-28 -146 -62 -270q-25 -94 -39 -141q-7 -22 -12 -35q-10 -199 -10 -371v-80v-106q0 -62 1 -109 q2 -84 5 -117q12 -146 25 -197q11 -41 22 -65q22 -18 22 -37q0 -12 -8 -24q-8 -14 -26.5 -19.5t-32.5 2.5q-36 28 -49 70q-16 42 -25 139q-8 72 -8 90q-9 118 -14 398q0 128 4 311q-12 17 -11 27q0 2 -1 5t-1 5z" />
<glyph unicode="m" horiz-adv-x="1101" d="M-43 170q0 72 8 246q5 98 8 121q0 8 1 18.5t3 26.5t3 27q7 55 8 69q2 29 28 39q25 10 45 -8q3 -1 13 -11q14 -13 14 -30.5t-14 -30.5l-2 -2q-1 -25 -11 -86q-6 -56 -6 -113q-6 -51 -6 -106q19 87 64 241q58 198 127 324q49 87 94 137q47 49 88 49q8 0 16 -2 q45 -14 62 -73q12 -50 12 -103q1 -20 1 -46q0 -78 -9 -216q-8 -120 -8 -204q0 -42 2 -75v-2q2 0 4 5l2 4q15 29 54 119q31 71 67 137q40 69 73 96q44 37 82 37q16 0 31 -6q48 -20 70 -90q10 -35 26 -107q13 -59 31 -63q1 0 3 -1q18 0 63 46q25 25 40 47q21 20 39 45 q43 43 70 43q13 0 23 -10q13 -14 13 -29t-13 -29h-2l-3 -4l-2 -2q-8 -11 -40 -48q-42 -47 -61 -66q-24 -26 -60 -51q-38 -27 -66 -30q-30 -2 -57 14.5t-39 43.5q-16 33 -33 102q-18 83 -31 103q0 2 -2 2h-2q-18 0 -53.5 -58t-69.5 -132q-1 -3 -16.5 -36t-23.5 -50 q-21 -44 -29 -58q-39 -73 -86 -90q-13 -4 -23 -4q-33 0 -48 39q-21 51 -21 110v78q0 58 2 100q0 40 4 99q4 63 6 100q3 50 3 91q0 82 -11 128q-62 -62 -114 -172q-55 -113 -77 -188q-27 -88 -59 -213q-7 -30 -10 -39q-29 -126 -35 -158q-29 -124 -51 -182q-10 -33 -43 -33 q-47 0 -60 66q-6 53 -6 104z" />
<glyph unicode="n" horiz-adv-x="768" d="M-41 268q0 39 1 70q2 48 3 70q7 132 17 208q7 56 14 80q14 47 43 58q15 6 31 -3.5t20 -25.5q8 -23 -10 -41q-17 -76 -19 -147q-3 -24 -8 -131q36 84 78 176q62 128 100 184q63 94 117 123q33 14 61 14q11 0 21 -2q55 -10 82 -80q18 -47 27 -129q0 -2 1 -11.5t1 -12.5 q4 -23 4 -35l18 -154q26 -249 55 -413q18 -106 43 -168q0 -3 7 -17t12 -22q39 -5 39 -43q0 -20 -13 -32.5t-32 -12.5q-27 0 -50 20t-34 46q-10 24 -21 54q-24 75 -41 179q-19 109 -32 227q-10 77 -20 172q-13 111 -21 172v4q-15 165 -55 165q-6 0 -13 -4q-26 -15 -50.5 -45 t-62.5 -93q-49 -91 -172 -373q-46 -113 -57 -129q-14 -33 -49 -21q-28 7 -33 43q-2 36 -2 80z" />
<glyph unicode="o" horiz-adv-x="528" d="M-63 500q11 87 32 164q6 13 13 20q-2 -2 -2.5 -2t0.5 2q2 3 6 8q14 14 39 10q2 0 2 -2h2q39 78 100 88q15 3 30 3q34 0 62 -17q37 -22 64 -63q36 -51 47 -144q4 0 6 2q17 10 45 21q63 31 135 74q13 6 24 6q22 0 36 -23q10 -14 5 -32.5t-22 -26.5q-128 -75 -229 -117 q-6 -83 -35 -164q-32 -79 -70 -123q-52 -61 -110 -69q-10 -1 -20 -1q-33 0 -62 15q-27 17 -51 51q-32 56 -43 127q-9 50 -9 106q0 42 5 87zM20 496q-5 -56 -5 -102q0 -163 67 -189q12 -5 24 -5q43 0 79 64q46 82 55 166v10q-31 -15 -76 -15q-10 0 -20 1q-60 5 -97 37 q-11 7 -27 33zM90 612q-3 -13 -3 -26q0 -23 9 -45q19 -26 63 -26q35 0 87 17q0 15 -10 74q-27 79 -76 79q-6 0 -13 -1q-47 -10 -57 -72z" />
<glyph unicode="p" horiz-adv-x="702" d="M-92 -401q1 128 22 290q5 275 23 469q4 43 42 337q38 296 38 448q0 33 33 43q37 7 49 -21q5 -14 10 -43q0 -7 -4 -18q-5 -112 -15 -207l-49 -393q-1 -7 -5 -43.5t-5 -44.5q44 132 86 235q86 206 154 301q54 81 108 121q61 49 110 49q16 0 32 -6q74 -29 96 -137 q10 -47 10 -101q0 -34 -4 -71q-18 -138 -70 -275q-38 -94 -86 -182q-62 -112 -133 -192q-89 -96 -172 -117q-29 -7 -54.5 -7t-47.5 7q-2 0 -5.5 1.5t-10.5 4t-13 4.5q0 -7 -4 -18q-16 -80 -16 -96q-5 -60 -7 -158q-1 -77 -1 -119v-33q3 -131 5 -178q3 -117 3 -154 q2 -17 -12 -31t-31 -14q-36 0 -43 33q-33 137 -33 316zM66 143l16 -10l2 -2h4q16 -3 31 -3q51 0 103 34q67 46 124 136q99 158 162 329q45 170 45 254v16q-5 54 -21 100l-2 4q-2 2 -3.5 5.5t-2.5 5.5t-2 2q0 2 -1 2t-1 2q-15 15 -32 15q-25 0 -56 -32q-52 -53 -102 -144 q-51 -94 -84 -166q-37 -81 -43 -103q-38 -94 -66 -182q-37 -114 -71 -263z" />
<glyph unicode="q" horiz-adv-x="751" d="M-102 373q6 57 20 110q20 54 37 92q26 54 57 101q96 135 197 141q29 2 55 -8q45 -19 66 -43q4 -4 4 -6q29 53 41 82q11 22 21 43q13 28 27 52q14 22 30 38q25 25 53 6q28 -14 20 -49q-2 -7 -49 -222q-40 -182 -57 -274l-19 -104q214 230 338 375q12 14 32 13.5t30 -13.5 q15 -15 15 -30t-15 -30q-195 -231 -402 -444q-6 -7 -20 -23q-4 -39 -6 -59q-23 -201 -23 -362v-25q0 -35 4 -90q32 -49 60 -103q33 -62 33 -101q0 -26 -15 -42q-17 -19 -59 -23q-38 0 -64 35q-13 18 -20 58q-3 19 -6.5 38.5t-5 28t-1.5 10.5q-2 12 -8 68q-7 11 -12 16 q-56 95 -123 156q-28 34 -74 63q-1 0 -4 1t-4 1h-2h4q-38 5 -45 35q-4 17 6 39q5 13 23 31q25 29 90 94q68 70 156 158q6 8 12 14l12 86q26 158 66 338q-13 -24 -54 -92q-3 -5 -14.5 -21.5t-33.5 -49.5l-44 -66q-36 -54 -67 -92q-56 -63 -92 -82q-32 -17 -62 -19 q-38 0 -69 27q-39 35 -39 109v14zM-10 322q7 -7 17 -7q18 0 47 25q43 38 102 124q68 102 80 122q46 77 53 88q0 4 2 6q-37 46 -78 46q-52 0 -111 -73q-85 -104 -110 -243q-7 -32 -7 -55q0 -19 5 -33zM121 -84q33 -25 53 -45q46 -45 88 -98q0 84 6 168q1 41 11 137 q-2 -2 -22.5 -23.5t-27.5 -27.5q-73 -73 -108 -111z" />
<glyph unicode="r" horiz-adv-x="688" d="M-8 711q5 52 16 73q9 15 24.5 19.5t30.5 -4.5q21 -11 21 -34q0 -10 -4 -22q-1 -21 -1 -45q0 -62 4 -152q5 -140 5 -151q4 7 4 21q28 183 78 305q38 89 76 139q60 80 110 80q12 0 23 -4q45 -16 88 -100q77 -150 129 -189q25 -18 50 -18l18 2h4l2 2q14 7 26 7q20 0 33 -22 q9 -16 4 -33.5t-20 -25.5q-35 -20 -75 -20q-11 0 -22 2q-37 6 -69 32q-52 40 -111 134q-36 63 -54.5 94t-19.5 30q-20 26 -43 -14q-2 -2 -8 -12q-85 -151 -123 -346q-1 -6 -6 -38t-6 -38q-4 -25 -6 -39v-6v-2q-2 -6 -2 -17q-4 -24 -4 -74v-61q-4 -101 -33 -145 q-13 -17 -33.5 -20.5t-36.5 12.5q-20 28 -32 59q-15 51 -19 150q-1 32 -6 94q-4 55 -4 92q-1 69 -6 205q-3 31 -3 56q0 13 1 24z" />
<glyph unicode="s" horiz-adv-x="608" d="M-20 582q6 69 69 139q41 45 101 86q83 51 143 51q50 0 82 -29q26 -22 26 -52q0 -15 -6 -32q-12 -34 -43 -24q-31 7 -26 35v8q0 12 -21 12q-76 0 -159 -77q-82 -78 -78 -126v-2v-2q5 -7 53 -30q146 -77 192 -119l6 -6q38 44 76 80q69 65 109 100q83 71 127 84 q17 4 34 -5.5t17 -25.5q0 -21 -16 -37q-76 -46 -158 -122q-86 -80 -143 -158q9 -29 14 -82q0 -68 -17 -121q-22 -65 -53 -102q-26 -27 -47 -33q-7 -1 -14 -1q-31 0 -58 23q-28 25 -28 76q0 13 2 27q6 41 26 96q27 67 74 131q-1 1 -6 7t-8 9q-45 38 -132 81q-83 41 -106 61 q-33 28 -33 69q0 5 1 11zM252 94q37 49 37 119v2q-2 0 -2 -2q-35 -62 -35 -115v-4z" />
<glyph unicode="t" horiz-adv-x="268" d="M-636.5 1106.5q-0.5 18.5 13.5 30.5q49 31 236 73q222 55 448 88q0 5 4.5 25.5t4.5 26.5q28 191 71 325q11 40 37 101q19 39 37 57q22 23 43 23q18 0 35 -17q15 -17 20 -59q1 -14 1 -34q0 -40 -5 -104q-1 -9 -4.5 -36t-6.5 -44q-8 -51 -9 -75q-5 -27 -12 -81 q-3 -20 -7.5 -47t-5.5 -34q177 31 488 31q306 0 415 -53q65 -36 78 -50q20 -23 29 -47q6 -22 6 -45q0 -18 -13.5 -30.5t-29.5 -12.5t-28.5 12.5t-12.5 30.5q1 -3 2 -8l-2 4v4q-1 15 -27 41q-2 0 -4 2q-83 69 -368 69q-125 0 -289 -13q-110 -6 -203 -19q-31 0 -57 -6 q-4 -27 -29 -139q-24 -108 -82 -308q-21 -69 -39 -122q-11 -33 -22 -52q-18 -226 -25 -331q-10 -197 -10 -360q0 -70 2 -134q4 -67 4 -76q1 -18 2.5 -48t1.5 -41q1 -14 2.5 -39.5t1.5 -37.5q7 -82 13 -108q13 -69 26 -119q4 -16 -5 -32.5t-26 -20.5q-9 -3 -17 -3 q-28 0 -38 34q-24 85 -37 198q-3 23 -14 240q-4 73 -4 246q1 216 22 493q0 2 43 453q26 237 31 278q-173 -26 -328 -61q-15 -3 -88 -20q-59 -15 -90 -21q-63 -14 -78 -21q-5 0 -12 -4q-2 -2 -8 -4.5t-8 -3.5l-2 -2q-4 0 -4 -2q-32 -14 -54 8q-13 13 -13.5 31.5zM121 1055 l11 49.5t11 48.5q7 42 13 70q-1 0 -7.5 -1t-9.5 -1q-6 -38 -18 -166zM152 1311q2 0 11 2t11 2q26 165 35 229q2 8 2 21h2v8q4 23 4 37q0 19 4 26q-20 -61 -26 -94q-19 -72 -33 -168q-2 -6 -5 -31t-5 -32z" />
<glyph unicode="u" horiz-adv-x="673" d="M-41 258q6 130 6 133q10 100 10 101q12 156 39 249q6 31 39 31q24 0 35 -20q6 -10 6 -17q2 -3 2.5 -17t1.5 -18q0 -16 -14 -24q-30 -123 -37 -369q0 -112 10 -133q13 -38 45 -6q59 77 213 397q20 42 47 98.5t33 69.5q44 99 86 148q17 18 42 11q26 -8 32 -30q8 -28 8 -55 v-10q0 -14 -4 -37q0 -3 -3 -25t-5 -42q-7 -62 -8 -85q-1 -25 -10 -129q-10 -93 -11 -129q-9 -147 -9 -271q0 -71 3 -134q1 -35 10 -162q0 -5 2 -26.5t2 -28.5v-7q13 -5 17 -14q11 -14 6 -35q0 -18 -6 -34q-2 -14 -15 -23.5t-28 -9.5q-27 0 -37 22q-16 30 -25 97q-6 40 -6 86 q-11 122 -12 241q0 204 18 406q7 98 17 200v7q-11 -23 -31.5 -65t-26.5 -56q-5 -11 -23.5 -48.5t-31.5 -64.5q-45 -91 -59 -123q-62 -136 -117 -194q-45 -49 -96 -52q-36 0 -56 17q-31 19 -43 57q-16 38 -16 123z" />
<glyph unicode="v" horiz-adv-x="481" d="M-45 717q0 19 6 33q13 17 25 24q12 6 22 6q20 0 37 -22q11 -18 16 -43q8 -26 9 -41q5 -24 10 -86q7 -68 14 -187l12 -153q0 -1 1.5 -7t1.5 -10v-2q2 4 8 27l43 147q27 84 55 152q39 99 68 150q34 72 79 135q68 88 117 114q13 6 24 6q19 0 32 -20q14 -26 -7 -49 q-2 -2 -8 -9.5t-14 -16.5l-16 -18q-10 -11 -24.5 -27.5t-19.5 -21.5q-44 -50 -67 -102q-9 -15 -21 -37q-15 -29 -16 -32q-36 -71 -82 -205q-22 -60 -39 -128q-3 -10 -8.5 -30.5t-7.5 -27.5q-2 -8 -14.5 -43.5t-14.5 -42.5q-6 -21 -22 -44q-12 -15 -37 -22q-23 -8 -45 10 q-43 43 -52 139q-7 55 -14 152q-4 62 -4 73q-1 47 -3 79q-2 74 -19 147q-5 0 -9 4q-20 11 -16 29z" />
<glyph unicode="w" horiz-adv-x="802" d="M-53 270q-2 37 -2 72q0 53 4 102q1 9 5 51t5 50q5 76 8 94q10 76 13 94q0 5 1 24t1 25q-7 7 -9 23q1 3 2 12.5t2 11.5q5 16 17 29q13 16 41 10q27 -6 31 -28q3 -21 3 -47q0 -38 -6 -86q0 -3 -12 -123q-2 -22 -6 -65q-5 -47 -6 -66q-4 -40 -4 -131q0 -145 20 -211 q0 -7 4 -19h2v2l2 4q6 13 15 47q22 76 55 254q6 42 17 92q14 70 18 91q7 37 16 61q17 48 47 64q13 6 24 6q27 0 42 -33q19 -61 20 -66q15 -68 35 -223q20 -157 47 -256q32 -84 68 -123q2 -2 4 -2q0 -2 2 -2q3 -1 4 -2h2h2q2 0 4 2l4 2q6 6 9 6q46 34 84 181q20 78 36 168 q31 147 54 383q13 130 14 186q0 50 -2 92q0 4 -1 18.5t-1 18.5q-29 26 -10 55q8 16 26.5 21.5t34.5 -4.5q29 -25 33 -45q4 -11 4 -37q6 -47 6 -90q-4 -93 -12 -187q-12 -123 -21 -192q-18 -172 -69 -381q-21 -92 -49 -158q-13 -34 -43 -70q-32 -35 -52 -45q-25 -12 -50 -12 q-9 0 -19 2q-24 1 -53 27q-34 28 -66 92q-48 113 -70 278l-26 199l-13 -61q-44 -235 -51 -260q-10 -45 -20 -80q-17 -61 -37 -92q-18 -29 -35 -35q-18 -7 -33 -7q-17 0 -30 9q-43 31 -64 119q-11 50 -16 161z" />
<glyph unicode="x" horiz-adv-x="399" d="M-57 199q-16 22 2 47q0 4 4 4q1 2 5.5 10.5t6.5 11.5q3 5 20.5 39.5t20.5 40.5q39 69 45 78q1 2 6 11t6 10q-79 195 -90 231q-8 19 -2 33l4 12q-1 -1 -2 -4q6 12 8 14q13 18 28 18q13 0 28 -12q14 -11 14 -28q0 -4 2 -6v-2q2 -2 2 -5q6 -22 24 -63q16 -39 23 -55 q8 -21 19 -45l30 43q107 147 240 276q16 14 31.5 14t30.5 -14q13 -13 13.5 -30.5t-13.5 -30.5l-25 -25q-145 -154 -268 -328l6 -14l2 -4q1 -5 10 -25q58 -133 84 -180q18 -35 33 -53v-2l2 -2q24 -7 29 -29q8 -27 -15 -45q2 2 4 2q-15 -9 -18 -10q-19 -6 -41 4q-15 5 -41 43 q-7 9 -37 64q-31 63 -74 163q-2 0 -2 -2q-1 -3 -2 -4q-4 -8 -18.5 -34t-24.5 -44q-2 -3 -11 -20t-11 -21q-12 -23 -29 -38q-14 -12 -32.5 -10.5t-26.5 16.5zM-6 246h2l2 -2l-2 -2z" />
<glyph unicode="y" horiz-adv-x="1036" d="M-19 523q2 135 19 192q4 10 4 11l-4 -7q0 1 1 3.5t1 4.5q0 5 4 12q4 23 27.5 29t40.5 -10q13 -17 14 -29q2 -6 2 -14v-2q6 -26 -10 -39q-2 -8 -2 -17q-9 -87 -10 -104q-2 -27 -2 -56t2 -59q0 -137 47 -137h4q51 6 102 127q4 7 6 14l66 156q35 82 86 211q45 119 113 238 q44 69 61 86q35 35 67 35q18 0 35 -11q48 -32 50 -125v-16q0 -34 -5 -105q-13 -191 -47 -419q-4 -40 -28 -203q0 -3 -1 -11.5t-1 -9.5q104 122 217 224q68 62 116 98q21 15 113 84q14 8 31.5 3t25.5 -20q7 -13 7 -24q0 -19 -21 -33l-2 -2q-4 0 -92 -72q-71 -59 -113 -96 q-169 -155 -307 -338v-8q-8 -24 -8 -53l-6 -49q-1 -6 -7.5 -49.5t-7.5 -55.5q-17 -118 -30 -205q-62 -420 -113 -569q-22 -70 -53 -102q-19 -24 -45 -31q-7 -4 -27 -4q-25 0 -47 22q-42 40 -49 129q-2 22 -2 51q0 90 24 242q18 96 49 191q52 164 152 374q34 66 86 152 q41 251 68 483q7 68 12 103q9 108 16 207q0 14 3 58.5t3 57.5v17l-2 2v4v8q-5 -5 -6 -8q-4 0 -4 -4l-4 -4q-23 -37 -57 -97q-33 -66 -58 -120q-99 -248 -204 -482q-22 -45 -64 -92q-40 -46 -80 -51q-12 -2 -23 -2q-44 0 -75 35q-31 34 -45 88q-13 59 -13 176v17zM293 -885 v-6l2 -2q0 -2 1 -7.5t1 -6.5q1 -7 6 -21q0 -4 6 -10q2 2 2 4q17 28 36 88q18 59 27 107q20 106 25 128q4 21 8.5 45.5t7 37.5t3.5 20q21 112 35 205q5 30 26 178q-50 -97 -117 -295q-71 -245 -71 -414q0 -26 2 -51z" />
<glyph unicode="z" horiz-adv-x="868" d="M-31 -651q6 47 21 90q26 76 86 194q19 36 94 166q50 79 63 99q83 119 209 270q-1 15 1 49t-4 37q-6 15 -10 30q-3 11 -38 40q-5 3 -60 28q-7 3 -37.5 15t-43.5 18q-53 26 -68 72q-7 20 -7 43q0 31 13 67q6 17 58 117q2 5 17.5 32.5t20.5 38.5q5 10 14 37q6 17 6 33 q0 23 -13 43q-2 2 -2 4q-2 0 -2 2q-1 0 -6 5q-2 0 -2 2h-3h-2h-4q-53 -18 -90 -54q-40 -40 -51 -55q-33 -45 -42 -60q-5 -9 -10.5 -18.5t-6.5 -10.5q-30 -50 -31 -52q0 -4 4 -8q10 -16 -5 -32t-32 -5q-28 17 -31 20q-10 10 -10 27q0 15 8 37q37 70 66 117q28 45 83 99 q54 52 114 72q23 7 42 7q14 0 27 -4q34 -12 60 -50q23 -40 24 -84q0 -26 -9 -54q-14 -46 -56 -128q-3 -7 -18.5 -32t-21.5 -36q-8 -14 -17 -37q-6 -18 -6 -33q0 -20 11 -34l2 -2q15 -7 65.5 -27t65.5 -27q22 -10 50 -29q51 -36 67 -124q181 209 357 379q12 12 30.5 12 t30.5 -12q16 -16 16 -32t-16 -31q-138 -135 -242 -252q-107 -119 -170 -193q-6 -97 -45 -215q-19 -67 -53 -147q-11 -27 -21.5 -52.5t-20 -48.5t-13.5 -32q-44 -97 -115 -215q-25 -45 -67 -107q-39 -55 -66 -82q-27 -22 -33 -24q-10 -4 -33 -9q-11 -1 -30 9q-39 18 -54 63 q-9 26 -9 54q0 10 1 20zM59 -686v-2v-6q2 -2 2 -6l2 -2q3 2 13 12.5t12 13.5q8 8 8 12q2 0 2 2q2 2 8 11t7 10q57 83 133 221q113 226 168 412q-85 -108 -117 -160q-67 -106 -102 -165q-35 -60 -84 -169q-51 -112 -52 -184z" />
<glyph unicode="{" horiz-adv-x="454" d="M23 688q-8 23 8 39q21 14 41 23q3 0 4 4l2 4l6 8l4 4q2 2 8 12q29 40 45 70q93 144 95 305v95q0 60 2 94q11 103 47 165q37 63 94 115q157 129 287 76q34 -12 24 -43q-7 -33 -43 -25q-2 2 -8 2h-4q-1 0 -7 1t-7 1q-108 0 -202 -92q-93 -92 -93 -205q0 -4 -1 -22t-1 -23 q0 -164 -2 -186q-7 -79 -41 -170q-44 -114 -101 -195h2h-2h2q2 -2 4 -2q47 -23 68 -69q35 -77 20 -201q-8 -78 -14 -123q-3 -27 -14 -121q-12 -103 -15 -161q-5 -41 0 -82q0 -25 2 -41q0 -3 1.5 -11.5t1.5 -9.5v-6l2 -2v-2q5 -93 49 -152q45 -58 135 -57q8 0 14 2h2h4 q37 7 62 14l31 13q7 0 14 4q2 2 4 2h2q41 18 61 -14q9 -14 4 -35t-20 -27q-129 -53 -213 -47q-60 5 -106 33q-109 67 -129 235q-12 78 -9 168q6 124 29 312q3 11 8 53q41 214 -37 254q-4 4 -6 4h-6q0 2 -4 2q-9 -13 -29 -29q-32 -33 -63 0q-17 17 -12 39z" />
<glyph unicode="|" horiz-adv-x="481" d="M178 96q7 365 49 846q6 105 19 201l12 93q9 75 10 93q16 122 19 193q0 50 -2 92q0 6 -1 25t-1 24q-2 2 -2 10v2q0 2 -2 4v4q0 2 -3 5q-10 25 0 43q4 10 19 16l8 4h2q2 0 6.5 1t5.5 1h2q35 0 43 -33q29 -162 -16 -481q-23 -181 -39 -397q-21 -305 -26 -422 q-11 -202 -13 -424q0 -124 8 -426q2 -16 -11 -29.5t-29 -13.5q-39 0 -43 43q-18 193 -15 526z" />
<glyph unicode="}" horiz-adv-x="440" d="M-160 1655q37 54 162 74q115 8 150 4q77 -12 112 -39q51 -37 70 -97q18 -57 0 -139q-12 -66 -47 -170q-129 -369 55 -481l2 -2h2q11 -4 14 -4q17 -2 26 -19t5 -36q-4 -18 -20 -26.5t-33 -4.5q-2 0 -5 1t-5 1q-3 0 -9 2h-4h-4l-2 -2q-53 -27 -65 -97q-14 -71 6 -124 q7 -40 22 -99q12 -45 31 -103q15 -47 37 -120q16 -53 25 -104q37 -198 -23 -299q-27 -49 -76 -99q-51 -48 -104 -73q-72 -29 -121 -25q-75 11 -115 64q-32 34 0 63q12 12 31.5 12t32.5 -12q16 -25 55 -37h4q54 -12 122 41q67 53 99 117q23 42 24 81q2 54 -4 86 q-2 12 -4 25.5t-2 15.5q-2 12 -9 47q-3 11 -5.5 21t-3.5 16l-2 7q-12 50 -32 114q-4 11 -9.5 28t-7.5 24q-27 91 -39 145q-21 100 -22 143q0 91 36 140q23 33 56 53q-22 25 -35 45q-41 57 -57 139q-29 152 47 353q62 173 47 261q-8 50 -44 74q-76 49 -288 -8q-4 0 -8 -4 l-12 -6q-4 -4 -7 -4v-2q-25 -18 -45 0q-16 19 -4 39z" />
<glyph unicode="&#xa1;" horiz-adv-x="432" d="M98 166q22 202 29 285q30 361 35 806q0 16 12.5 29.5t28.5 13.5q18 0 30.5 -13t12.5 -30q2 -143 0 -286q-7 -391 -60 -805q-4 -45 -45 -45q-17 0 -31 13.5t-12 31.5zM145 1585q-4 34 11 68q10 32 41 28q13 19 32 13q31 -6 23 -39q-12 -54 -45 -94q-17 -20 -43 -7 q-15 12 -19 31z" />
<glyph unicode="&#xa2;" horiz-adv-x="591" d="M68 451q0 69 26 145q29 74 68 133q14 23 35 51q2 3 4.5 6.5t4 5.5t1.5 3l2 2q-3 -3 -4 -6q0 4 6 10q5 5 6 8q1 1 7 8t9 10q2 3 8 9t7 8q-2 16 -2 33q-1 37 0 71q0 30 4 70q4 25 6 49v4v-4q6 39 43 39q16 0 29.5 -12.5t13.5 -30.5q0 -17 -8 -113v-47h6q46 10 80 -20 q32 -27 37 -78q0 -18 -13.5 -31.5t-31.5 -13.5t-30.5 12t-14.5 31q0 7 -6.5 10t-12.5 -2q-3 -1 -8 -6q-11 -17 -29 -25q-11 -11 -28 -32q-4 -4 -7 -9l-2 -2v-2l-2 -2l2 2v2v-2q-7 -7 -18 -22q-28 -45 -35 -56q-76 -88 -55 -238q19 -151 192 -65l31 19q1 0 6 4t6 4l5 4 q4 4 6 4q46 37 84 84q10 14 30.5 13t30.5 -13q28 -25 6 -53q-34 -50 -76 -84q-57 -48 -100 -68q-21 -11 -43 -18q0 -42 2 -76q0 -28 4 -68q0 -2 1 -14t1 -14q0 -6 2 -12v-7v7q4 -43 -30 -52q-16 -4 -34 5t-20 24q-8 61 -8 131q-2 24 -2 59l-12 3q-85 6 -131 69 q-49 61 -49 146zM274 737l2 2l-2 -2l2 2z" />
<glyph unicode="&#xa3;" horiz-adv-x="751" d="M-55 471q-17 29 8 53q6 7 41 23q4 3 18.5 9t16.5 7q37 20 76 31l16 6q51 160 127 299q47 85 92 143q77 106 141 148q48 29 82 22q37 -5 49 -14q24 -18 37 -41q33 -53 41 -145q2 -40 -6 -123q14 -18 8 -37q-1 -11 -20 -53q-14 -33 -49 -21q-15 4 -25 16.5t-8 26.5 q0 21 4 61q2 23 5 73q1 17 -1 65q-5 75 -37 102l-2 2h-4q-51 6 -211 -237q-30 -54 -37 -70q-51 -102 -74 -164l-6 -18q6 0 27 8q169 47 309 53q16 2 28.5 -10t12.5 -29q0 -35 -31 -39q-187 -33 -297 -61q-63 -19 -81 -27l-11 -32q-17 -68 -28 -123q-16 -71 -11 -130 q5 -61 52 -61q22 0 133 15q8 2 84 16q95 18 106 20q44 8 98 12q54 5 87 3h4l2 -2h2q39 -16 28 -51q-4 -16 -20 -26.5t-31 -4.5l-2 2h-8q-52 0 -161 -23q-100 -23 -142 -28q-51 -11 -115 -19q-56 -4 -82 -2q-18 0 -37 6q-36 13 -59 48q-33 44 -29 126q0 40 17 130q7 35 20 88 q-1 0 -8.5 -3.5t-25 -11.5t-35.5 -16q-15 -9 -19 -10h-4q-11 -6 -29 -2q-16 4 -26 20zM710.5 249q0.5 0 2.5 -1q3 -3 6 -4q-4 4 -8 4q-1 1 -0.5 1z" />
<glyph unicode="&#xa9;" horiz-adv-x="1120" d="M184 1290q27 110 74 203q39 74 101 125q59 50 128 33q17 -7 25 -23q94 19 172 12q89 -11 150 -47q68 -39 104 -96q86 -128 23 -291q-52 -130 -166 -227q-122 -107 -254 -141q-155 -37 -256 26q-168 110 -101 426zM256 1079q10 -99 72 -137q91 -51 235 -1q141 49 211 140 q8 10 25 27q9 9 10 12l6 6q67 84 75 176q7 91 -39 154q-48 63 -134 91q-87 28 -211 -13l-80 -25q-31 -10 -49 17l-6 -6l-2 -2v-2q-5 -6 -37 -58q-2 -2 -5.5 -10.5t-4.5 -11.5l-7 -13q0 -4 -2 -6q-73 -174 -57 -338zM383 1241q12 76 61 139q33 45 56 62q28 23 51 22 q38 -4 49 -39q4 -19 -9.5 -34t-33.5 -9q-2 0 -10 -8q-82 -82 -82 -182q13 -84 98 -25q22 10 35 31q13 14 32 13.5t32 -13.5q29 -29 0 -61q-37 -43 -101 -68q-79 -31 -137 16q-59 53 -41 156z" />
<glyph unicode="&#xad;" horiz-adv-x="688" d="M106 598q0 16 15.5 29.5t32.5 11.5h20h12l9 2q1 0 10 1t10 1q11 3 123 14q55 5 125 7q78 3 129 -13q39 -11 29 -51q-7 -31 -39 -31q-4 0 -52 3q-49 3 -73 3q-100 -5 -123 -8l-62 -6q-2 0 -13 -1t-15 -1h4q-2 -1 -6 -2q-7 0 -13 -2q-119 -18 -123 43z" />
<glyph unicode="&#xb7;" horiz-adv-x="335" d="M78 586q0 28 12 57q5 7 12 14v2q14 13 27 9q16 0 28.5 -12.5t12.5 -28.5q0 -34 -29 -68q-16 -16 -39 -7q-24 9 -24 34z" />
<glyph unicode="&#xbf;" horiz-adv-x="768" d="M75 253q6 62 44 154q11 28 38 81q25 48 37 71q3 6 37 66q29 50 29 51q31 53 64 121q2 4 7 13.5t14 26.5t18 33q34 66 46 87q19 35 38 78q40 90 53 173v2l2 2v11v18q0 2 -2 4v4q0 1 -1 5t-1 6q-18 39 14 59q35 20 57 -16q39 -57 6 -166q-14 -42 -59 -156 q-45 -92 -158 -311q-10 -22 -43 -82q-24 -42 -34 -62q-53 -104 -88 -186q-45 -105 -17 -157q27 -53 133 20q4 4 6 4l2 2q1 1 6 5t7 5q1 1 10 9.5t12 11.5q88 78 158 206v3q2 0 2 4q0 6 6 16v2q-10 10 -6 35q6 18 23 29q31 18 59 -15q7 -8 8 -18q16 -54 -37 -140 q-27 -43 -61 -86q-37 -50 -80 -92q-51 -51 -109 -84q-62 -37 -129 -28q-56 10 -88 57q-30 47 -23 124zM489 1573q-14 20 0 41q13 24 35 43q25 19 47 6q23 -12 19 -33v-12q4 -22 -10 -35q-11 -11 -21 -16q-7 -8 -24 -13q-29 -11 -46 19z" />
<glyph unicode="&#xc0;" horiz-adv-x="1038" d="M-12 385q0 31 30 39q54 17 76 20q11 121 35 285q5 42 21 134q7 50 10 63q0 4 2.5 20t4.5 28q1 9 2.5 20.5t3 19t1.5 12.5q0 16 8 51v4q0 1 1 6t1 7t1 12t1 12q8 39 41 39q15 0 28 -12.5t11 -26.5q-13 -122 -41 -297q-37 -265 -37 -280q0 -6 -2 -36q0 -8 -4 -36q6 2 33 8 q0 3 1.5 8.5t4 15t4.5 17.5q44 191 107 369q24 64 65 164q44 104 72 157q43 82 90 144q19 27 49 55q34 34 64 47q46 20 71 10q37 -16 52 -45q22 -46 30 -155q12 -144 -4 -381q-9 -167 -16 -312q116 9 256 9q16 0 29.5 -12.5t13.5 -28.5q0 -18 -13.5 -30.5t-29.5 -12.5 q-134 0 -258 -13h-2l-6 -166q-5 -126 -7 -286q1 -19 3 -64q0 -37 2 -63q1 -6 1.5 -28t2.5 -28q0 -2 1 -12t1 -14q2 -2 2 -10v-2v2v-2q8 -44 -31 -54q-19 -4 -36 5t-19 26q-11 77 -15 176q-4 192 11 514q-138 -12 -291 -43q-113 -22 -131 -26q-52 -245 -80 -476q0 -27 -6 -53 q-6 -43 -6 -47q4 -51 -23 -92q-14 -26 -43 -21q-30 5 -37 33q-23 83 -22 271q1 149 12 301q0 4 1 16t1 14q-46 -9 -57 -10q-14 -2 -27.5 11.5t-13.5 29.5zM166 244q16 93 27 139l-19 -6q-3 -25 -8 -133zM311 500q212 46 404 65q0 15 4 91q5 103 8 128q16 303 14 383 q0 40 -5 110q-1 17 -3 32t-4.5 27t-5 21t-6 13.5t-6.5 3.5q-61 -14 -156 -192q-35 -66 -70 -150q-2 -2 -2 -4q-1 -3 -4 -8q0 -1 -4 -8t-4 -11q-4 -12 -14 -34q-8 -37 -33 -90q-57 -156 -111 -367q0 -2 -1 -5t-1 -5zM614 1692q4 19 18.5 28t31.5 0q8 -2 22 -16l4 -4l4 -4 q17 -17 35 -27q6 -6 33 -24.5t31 -22.5q35 -28 10 -59q-25 -33 -62 -11q-6 6 -69 54q-22 20 -35 36q-27 28 -23 50z" />
<glyph unicode="&#xc1;" horiz-adv-x="1038" d="M-12 385q0 31 30 39q54 17 76 20q11 121 35 285q5 42 21 134q7 50 10 63q0 4 2.5 20t4.5 28q1 9 2.5 20.5t3 19t1.5 12.5q0 16 8 51v4q0 1 1 6t1 7t1 12t1 12q8 39 41 39q15 0 28 -12.5t11 -26.5q-13 -122 -41 -297q-37 -265 -37 -280q0 -6 -2 -36q0 -8 -4 -36q6 2 33 8 q0 3 1.5 8.5t4 15t4.5 17.5q44 191 107 369q24 64 65 164q44 104 72 157q43 82 90 144q19 27 49 55q34 34 64 47q46 20 71 10q37 -16 52 -45q22 -46 30 -155q12 -144 -4 -381q-9 -167 -16 -312q116 9 256 9q16 0 29.5 -12.5t13.5 -28.5q0 -18 -13.5 -30.5t-29.5 -12.5 q-134 0 -258 -13h-2l-6 -166q-5 -126 -7 -286q1 -19 3 -64q0 -37 2 -63q1 -6 1.5 -28t2.5 -28q0 -2 1 -12t1 -14q2 -2 2 -10v-2v2v-2q8 -44 -31 -54q-19 -4 -36 5t-19 26q-11 77 -15 176q-4 192 11 514q-138 -12 -291 -43q-113 -22 -131 -26q-52 -245 -80 -476q0 -27 -6 -53 q-6 -43 -6 -47q4 -51 -23 -92q-14 -26 -43 -21q-30 5 -37 33q-23 83 -22 271q1 149 12 301q0 4 1 16t1 14q-46 -9 -57 -10q-14 -2 -27.5 11.5t-13.5 29.5zM166 244q16 93 27 139l-19 -6q-3 -25 -8 -133zM311 500q212 46 404 65q0 15 4 91q5 103 8 128q16 303 14 383 q0 40 -5 110q-1 17 -3 32t-4.5 27t-5 21t-6 13.5t-6.5 3.5q-61 -14 -156 -192q-35 -66 -70 -150q-2 -2 -2 -4q-1 -3 -4 -8q0 -1 -4 -8t-4 -11q-4 -12 -14 -34q-8 -37 -33 -90q-57 -156 -111 -367q0 -2 -1 -5t-1 -5zM582 1549q-15 24 4 42q15 10 77 62q60 51 82 69 q12 9 31 4.5t27 -18.5q19 -32 -15 -57q-28 -18 -81 -60q-48 -41 -86 -59q-26 -8 -39 17z" />
<glyph unicode="&#xc2;" horiz-adv-x="1038" d="M-12 385q0 31 30 39q54 17 76 20q11 121 35 285q5 42 21 134q7 50 10 63q0 4 2.5 20t4.5 28q1 9 2.5 20.5t3 19t1.5 12.5q0 16 8 51v4q0 1 1 6t1 7t1 12t1 12q8 39 41 39q15 0 28 -12.5t11 -26.5q-13 -122 -41 -297q-37 -265 -37 -280q0 -6 -2 -36q0 -8 -4 -36q6 2 33 8 q0 3 1.5 8.5t4 15t4.5 17.5q44 191 107 369q24 64 65 164q44 104 72 157q43 82 90 144q19 27 49 55q34 34 64 47q46 20 71 10q37 -16 52 -45q22 -46 30 -155q12 -144 -4 -381q-9 -167 -16 -312q116 9 256 9q16 0 29.5 -12.5t13.5 -28.5q0 -18 -13.5 -30.5t-29.5 -12.5 q-134 0 -258 -13h-2l-6 -166q-5 -126 -7 -286q1 -19 3 -64q0 -37 2 -63q1 -6 1.5 -28t2.5 -28q0 -2 1 -12t1 -14q2 -2 2 -10v-2v2v-2q8 -44 -31 -54q-19 -4 -36 5t-19 26q-11 77 -15 176q-4 192 11 514q-138 -12 -291 -43q-113 -22 -131 -26q-52 -245 -80 -476q0 -27 -6 -53 q-6 -43 -6 -47q4 -51 -23 -92q-14 -26 -43 -21q-30 5 -37 33q-23 83 -22 271q1 149 12 301q0 4 1 16t1 14q-46 -9 -57 -10q-14 -2 -27.5 11.5t-13.5 29.5zM166 244q16 93 27 139l-19 -6q-3 -25 -8 -133zM311 500q212 46 404 65q0 15 4 91q5 103 8 128q16 303 14 383 q0 40 -5 110q-1 17 -3 32t-4.5 27t-5 21t-6 13.5t-6.5 3.5q-61 -14 -156 -192q-35 -66 -70 -150q-2 -2 -2 -4q-1 -3 -4 -8q0 -1 -4 -8t-4 -11q-4 -12 -14 -34q-8 -37 -33 -90q-57 -156 -111 -367q0 -2 -1 -5t-1 -5zM567 1567q-14 23 6 43q44 54 54 63q44 54 75 58 q55 10 97 -50q3 -2 11.5 -13.5t10.5 -14.5q1 0 3 -1t3 -1h2q2 -2 9 -2q15 -2 23.5 -19t4.5 -35q-8 -32 -41 -30q-49 0 -90 59q-2 2 -10 16l-2 2l-4 5q-12 0 -41 -35q-3 -3 -13 -14.5t-17 -18.5t-16.5 -15.5t-17.5 -11.5q-31 -13 -47 15z" />
<glyph unicode="&#xc3;" horiz-adv-x="1038" d="M-12 385q0 31 30 39q54 17 76 20q11 121 35 285q5 42 21 134q7 50 10 63q0 4 2.5 20t4.5 28q1 9 2.5 20.5t3 19t1.5 12.5q0 16 8 51v4q0 1 1 6t1 7t1 12t1 12q8 39 41 39q15 0 28 -12.5t11 -26.5q-13 -122 -41 -297q-37 -265 -37 -280q0 -6 -2 -36q0 -8 -4 -36q6 2 33 8 q0 3 1.5 8.5t4 15t4.5 17.5q44 191 107 369q24 64 65 164q44 104 72 157q43 82 90 144q19 27 49 55q34 34 64 47q46 20 71 10q37 -16 52 -45q22 -46 30 -155q12 -144 -4 -381q-9 -167 -16 -312q116 9 256 9q16 0 29.5 -12.5t13.5 -28.5q0 -18 -13.5 -30.5t-29.5 -12.5 q-134 0 -258 -13h-2l-6 -166q-5 -126 -7 -286q1 -19 3 -64q0 -37 2 -63q1 -6 1.5 -28t2.5 -28q0 -2 1 -12t1 -14q2 -2 2 -10v-2v2v-2q8 -44 -31 -54q-19 -4 -36 5t-19 26q-11 77 -15 176q-4 192 11 514q-138 -12 -291 -43q-113 -22 -131 -26q-52 -245 -80 -476q0 -27 -6 -53 q-6 -43 -6 -47q4 -51 -23 -92q-14 -26 -43 -21q-30 5 -37 33q-23 83 -22 271q1 149 12 301q0 4 1 16t1 14q-46 -9 -57 -10q-14 -2 -27.5 11.5t-13.5 29.5zM166 244q16 93 27 139l-19 -6q-3 -25 -8 -133zM311 500q212 46 404 65q0 15 4 91q5 103 8 128q16 303 14 383 q0 40 -5 110q-1 17 -3 32t-4.5 27t-5 21t-6 13.5t-6.5 3.5q-61 -14 -156 -192q-35 -66 -70 -150q-2 -2 -2 -4q-1 -3 -4 -8q0 -1 -4 -8t-4 -11q-4 -12 -14 -34q-8 -37 -33 -90q-57 -156 -111 -367q0 -2 -1 -5t-1 -5zM545 1632q27 70 86 82q34 6 78 -14q49 -33 67 -10q1 3 4 6 q9 12 23 18q20 13 43 -4q22 -16 18 -39q-11 -40 -41 -59q-33 -18 -49 -21q-31 -4 -82 19q-28 12 -45 18l-2 -2q-2 0 -2 -2l-4 -2q-1 -4 -4 -4q-2 -2 -2 -4q-7 -12 -15 -21q-6 -12 -20 -16t-27 2q-41 14 -26 53zM633 1620l2 2q-2 0 -2 -2z" />
<glyph unicode="&#xc4;" horiz-adv-x="1038" d="M-12 385q0 31 30 39q54 17 76 20q11 121 35 285q5 42 21 134q7 50 10 63q0 4 2.5 20t4.5 28q1 9 2.5 20.5t3 19t1.5 12.5q0 16 8 51v4q0 1 1 6t1 7t1 12t1 12q8 39 41 39q15 0 28 -12.5t11 -26.5q-13 -122 -41 -297q-37 -265 -37 -280q0 -6 -2 -36q0 -8 -4 -36q6 2 33 8 q0 3 1.5 8.5t4 15t4.5 17.5q44 191 107 369q24 64 65 164q44 104 72 157q43 82 90 144q19 27 49 55q34 34 64 47q46 20 71 10q37 -16 52 -45q22 -46 30 -155q12 -144 -4 -381q-9 -167 -16 -312q116 9 256 9q16 0 29.5 -12.5t13.5 -28.5q0 -18 -13.5 -30.5t-29.5 -12.5 q-134 0 -258 -13h-2l-6 -166q-5 -126 -7 -286q1 -19 3 -64q0 -37 2 -63q1 -6 1.5 -28t2.5 -28q0 -2 1 -12t1 -14q2 -2 2 -10v-2v2v-2q8 -44 -31 -54q-19 -4 -36 5t-19 26q-11 77 -15 176q-4 192 11 514q-138 -12 -291 -43q-113 -22 -131 -26q-52 -245 -80 -476q0 -27 -6 -53 q-6 -43 -6 -47q4 -51 -23 -92q-14 -26 -43 -21q-30 5 -37 33q-23 83 -22 271q1 149 12 301q0 4 1 16t1 14q-46 -9 -57 -10q-14 -2 -27.5 11.5t-13.5 29.5zM166 244q16 93 27 139l-19 -6q-3 -25 -8 -133zM311 500q212 46 404 65q0 15 4 91q5 103 8 128q16 303 14 383 q0 40 -5 110q-1 17 -3 32t-4.5 27t-5 21t-6 13.5t-6.5 3.5q-61 -14 -156 -192q-35 -66 -70 -150q-2 -2 -2 -4q-1 -3 -4 -8q0 -1 -4 -8t-4 -11q-4 -12 -14 -34q-8 -37 -33 -90q-57 -156 -111 -367q0 -2 -1 -5t-1 -5zM588 1620q11 41 45 47q21 2 41 -14q28 -20 5 -53 q-23 -34 -58 -29q-43 6 -33 49zM750 1577q-33 33 0 70q33 39 65 10q12 -14 16 -21l-2 4q-2 2 -2 5q5 -10 7 -23q0 -31 -30 -49q-29 -19 -54 4z" />
<glyph unicode="&#xc5;" horiz-adv-x="1038" d="M-12 385q0 31 30 39q54 17 76 20q11 121 35 285q5 42 21 134q7 50 10 63q0 4 2.5 20t4.5 28q1 9 2.5 20.5t3 19t1.5 12.5q0 16 8 51v4q0 1 1 6t1 7t1 12t1 12q8 39 41 39q15 0 28 -12.5t11 -26.5q-13 -122 -41 -297q-37 -265 -37 -280q0 -6 -2 -36q0 -8 -4 -36q6 2 33 8 q0 3 1.5 8.5t4 15t4.5 17.5q44 191 107 369q24 64 65 164q44 104 72 157q43 82 90 144q19 27 49 55q34 34 64 47q46 20 71 10q37 -16 52 -45q22 -46 30 -155q12 -144 -4 -381q-9 -167 -16 -312q116 9 256 9q16 0 29.5 -12.5t13.5 -28.5q0 -18 -13.5 -30.5t-29.5 -12.5 q-134 0 -258 -13h-2l-6 -166q-5 -126 -7 -286q1 -19 3 -64q0 -37 2 -63q1 -6 1.5 -28t2.5 -28q0 -2 1 -12t1 -14q2 -2 2 -10v-2v2v-2q8 -44 -31 -54q-19 -4 -36 5t-19 26q-11 77 -15 176q-4 192 11 514q-138 -12 -291 -43q-113 -22 -131 -26q-52 -245 -80 -476q0 -27 -6 -53 q-6 -43 -6 -47q4 -51 -23 -92q-14 -26 -43 -21q-30 5 -37 33q-23 83 -22 271q1 149 12 301q0 4 1 16t1 14q-46 -9 -57 -10q-14 -2 -27.5 11.5t-13.5 29.5zM166 244q16 93 27 139l-19 -6q-3 -25 -8 -133zM311 500q212 46 404 65q0 15 4 91q5 103 8 128q16 303 14 383 q0 40 -5 110q-1 17 -3 32t-4.5 27t-5 21t-6 13.5t-6.5 3.5q-61 -14 -156 -192q-35 -66 -70 -150q-2 -2 -2 -4q-1 -3 -4 -8q0 -1 -4 -8t-4 -11q-4 -12 -14 -34q-8 -37 -33 -90q-57 -156 -111 -367q0 -2 -1 -5t-1 -5zM637 1630q10 21 20 35q-11 27 9 45q33 33 71 31 q33 -2 58.5 -24.5t31.5 -55.5q14 -85 -53 -123q-43 -25 -82 -16q-35 6 -49 41q-16 33 -6 67zM711 1602q14 0 24 11t10 25q-2 2 -2 7l-2 2l-2 2q0 1 -1 2t-1 2h-2h-2q0 -7 -8 -20t-12 -17v-2l-2 -4v-6v-2z" />
<glyph unicode="&#xc6;" horiz-adv-x="1380" d="M-12 385q0 31 30 39l76 20q11 121 35 285q5 42 21 134q7 50 10 63l14 100l8 51v4q0 1 1 6t1 7t1 12t1 12q8 39 41 39q15 0 28 -12.5t11 -26.5q-13 -122 -41 -297q-37 -265 -37 -280l-6 -72q6 2 33 8q0 3 1.5 8.5t4 15t4.5 17.5q44 191 107 369q24 64 65 164 q44 104 72 157q43 82 90 144q19 27 49 55q34 34 64 47q46 20 71 10q37 -16 52 -45q19 -45 26 -123q3 0 9.5 1t7.5 1l4 2h2q54 8 80 15l161 37q54 10 191 32l178 25q95 9 127 10q60 0 88 -14q14 -8 19.5 -27.5t-2.5 -34.5q-20 -35 -60 -16h-2h-2l-4 2h-12q-8 2 -17 2 q-3 0 -100 -6q-201 -18 -344 -49q-37 -6 -102 -21q-66 -16 -80 -18l-31 -6q2 -20 -6 -62q-22 -104 -56 -237q-11 -45 -22.5 -90t-17 -67.5t-7.5 -29.5l-14 -55l-4 -119q116 8 256 9q16 0 29.5 -12.5t13.5 -28.5q0 -18 -13.5 -30.5t-29.5 -12.5q-134 0 -258 -13h-2l-6 -166 q-5 -126 -7 -286l5 -127l4 -56q0 -2 1 -12t1 -14q2 -2 2 -10v-2v-15q60 21 142 59q95 44 120 54q74 35 244 102q167 59 227 74q52 12 102 18q42 4 76 -4q17 -4 27 -21.5t6 -33.5q-4 -18 -21.5 -27.5t-33.5 -3.5q-7 0 -13 2h-6q-105 0 -342 -92l-121 -47l-16 -6q0 -1 -2 -2 t-2 -2l-29 -10l-55 -25l-176 -82q-102 -50 -156 -61q-102 -20 -145 22q-34 34 -41 109q-2 31 2 104q32 260 39 303q18 124 47 248q-97 -11 -254 -39q-113 -22 -131 -26q-52 -245 -80 -476l-6 -53q-6 -43 -6 -47q4 -51 -23 -92q-14 -26 -43 -21q-30 5 -37 33q-23 83 -22 271 q1 149 12 301q0 4 1 16t1 14q-46 -9 -57 -10q-14 -2 -27.5 11.5t-13.5 29.5zM166 244q16 93 27 139l-19 -6q-3 -25 -8 -133zM311 500q207 45 381 63q0 6 10 53q1 10 9.5 49t9.5 44l6 75q16 303 14 383q0 20 -2 62q-8 8 -8 24q0 9 4 21q-2 22 -4.5 40t-5.5 32.5t-6.5 21.5 t-7.5 6q-61 -14 -156 -192q-35 -66 -70 -150q-2 -2 -2 -4q-1 -3 -4 -8l-8 -19l-14 -34l-33 -90q-57 -156 -111 -367q0 -2 -1 -5t-1 -5zM688 -225q0 -2 2 -2v-2q2 0 4 -2h6q2 0 10 1t11 1q-6 6 -6 16q-11 77 -15 176q-2 74 -2 170q-41 -274 -10 -358zM827 1212q2 -34 2 -75 l19 67q-10 4 -14 10q-1 0 -7 -2z" />
<glyph unicode="&#xc7;" horiz-adv-x="1073" d="M78 446q1 185 53 371q52 177 125 297q67 122 150 193q119 107 221 75q62 -18 112 -86q18 -29 29 -55q16 -10 18 -31.5t-12 -38.5q-14 -14 -41 -10q-17 1 -37 35q-3 4 -10.5 18.5t-9.5 18.5q-131 174 -332 -143q-77 -123 -117 -265q-78 -253 -57 -501q6 -138 55 -261l2 -2 l2 -8q51 -91 115.5 -132t133.5 -32.5t141 61.5q106 79 221 245q34 51 82 135q28 53 143 305q8 15 26.5 20t32.5 -4q32 -23 21 -49q-103 -245 -166 -354q-90 -153 -193 -266q-55 -58 -122 -109q-78 -57 -146 -72q-88 -25 -164 6q-73 28 -131 91q-87 102 -121 262 q-28 141 -24 286zM317 -623q4 17 20 26t34 5q29 -6 32 -35h9h2q34 0 89 33q56 33 32 66q-2 7 -35 8.5t-75 4t-60 11.5q-25 12 -21 37q0 50 31 100q34 56 57 76q26 18 45 6q28 -14 17 -43q-4 -10 -45 -78q-1 -2 -4 -9t-5 -9q0 -2 -1 -2t-1 -2v-2q6 0 22.5 1t20.5 1 q69 4 109 -31q33 -27 39 -70.5t-19 -76.5q-50 -78 -161 -105q-58 -12 -87 -2q-33 16 -40 35q-12 30 -5 55z" />
<glyph unicode="&#xc8;" d="M102 653q7 134 119 303q90 141 199 254q137 139 282 220q120 64 220 77q149 25 211 -59q35 -44 26 -109q-1 -30 -22 -87q-20 -50 -25 -72q0 -9 -2 -15q-14 -41 -53 -30q-13 4 -23 15.5t-8 25.5v8q0 15 31 102q14 30 14 47q8 42 -20 67t-78 25q-94 0 -201 -56 q-104 -54 -190 -130q-45 -37 -66 -57q-182 -182 -278 -377q-78 -142 -22 -221q56 -78 204 -23q4 2 32.5 15t99 45.5t140.5 64.5q43 18 62 -16q18 -28 -6 -54q-33 -34 -96 -93q-64 -59 -81 -72q-167 -167 -270 -375q-37 -79 -54 -154q-12 -51 3.5 -83t56.5 -32h10 q60 0 121 40q31 22 50 33q11 7 57 47q36 31 45 40q40 34 94 92q4 6 20.5 23t20.5 22q11 11 18 25q1 0 2 1t3 1q6 6 6 10q27 35 59 17q16 -10 21.5 -27t-5.5 -35q-73 -101 -178 -194q-117 -102 -219 -150q-139 -61 -215 -12q-92 57 -59 211q18 72 47 131q27 62 71 133 q46 75 86 127q56 78 97 121q12 14 26 26l-55 -18q-54 -17 -113 -25q-62 -4 -98 11q-55 18 -86 67q-35 60 -31 129zM799 1757q4 19 18 28t31 1q8 -2 22 -17l4 -4l5 -4q19 -19 34 -26q6 -6 33 -24.5t31 -22.5q35 -27 11 -60q-25 -32 -62 -10q-9 9 -70 53q-23 21 -35 37 q-27 27 -22 49zM1110 1192h2q-2 8 -2 0z" />
<glyph unicode="&#xc9;" d="M102 653q7 134 119 303q90 141 199 254q137 139 282 220q120 64 220 77q149 25 211 -59q35 -44 26 -109q-1 -30 -22 -87q-20 -50 -25 -72q0 -9 -2 -15q-14 -41 -53 -30q-13 4 -23 15.5t-8 25.5v8q0 15 31 102q14 30 14 47q8 42 -20 67t-78 25q-94 0 -201 -56 q-104 -54 -190 -130q-45 -37 -66 -57q-182 -182 -278 -377q-78 -142 -22 -221q56 -78 204 -23q4 2 32.5 15t99 45.5t140.5 64.5q43 18 62 -16q18 -28 -6 -54q-33 -34 -96 -93q-64 -59 -81 -72q-167 -167 -270 -375q-37 -79 -54 -154q-12 -51 3.5 -83t56.5 -32h10 q60 0 121 40q31 22 50 33q11 7 57 47q36 31 45 40q40 34 94 92q4 6 20.5 23t20.5 22q11 11 18 25q1 0 2 1t3 1q6 6 6 10q27 35 59 17q16 -10 21.5 -27t-5.5 -35q-73 -101 -178 -194q-117 -102 -219 -150q-139 -61 -215 -12q-92 57 -59 211q18 72 47 131q27 62 71 133 q46 75 86 127q56 78 97 121q12 14 26 26l-55 -18q-54 -17 -113 -25q-62 -4 -98 11q-55 18 -86 67q-35 60 -31 129zM696 1639q-14 24 4 42q15 10 77 62q13 11 42 35t41 34q12 8 30.5 4t27.5 -18q20 -32 -15 -57q-33 -21 -82 -60q-48 -41 -86 -59q-26 -8 -39 17zM1110 1192h2 q-2 8 -2 0z" />
<glyph unicode="&#xca;" d="M102 653q7 134 119 303q90 141 199 254q137 139 282 220q120 64 220 77q149 25 211 -59q35 -44 26 -109q-1 -30 -22 -87q-20 -50 -25 -72q0 -9 -2 -15q-14 -41 -53 -30q-13 4 -23 15.5t-8 25.5v8q0 15 31 102q14 30 14 47q8 42 -20 67t-78 25q-94 0 -201 -56 q-104 -54 -190 -130q-45 -37 -66 -57q-182 -182 -278 -377q-78 -142 -22 -221q56 -78 204 -23q4 2 32.5 15t99 45.5t140.5 64.5q43 18 62 -16q18 -28 -6 -54q-33 -34 -96 -93q-64 -59 -81 -72q-167 -167 -270 -375q-37 -79 -54 -154q-12 -51 3.5 -83t56.5 -32h10 q60 0 121 40q31 22 50 33q11 7 57 47q36 31 45 40q40 34 94 92q4 6 20.5 23t20.5 22q11 11 18 25q1 0 2 1t3 1q6 6 6 10q27 35 59 17q16 -10 21.5 -27t-5.5 -35q-73 -101 -178 -194q-117 -102 -219 -150q-139 -61 -215 -12q-92 57 -59 211q18 72 47 131q27 62 71 133 q46 75 86 127q56 78 97 121q12 14 26 26l-55 -18q-54 -17 -113 -25q-62 -4 -98 11q-55 18 -86 67q-35 60 -31 129zM735 1653q-14 23 6 43q5 5 25.5 30.5t28.5 32.5q44 54 75 58q55 10 97 -50q1 -4 10.5 -14t11.5 -14q1 0 3 -1t3 -1h2q2 -2 9 -2q15 -2 23.5 -19t4.5 -35 q-8 -32 -41 -30q-49 0 -90 59q-2 2 -10 16l-2 3l-4 4q-12 0 -41 -35q-3 -3 -13 -14.5t-17 -18.5t-16.5 -15.5t-17.5 -11.5q-31 -13 -47 15zM1110 1192h2q-2 8 -2 0z" />
<glyph unicode="&#xcb;" d="M102 653q7 134 119 303q90 141 199 254q137 139 282 220q120 64 220 77q149 25 211 -59q35 -44 26 -109q-1 -30 -22 -87q-20 -50 -25 -72q0 -9 -2 -15q-14 -41 -53 -30q-13 4 -23 15.5t-8 25.5v8q0 15 31 102q14 30 14 47q8 42 -20 67t-78 25q-94 0 -201 -56 q-104 -54 -190 -130q-45 -37 -66 -57q-182 -182 -278 -377q-78 -142 -22 -221q56 -78 204 -23q4 2 32.5 15t99 45.5t140.5 64.5q43 18 62 -16q18 -28 -6 -54q-33 -34 -96 -93q-64 -59 -81 -72q-167 -167 -270 -375q-37 -79 -54 -154q-12 -51 3.5 -83t56.5 -32h10 q60 0 121 40q31 22 50 33q11 7 57 47q36 31 45 40q40 34 94 92q4 6 20.5 23t20.5 22q11 11 18 25q1 0 2 1t3 1q6 6 6 10q27 35 59 17q16 -10 21.5 -27t-5.5 -35q-73 -101 -178 -194q-117 -102 -219 -150q-139 -61 -215 -12q-92 57 -59 211q18 72 47 131q27 62 71 133 q46 75 86 127q56 78 97 121q12 14 26 26l-55 -18q-54 -17 -113 -25q-62 -4 -98 11q-55 18 -86 67q-35 60 -31 129zM786 1679q11 41 45 47q21 2 41 -14q28 -20 5 -53q-23 -34 -58 -29q-43 6 -33 49zM948 1636q-33 33 0 70q33 39 66 10q9 -9 16 -20l-2 4q-2 2 -2 4 q6 -12 6 -23q0 -31 -29 -49q-30 -18 -55 4zM1110 1192h2q-2 8 -2 0z" />
<glyph unicode="&#xcc;" horiz-adv-x="661" d="M-61 1313q0 35 36 43q28 8 41 -10h4q7 0 13 2h2q1 0 8 1t10 1q47 10 90 12q75 9 101 10q96 9 114 10q13 84 23 113q14 44 55 33q31 -10 31 -43v-4q0 -14 -4 -21q-3 -7 -8 -41l-6 -30q212 10 393 -7q43 -4 43 -43q0 -16 -14 -30.5t-29 -12.5q-76 5 -174 7q-116 2 -230 -5 q-33 -239 -51 -649q-12 -385 19 -712h4q196 33 329 32q41 -5 41 -43q0 -18 -12 -29.5t-31 -11.5q-72 0 -323 -32q2 -18 -12.5 -32t-32.5 -14q-31 0 -41 31q-3 -1 -30.5 -5.5t-35.5 -6.5q-138 -34 -158 -35q-14 0 -26 12.5t-12 28.5q0 33 28 37q24 5 84 20q16 4 30.5 8 t25.5 7t14 4q26 7 67 14q0 6 -2 28.5t-3 38.5t-3 38t-2 28q-25 337 4 799q23 315 39 438q-32 -6 -76 -6q-30 -1 -116 -14q-82 -12 -131 -12q-36 0 -52 8q-2 2 -4 2l-8 6q-22 14 -22 37zM354 1745q4 18 19 27.5t30 1.5q8 -2 23 -17l4 -4l4 -4q17 -17 35 -27q6 -6 32.5 -24.5 t30.5 -22.5q35 -27 11 -59q-25 -32 -62 -10q-8 8 -69 53q-23 21 -35 37q-27 27 -23 49z" />
<glyph unicode="&#xcd;" horiz-adv-x="661" d="M-61 1313q0 35 36 43q28 8 41 -10h4q7 0 13 2h2q1 0 8 1t10 1q47 10 90 12q75 9 101 10q96 9 114 10q13 84 23 113q14 44 55 33q31 -10 31 -43v-4q0 -14 -4 -21q-3 -7 -8 -41l-6 -30q212 10 393 -7q43 -4 43 -43q0 -16 -14 -30.5t-29 -12.5q-76 5 -174 7q-116 2 -230 -5 q-33 -239 -51 -649q-12 -385 19 -712h4q196 33 329 32q41 -5 41 -43q0 -18 -12 -29.5t-31 -11.5q-72 0 -323 -32q2 -18 -12.5 -32t-32.5 -14q-31 0 -41 31q-3 -1 -30.5 -5.5t-35.5 -6.5q-138 -34 -158 -35q-14 0 -26 12.5t-12 28.5q0 33 28 37q24 5 84 20q16 4 30.5 8 t25.5 7t14 4q26 7 67 14q0 6 -2 28.5t-3 38.5t-3 38t-2 28q-25 337 4 799q23 315 39 438q-32 -6 -76 -6q-30 -1 -116 -14q-82 -12 -131 -12q-36 0 -52 8q-2 2 -4 2l-8 6q-22 14 -22 37zM321 1614q-14 24 5 43q15 10 77 62q60 51 82 69q12 9 31 4.5t27 -18.5q19 -31 -15 -58 q-30 -19 -82 -59q-50 -43 -86 -60q-26 -8 -39 17z" />
<glyph unicode="&#xce;" horiz-adv-x="661" d="M-61 1313q0 35 36 43q28 8 41 -10h4q7 0 13 2h2q1 0 8 1t10 1q47 10 90 12q75 9 101 10q96 9 114 10q13 84 23 113q14 44 55 33q31 -10 31 -43v-4q0 -14 -4 -21q-3 -7 -8 -41l-6 -30q212 10 393 -7q43 -4 43 -43q0 -16 -14 -30.5t-29 -12.5q-76 5 -174 7q-116 2 -230 -5 q-33 -239 -51 -649q-12 -385 19 -712h4q196 33 329 32q41 -5 41 -43q0 -18 -12 -29.5t-31 -11.5q-72 0 -323 -32q2 -18 -12.5 -32t-32.5 -14q-31 0 -41 31q-3 -1 -30.5 -5.5t-35.5 -6.5q-138 -34 -158 -35q-14 0 -26 12.5t-12 28.5q0 33 28 37q24 5 84 20q16 4 30.5 8 t25.5 7t14 4q26 7 67 14q0 6 -2 28.5t-3 38.5t-3 38t-2 28q-25 337 4 799q23 315 39 438q-32 -6 -76 -6q-30 -1 -116 -14q-82 -12 -131 -12q-36 0 -52 8q-2 2 -4 2l-8 6q-22 14 -22 37zM291 1630q-14 23 6 43t53 64q44 53 76 57q55 10 96 -49q2 -3 11 -15t12 -14h2 q2 -2 4 -2h2q2 -2 8 -2q15 -2 24 -19.5t5 -33.5q-7 -31 -41 -31q-49 0 -90 60q-9 8 -10 16l-3 2l-4 4q-12 0 -41 -35q-3 -3 -12.5 -14t-16.5 -18.5t-17 -16t-17 -10.5q-31 -13 -47 14z" />
<glyph unicode="&#xcf;" horiz-adv-x="661" d="M-61 1313q0 35 36 43q28 8 41 -10h4q7 0 13 2h2q1 0 8 1t10 1q47 10 90 12q75 9 101 10q96 9 114 10q13 84 23 113q14 44 55 33q31 -10 31 -43v-4q0 -14 -4 -21q-3 -7 -8 -41l-6 -30q212 10 393 -7q43 -4 43 -43q0 -16 -14 -30.5t-29 -12.5q-76 5 -174 7q-116 2 -230 -5 q-33 -239 -51 -649q-12 -385 19 -712h4q196 33 329 32q41 -5 41 -43q0 -18 -12 -29.5t-31 -11.5q-72 0 -323 -32q2 -18 -12.5 -32t-32.5 -14q-31 0 -41 31q-3 -1 -30.5 -5.5t-35.5 -6.5q-138 -34 -158 -35q-14 0 -26 12.5t-12 28.5q0 33 28 37q24 5 84 20q16 4 30.5 8 t25.5 7t14 4q26 7 67 14q0 6 -2 28.5t-3 38.5t-3 38t-2 28q-25 337 4 799q23 315 39 438q-32 -6 -76 -6q-30 -1 -116 -14q-82 -12 -131 -12q-36 0 -52 8q-2 2 -4 2l-8 6q-22 14 -22 37zM311 1653q11 41 45 47q21 2 41 -14q28 -20 5 -53q-23 -34 -58 -29q-43 6 -33 49z M473 1610q-33 33 0 69q33 39 66 11q11 -14 16 -21l-2 4q-2 2 -2 4q6 -12 6 -22q0 -31 -29 -49q-29 -19 -55 4z" />
<glyph unicode="&#xd1;" horiz-adv-x="1024" d="M37 -319q0 8 2 35.5t2 35.5q9 220 10 262q5 330 8 404q6 210 25 405q26 248 47 406q1 7 6.5 40t9.5 60q7 63 17 94q3 9 8.5 40t7.5 40q11 44 29 70q18 28 49 12q29 -14 12 -47q0 -4 -6 -10q-4 -7 -4 -10q-32 -146 -39 -230q0 -18 -8 -53q0 -1 -1 -6t-1 -6v-2v-2 q-1 -3 -2 -13t-2 -12q-7 -62 -12 -100q-12 -134 -21 -199q-23 -239 -27 -403q-4 -116 -4 -195q64 224 160 438q94 211 186 355q66 104 117 147q78 71 146 51q84 -22 102 -164q10 -60 10 -227v-137v-203q0 -278 10 -407q4 -50 9 -78q0 -2 1 -13t1 -14v-2q2 0 2 -2q0 -6 2 -12 q5 -44 8 -56q6 -32 14 -53q1 -3 5 -13.5t6 -12.5v-3q0 -4 6 -10q1 -3 10 -18l2 -2l6 -6l2 -2q1 -1 4 -3l2 -2h7q17 -2 25.5 -19t4.5 -36q-10 -38 -55 -31q-61 10 -100 107q-21 54 -37 147q-25 181 -25 654v191v87q0 91 -6 155q-6 68 -35 87q-47 29 -166 -143 q-25 -37 -53 -91q-36 -62 -133 -264q-83 -208 -105 -270q-65 -183 -104 -371q-11 -52 -16 -94q-5 -17 -9 -49q0 -2 -2 -11t-2 -12v-2v-2v-6l-2 -4l-12 -129q0 -6 -1 -30t-1 -31q-2 -19 -15 -32.5t-30 -13.5q-16 0 -30.5 14t-14.5 32zM528 1516q27 70 86 81q34 6 78 -14 q49 -32 68 -10q1 3 4 6q7 11 22 18q20 13 43 -4t19 -39q-11 -40 -41 -59q-34 -19 -49 -20q-33 -4 -82 18q-28 12 -45 18l-2 -2q-2 0 -2 -2l-4 -2q-7 -7 -7 -8q-7 -11 -14 -20q-6 -12 -20.5 -16.5t-26.5 1.5q-41 14 -27 54zM616 1503l2 2q-2 0 -2 -2z" />
<glyph unicode="&#xd2;" horiz-adv-x="1265" d="M37 809q17 232 123 440q58 117 166 219q129 114 243 136q73 12 140 -5q72 -18 131 -71q109 -94 157 -264q76 -247 13 -617q-13 -83 -31 -153q91 59 139 96q3 3 21 16l8 6q4 4 6 4q16 10 33 27q64 52 76 64q31 28 59 0q13 -13 13.5 -31t-13.5 -31q-138 -125 -277 -215 q-58 -40 -102 -63q-10 -39 -35 -103q-45 -123 -94 -211q-61 -111 -127 -172q-90 -78 -180 -84q-120 -10 -203 86q-71 88 -94 244q-6 61 -6 121l6 98q-23 15 -41 35q-151 141 -131 428zM130 674q14 -117 69 -195l2 -2v-2h2q1 -3 8 -10q6 -8 14 -16q2 9 12 41q9 34 18 60 q8 24 24 55q31 66 79 48q27 -12 43 -49q11 -29 -24 -43q-16 -4 -29 6l-2 -4l-2 -6l-2 -4q-8 -13 -8 -23q-19 -70 -25 -98q-1 -4 -4 -18.5t-4 -18.5q236 -115 547 21q2 2 10 6t10 6q31 93 52 217q66 345 -5 580q-19 72 -49 127q-82 154 -224 160t-275 -130q-13 -14 -48 -51 q-1 -1 -5.5 -6.5t-6.5 -7.5q0 -2 -2 -4l-2 -2q-6 -11 -18 -27q-35 -51 -60 -102q-1 -3 -5 -11.5t-5 -11.5l-6 -12v-2l-19 -49q-83 -209 -60 -422zM289 203q0 -25 4 -62l2 -6v-2q0 -1 1 -7t1 -7q6 -16 6 -29q7 -37 16 -59q0 -2 5 -17q2 -2 2 -4l12 -24q12 -23 16 -27 q3 0 4 -4l2 -4l2 -2q1 -1 3 -4q1 -1 5 -6t8 -9.5t7 -5.5q0 -3 4 -4l4 -2l4 -4q12 -9 27 -14q2 -2 4 -2q6 -3 10 -4t8 -3q9 -4 17 -4q2 -2 8 -2h2q18 -4 37 0h8q2 2 8 2l21 7q4 4 8 4q2 0 2 2q2 1 9 3.5t9 4.5q12 8 21 12l6 6l2 2q29 25 68 70q0 2 2 2v2q2 1 8 10q0 1 3 5 t6.5 9t4.5 7t4.5 7t10.5 16l14 22q14 25 51 98q1 3 5.5 13.5t6.5 13.5l7 16q8 15 20 51q6 10 14 39q-3 -3 -18 -8q-178 -73 -377 -39q-81 13 -145 41q-4 -49 0 -100zM555 1851q4 18 19 27.5t30 1.5q7 -1 23 -16l4 -4l4 -5q19 -19 35 -26q6 -6 32.5 -24.5t30.5 -22.5 q35 -27 11 -59q-25 -33 -62 -11q-9 9 -70 53q-23 21 -34 37q-27 27 -23 49z" />
<glyph unicode="&#xd3;" horiz-adv-x="1265" d="M37 809q17 232 123 440q58 117 166 219q129 114 243 136q73 12 140 -5q72 -18 131 -71q109 -94 157 -264q76 -247 13 -617q-13 -83 -31 -153q91 59 139 96q3 3 21 16l8 6q4 4 6 4q16 10 33 27q64 52 76 64q31 28 59 0q13 -13 13.5 -31t-13.5 -31q-138 -125 -277 -215 q-58 -40 -102 -63q-10 -39 -35 -103q-45 -123 -94 -211q-61 -111 -127 -172q-90 -78 -180 -84q-120 -10 -203 86q-71 88 -94 244q-6 61 -6 121l6 98q-23 15 -41 35q-151 141 -131 428zM130 674q14 -117 69 -195l2 -2v-2h2q1 -3 8 -10q6 -8 14 -16q2 9 12 41q9 34 18 60 q8 24 24 55q31 66 79 48q27 -12 43 -49q11 -29 -24 -43q-16 -4 -29 6l-2 -4l-2 -6l-2 -4q-8 -13 -8 -23q-19 -70 -25 -98q-1 -4 -4 -18.5t-4 -18.5q236 -115 547 21q2 2 10 6t10 6q31 93 52 217q66 345 -5 580q-19 72 -49 127q-82 154 -224 160t-275 -130q-13 -14 -48 -51 q-1 -1 -5.5 -6.5t-6.5 -7.5q0 -2 -2 -4l-2 -2q-6 -11 -18 -27q-35 -51 -60 -102q-1 -3 -5 -11.5t-5 -11.5l-6 -12v-2l-19 -49q-83 -209 -60 -422zM289 203q0 -25 4 -62l2 -6v-2q0 -1 1 -7t1 -7q6 -16 6 -29q7 -37 16 -59q0 -2 5 -17q2 -2 2 -4l12 -24q12 -23 16 -27 q3 0 4 -4l2 -4l2 -2q1 -1 3 -4q1 -1 5 -6t8 -9.5t7 -5.5q0 -3 4 -4l4 -2l4 -4q12 -9 27 -14q2 -2 4 -2q6 -3 10 -4t8 -3q9 -4 17 -4q2 -2 8 -2h2q18 -4 37 0h8q2 2 8 2l21 7q4 4 8 4q2 0 2 2q2 1 9 3.5t9 4.5q12 8 21 12l6 6l2 2q29 25 68 70q0 2 2 2v2q2 1 8 10q0 1 3 5 t6.5 9t4.5 7t4.5 7t10.5 16l14 22q14 25 51 98q1 3 5.5 13.5t6.5 13.5l7 16q8 15 20 51q6 10 14 39q-3 -3 -18 -8q-178 -73 -377 -39q-81 13 -145 41q-4 -49 0 -100zM541 1723q-15 24 4 42q15 10 77 62q13 11 42 35t41 34q12 9 30.5 4.5t26.5 -18.5q20 -32 -14 -57 q-33 -21 -82 -60q-48 -41 -86 -59q-26 -8 -39 17z" />
<glyph unicode="&#xd4;" horiz-adv-x="1265" d="M37 809q17 232 123 440q58 117 166 219q129 114 243 136q73 12 140 -5q72 -18 131 -71q109 -94 157 -264q76 -247 13 -617q-13 -83 -31 -153q91 59 139 96q3 3 21 16l8 6q4 4 6 4q16 10 33 27q64 52 76 64q31 28 59 0q13 -13 13.5 -31t-13.5 -31q-138 -125 -277 -215 q-58 -40 -102 -63q-10 -39 -35 -103q-45 -123 -94 -211q-61 -111 -127 -172q-90 -78 -180 -84q-120 -10 -203 86q-71 88 -94 244q-6 61 -6 121l6 98q-23 15 -41 35q-151 141 -131 428zM130 674q14 -117 69 -195l2 -2v-2h2q1 -3 8 -10q6 -8 14 -16q2 9 12 41q9 34 18 60 q8 24 24 55q31 66 79 48q27 -12 43 -49q11 -29 -24 -43q-16 -4 -29 6l-2 -4l-2 -6l-2 -4q-8 -13 -8 -23q-19 -70 -25 -98q-1 -4 -4 -18.5t-4 -18.5q236 -115 547 21q2 2 10 6t10 6q31 93 52 217q66 345 -5 580q-19 72 -49 127q-82 154 -224 160t-275 -130q-13 -14 -48 -51 q-1 -1 -5.5 -6.5t-6.5 -7.5q0 -2 -2 -4l-2 -2q-6 -11 -18 -27q-35 -51 -60 -102q-1 -3 -5 -11.5t-5 -11.5l-6 -12v-2l-19 -49q-83 -209 -60 -422zM289 203q0 -25 4 -62l2 -6v-2q0 -1 1 -7t1 -7q6 -16 6 -29q7 -37 16 -59q0 -2 5 -17q2 -2 2 -4l12 -24q12 -23 16 -27 q3 0 4 -4l2 -4l2 -2q1 -1 3 -4q1 -1 5 -6t8 -9.5t7 -5.5q0 -3 4 -4l4 -2l4 -4q12 -9 27 -14q2 -2 4 -2q6 -3 10 -4t8 -3q9 -4 17 -4q2 -2 8 -2h2q18 -4 37 0h8q2 2 8 2l21 7q4 4 8 4q2 0 2 2q2 1 9 3.5t9 4.5q12 8 21 12l6 6l2 2q29 25 68 70q0 2 2 2v2q2 1 8 10q0 1 3 5 t6.5 9t4.5 7t4.5 7t10.5 16l14 22q14 25 51 98q1 3 5.5 13.5t6.5 13.5l7 16q8 15 20 51q6 10 14 39q-3 -3 -18 -8q-178 -73 -377 -39q-81 13 -145 41q-4 -49 0 -100zM502 1747q-14 23 6 43q8 8 53 63q44 54 76 58q55 10 96 -49q1 -4 11.5 -14.5t11.5 -14.5l6 -2h2q2 -2 8 -2 q15 -2 24 -19.5t5 -33.5q-7 -31 -41 -31q-49 0 -90 59q-6 7 -11 17l-2 2l-4 4q-12 0 -41 -35q-3 -3 -12.5 -14t-16.5 -18.5t-17 -16t-17 -10.5q-31 -13 -47 14z" />
<glyph unicode="&#xd5;" horiz-adv-x="1265" d="M37 809q17 232 123 440q58 117 166 219q129 114 243 136q73 12 140 -5q72 -18 131 -71q109 -94 157 -264q76 -247 13 -617q-13 -83 -31 -153q91 59 139 96q3 3 21 16l8 6q4 4 6 4q16 10 33 27q64 52 76 64q31 28 59 0q13 -13 13.5 -31t-13.5 -31q-138 -125 -277 -215 q-58 -40 -102 -63q-10 -39 -35 -103q-45 -123 -94 -211q-61 -111 -127 -172q-90 -78 -180 -84q-120 -10 -203 86q-71 88 -94 244q-6 61 -6 121l6 98q-23 15 -41 35q-151 141 -131 428zM130 674q14 -117 69 -195l2 -2v-2h2q1 -3 8 -10q6 -8 14 -16q2 9 12 41q9 34 18 60 q8 24 24 55q31 66 79 48q27 -12 43 -49q11 -29 -24 -43q-16 -4 -29 6l-2 -4l-2 -6l-2 -4q-8 -13 -8 -23q-19 -70 -25 -98q-1 -4 -4 -18.5t-4 -18.5q236 -115 547 21q2 2 10 6t10 6q31 93 52 217q66 345 -5 580q-19 72 -49 127q-82 154 -224 160t-275 -130q-13 -14 -48 -51 q-1 -1 -5.5 -6.5t-6.5 -7.5q0 -2 -2 -4l-2 -2q-6 -11 -18 -27q-35 -51 -60 -102q-1 -3 -5 -11.5t-5 -11.5l-6 -12v-2l-19 -49q-83 -209 -60 -422zM289 203q0 -25 4 -62l2 -6v-2q0 -1 1 -7t1 -7q6 -16 6 -29q7 -37 16 -59q0 -2 5 -17q2 -2 2 -4l12 -24q12 -23 16 -27 q3 0 4 -4l2 -4l2 -2q1 -1 3 -4q1 -1 5 -6t8 -9.5t7 -5.5q0 -3 4 -4l4 -2l4 -4q12 -9 27 -14q2 -2 4 -2q6 -3 10 -4t8 -3q9 -4 17 -4q2 -2 8 -2h2q18 -4 37 0h8q2 2 8 2l21 7q4 4 8 4q2 0 2 2q2 1 9 3.5t9 4.5q12 8 21 12l6 6l2 2q29 25 68 70q0 2 2 2v2q2 1 8 10q0 1 3 5 t6.5 9t4.5 7t4.5 7t10.5 16l14 22q14 25 51 98q1 3 5.5 13.5t6.5 13.5l7 16q8 15 20 51q6 10 14 39q-3 -3 -18 -8q-178 -73 -377 -39q-81 13 -145 41q-4 -49 0 -100zM475 1776q27 70 86 82q35 6 78 -15q49 -32 68 -10q1 3 4 6q7 12 22 19q20 13 43 -4t19 -39 q-11 -40 -41 -60q-34 -19 -49 -20q-33 -4 -82 18q-43 18 -45 19l-3 -3q-2 0 -2 -2l-4 -2q-1 -4 -4 -4q-2 -2 -2 -4q-7 -11 -14 -20q-6 -12 -20.5 -16.5t-26.5 1.5q-40 14 -27 54zM563 1763l2 2q-2 0 -2 -2z" />
<glyph unicode="&#xd6;" horiz-adv-x="1265" d="M37 809q17 232 123 440q58 117 166 219q129 114 243 136q73 12 140 -5q72 -18 131 -71q109 -94 157 -264q76 -247 13 -617q-13 -83 -31 -153q91 59 139 96q3 3 21 16l8 6q4 4 6 4q16 10 33 27q64 52 76 64q31 28 59 0q13 -13 13.5 -31t-13.5 -31q-138 -125 -277 -215 q-58 -40 -102 -63q-10 -39 -35 -103q-45 -123 -94 -211q-61 -111 -127 -172q-90 -78 -180 -84q-120 -10 -203 86q-71 88 -94 244q-6 61 -6 121l6 98q-23 15 -41 35q-151 141 -131 428zM130 674q14 -117 69 -195l2 -2v-2h2q1 -3 8 -10q6 -8 14 -16q2 9 12 41q9 34 18 60 q8 24 24 55q31 66 79 48q27 -12 43 -49q11 -29 -24 -43q-16 -4 -29 6l-2 -4l-2 -6l-2 -4q-8 -13 -8 -23q-19 -70 -25 -98q-1 -4 -4 -18.5t-4 -18.5q236 -115 547 21q2 2 10 6t10 6q31 93 52 217q66 345 -5 580q-19 72 -49 127q-82 154 -224 160t-275 -130q-13 -14 -48 -51 q-1 -1 -5.5 -6.5t-6.5 -7.5q0 -2 -2 -4l-2 -2q-6 -11 -18 -27q-35 -51 -60 -102q-1 -3 -5 -11.5t-5 -11.5l-6 -12v-2l-19 -49q-83 -209 -60 -422zM289 203q0 -25 4 -62l2 -6v-2q0 -1 1 -7t1 -7q6 -16 6 -29q7 -37 16 -59q0 -2 5 -17q2 -2 2 -4l12 -24q12 -23 16 -27 q3 0 4 -4l2 -4l2 -2q1 -1 3 -4q1 -1 5 -6t8 -9.5t7 -5.5q0 -3 4 -4l4 -2l4 -4q12 -9 27 -14q2 -2 4 -2q6 -3 10 -4t8 -3q9 -4 17 -4q2 -2 8 -2h2q18 -4 37 0h8q2 2 8 2l21 7q4 4 8 4q2 0 2 2q2 1 9 3.5t9 4.5q12 8 21 12l6 6l2 2q29 25 68 70q0 2 2 2v2q2 1 8 10q0 1 3 5 t6.5 9t4.5 7t4.5 7t10.5 16l14 22q14 25 51 98q1 3 5.5 13.5t6.5 13.5l7 16q8 15 20 51q6 10 14 39q-3 -3 -18 -8q-178 -73 -377 -39q-81 13 -145 41q-4 -49 0 -100zM504 1776q11 41 45 47q20 2 41 -15q28 -20 5 -53q-23 -34 -58 -29q-44 6 -33 50zM666 1733q-33 33 0 69 q33 39 65 10q9 -8 17 -20l-3 4q-2 2 -2 4q5 -11 7 -22q0 -31 -30 -49q-29 -19 -54 4z" />
<glyph unicode="&#xd8;" horiz-adv-x="1265" d="M37 809q17 232 123 440q58 117 166 219q129 114 243 136q73 12 140 -5q45 -12 84 -36q8 24 41 110q13 31 40 31q24 0 37 -21q20 -34 4 -57l-6 -8l-8 -8l-37 -105q88 -89 133 -241q76 -247 13 -617q-13 -83 -31 -153q91 59 139 96l21 16l8 6q4 4 6 4l33 27q64 52 76 64 q31 28 59 0q13 -13 13.5 -31t-13.5 -31q-138 -125 -277 -215q-58 -40 -102 -63q-10 -39 -35 -103q-45 -123 -94 -211q-61 -111 -127 -172q-90 -78 -180 -84q-106 -6 -184 68l-7 -33q-4 -18 -20 -26.5t-35 -4.5q-39 10 -31 54q4 26 23 110q-30 71 -43 162q-6 61 -6 121l6 98 q-23 14 -41 35q-151 141 -131 428zM130 674q14 -117 69 -195l2 -2v-2h2l8 -10l14 -16q2 9 12 41q9 34 18 60q8 24 24 55q31 66 79 48q27 -12 43 -49q11 -29 -24 -43q-16 -4 -29 6l-2 -4l-2 -6l-2 -4l-8 -23q-19 -70 -25 -98l-8 -37q26 -17 70 -30q18 53 194 544 q53 151 131 381q1 3 4.5 12.5t10.5 29t13 37.5q27 77 36 104q-83 55 -189 32q-107 -24 -204 -123l-48 -51l-12 -14q0 -2 -2 -4l-2 -2l-18 -27q-35 -51 -60 -102l-10 -23l-6 -12v-2l-19 -49q-83 -209 -60 -422zM289 203q0 -25 4 -62l2 -6v-2v-6l12 41q10 43 35 115 q-46 17 -53 20q-4 -49 0 -100zM346 -29q6 -10 8 -12l6 -8l5 -6q1 -1 5 -6t8 -9.5t7 -5.5l8 -6l4 -4q12 -9 27 -14q2 -2 4 -2q6 -3 10 -4t8 -3q9 -4 17 -4q2 -2 8 -2h2q18 -4 37 0h8q2 2 8 2l21 7q4 4 8 4q2 0 2 2l18 8l21 12l8 8q29 25 68 70q0 2 2 2v2q2 1 8 10q0 1 3 5 t6.5 9t4.5 7l29 45q14 25 51 98l12 27l5 12q2 2 2 4q8 15 20 51q6 10 14 39q-3 -3 -18 -8q-178 -73 -377 -39h-4q-50 -152 -84 -291zM457 344q176 -20 391 72l20 12q31 93 52 217q66 345 -5 580q-19 72 -49 127l-37 57l-26 -76l-131 -385q-60 -170 -133 -368 q-52 -147 -82 -236z" />
<glyph unicode="&#xd9;" horiz-adv-x="1087" d="M109 580q6 207 38 403q12 90 37 170q18 64 33 86q27 30 41 31q35 6 59 -27q8 -15 3.5 -30.5t-17.5 -24.5q-7 -6 -18 -6l-2 -2q0 -12 -7 -17q-10 -29 -22 -92q-2 -6 -12 -57q-45 -201 -45 -539q0 -60 4 -151q6 -64 8 -78q0 -16 4 -39v-2q0 -6 2 -8q0 -3 1 -10.5t1 -8.5 q12 -80 33 -143q1 -8 10 -33q6 -10 6 -16q0 -2 2 -2v-2q68 -162 203 20q31 42 49 80q106 183 205 450q7 21 50 132q40 103 56 149q21 60 23 66q27 194 59 331l5 20t9.5 34.5t6.5 23.5q7 41 14 68q26 93 70 131q20 16 42.5 10.5t31.5 -29.5q27 -68 -13 -186q-7 -31 -22 -75 q-5 -14 -23 -64q-19 -69 -59 -189q-2 -8 -16.5 -48.5t-16.5 -49.5v-4l-12 -98l-12 -197q-6 -229 -3 -395q8 -132 15 -197q0 -29 6 -51q0 -2 1 -11.5t1 -13.5l2 -6v-8q7 -60 16 -98q18 -90 29 -123q1 -4 6 -17.5t6 -17.5l2 -4v-4l2 -4q2 -6 5 -8l12 -25h2v-2q5 -5 8 -6 q14 -13 13.5 -32t-13.5 -32q-28 -28 -63 0q-32 28 -58 99q-21 63 -28 112q-30 137 -43 312q-16 164 -13 395q4 80 4 133q-56 -154 -102 -260q-97 -222 -180 -340q-135 -194 -256 -137q-30 13 -60 55q-29 36 -53 104q-46 114 -59 299q-12 121 -8 306zM514 1606q4 18 19 27 t30 1q7 -1 23 -16l4 -4l4 -4q17 -17 35 -27q6 -6 32.5 -24.5t30.5 -22.5q35 -27 11 -59q-25 -33 -62 -11q-7 7 -70 54q-23 21 -34 36q-27 28 -23 50z" />
<glyph unicode="&#xda;" horiz-adv-x="1087" d="M109 580q6 207 38 403q12 90 37 170q18 64 33 86q27 30 41 31q35 6 59 -27q8 -15 3.5 -30.5t-17.5 -24.5q-7 -6 -18 -6l-2 -2q0 -12 -7 -17q-10 -29 -22 -92q-2 -6 -12 -57q-45 -201 -45 -539q0 -60 4 -151q6 -64 8 -78q0 -16 4 -39v-2q0 -6 2 -8q0 -3 1 -10.5t1 -8.5 q12 -80 33 -143q1 -8 10 -33q6 -10 6 -16q0 -2 2 -2v-2q68 -162 203 20q31 42 49 80q106 183 205 450q7 21 50 132q40 103 56 149q21 60 23 66q27 194 59 331l5 20t9.5 34.5t6.5 23.5q7 41 14 68q26 93 70 131q20 16 42.5 10.5t31.5 -29.5q27 -68 -13 -186q-7 -31 -22 -75 q-5 -14 -23 -64q-19 -69 -59 -189q-2 -8 -16.5 -48.5t-16.5 -49.5v-4l-12 -98l-12 -197q-6 -229 -3 -395q8 -132 15 -197q0 -29 6 -51q0 -2 1 -11.5t1 -13.5l2 -6v-8q7 -60 16 -98q18 -90 29 -123q1 -4 6 -17.5t6 -17.5l2 -4v-4l2 -4q2 -6 5 -8l12 -25h2v-2q5 -5 8 -6 q14 -13 13.5 -32t-13.5 -32q-28 -28 -63 0q-32 28 -58 99q-21 63 -28 112q-30 137 -43 312q-16 164 -13 395q4 80 4 133q-56 -154 -102 -260q-97 -222 -180 -340q-135 -194 -256 -137q-30 13 -60 55q-29 36 -53 104q-46 114 -59 299q-12 121 -8 306zM516 1440q-14 24 4 43 q15 10 77 62q13 11 42 35t41 34q12 9 30.5 4.5t26.5 -19.5q20 -32 -14 -57q-30 -19 -82 -59q-50 -43 -86 -60q-26 -8 -39 17z" />
<glyph unicode="&#xdb;" horiz-adv-x="1087" d="M109 580q6 207 38 403q12 90 37 170q18 64 33 86q27 30 41 31q35 6 59 -27q8 -15 3.5 -30.5t-17.5 -24.5q-7 -6 -18 -6l-2 -2q0 -12 -7 -17q-10 -29 -22 -92q-2 -6 -12 -57q-45 -201 -45 -539q0 -60 4 -151q6 -64 8 -78q0 -16 4 -39v-2q0 -6 2 -8q0 -3 1 -10.5t1 -8.5 q12 -80 33 -143q1 -8 10 -33q6 -10 6 -16q0 -2 2 -2v-2q68 -162 203 20q31 42 49 80q106 183 205 450q7 21 50 132q40 103 56 149q21 60 23 66q27 194 59 331l5 20t9.5 34.5t6.5 23.5q7 41 14 68q26 93 70 131q20 16 42.5 10.5t31.5 -29.5q27 -68 -13 -186q-7 -31 -22 -75 q-5 -14 -23 -64q-19 -69 -59 -189q-2 -8 -16.5 -48.5t-16.5 -49.5v-4l-12 -98l-12 -197q-6 -229 -3 -395q8 -132 15 -197q0 -29 6 -51q0 -2 1 -11.5t1 -13.5l2 -6v-8q7 -60 16 -98q18 -90 29 -123q1 -4 6 -17.5t6 -17.5l2 -4v-4l2 -4q2 -6 5 -8l12 -25h2v-2q5 -5 8 -6 q14 -13 13.5 -32t-13.5 -32q-28 -28 -63 0q-32 28 -58 99q-21 63 -28 112q-30 137 -43 312q-16 164 -13 395q4 80 4 133q-56 -154 -102 -260q-97 -222 -180 -340q-135 -194 -256 -137q-30 13 -60 55q-29 36 -53 104q-46 114 -59 299q-12 121 -8 306zM473 1513q-14 23 6 43 q6 6 26 31.5t27 32.5q44 53 76 57q54 10 97 -49q1 -2 10 -13t12 -16q1 0 3 -1t3 -1h2q2 -2 8 -2q15 -2 24 -18.5t5 -34.5q-7 -31 -41 -31q-49 0 -90 60q-5 6 -10 16l-2 2l-4 4q-13 0 -41 -34q-3 -3 -17 -19t-26 -27t-21 -14q-31 -13 -47 14z" />
<glyph unicode="&#xdc;" horiz-adv-x="1087" d="M109 580q6 207 38 403q12 90 37 170q18 64 33 86q27 30 41 31q35 6 59 -27q8 -15 3.5 -30.5t-17.5 -24.5q-7 -6 -18 -6l-2 -2q0 -12 -7 -17q-10 -29 -22 -92q-2 -6 -12 -57q-45 -201 -45 -539q0 -60 4 -151q6 -64 8 -78q0 -16 4 -39v-2q0 -6 2 -8q0 -3 1 -10.5t1 -8.5 q12 -80 33 -143q1 -8 10 -33q6 -10 6 -16q0 -2 2 -2v-2q68 -162 203 20q31 42 49 80q106 183 205 450q7 21 50 132q40 103 56 149q21 60 23 66q27 194 59 331l5 20t9.5 34.5t6.5 23.5q7 41 14 68q26 93 70 131q20 16 42.5 10.5t31.5 -29.5q27 -68 -13 -186q-7 -31 -22 -75 q-5 -14 -23 -64q-19 -69 -59 -189q-2 -8 -16.5 -48.5t-16.5 -49.5v-4l-12 -98l-12 -197q-6 -229 -3 -395q8 -132 15 -197q0 -29 6 -51q0 -2 1 -11.5t1 -13.5l2 -6v-8q7 -60 16 -98q18 -90 29 -123q1 -4 6 -17.5t6 -17.5l2 -4v-4l2 -4q2 -6 5 -8l12 -25h2v-2q5 -5 8 -6 q14 -13 13.5 -32t-13.5 -32q-28 -28 -63 0q-32 28 -58 99q-21 63 -28 112q-30 137 -43 312q-16 164 -13 395q4 80 4 133q-56 -154 -102 -260q-97 -222 -180 -340q-135 -194 -256 -137q-30 13 -60 55q-29 36 -53 104q-46 114 -59 299q-12 121 -8 306zM518 1575q11 41 45 47 q21 2 41 -14q28 -20 5 -53q-23 -34 -58 -29q-43 6 -33 49zM680 1532q-33 33 0 70q33 39 65 10q10 -10 17 -21l-2 4q-2 2 -2 4q6 -12 6 -22q0 -31 -29 -49q-29 -19 -55 4z" />
<glyph unicode="&#xdd;" d="M49 653q18 310 96 584q7 27 36 30q28 3 42 -20q3 -3 6 -13t4 -11q10 -25 -14 -45q-84 -344 -84 -617q0 -218 70 -295q34 -41 94 -8t133 139q84 123 100 152q87 145 181 336q23 52 24 53q0 2 1 6t1 6q29 146 78 348q27 102 35 119q39 86 82 107q38 23 61 -17 q29 -45 9 -129q-7 -36 -33 -106q-52 -149 -123 -305l-25 -56q-6 -55 -31 -221q-24 -147 -30 -233l-25 -209q-33 -315 -45 -488q-9 -169 -10 -198v-72q0 -2 1 -11.5t1 -13.5v-6l2 -2q10 -43 -31 -55q-19 -4 -36 4.5t-19 26.5q-8 34 -8 67q-2 37 4 170q7 95 18 230 q13 156 48 479q8 69 18.5 159t13.5 115q-3 -8 -18 -35q-60 -108 -96 -163q-10 -17 -44 -66q-12 -17 -27 -38t-17 -25q-51 -75 -89 -111q-63 -63 -120 -72q-63 -11 -113 21q-40 28 -66 72q-41 78 -53 206q-8 102 -2 211zM424 1457q-14 24 4 42q15 10 77 62q13 11 42 35t41 34 q12 9 30.5 4.5t26.5 -18.5q20 -32 -14 -57q-33 -21 -82 -60q-48 -41 -86 -59q-26 -8 -39 17z" />
<glyph unicode="&#xdf;" horiz-adv-x="698" d="M-92 -154q1 27 10 154l25 307q27 241 59 406q47 237 96 358q29 70 70 148q45 76 82 110q61 61 127 47q54 -11 67 -63q10 -36 -2 -94q-6 -35 -26 -93q-17 -44 -76 -168q0 -2 -39 -76q-43 -83 -53 -106q-38 -80 39 -90q10 0 42 -4q40 -5 47 -6q2 0 16.5 -2.5t26.5 -4.5 q26 -4 45 -10q15 -7 40 -15q6 -2 12 -4.5t10.5 -5t9.5 -6t7.5 -5t8 -6t7 -6.5t7.5 -7.5t8 -7.5q29 -27 42 -82q23 -92 -30 -229q-66 -155 -207 -310q-60 -69 -111 -112q-77 -73 -153 -80q-17 -2 -39 20v4q-2 0 -2 3q-10 10 -13 14q-10 16 -5 33.5t22 27.5q31 16 55 -8 q4 0 4 2h2q57 33 97 74l39 39q17 17 48 53q38 44 40 47l3 6q3 3 4 5q7 9 7 10l8 8v2q0 -2 2 0q79 102 122 211q29 69 27 123q-1 57 -52 95t-148 42q-117 0 -162 45q-44 49 -22 131q13 50 53 125q41 73 69 135q104 188 84 260h-2q-48 0 -106 -108q-73 -120 -119 -303 q-95 -365 -133 -971q-6 -50 -6 -101q0 -7 1 -26.5t1 -24.5q2 -2 2 -10q12 -19 2 -35q-8 -23 -29 -28q-35 -8 -45 20q-4 4 -4 8v2q-5 11 -10 60q-2 34 -2 73zM-2 -266q1 -13 0 -23q5 12 0 23z" />
<glyph unicode="&#xe0;" horiz-adv-x="655" d="M-47 389q-2 37 2 88q12 87 51 185q52 126 121 178q40 29 84 22q47 -2 94 -53q27 -23 0 -47q-15 -17 -39 -6q-7 3 -22.5 14t-16.5 12h-2l-4 2q-44 14 -87 -55q-45 -74 -64 -145q-14 -40 -23 -88q0 -14 -4 -21q0 -1 -1 -17.5t-1 -25.5q-4 -79 20.5 -93t81.5 48 q92 118 191 326q20 39 47 99q29 63 59 122q26 51 45 78q20 28 54 8q17 -10 22 -39q2 -35 -16 -123q-53 -290 -72 -614q-8 -164 -6 -244q0 -138 14 -174q6 -16 -3 -32.5t-25 -20.5q-24 -8 -41 11.5t-23 60.5q-10 66 -10 114q-1 61 0 123q0 63 8 225q7 125 29 293q4 43 16 113 l-22 -45q-76 -159 -168 -295q-46 -73 -97 -107q-33 -24 -67 -26q-39 -1 -76 24q-42 32 -49 125zM203 1210q4 18 19 27.5t30 1.5q7 -1 22 -16q2 -1 5 -4l4 -5q19 -19 34 -26q6 -6 33 -24.5t31 -22.5q35 -27 11 -59q-25 -33 -62 -11q-9 9 -70 53q-23 21 -35 37q-27 27 -22 49z " />
<glyph unicode="&#xe1;" horiz-adv-x="655" d="M-47 389q-2 37 2 88q12 87 51 185q52 126 121 178q40 29 84 22q47 -2 94 -53q27 -23 0 -47q-15 -17 -39 -6q-7 3 -22.5 14t-16.5 12h-2l-4 2q-44 14 -87 -55q-45 -74 -64 -145q-14 -40 -23 -88q0 -14 -4 -21q0 -1 -1 -17.5t-1 -25.5q-4 -79 20.5 -93t81.5 48 q92 118 191 326q20 39 47 99q29 63 59 122q26 51 45 78q20 28 54 8q17 -10 22 -39q2 -35 -16 -123q-53 -290 -72 -614q-8 -164 -6 -244q0 -138 14 -174q6 -16 -3 -32.5t-25 -20.5q-24 -8 -41 11.5t-23 60.5q-10 66 -10 114q-1 61 0 123q0 63 8 225q7 125 29 293q4 43 16 113 l-22 -45q-76 -159 -168 -295q-46 -73 -97 -107q-33 -24 -67 -26q-39 -1 -76 24q-42 32 -49 125zM213 1063q-14 24 4 43q15 10 77 62q13 11 42 35t41 34q12 9 30.5 4.5t26.5 -18.5q20 -32 -14 -58q-30 -19 -82 -59q-48 -41 -86 -59q-26 -8 -39 16z" />
<glyph unicode="&#xe2;" horiz-adv-x="655" d="M-47 389q-2 37 2 88q12 87 51 185q52 126 121 178q40 29 84 22q47 -2 94 -53q27 -23 0 -47q-15 -17 -39 -6q-7 3 -22.5 14t-16.5 12h-2l-4 2q-44 14 -87 -55q-45 -74 -64 -145q-14 -40 -23 -88q0 -14 -4 -21q0 -1 -1 -17.5t-1 -25.5q-4 -79 20.5 -93t81.5 48 q92 118 191 326q20 39 47 99q29 63 59 122q26 51 45 78q20 28 54 8q17 -10 22 -39q2 -35 -16 -123q-53 -290 -72 -614q-8 -164 -6 -244q0 -138 14 -174q6 -16 -3 -32.5t-25 -20.5q-24 -8 -41 11.5t-23 60.5q-10 66 -10 114q-1 61 0 123q0 63 8 225q7 125 29 293q4 43 16 113 l-22 -45q-76 -159 -168 -295q-46 -73 -97 -107q-33 -24 -67 -26q-39 -1 -76 24q-42 32 -49 125zM143 1063q-14 23 7 43q4 5 26.5 31.5t26.5 31.5q44 54 76 58q55 10 96 -49q2 -4 10.5 -14.5t11.5 -14.5l2 -2h4h3q2 -2 8 -2q15 -2 23.5 -19.5t4.5 -33.5q-7 -31 -41 -31 q-49 0 -90 59q-9 9 -10 17l-2 2l-4 4q-12 0 -41 -35q-3 -3 -17 -19t-25.5 -26.5t-21.5 -13.5q-31 -13 -47 14z" />
<glyph unicode="&#xe3;" horiz-adv-x="655" d="M-47 389q-2 37 2 88q12 87 51 185q52 126 121 178q40 29 84 22q47 -2 94 -53q27 -23 0 -47q-15 -17 -39 -6q-7 3 -22.5 14t-16.5 12h-2l-4 2q-44 14 -87 -55q-45 -74 -64 -145q-14 -40 -23 -88q0 -14 -4 -21q0 -1 -1 -17.5t-1 -25.5q-4 -79 20.5 -93t81.5 48 q92 118 191 326q20 39 47 99q29 63 59 122q26 51 45 78q20 28 54 8q17 -10 22 -39q2 -35 -16 -123q-53 -290 -72 -614q-8 -164 -6 -244q0 -138 14 -174q6 -16 -3 -32.5t-25 -20.5q-24 -8 -41 11.5t-23 60.5q-10 66 -10 114q-1 61 0 123q0 63 8 225q7 125 29 293q4 43 16 113 l-22 -45q-76 -159 -168 -295q-46 -73 -97 -107q-33 -24 -67 -26q-39 -1 -76 24q-42 32 -49 125zM156 1094q27 70 86 82q35 6 77 -15q49 -32 68 -10q1 3 4 6q8 12 23 19q20 13 43 -4q23 -16 18 -39q-11 -40 -41 -60q-34 -19 -49 -20q-33 -4 -82 18q-43 18 -45 19l-2 -3 q-2 0 -2 -2l-4 -2q-6 -6 -6 -8q-8 -13 -15 -20q-6 -12 -20 -16.5t-27 1.5q-41 14 -26 54zM244 1081l2 2q-2 0 -2 -2z" />
<glyph unicode="&#xe4;" horiz-adv-x="655" d="M-47 389q-2 37 2 88q12 87 51 185q52 126 121 178q40 29 84 22q47 -2 94 -53q27 -23 0 -47q-15 -17 -39 -6q-7 3 -22.5 14t-16.5 12h-2l-4 2q-44 14 -87 -55q-45 -74 -64 -145q-14 -40 -23 -88q0 -14 -4 -21q0 -1 -1 -17.5t-1 -25.5q-4 -79 20.5 -93t81.5 48 q92 118 191 326q20 39 47 99q29 63 59 122q26 51 45 78q20 28 54 8q17 -10 22 -39q2 -35 -16 -123q-53 -290 -72 -614q-8 -164 -6 -244q0 -138 14 -174q6 -16 -3 -32.5t-25 -20.5q-24 -8 -41 11.5t-23 60.5q-10 66 -10 114q-1 61 0 123q0 63 8 225q7 125 29 293q4 43 16 113 l-22 -45q-76 -159 -168 -295q-46 -73 -97 -107q-33 -24 -67 -26q-39 -1 -76 24q-42 32 -49 125zM217 1200q11 41 45 47q21 2 41 -14q28 -20 5 -53q-23 -34 -58 -29q-43 6 -33 49zM379 1157q-33 33 0 70q33 39 65 10q9 -8 17 -20l-2 4q-2 2 -2 4q6 -12 6 -23q0 -31 -30 -49 t-54 4z" />
<glyph unicode="&#xe5;" horiz-adv-x="655" d="M-47 389q-2 37 2 88q12 87 51 185q52 126 121 178q40 29 84 22q47 -2 94 -53q27 -23 0 -47q-15 -17 -39 -6q-7 3 -22.5 14t-16.5 12h-2l-4 2q-44 14 -87 -55q-45 -74 -64 -145q-14 -40 -23 -88q0 -14 -4 -21q0 -1 -1 -17.5t-1 -25.5q-4 -79 20.5 -93t81.5 48 q92 118 191 326q20 39 47 99q29 63 59 122q26 51 45 78q20 28 54 8q17 -10 22 -39q2 -35 -16 -123q-53 -290 -72 -614q-8 -164 -6 -244q0 -138 14 -174q6 -16 -3 -32.5t-25 -20.5q-24 -8 -41 11.5t-23 60.5q-10 66 -10 114q-1 61 0 123q0 63 8 225q7 125 29 293q4 43 16 113 l-22 -45q-76 -159 -168 -295q-46 -73 -97 -107q-33 -24 -67 -26q-39 -1 -76 24q-42 32 -49 125zM254 1143q10 21 20 35q-10 27 9 45q33 33 71 30q33 -2 58.5 -24.5t31.5 -54.5q14 -85 -53 -123q-42 -25 -82 -17q-35 6 -49 41q-17 33 -6 68zM328 1114q14 0 24 11t10 26 q-2 2 -2 6l-2 2l-2 2q0 1 -1 2t-1 2h-2h-2q0 -7 -8 -20t-12 -17v-2l-2 -4v-6v-2z" />
<glyph unicode="&#xe6;" horiz-adv-x="1038" d="M-47 389q-2 37 2 88q12 87 51 185q52 126 121 178q40 29 84 22q47 -2 94 -53q27 -23 0 -47q-15 -17 -39 -6q-7 3 -22.5 14t-16.5 12h-2l-4 2q-44 14 -87 -55q-45 -74 -64 -145q-14 -40 -23 -88l-4 -21q0 -1 -1 -17.5t-1 -25.5q-4 -79 20.5 -93t81.5 48q92 118 191 326 q20 39 47 99q29 63 59 122q26 51 45 78q20 29 54 8q17 -10 22 -39q0 -45 -8 -82l10 14q53 74 107 113q78 57 145 45q37 -8 61.5 -36.5t28.5 -65.5q10 -67 -31 -160q-34 -78 -83 -139q-56 -73 -113 -95q-80 -38 -158 -18q-6 2 -10 2q-7 -12 -14 -39q-6 -54 -15 -139 q5 -103 37 -175q33 -73 98 -73q61 0 127 66q159 159 295 456q6 16 26 21.5t34 -4.5q26 -23 6 -64q-77 -169 -131 -256q-77 -120 -131 -180q-78 -87 -154 -115q-94 -37 -164 21q-30 21 -57 55q-5 -68 0 -133q0 -138 14 -174q6 -16 -3 -32.5t-25 -20.5q-24 -8 -41 11.5 t-23 60.5q-10 66 -10 114q-1 61 0 123q0 63 8 225q7 125 29 293l16 113l-22 -45q-76 -159 -168 -295q-46 -73 -97 -107q-33 -24 -67 -26q-39 -1 -76 24q-42 32 -49 125zM535 639h4q6 -2 10 -2q102 0 143 41q114 117 127 242q6 55 -21 65t-53 -10q-44 -25 -88 -84 q-52 -66 -108 -209q-7 -15 -14 -43z" />
<glyph unicode="&#xe7;" horiz-adv-x="737" d="M-74 307q5 108 31 205q13 63 43 131q46 118 92 184q77 113 150 113q50 0 84 -45q36 -42 43 -164q2 -15 -12.5 -29t-30.5 -14q-41 0 -45 43q0 84 -23 107q-13 15 -31.5 7t-36.5 -32q-52 -71 -90 -158q-1 -3 -4.5 -12.5t-5.5 -11.5q-4 -7 -4 -10q-80 -184 -69 -359 q6 -105 59 -160q67 -76 200 7q37 21 76 60q9 9 24.5 24t26.5 26.5t20 20.5q32 32 69 79q13 16 32.5 40.5t25.5 32.5q22 27 48 64t31 42q6 8 23 34t28 43q28 42 53 78q23 29 51 13q31 -16 13 -50q-14 -30 -37 -69q-84 -148 -209 -295q-100 -121 -209 -199q-103 -74 -199 -65 q-64 5 -106 32q-44 32 -70 78q-45 86 -41 209zM41 -410q4 17 20 26t33 5q28 -6 33 -35h8h2q33 0 90 33q56 33 31 66q-2 7 -34.5 8.5t-74.5 4t-61 11.5q-24 12 -20 37q0 49 30 100q33 54 58 76q26 18 45 6q27 -13 16 -43q-5 -11 -45 -78q0 -1 -4 -8t-4 -10q0 -1 -1 -2t-1 -2 v-2q4 0 20.5 1t22.5 1q68 4 108 -31q33 -27 39 -70.5t-18 -76.5q-50 -78 -162 -105q-58 -12 -86 -2q-34 17 -41 35q-12 28 -4 55z" />
<glyph unicode="&#xe8;" horiz-adv-x="591" d="M-59 332q-14 128 32 280q0 7 -4 11q-8 35 23 45q45 145 112 245q53 74 107 113q78 57 145 45q37 -8 61.5 -36.5t28.5 -65.5q11 -68 -30 -160q-32 -76 -84 -139q-56 -73 -113 -95q-80 -38 -158 -18q-6 2 -10 2q-27 -46 -30 -148q-3 -100 32 -190q34 -88 105 -88 q61 0 127 66q159 159 295 456q6 16 25.5 21.5t33.5 -4.5q26 -23 6 -64q-77 -169 -131 -256q-77 -120 -131 -180q-78 -87 -154 -115q-94 -37 -163 21q-112 83 -125 254zM76 639h4q6 -2 10 -2q102 0 143 41q114 117 127 242q6 55 -21 65t-52 -10q-44 -25 -88 -84 q-54 -68 -109 -209q-7 -15 -14 -43zM199 1305q4 19 18 27.5t31 0.5q8 -1 22 -16l4 -4l5 -4q19 -19 34 -27q6 -6 33 -24.5t31 -22.5q35 -28 10 -59q-26 -33 -61 -11q-7 7 -70 54q-22 20 -35 36q-27 27 -22 50z" />
<glyph unicode="&#xe9;" horiz-adv-x="591" d="M-59 332q-14 128 32 280q0 7 -4 11q-8 35 23 45q45 145 112 245q53 74 107 113q78 57 145 45q37 -8 61.5 -36.5t28.5 -65.5q11 -68 -30 -160q-32 -76 -84 -139q-56 -73 -113 -95q-80 -38 -158 -18q-6 2 -10 2q-27 -46 -30 -148q-3 -100 32 -190q34 -88 105 -88 q61 0 127 66q159 159 295 456q6 16 25.5 21.5t33.5 -4.5q26 -23 6 -64q-77 -169 -131 -256q-77 -120 -131 -180q-78 -87 -154 -115q-94 -37 -163 21q-112 83 -125 254zM76 639h4q6 -2 10 -2q102 0 143 41q114 117 127 242q6 55 -21 65t-52 -10q-44 -25 -88 -84 q-54 -68 -109 -209q-7 -15 -14 -43zM207 1211q-14 24 4 42q15 10 77 62q13 11 42 35t41 34q12 9 30.5 4.5t26.5 -18.5q20 -32 -14 -57q-33 -21 -82 -60q-48 -41 -86 -59q-26 -8 -39 17z" />
<glyph unicode="&#xea;" horiz-adv-x="591" d="M-59 332q-14 128 32 280q0 7 -4 11q-8 35 23 45q45 145 112 245q53 74 107 113q78 57 145 45q37 -8 61.5 -36.5t28.5 -65.5q11 -68 -30 -160q-32 -76 -84 -139q-56 -73 -113 -95q-80 -38 -158 -18q-6 2 -10 2q-27 -46 -30 -148q-3 -100 32 -190q34 -88 105 -88 q61 0 127 66q159 159 295 456q6 16 25.5 21.5t33.5 -4.5q26 -23 6 -64q-77 -169 -131 -256q-77 -120 -131 -180q-78 -87 -154 -115q-94 -37 -163 21q-112 83 -125 254zM76 639h4q6 -2 10 -2q102 0 143 41q114 117 127 242q6 55 -21 65t-52 -10q-44 -25 -88 -84 q-54 -68 -109 -209q-7 -15 -14 -43zM143 1141q-14 23 7 43q4 5 26.5 31.5t26.5 31.5q44 54 76 58q55 10 96 -50q20 -32 28 -30h3q2 -2 8 -2q15 -2 23.5 -19t4.5 -35q-8 -32 -41 -30q-49 0 -90 59q-4 4 -8 11t-8 9.5t-10 0.5q-24 -24 -31 -33q-3 -3 -17 -18.5t-25.5 -26.5 t-21.5 -15q-31 -13 -47 15z" />
<glyph unicode="&#xeb;" horiz-adv-x="591" d="M-59 332q-14 128 32 280q0 7 -4 11q-8 35 23 45q45 145 112 245q53 74 107 113q78 57 145 45q37 -8 61.5 -36.5t28.5 -65.5q11 -68 -30 -160q-32 -76 -84 -139q-56 -73 -113 -95q-80 -38 -158 -18q-6 2 -10 2q-27 -46 -30 -148q-3 -100 32 -190q34 -88 105 -88 q61 0 127 66q159 159 295 456q6 16 25.5 21.5t33.5 -4.5q26 -23 6 -64q-77 -169 -131 -256q-77 -120 -131 -180q-78 -87 -154 -115q-94 -37 -163 21q-112 83 -125 254zM76 639h4q6 -2 10 -2q102 0 143 41q114 117 127 242q6 55 -21 65t-52 -10q-44 -25 -88 -84 q-54 -68 -109 -209q-7 -15 -14 -43zM207 1225q11 41 45 47q20 2 41 -15q28 -20 5 -52q-23 -34 -58 -29q-43 6 -33 49zM369 1182q-33 33 0 69q33 40 65 11q10 -10 17 -21l-2 4l-2 2t-1 2q5 -11 7 -22q0 -31 -30 -49q-29 -19 -54 4z" />
<glyph unicode="&#xec;" horiz-adv-x="239" d="M-35 1057q4 19 19 28t30 0q7 -1 23 -16l4 -4l4 -4q17 -17 35 -27q6 -6 32.5 -24.5t30.5 -22.5q35 -27 11 -59q-25 -32 -62 -10q-8 8 -69 53q-23 21 -35 37q-27 27 -23 49zM-29 137q0 54 4 207q0 11 1.5 27t3 39.5t2.5 41.5q7 82 8 107q10 107 10 139q5 35 33 41 q35 12 49 -20q4 -4 8 -17q4 -17 -2 -28q0 -4 -4.5 -68.5t-8.5 -111.5q-9 -118 -12 -179q-4 -141 -2 -198q0 -25 5 -35v-2v-6q0 -5 3 -12.5t3 -10.5q18 -18 12 -41q-6 -18 -18 -24q-7 -4 -9 -4q-14 -2 -28 0q-1 2 -6 2t-7 2v2q-3 1 -8 6q-2 0 -2 2q-19 17 -26 57q-4 31 -9 84 zM72 49q2 0 0 2v-2z" />
<glyph unicode="&#xed;" horiz-adv-x="239" d="M-43 898q-14 24 4 42q15 10 77 62q13 11 42 35t41 34q12 9 30.5 4.5t26.5 -18.5q20 -32 -14 -58q-30 -19 -82 -59q-48 -41 -86 -59q-26 -8 -39 17zM-29 137q0 54 4 207q0 11 1.5 27t3 39.5t2.5 41.5q7 82 8 107q10 107 10 139q5 35 33 41q35 12 49 -20q4 -4 8 -17 q4 -17 -2 -28q0 -4 -4.5 -68.5t-8.5 -111.5q-9 -118 -12 -179q-4 -141 -2 -198q0 -25 5 -35v-2v-6q0 -5 3 -12.5t3 -10.5q18 -18 12 -41q-6 -18 -18 -24q-7 -4 -9 -4q-14 -2 -28 0q-1 2 -6 2t-7 2v2q-3 1 -8 6q-2 0 -2 2q-19 17 -26 57q-4 31 -9 84zM72 49q2 0 0 2v-2z" />
<glyph unicode="&#xee;" horiz-adv-x="239" d="M-84 903q-14 23 6 43t53 64q44 53 76 57q55 10 96 -49q19 -31 29 -31h2q2 -2 8 -2q15 -2 24 -19.5t5 -33.5q-7 -31 -41 -31q-50 0 -90 60q-3 3 -8 10.5t-9 9.5t-10 0q-19 -19 -30 -33q-3 -3 -17 -19t-26 -26.5t-21 -13.5q-31 -13 -47 14zM-29 137q0 54 4 207q0 11 1.5 27 t3 39.5t2.5 41.5q7 82 8 107q10 107 10 139q5 35 33 41q35 12 49 -20q4 -4 8 -17q4 -17 -2 -28q0 -4 -4.5 -68.5t-8.5 -111.5q-9 -118 -12 -179q-4 -141 -2 -198q0 -25 5 -35v-2v-6q0 -5 3 -12.5t3 -10.5q18 -18 12 -41q-6 -18 -18 -24q-7 -4 -9 -4q-14 -2 -28 0q-1 2 -6 2 t-7 2v2q-3 1 -8 6q-2 0 -2 2q-19 17 -26 57q-4 31 -9 84zM72 49q2 0 0 2v-2z" />
<glyph unicode="&#xef;" horiz-adv-x="237" d="M-55 956q11 40 45 48q20 2 41 -15q27 -19 4 -53t-58 -29q-42 6 -32 49zM-29 137q0 54 4 207q0 11 1.5 27t3 39.5t2.5 41.5q7 82 8 107q10 107 10 139q5 35 33 41q35 12 49 -20q4 -4 8 -17q4 -17 -2 -28q0 -4 -4.5 -68.5t-8.5 -111.5q-9 -118 -12 -179q-4 -141 -2 -198 q0 -25 5 -35v-2v-6q0 -5 3 -12.5t3 -10.5q18 -18 12 -41q-6 -18 -18 -24q-7 -4 -9 -4q-14 -2 -28 0q-1 2 -6 2t-7 2v2q-3 1 -8 6q-2 0 -2 2q-19 17 -26 57q-4 31 -9 84zM72 49q2 0 0 2v-2zM106 913q-33 33 0 70q33 39 66 10q9 -9 16 -20l-2 4q-2 2 -2 4q6 -12 6 -23 q0 -31 -29 -49q-30 -18 -55 4z" />
<glyph unicode="&#xf1;" horiz-adv-x="768" d="M-41 268q0 39 1 70q2 48 3 70q7 132 17 208q7 56 14 80q14 47 43 58q15 6 31 -3.5t20 -25.5q8 -23 -10 -41q-17 -76 -19 -147q-3 -24 -8 -131q36 84 78 176q62 128 100 184q63 94 117 123q45 19 82 12q55 -10 82 -80q18 -47 27 -129q0 -2 1 -11.5t1 -12.5q4 -23 4 -35 l18 -154q26 -249 55 -413q18 -106 43 -168q0 -3 7 -17t12 -22q39 -5 39 -43q0 -20 -13 -32.5t-32 -12.5q-27 0 -50 20t-34 46q-10 24 -21 54q-24 75 -41 179q-19 109 -32 227q-10 77 -20 172q-13 111 -21 172v4q-15 166 -55 165q-6 0 -13 -4q-26 -15 -50.5 -45t-62.5 -93 q-49 -91 -172 -373q-46 -113 -57 -129q-14 -33 -49 -21q-28 7 -33 43q-2 36 -2 80zM164 1061q27 70 86 82q34 6 78 -15q49 -33 67 -10q1 3 4 6q8 12 23 19q20 13 43 -4t18 -39q-11 -40 -41 -60q-34 -19 -49 -20q-33 -4 -82 18q-43 18 -45 19l-2 -2q-2 0 -2 -2l-4 -2 q-6 -6 -6 -9q-7 -11 -14 -20q-6 -12 -20.5 -16.5t-27.5 2.5q-41 14 -26 53zM252 1049l2 2q-2 0 -2 -2z" />
<glyph unicode="&#xf2;" horiz-adv-x="528" d="M-63 500q11 87 32 164q6 13 13 20q-2 -2 -2.5 -2t0.5 2q2 3 6 8q14 14 39 10q2 0 2 -2h2q39 78 100 88q52 10 92 -14q37 -22 64 -63q36 -51 47 -144q4 0 6 2q17 10 45 21q63 31 135 74q39 18 60 -17q10 -14 5 -32.5t-22 -26.5q-128 -75 -229 -117q-6 -83 -35 -164 q-32 -79 -70 -123q-52 -61 -110 -69q-44 -6 -82 14q-27 17 -51 51q-32 56 -43 127q-16 88 -4 193zM20 496q-24 -258 62 -291q57 -23 103 59t55 166v10q-38 -18 -96 -14q-60 5 -97 37q-11 7 -27 33zM70 1026q4 19 18 28t31 1q8 -2 22 -17l4 -4l5 -4q19 -19 34 -26 q6 -6 33 -25t31 -23q35 -28 10 -59q-25 -32 -61 -10q-9 9 -70 53q-23 21 -35 37q-26 27 -22 49zM90 612q-8 -35 6 -71q34 -47 150 -9q0 15 -10 74q-31 90 -89 78q-47 -10 -57 -72z" />
<glyph unicode="&#xf3;" horiz-adv-x="528" d="M-63 500q11 87 32 164q6 13 13 20q-2 -2 -2.5 -2t0.5 2q2 3 6 8q14 14 39 10q2 0 2 -2h2q39 78 100 88q52 10 92 -14q37 -22 64 -63q36 -51 47 -144q4 0 6 2q17 10 45 21q63 31 135 74q39 18 60 -17q10 -14 5 -32.5t-22 -26.5q-128 -75 -229 -117q-6 -83 -35 -164 q-32 -79 -70 -123q-52 -61 -110 -69q-44 -6 -82 14q-27 17 -51 51q-32 56 -43 127q-16 88 -4 193zM20 496q-24 -258 62 -291q57 -23 103 59t55 166v10q-38 -18 -96 -14q-60 5 -97 37q-11 7 -27 33zM59 887q-14 24 4 43q15 10 77 62q13 11 42 35t41 34q12 8 30.5 4t27.5 -18 q19 -31 -15 -58q-30 -19 -82 -59q-50 -43 -86 -60q-26 -8 -39 17zM90 612q-8 -35 6 -71q34 -47 150 -9q0 15 -10 74q-31 90 -89 78q-47 -10 -57 -72z" />
<glyph unicode="&#xf4;" horiz-adv-x="528" d="M-63 500q11 87 32 164q6 13 13 20q-2 -2 -2.5 -2t0.5 2q2 3 6 8q14 14 39 10q2 0 2 -2h2q39 78 100 88q52 10 92 -14q37 -22 64 -63q36 -51 47 -144q4 0 6 2q17 10 45 21q63 31 135 74q39 18 60 -17q10 -14 5 -32.5t-22 -26.5q-128 -75 -229 -117q-6 -83 -35 -164 q-32 -79 -70 -123q-52 -61 -110 -69q-44 -6 -82 14q-27 17 -51 51q-32 56 -43 127q-16 88 -4 193zM12 885q-14 23 6 43q6 6 28.5 32.5t25.5 30.5q44 54 75 58q55 10 97 -50q20 -32 28 -30h2q2 -2 9 -2q15 -2 23.5 -19t4.5 -35q-8 -32 -41 -30q-49 0 -90 59q-4 4 -8 11 t-8 9.5t-10 0.5q-24 -24 -31 -33q-3 -3 -17 -18.5t-25.5 -26.5t-21.5 -15q-31 -13 -47 15zM20 496q-24 -258 62 -291q57 -23 103 59t55 166v10q-38 -18 -96 -14q-60 5 -97 37q-11 7 -27 33zM90 612q-8 -35 6 -71q34 -47 150 -9q0 15 -10 74q-31 90 -89 78q-47 -10 -57 -72z " />
<glyph unicode="&#xf5;" horiz-adv-x="528" d="M-63 500q11 87 32 164q6 13 13 20q-2 -2 -2.5 -2t0.5 2q2 3 6 8q14 14 39 10q2 0 2 -2h2q39 78 100 88q52 10 92 -14q37 -22 64 -63q36 -51 47 -144q4 0 6 2q17 10 45 21q63 31 135 74q39 18 60 -17q10 -14 5 -32.5t-22 -26.5q-128 -75 -229 -117q-6 -83 -35 -164 q-32 -79 -70 -123q-52 -61 -110 -69q-44 -6 -82 14q-27 17 -51 51q-32 56 -43 127q-16 88 -4 193zM12 924q27 70 86 82q34 6 78 -15q49 -32 68 -10q1 3 4 6q7 12 22 19q20 13 43 -4t19 -39q-11 -40 -41 -60q-34 -19 -49 -20q-33 -4 -82 18q-43 18 -45 19l-2 -2q-2 0 -2 -3 l-5 -2q-1 -4 -4 -4q-2 -2 -2 -4q-7 -11 -14 -20q-6 -12 -20.5 -16.5t-26.5 1.5q-41 14 -27 54zM20 496q-24 -258 62 -291q57 -23 103 59t55 166v10q-38 -18 -96 -14q-60 5 -97 37q-11 7 -27 33zM90 612q-8 -35 6 -71q34 -47 150 -9q0 15 -10 74q-31 90 -89 78 q-47 -10 -57 -72zM100 911l2 2q-2 0 -2 -2z" />
<glyph unicode="&#xf6;" horiz-adv-x="528" d="M-63 500q11 87 32 164q6 13 13 20q-2 -2 -2.5 -2t0.5 2q2 3 6 8q14 14 39 10q2 0 2 -2h2q39 78 100 88q52 10 92 -14q37 -22 64 -63q36 -51 47 -144q4 0 6 2q17 10 45 21q63 31 135 74q39 18 60 -17q10 -14 5 -32.5t-22 -26.5q-128 -75 -229 -117q-6 -83 -35 -164 q-32 -79 -70 -123q-52 -61 -110 -69q-44 -6 -82 14q-27 17 -51 51q-32 56 -43 127q-16 88 -4 193zM20 496q-24 -258 62 -291q57 -23 103 59t55 166v10q-38 -18 -96 -14q-60 5 -97 37q-11 7 -27 33zM49 936q11 41 45 47q21 2 41 -14q28 -20 5 -53q-23 -34 -58 -29 q-43 6 -33 49zM90 612q-8 -35 6 -71q34 -47 150 -9q0 15 -10 74q-31 90 -89 78q-47 -10 -57 -72zM211 893q-33 33 0 70q33 39 65 10q10 -10 17 -21l-2 4q-2 2 -2 5q6 -12 6 -23q0 -31 -29 -49q-29 -19 -55 4z" />
<glyph unicode="&#xf8;" horiz-adv-x="528" d="M-63 500q11 87 32 164q1 1 5 7.5t6 8.5q6 8 6 12q14 14 39 10q2 0 2 -2h2q39 78 100 88q52 10 92 -14q10 -6 12 -8q0 4 3 6q18 31 47 25q15 -2 25.5 -12.5t10.5 -24.5q2 -6 3 -19q-5 -19 -15 -26l-10 -25q23 -45 35 -123q4 0 6 2q17 10 45 21q63 31 135 74q39 18 60 -17 q10 -14 5 -32.5t-22 -26.5q-128 -75 -229 -117q-6 -83 -35 -164q-32 -79 -70 -123q-52 -61 -110 -69q-32 -6 -64 4q0 -1 -6 -15q-19 -14 -27 -14q-4 0 -10 -2q-20 8 -26 12q-11 11 -11 13l-4 6v4q-10 18 -2 63l4 17q-19 46 -30 104q-16 88 -4 193zM16 328l56 116 q-4 4 -13 10t-12 9q-11 7 -27 33q-10 -92 -4 -168zM68 213q2 -2 7 -4.5l7 -3.5q57 -23 103 59t55 166v10q-36 -16 -80 -16l-15 -29q-10 -19 -35 -78q-31 -70 -42 -104zM96 541q8 -13 15 -17l61 123q0 1 2 4.5l6 10.5l8 14q-45 29 -81 -20q-36 -50 -11 -115zM211 520l35 12 q0 22 -6 48z" />
<glyph unicode="&#xf9;" horiz-adv-x="673" d="M-41 258q6 130 6 133q10 100 10 101q12 156 39 249q6 31 39 31q24 0 35 -20q6 -10 6 -17q2 -3 2.5 -17t1.5 -18q0 -16 -14 -24q-30 -123 -37 -369q0 -112 10 -133q13 -38 45 -6q59 77 213 397q20 42 47 98.5t33 69.5q44 99 86 148q17 18 42 11q26 -8 32 -30q10 -34 8 -65 q0 -14 -4 -37q0 -3 -3 -25t-5 -42q-7 -62 -8 -85q-1 -25 -10 -129q-10 -93 -11 -129q-14 -231 -6 -405q1 -35 10 -162q0 -5 2 -26.5t2 -28.5v-7q13 -5 17 -14q11 -14 6 -35q0 -18 -6 -34q-2 -14 -15 -23.5t-28 -9.5q-27 0 -37 22q-16 30 -25 97q-6 40 -6 86q-11 122 -12 241 q0 204 18 406q7 98 17 200v7q-11 -23 -31.5 -65t-26.5 -56q-5 -11 -23.5 -48.5t-31.5 -64.5q-45 -91 -59 -123q-62 -136 -117 -194q-45 -49 -96 -52q-36 0 -56 17q-31 19 -43 57q-16 38 -16 123zM158 1063q4 19 18 28t31 1q8 -2 22 -17l4 -4l5 -4q19 -19 34 -27 q6 -6 33 -24.5t31 -22.5q35 -27 11 -59q-25 -32 -62 -10q-9 9 -70 53q-23 21 -35 37q-26 26 -22 49z" />
<glyph unicode="&#xfa;" horiz-adv-x="673" d="M-41 258q6 130 6 133q10 100 10 101q12 156 39 249q6 31 39 31q24 0 35 -20q6 -10 6 -17q2 -3 2.5 -17t1.5 -18q0 -16 -14 -24q-30 -123 -37 -369q0 -112 10 -133q13 -38 45 -6q59 77 213 397q20 42 47 98.5t33 69.5q44 99 86 148q17 18 42 11q26 -8 32 -30q10 -34 8 -65 q0 -14 -4 -37q0 -3 -3 -25t-5 -42q-7 -62 -8 -85q-1 -25 -10 -129q-10 -93 -11 -129q-14 -231 -6 -405q1 -35 10 -162q0 -5 2 -26.5t2 -28.5v-7q13 -5 17 -14q11 -14 6 -35q0 -18 -6 -34q-2 -14 -15 -23.5t-28 -9.5q-27 0 -37 22q-16 30 -25 97q-6 40 -6 86q-11 122 -12 241 q0 204 18 406q7 98 17 200v7q-11 -23 -31.5 -65t-26.5 -56q-5 -11 -23.5 -48.5t-31.5 -64.5q-45 -91 -59 -123q-62 -136 -117 -194q-45 -49 -96 -52q-36 0 -56 17q-31 19 -43 57q-16 38 -16 123zM147 914q-14 25 5 42q15 10 77 62q60 51 82 69q12 8 30.5 4t27.5 -18 q19 -31 -15 -57q-33 -21 -82 -60q-48 -41 -86 -59q-26 -8 -39 17z" />
<glyph unicode="&#xfb;" horiz-adv-x="673" d="M-41 258q6 130 6 133q10 100 10 101q12 156 39 249q6 31 39 31q24 0 35 -20q6 -10 6 -17q2 -3 2.5 -17t1.5 -18q0 -16 -14 -24q-30 -123 -37 -369q0 -112 10 -133q13 -38 45 -6q59 77 213 397q20 42 47 98.5t33 69.5q44 99 86 148q17 18 42 11q26 -8 32 -30q10 -34 8 -65 q0 -14 -4 -37q0 -3 -3 -25t-5 -42q-7 -62 -8 -85q-1 -25 -10 -129q-10 -93 -11 -129q-14 -231 -6 -405q1 -35 10 -162q0 -5 2 -26.5t2 -28.5v-7q13 -5 17 -14q11 -14 6 -35q0 -18 -6 -34q-2 -14 -15 -23.5t-28 -9.5q-27 0 -37 22q-16 30 -25 97q-6 40 -6 86q-11 122 -12 241 q0 204 18 406q7 98 17 200v7q-11 -23 -31.5 -65t-26.5 -56q-5 -11 -23.5 -48.5t-31.5 -64.5q-45 -91 -59 -123q-62 -136 -117 -194q-45 -49 -96 -52q-36 0 -56 17q-31 19 -43 57q-16 38 -16 123zM102 940q-14 23 7 43q20 20 53 64q44 53 76 57q55 10 96 -49q19 -31 28 -31h3 q2 -2 8 -2q16 -2 24.5 -19.5t3.5 -33.5q-7 -31 -41 -31q-49 0 -90 59q-4 4 -8 11t-8 9.5t-10 0.5q-24 -24 -31 -33q-3 -3 -17 -19t-25.5 -26.5t-20.5 -13.5q-32 -14 -48 14z" />
<glyph unicode="&#xfc;" horiz-adv-x="673" d="M-41 258q6 130 6 133q10 100 10 101q12 156 39 249q6 31 39 31q24 0 35 -20q6 -10 6 -17q2 -3 2.5 -17t1.5 -18q0 -16 -14 -24q-30 -123 -37 -369q0 -112 10 -133q13 -38 45 -6q59 77 213 397q20 42 47 98.5t33 69.5q44 99 86 148q17 18 42 11q26 -8 32 -30q10 -34 8 -65 q0 -14 -4 -37q0 -3 -3 -25t-5 -42q-7 -62 -8 -85q-1 -25 -10 -129q-10 -93 -11 -129q-14 -231 -6 -405q1 -35 10 -162q0 -5 2 -26.5t2 -28.5v-7q13 -5 17 -14q11 -14 6 -35q0 -18 -6 -34q-2 -14 -15 -23.5t-28 -9.5q-27 0 -37 22q-16 30 -25 97q-6 40 -6 86q-11 122 -12 241 q0 204 18 406q7 98 17 200v7q-11 -23 -31.5 -65t-26.5 -56q-5 -11 -23.5 -48.5t-31.5 -64.5q-45 -91 -59 -123q-62 -136 -117 -194q-45 -49 -96 -52q-36 0 -56 17q-31 19 -43 57q-16 38 -16 123zM162 1047q11 41 45 47q20 2 41 -15q28 -20 5 -53q-23 -34 -58 -29 q-44 6 -33 50zM324 1004q-33 33 0 69q33 39 65 10q9 -8 17 -20l-3 4q-2 2 -2 4q5 -11 7 -22q0 -31 -30 -49q-29 -19 -54 4z" />
<glyph unicode="&#xfd;" horiz-adv-x="1036" d="M-19 523q2 135 19 192q4 10 4 11l-4 -7q0 1 1 3.5t1 4.5q0 5 4 12q4 23 27.5 29t40.5 -10q13 -17 14 -29q2 -6 2 -14v-2q6 -26 -10 -39q-2 -8 -2 -17q-9 -87 -10 -104q-4 -55 0 -115q0 -143 51 -137t102 127q4 7 6 14l66 156q35 82 86 211q45 119 113 238q44 69 61 86 q55 55 102 24q48 -32 50 -125q2 -30 -5 -121q-13 -191 -47 -419q-4 -40 -28 -203q0 -3 -1 -11.5t-1 -9.5q104 122 217 224q68 62 116 98q21 15 113 84q14 8 31.5 3t25.5 -20q20 -35 -14 -57l-2 -2q-4 0 -92 -72q-71 -59 -113 -96q-169 -155 -307 -338v-8q-8 -24 -8 -53 l-6 -49q-1 -6 -7.5 -49.5t-7.5 -55.5q-17 -118 -30 -205q-62 -420 -113 -569q-22 -70 -53 -102q-19 -24 -45 -31q-7 -4 -27 -4q-25 0 -47 22q-42 40 -49 129q-10 94 22 293q18 96 49 191q52 164 152 374q34 66 86 152q41 251 68 483q7 68 12 103q9 108 16 207q0 14 3 58.5 t3 57.5v17l-2 2v4v8q-5 -5 -6 -8q-4 0 -4 -4l-4 -4q-23 -37 -57 -97q-33 -66 -58 -120q-99 -248 -204 -482q-22 -45 -64 -92q-40 -46 -80 -51q-59 -11 -98 33q-31 34 -45 88q-14 63 -13 193zM137 1131q-14 24 4 43q15 10 77 62q13 11 42 35t41 34q12 9 30.5 4.5t26.5 -19.5 q20 -32 -14 -57q-30 -19 -82 -59q-50 -43 -86 -60q-26 -8 -39 17zM293 -885v-6l2 -2q0 -2 1 -7.5t1 -6.5q1 -7 6 -21q0 -4 6 -10q2 2 2 4q17 28 36 88q18 59 27 107q20 106 25 128q4 21 8.5 45.5t7 37.5t3.5 20q21 112 35 205q5 30 26 178q-50 -97 -117 -295 q-82 -284 -69 -465z" />
<glyph unicode="&#xff;" horiz-adv-x="1036" d="M-19 523q2 135 19 192q4 10 4 11l-4 -7q0 1 1 3.5t1 4.5q0 5 4 12q4 23 27.5 29t40.5 -10q13 -17 14 -29q2 -6 2 -14v-2q6 -26 -10 -39q-2 -8 -2 -17q-9 -87 -10 -104q-4 -55 0 -115q0 -143 51 -137t102 127q4 7 6 14l66 156q35 82 86 211q45 119 113 238q44 69 61 86 q55 55 102 24q48 -32 50 -125q2 -30 -5 -121q-13 -191 -47 -419q-4 -40 -28 -203q0 -3 -1 -11.5t-1 -9.5q104 122 217 224q68 62 116 98q21 15 113 84q14 8 31.5 3t25.5 -20q20 -35 -14 -57l-2 -2q-4 0 -92 -72q-71 -59 -113 -96q-169 -155 -307 -338v-8q-8 -24 -8 -53 l-6 -49q-1 -6 -7.5 -49.5t-7.5 -55.5q-17 -118 -30 -205q-62 -420 -113 -569q-22 -70 -53 -102q-19 -24 -45 -31q-7 -4 -27 -4q-25 0 -47 22q-42 40 -49 129q-10 94 22 293q18 96 49 191q52 164 152 374q34 66 86 152q41 251 68 483q7 68 12 103q9 108 16 207q0 14 3 58.5 t3 57.5v17l-2 2v4v8q-5 -5 -6 -8q-4 0 -4 -4l-4 -4q-23 -37 -57 -97q-33 -66 -58 -120q-99 -248 -204 -482q-22 -45 -64 -92q-40 -46 -80 -51q-59 -11 -98 33q-31 34 -45 88q-14 63 -13 193zM156 1210q11 41 45 47q21 2 41 -14q27 -19 4 -53t-58 -29q-42 6 -32 49zM293 -885 v-6l2 -2q0 -2 1 -7.5t1 -6.5q1 -7 6 -21q0 -4 6 -10q2 2 2 4q17 28 36 88q18 59 27 107q20 106 25 128q4 21 8.5 45.5t7 37.5t3.5 20q21 112 35 205q5 30 26 178q-50 -97 -117 -295q-82 -284 -69 -465zM317 1167q-33 33 0 70q33 39 66 10q9 -9 16 -20l-2 4q-2 2 -2 4 q6 -12 6 -23q0 -31 -29 -49q-30 -18 -55 4z" />
<glyph unicode="&#x152;" horiz-adv-x="1454" d="M53 584q7 81 25 186q20 124 45 221q33 130 67 193q46 94 111 90q36 -4 41 -39q21 84 47 145q58 138 160 205q59 41 117 35q61 -10 106 -51q72 -63 115 -205q8 -21 8 -27h12q2 0 11 1t12 1h4l4 2h2q54 8 80 15l162 37q51 10 190 32l178 25q95 9 127 10q60 0 88 -14 q14 -8 19.5 -27.5t-2.5 -34.5q-20 -35 -60 -16h-2h-2q-2 2 -4 2h-12q-8 2 -16 2q-2 0 -101 -6q-201 -18 -344 -49q-37 -6 -102 -21q-66 -16 -80 -18l-31 -6q2 -20 -6 -62q-9 -45 -61 -258q5 5 25.5 23.5t27.5 25.5q34 27 63 0q13 -15 13.5 -33.5t-13.5 -31.5 q-85 -74 -90 -78l-63 -51l-4 -21q26 7 62 15l36 8q70 14 147 20q87 4 121 -20q35 -27 17 -59q-19 -34 -60 -15l-6 2l-12 4q-143 0 -320 -47q-22 -152 -71 -319l-11 -35l-6 -35q-72 -379 -33 -489q0 -2 2 -2v-2q1 0 5 -2h6q64 5 164 49q24 12 102 46q24 11 56.5 26t39.5 18 q74 35 244 102q167 59 227 74q51 12 103 18q41 4 75 -4q17 -4 27 -21.5t6 -33.5q-4 -18 -21.5 -27.5t-33.5 -3.5q-6 0 -12 2h-7q-105 0 -342 -92l-120 -47l-17 -6q0 -2 -2 -2t-2 -2l-29 -10l-55 -25l-176 -82q-102 -50 -156 -61q-102 -20 -145 22q-34 34 -41 109 q-2 31 2 104l4 39q-33 -60 -76 -119q-100 -125 -192 -141q-67 -12 -127 14q-52 19 -105 80q-82 95 -112 246q-41 190 -23 502zM143 594q-16 -164 4 -412v-6l3 -2v-4q0 -1 1 -7t1 -9l6 -33q22 -133 84 -211q0 -2 6 -8q53 -59 108.5 -68.5t103.5 29.5q46 37 91 95 q43 56 81 138q39 85 63 148q20 55 46 135q17 100 58 278q0 7 4 11q-69 -17 -84 14q-103 -39 -189 -18q-126 28 -182 178q-39 108 -29 258q6 62 19 114q-17 -23 -37 -20h-2l-2 -2l-10 -10q0 -2 -2 -2l-2 -4l-2 -5q-30 -41 -70 -182q-25 -95 -45 -221q-3 -9 -8 -51l-4 -27v-2 l-2 -6v-4q-4 -32 -9 -84zM412 1128q-23 -104 24 -257q20 -67 74 -101.5t129 -17.5l55 18l8 4l13 6l26 13q31 17 95 59q12 39 7 153q-5 111 -18 228q-13 115 -61 207q-46 90 -117 90h-2q-80 -14 -164 -162l-12 -31l-2 -2q0 -2 -2 -4q-4 -7 -4 -14q-14 -37 -23 -64 q-10 -39 -16 -67l-6 -35q0 -19 -4 -23zM913 1253q11 -81 11 -84l20 76q-10 4 -14 10q-10 -2 -17 -2z" />
<glyph unicode="&#x153;" horiz-adv-x="843" d="M-66 512q6 90 23 166l10 18l6 13q10 12 37 12q2 0 2 -2h2q34 77 97 94q53 14 92 -10q37 -18 67 -60l21 -34q33 92 71 153q44 75 99 119q72 61 143 53q36 -6 62 -32.5t34 -63.5q12 -71 -22 -162q-21 -66 -76 -143q-51 -74 -106 -101q-77 -45 -156 -28q-6 2 -8 2 q-5 -92 -23 -150q4 -108 42 -191q38 -84 110 -79q58 1 123 74q149 167 268 473q4 16 23.5 22t33.5 -4q27 -18 11 -61q-78 -195 -117 -264q-68 -126 -119 -187q-74 -92 -147 -125q-92 -41 -164 13q-96 62 -129 188q-49 -66 -107 -76q-47 -11 -82 11q-29 12 -55 47 q-36 54 -49 125q-23 87 -17 190zM18 514q-8 -260 78 -287q40 -16 75 26q34 41 52 109q0 30 8 105q-37 -18 -93 -16t-91 32q-8 6 -29 31zM80 629q-2 -33 12 -66q34 -43 150 0q-3 28 -15 74q-37 91 -94 72q-47 -17 -53 -80zM348 586h14q100 4 142 49q105 124 112 248 q4 55 -24 64q-29 9 -51 -13q-42 -28 -84 -88q-49 -75 -97 -215z" />
<glyph unicode="&#x178;" d="M49 653q18 310 96 584q7 27 36 30q28 3 42 -20q3 -3 6 -13t4 -11q10 -25 -14 -45q-84 -344 -84 -617q0 -218 70 -295q34 -41 94 -8t133 139q84 123 100 152q87 145 181 336q23 52 24 53q0 2 1 6t1 6q29 146 78 348q27 102 35 119q39 86 82 107q38 23 61 -17 q29 -45 9 -129q-7 -36 -33 -106q-52 -149 -123 -305l-25 -56q-6 -55 -31 -221q-24 -147 -30 -233l-25 -209q-33 -315 -45 -488q-9 -169 -10 -198v-72q0 -2 1 -11.5t1 -13.5v-6l2 -2q10 -43 -31 -55q-19 -4 -36 4.5t-19 26.5q-8 34 -8 67q-2 37 4 170q7 95 18 230 q13 156 48 479q8 69 18.5 159t13.5 115q-3 -8 -18 -35q-60 -108 -96 -163q-10 -17 -44 -66q-12 -17 -27 -38t-17 -25q-51 -75 -89 -111q-63 -63 -120 -72q-63 -11 -113 21q-40 28 -66 72q-41 78 -53 206q-8 102 -2 211zM412 1540q11 41 45 47q21 2 41 -14q27 -19 4 -53 t-58 -29q-42 6 -32 49zM573 1497q-33 33 0 70q33 39 66 10q11 -14 16 -21l-2 5q-2 2 -2 4q6 -12 6 -23q0 -31 -29 -49q-30 -18 -55 4z" />
<glyph unicode="&#x2000;" horiz-adv-x="956" />
<glyph unicode="&#x2001;" horiz-adv-x="1912" />
<glyph unicode="&#x2002;" horiz-adv-x="956" />
<glyph unicode="&#x2003;" horiz-adv-x="1912" />
<glyph unicode="&#x2004;" horiz-adv-x="637" />
<glyph unicode="&#x2005;" horiz-adv-x="478" />
<glyph unicode="&#x2006;" horiz-adv-x="318" />
<glyph unicode="&#x2007;" horiz-adv-x="318" />
<glyph unicode="&#x2008;" horiz-adv-x="239" />
<glyph unicode="&#x2009;" horiz-adv-x="382" />
<glyph unicode="&#x200a;" horiz-adv-x="106" />
<glyph unicode="&#x2010;" horiz-adv-x="688" d="M106 598q0 16 15.5 29.5t32.5 11.5h20h12l9 2q1 0 10 1t10 1q11 3 123 14q55 5 125 7q78 3 129 -13q39 -11 29 -51q-7 -31 -39 -31q-4 0 -52 3q-49 3 -73 3q-100 -5 -123 -8l-62 -6q-2 0 -13 -1t-15 -1h4q-2 -1 -6 -2q-7 0 -13 -2q-119 -18 -123 43z" />
<glyph unicode="&#x2011;" horiz-adv-x="688" d="M106 598q0 16 15.5 29.5t32.5 11.5h20h12l9 2q1 0 10 1t10 1q11 3 123 14q55 5 125 7q78 3 129 -13q39 -11 29 -51q-7 -31 -39 -31q-4 0 -52 3q-49 3 -73 3q-100 -5 -123 -8l-62 -6q-2 0 -13 -1t-15 -1h4q-2 -1 -6 -2q-7 0 -13 -2q-119 -18 -123 43z" />
<glyph unicode="&#x2012;" horiz-adv-x="688" d="M106 598q0 16 15.5 29.5t32.5 11.5h20h12l9 2q1 0 10 1t10 1q11 3 123 14q55 5 125 7q78 3 129 -13q39 -11 29 -51q-7 -31 -39 -31q-4 0 -52 3q-49 3 -73 3q-100 -5 -123 -8l-62 -6q-2 0 -13 -1t-15 -1h4q-2 -1 -6 -2q-7 0 -13 -2q-119 -18 -123 43z" />
<glyph unicode="&#x2013;" horiz-adv-x="1193" d="M106 598q0 16 30.5 29.5t64.5 11.5h40h23l18 2q2 0 20 1t20 1q22 3 243 14q109 5 248 7q155 3 256 -13q77 -11 57 -51q-14 -31 -77 -31q-8 0 -103 3q-97 3 -145 3q-198 -5 -243 -8l-123 -6q-4 0 -26 -1t-30 -1h8q-4 -1 -12 -2q-14 0 -25 -2q-236 -18 -244 43z" />
<glyph unicode="&#x2014;" horiz-adv-x="2217" d="M106 598q0 16 61.5 29.5t128.5 11.5h79h48l36 2q3 0 39 1t40 1q43 3 487 14q218 5 495 7q309 3 511 -13q155 -11 115 -51q-28 -31 -155 -31q-15 0 -206 3q-194 3 -289 3q-396 -5 -487 -8l-245 -6q-8 0 -52 -1t-59 -1h15q-7 -1 -23 -2q-28 0 -52 -2q-471 -18 -487 43z" />
<glyph unicode="&#x2018;" horiz-adv-x="256" d="M70 1221q-8 18 6 71q7 27 16 56q12 44 27 102q0 16 12 29q18 18 45 8t27 -37q-1 -42 -27 -125q-9 -37 -14 -57q-3 -5 -8 -29q-6 -20 -21 -35q-16 -15 -36.5 -8.5t-26.5 25.5z" />
<glyph unicode="&#x2019;" horiz-adv-x="256" d="M70 1221q-8 18 6 71q7 27 16 56q12 44 27 102q0 16 12 29q18 18 45 8t27 -37q-1 -42 -27 -125q-9 -37 -14 -57q-3 -5 -8 -29q-6 -20 -21 -35q-16 -15 -36.5 -8.5t-26.5 25.5z" />
<glyph unicode="&#x201c;" horiz-adv-x="446" d="M81 1183q-7 55 3 93q0 5 2.5 23.5t8.5 59.5t11 83q6 29 41 29q35 -2 39 -29q6 -30 -2 -74q-1 -11 -10 -84q-6 -74 -6 -78q0 -8 2 -14v-2q12 -20 0 -45q-16 -22 -37 -21q-44 1 -52 59zM221 1243q-6 43 9 120q14 79 14 105l2 9q0 1 1 8t1 10q6 29 38 29q30 0 38 -29 q6 -36 -4 -100q-11 -69 -11 -90q-1 -7 -1.5 -31t-2.5 -31q0 -18 -12 -30.5t-29 -12.5q-18 0 -30.5 12.5t-12.5 30.5z" />
<glyph unicode="&#x201d;" horiz-adv-x="446" d="M81 1183q-7 55 3 93q0 5 2.5 23.5t8.5 59.5t11 83q6 29 41 29q35 -2 39 -29q6 -30 -2 -74q-1 -11 -10 -84q-6 -74 -6 -78q0 -8 2 -14v-2q12 -20 0 -45q-16 -22 -37 -21q-44 1 -52 59zM221 1243q-6 43 9 120q14 79 14 105l2 9q0 1 1 8t1 10q6 29 38 29q30 0 38 -29 q6 -36 -4 -100q-11 -69 -11 -90q-1 -7 -1.5 -31t-2.5 -31q0 -18 -12 -30.5t-29 -12.5q-18 0 -30.5 12.5t-12.5 30.5z" />
<glyph unicode="&#x202f;" horiz-adv-x="382" />
<glyph unicode="&#x205f;" horiz-adv-x="478" />
<glyph unicode="&#x20ac;" horiz-adv-x="768" d="M25 485q1 8 2.5 11.5t5.5 10t5 7.5q3 6 19 12q24 9 48 15q11 3 20 6l25 86q-29 -4 -50 -4q-40 -20 -59 14q-10 22 -2 37q2 18 19.5 30.5t35.5 8.5l6 -2h4h15q50 9 67 14q2 3 7 14t6 13q51 114 112 194q52 69 80 92q51 46 96 60q63 14 117 -27q30 -25 41 -67q6 -22 6 -45 v-17v-20q-8 -35 -39 -35q-34 0 -39 35v4q5 38 -15 69q-19 30 -56 17q-95 -44 -183 -215q-26 -49 -28 -55q16 6 45 6q131 12 258 -2q37 -4 37 -37q0 -35 -37 -35q-269 -13 -344 -29l-6 -12q-2 -6 -12.5 -39t-12.5 -39q6 1 28.5 4.5t28.5 5.5q186 27 269 21q16 0 27.5 -11.5 t11.5 -25.5q0 -31 -29 -39q-25 -4 -105 -12q-55 -5 -138 -16q-55 -8 -113 -21q-4 -13 -9 -43q0 -2 -1 -6t-1 -6v-15q-4 -23 -4 -32q-2 -94 26.5 -146.5t77.5 -54.5q95 -4 212 94q75 64 153 160q10 14 29.5 13.5t32.5 -13.5q27 -27 0 -62q-5 -6 -6 -10l-9 -8q-1 -1 -6 -7 t-8 -9q-32 -38 -33 -39q-43 -48 -86 -84q-127 -106 -219 -127q-65 -16 -119 4q-72 31 -100 92q-49 97 -25 278q2 0 2 5q-15 -9 -24 -9q-16 -4 -32.5 5.5t-20.5 25.5q-5 4 -4 12zM573 926v6v-4v-2z" />
<glyph unicode="&#x25fc;" horiz-adv-x="870" d="M0 0v870h870v-870h-870z" />
</font>
</defs>
</svg>
